<svg width="102" height="59" viewBox="0 0 102 59" fill="none" xmlns="http://www.w3.org/2000/svg">
<path d="M46.332 15V2.22H50.976C52.368 2.22 53.532 2.508 54.468 3.084C55.404 3.648 56.106 4.416 56.574 5.388C57.042 6.348 57.276 7.416 57.276 8.592C57.276 9.888 57.018 11.016 56.502 11.976C55.986 12.936 55.254 13.68 54.306 14.208C53.358 14.736 52.248 15 50.976 15H46.332ZM54.774 8.592C54.774 7.764 54.624 7.038 54.324 6.414C54.024 5.778 53.592 5.286 53.028 4.938C52.464 4.578 51.78 4.398 50.976 4.398H48.816V12.822H50.976C51.792 12.822 52.482 12.642 53.046 12.282C53.61 11.91 54.036 11.406 54.324 10.77C54.624 10.122 54.774 9.396 54.774 8.592ZM58.9476 4.254V1.86H61.3596V4.254H58.9476ZM58.9476 15V5.568H61.3596V15H58.9476ZM67.2255 15.054C66.3855 15.054 65.6475 14.838 65.0115 14.406C64.3755 13.974 63.8775 13.398 63.5175 12.678C63.1575 11.946 62.9775 11.148 62.9775 10.284C62.9775 9.372 63.1635 8.55 63.5355 7.818C63.9075 7.074 64.4235 6.486 65.0835 6.054C65.7435 5.622 66.5055 5.406 67.3695 5.406C68.1015 5.406 68.7435 5.574 69.2955 5.91C69.8475 6.234 70.3035 6.672 70.6635 7.224V5.568H72.7695V14.55C72.7695 15.486 72.5415 16.284 72.0855 16.944C71.6415 17.616 71.0235 18.126 70.2315 18.474C69.4395 18.834 68.5395 19.014 67.5315 19.014C66.4995 19.014 65.6295 18.84 64.9215 18.492C64.2255 18.156 63.6255 17.676 63.1215 17.052L64.4355 15.774C64.7955 16.218 65.2455 16.566 65.7855 16.818C66.3375 17.07 66.9195 17.196 67.5315 17.196C68.0355 17.196 68.4975 17.1 68.9175 16.908C69.3495 16.728 69.6975 16.44 69.9615 16.044C70.2255 15.66 70.3575 15.162 70.3575 14.55V13.362C70.0455 13.902 69.6015 14.322 69.0255 14.622C68.4615 14.91 67.8615 15.054 67.2255 15.054ZM68.0355 13.128C68.5635 13.128 69.0375 12.972 69.4575 12.66C69.8895 12.348 70.1895 11.976 70.3575 11.544V9.294C70.1415 8.742 69.7995 8.298 69.3315 7.962C68.8755 7.626 68.3955 7.458 67.8915 7.458C67.3995 7.458 66.9675 7.596 66.5955 7.872C66.2355 8.148 65.9535 8.508 65.7495 8.952C65.5455 9.384 65.4435 9.852 65.4435 10.356C65.4435 10.872 65.5575 11.34 65.7855 11.76C66.0135 12.18 66.3195 12.516 66.7035 12.768C67.0995 13.008 67.5435 13.128 68.0355 13.128ZM74.9437 4.254V1.86H77.3557V4.254H74.9437ZM74.9437 15V5.568H77.3557V15H74.9437ZM85.1836 14.514C84.8596 14.658 84.4576 14.802 83.9776 14.946C83.5096 15.09 83.0236 15.162 82.5196 15.162C82.0756 15.162 81.6676 15.084 81.2956 14.928C80.9236 14.772 80.6236 14.526 80.3956 14.19C80.1796 13.842 80.0716 13.392 80.0716 12.84V7.422H78.8296V5.568H80.0716V2.508H82.4836V5.568H84.4636V7.422H82.4836V12.03C82.4836 12.354 82.5676 12.588 82.7356 12.732C82.9156 12.876 83.1316 12.948 83.3836 12.948C83.6356 12.948 83.8816 12.906 84.1216 12.822C84.3616 12.738 84.5536 12.666 84.6976 12.606L85.1836 14.514ZM85.7918 12.21C85.7918 11.598 85.9598 11.064 86.2958 10.608C86.6438 10.14 87.1238 9.78 87.7358 9.528C88.3478 9.276 89.0498 9.15 89.8418 9.15C90.2378 9.15 90.6398 9.186 91.0478 9.258C91.4558 9.318 91.8098 9.408 92.1098 9.528V9.024C92.1098 8.424 91.9298 7.962 91.5698 7.638C91.2218 7.314 90.6998 7.152 90.0038 7.152C89.4878 7.152 88.9958 7.242 88.5278 7.422C88.0598 7.602 87.5678 7.866 87.0518 8.214L86.2778 6.63C86.9018 6.222 87.5378 5.916 88.1858 5.712C88.8458 5.508 89.5358 5.406 90.2558 5.406C91.5998 5.406 92.6438 5.742 93.3878 6.414C94.1438 7.086 94.5218 8.046 94.5218 9.294V12.3C94.5218 12.564 94.5638 12.75 94.6478 12.858C94.7318 12.954 94.8818 13.014 95.0978 13.038V15C94.8818 15.048 94.6838 15.078 94.5038 15.09C94.3358 15.114 94.1918 15.126 94.0718 15.126C93.5918 15.126 93.2258 15.018 92.9738 14.802C92.7218 14.586 92.5718 14.322 92.5238 14.01L92.4698 13.524C92.0498 14.064 91.5338 14.478 90.9218 14.766C90.3218 15.042 89.7038 15.18 89.0678 15.18C88.4318 15.18 87.8678 15.054 87.3758 14.802C86.8838 14.538 86.4938 14.184 86.2058 13.74C85.9298 13.284 85.7918 12.774 85.7918 12.21ZM91.6598 12.696C91.9598 12.408 92.1098 12.132 92.1098 11.868V10.914C91.4858 10.662 90.8558 10.536 90.2198 10.536C89.5838 10.536 89.0678 10.674 88.6718 10.95C88.2758 11.214 88.0778 11.568 88.0778 12.012C88.0778 12.372 88.2218 12.696 88.5098 12.984C88.7978 13.272 89.2118 13.416 89.7518 13.416C90.1118 13.416 90.4598 13.35 90.7958 13.218C91.1438 13.086 91.4318 12.912 91.6598 12.696ZM96.7577 1.86H99.1697V11.976C99.1697 12.42 99.2417 12.714 99.3857 12.858C99.5297 13.002 99.7277 13.074 99.9797 13.074C100.172 13.074 100.37 13.05 100.574 13.002C100.778 12.954 100.958 12.894 101.114 12.822L101.438 14.658C101.114 14.814 100.736 14.934 100.304 15.018C99.8717 15.102 99.4817 15.144 99.1337 15.144C98.3777 15.144 97.7897 14.946 97.3697 14.55C96.9617 14.142 96.7577 13.566 96.7577 12.822V1.86Z" fill="white"/>
<path d="M60.876 37.612V41H47.072V21.12H60.624V24.508H50.936V29.296H59.308V32.432H50.936V37.612H60.876ZM65.9324 21.12L71.3084 36.408L76.6284 21.12H80.6884L73.1564 41H69.4324L61.8724 21.12H65.9324ZM90.5287 41.14C89.0727 41.14 87.7473 40.86 86.5527 40.3C85.3767 39.74 84.3593 38.984 83.5007 38.032C82.6607 37.0613 82.0073 35.9787 81.5407 34.784C81.074 33.5707 80.8407 32.3293 80.8407 31.06C80.8407 29.7347 81.0833 28.4747 81.5687 27.28C82.054 26.0667 82.7353 24.9933 83.6127 24.06C84.49 23.108 85.5167 22.3613 86.6927 21.82C87.8873 21.26 89.194 20.98 90.6127 20.98C92.05 20.98 93.3567 21.2693 94.5327 21.848C95.7273 22.4267 96.7447 23.2013 97.5847 24.172C98.4433 25.1427 99.0967 26.2347 99.5447 27.448C100.011 28.6427 100.245 29.8653 100.245 31.116C100.245 32.4227 100.002 33.6827 99.5167 34.896C99.0313 36.0907 98.35 37.164 97.4727 38.116C96.614 39.0493 95.5873 39.7867 94.3927 40.328C93.2167 40.8693 91.9287 41.14 90.5287 41.14ZM84.7607 31.06C84.7607 32.2173 84.9847 33.3 85.4327 34.308C85.8993 35.316 86.562 36.1373 87.4207 36.772C88.298 37.4067 89.3433 37.724 90.5567 37.724C91.8073 37.724 92.862 37.3973 93.7207 36.744C94.5793 36.0907 95.2327 35.2507 95.6807 34.224C96.1287 33.1973 96.3527 32.1427 96.3527 31.06C96.3527 29.9027 96.1193 28.82 95.6527 27.812C95.186 26.804 94.514 25.992 93.6367 25.376C92.778 24.7413 91.7513 24.424 90.5567 24.424C89.306 24.424 88.2513 24.7507 87.3927 25.404C86.534 26.0573 85.8807 26.8973 85.4327 27.924C84.9847 28.932 84.7607 29.9773 84.7607 31.06Z" fill="white"/>
<path d="M19.7047 0.000709441H0.000976562L4.14647 4.33636H19.7047C23.9178 4.33636 27.9581 6.09161 30.9372 9.21598C33.9162 12.3404 35.5899 16.5779 35.5899 20.9964C35.5899 25.415 33.9162 29.6526 30.9372 32.7769C27.9581 35.9012 23.9178 37.6566 19.7047 37.6566H9.99245L13.7853 33.6843H19.7075C22.9151 33.6843 25.9913 32.348 28.2593 29.9692C30.5276 27.5904 31.8019 24.3641 31.8019 21C31.8019 17.6359 30.5276 14.4096 28.2593 12.0308C25.9913 9.65204 22.9151 8.31567 19.7075 8.31567H7.93223L12.1674 12.7546L17.3911 18.2288H19.7047C20.4043 18.2288 21.0751 18.5202 21.5698 19.039C22.0644 19.5578 22.3423 20.2614 22.3423 20.995C22.3423 21.7287 22.0644 22.4323 21.5698 22.951C21.0751 23.4698 20.4043 23.7612 19.7047 23.7612H17.3982L13.163 28.2048H19.7047C20.6069 28.2048 21.5002 28.0184 22.3337 27.6563C23.1671 27.2942 23.9244 26.7636 24.5623 26.0945C25.2002 25.4255 25.7062 24.6313 26.0515 23.7571C26.3967 22.883 26.5744 21.9461 26.5744 21C26.5744 20.0538 26.3967 19.1169 26.0515 18.2428C25.7062 17.3687 25.2002 16.5745 24.5623 15.9054C23.9244 15.2364 23.1671 14.7057 22.3337 14.3436C21.5002 13.9815 20.6069 13.7952 19.7047 13.7952H19.01L18.0188 12.7539H18.0445L19.7047 12.7493C21.791 12.7493 23.7919 13.6185 25.2671 15.1657C26.7424 16.7129 27.5712 18.8114 27.5712 20.9995C27.5712 23.1875 26.7424 25.286 25.2671 26.8332C23.7919 28.3804 21.791 29.2497 19.7047 29.2497H12.1616L4.14783 37.6557L0.00537603 42H19.7047C25.0152 42 30.1083 39.7874 33.8634 35.8492C37.6185 31.9109 39.7279 26.5695 39.7279 21C39.7279 15.4304 37.6185 10.089 33.8634 6.15076C30.1083 2.21249 25.0152 0 19.7047 0V0.000709441Z" fill="white"/>
<path d="M14.3718 20.9981L0 5.92554V36.0737L4.14515 31.726L14.3718 20.9981Z" fill="#FFCA10"/>
<path d="M0.264 47.8C0.264 47.544 0.338667 47.3227 0.488 47.136C0.637333 46.944 0.842667 46.7947 1.104 46.688C1.37067 46.5813 1.67733 46.528 2.024 46.528C2.22667 46.528 2.43733 46.5467 2.656 46.584C2.87467 46.616 3.06933 46.6613 3.24 46.72V46.368C3.24 46.016 3.136 45.736 2.928 45.528C2.72 45.32 2.432 45.216 2.064 45.216C1.84533 45.216 1.62667 45.2587 1.408 45.344C1.18933 45.424 0.962667 45.544 0.728 45.704L0.52 45.32C0.792 45.1333 1.05867 44.9947 1.32 44.904C1.58133 44.808 1.848 44.76 2.12 44.76C2.632 44.76 3.03733 44.9067 3.336 45.2C3.63467 45.4933 3.784 45.8987 3.784 46.416V48.344C3.784 48.488 3.85067 48.5627 3.984 48.568V49C3.86667 49.016 3.784 49.0213 3.736 49.016C3.60267 49.0107 3.50133 48.968 3.432 48.888C3.36267 48.808 3.32533 48.7227 3.32 48.632L3.312 48.328C3.12533 48.568 2.88267 48.7547 2.584 48.888C2.28533 49.016 1.98133 49.08 1.672 49.08C1.4 49.08 1.15733 49.024 0.944 48.912C0.730667 48.7947 0.562667 48.64 0.44 48.448C0.322667 48.2507 0.264 48.0347 0.264 47.8ZM3.056 48.12C3.17867 47.976 3.24 47.8427 3.24 47.72V47.112C2.872 46.968 2.488 46.896 2.088 46.896C1.69867 46.896 1.384 46.9733 1.144 47.128C0.904 47.2827 0.784 47.4933 0.784 47.76C0.784 47.9893 0.872 48.1973 1.048 48.384C1.22933 48.5707 1.48 48.664 1.8 48.664C2.06133 48.664 2.304 48.6133 2.528 48.512C2.75733 48.4107 2.93333 48.28 3.056 48.12ZM4.95138 49V44.832H7.43938V45.32H5.49538V49H4.95138ZM10.0016 49.08C9.60156 49.08 9.24423 48.9813 8.92956 48.784C8.6149 48.5867 8.3669 48.3227 8.18556 47.992C8.00423 47.6613 7.91356 47.2987 7.91356 46.904C7.91356 46.5147 8.00156 46.1573 8.17756 45.832C8.3589 45.5067 8.6069 45.248 8.92156 45.056C9.23623 44.8587 9.59356 44.76 9.99356 44.76C10.4042 44.76 10.7642 44.8587 11.0736 45.056C11.3829 45.2533 11.6229 45.5147 11.7936 45.84C11.9696 46.16 12.0576 46.512 12.0576 46.896C12.0576 46.9813 12.0549 47.0533 12.0496 47.112H8.48156C8.50823 47.4107 8.59356 47.6773 8.73756 47.912C8.88156 48.1413 9.06556 48.3253 9.28956 48.464C9.51356 48.5973 9.7589 48.664 10.0256 48.664C10.2976 48.664 10.5536 48.5947 10.7936 48.456C11.0336 48.3173 11.2042 48.136 11.3056 47.912L11.7776 48.04C11.6922 48.2427 11.5589 48.424 11.3776 48.584C11.2016 48.7387 10.9962 48.8613 10.7616 48.952C10.5269 49.0373 10.2736 49.08 10.0016 49.08ZM8.46556 46.72H11.5456C11.5242 46.4213 11.4416 46.1573 11.2976 45.928C11.1536 45.6933 10.9696 45.512 10.7456 45.384C10.5216 45.2507 10.2736 45.184 10.0016 45.184C9.72956 45.184 9.48156 45.2507 9.25756 45.384C9.03356 45.512 8.84956 45.6933 8.70556 45.928C8.5669 46.1573 8.4869 46.4213 8.46556 46.72ZM12.8889 49V44.832H13.4329V46.624H15.8169V44.832H16.3609V49H15.8169V47.112H13.4329V49H12.8889ZM18.6009 49V45.32H17.1129V44.832H20.6329V45.32H19.1449V49H18.6009ZM23.1814 49.08C22.7761 49.08 22.4161 48.9813 22.1014 48.784C21.7868 48.5813 21.5388 48.3173 21.3574 47.992C21.1761 47.6613 21.0854 47.2987 21.0854 46.904C21.0854 46.5093 21.1734 46.152 21.3494 45.832C21.5254 45.5067 21.7708 45.248 22.0854 45.056C22.4001 44.8587 22.7628 44.76 23.1734 44.76C23.5628 44.76 23.9041 44.8507 24.1974 45.032C24.4961 45.208 24.7201 45.448 24.8694 45.752L24.3414 45.92C24.2241 45.7067 24.0588 45.5413 23.8454 45.424C23.6374 45.3013 23.4054 45.24 23.1494 45.24C22.8668 45.24 22.6108 45.312 22.3814 45.456C22.1574 45.6 21.9761 45.8 21.8374 46.056C21.7041 46.3067 21.6374 46.5893 21.6374 46.904C21.6374 47.2187 21.7068 47.504 21.8454 47.76C21.9841 48.016 22.1681 48.2213 22.3974 48.376C22.6268 48.5253 22.8801 48.6 23.1574 48.6C23.3388 48.6 23.5148 48.568 23.6854 48.504C23.8561 48.44 24.0028 48.3547 24.1254 48.248C24.2481 48.136 24.3308 48.016 24.3734 47.888L24.9094 48.048C24.8348 48.2453 24.7121 48.424 24.5414 48.584C24.3708 48.7387 24.1681 48.8613 23.9334 48.952C23.6988 49.0373 23.4481 49.08 23.1814 49.08ZM26.8041 49V45.32H25.3161V44.832H28.8361V45.32H27.3481V49H26.8041ZM29.5686 49V44.832H31.6486C31.8832 44.832 32.0806 44.8827 32.2406 44.984C32.4006 45.08 32.5206 45.208 32.6006 45.368C32.6859 45.5227 32.7286 45.6853 32.7286 45.856C32.7286 46.08 32.6726 46.2827 32.5606 46.464C32.4539 46.64 32.3019 46.7733 32.1046 46.864C32.3446 46.928 32.5392 47.0533 32.6886 47.24C32.8379 47.4267 32.9126 47.6453 32.9126 47.896C32.9126 48.232 32.7926 48.5013 32.5526 48.704C32.3179 48.9013 32.0166 49 31.6486 49H29.5686ZM30.0886 46.712H31.5046C31.7126 46.712 31.8806 46.6347 32.0086 46.48C32.1419 46.32 32.2086 46.1413 32.2086 45.944C32.2086 45.752 32.1446 45.584 32.0166 45.44C31.8939 45.296 31.7339 45.224 31.5366 45.224H30.0886V46.712ZM30.0886 48.608H31.6326C31.8459 48.608 32.0246 48.5307 32.1686 48.376C32.3126 48.216 32.3846 48.04 32.3846 47.848C32.3846 47.64 32.3152 47.4613 32.1766 47.312C32.0379 47.1627 31.8672 47.088 31.6646 47.088H30.0886V48.608ZM35.6338 49.08C35.2338 49.08 34.8765 48.9813 34.5618 48.784C34.2525 48.5867 34.0098 48.3253 33.8338 48C33.6578 47.6693 33.5698 47.312 33.5698 46.928C33.5698 46.5387 33.6578 46.1813 33.8338 45.856C34.0151 45.5253 34.2605 45.2613 34.5698 45.064C34.8845 44.8613 35.2391 44.76 35.6338 44.76C36.0338 44.76 36.3885 44.8613 36.6978 45.064C37.0125 45.2613 37.2578 45.5253 37.4338 45.856C37.6151 46.1813 37.7058 46.5387 37.7058 46.928C37.7058 47.312 37.6178 47.6693 37.4418 48C37.2658 48.3253 37.0205 48.5867 36.7058 48.784C36.3965 48.9813 36.0391 49.08 35.6338 49.08ZM34.1218 46.936C34.1218 47.2453 34.1885 47.528 34.3218 47.784C34.4605 48.0347 34.6445 48.2347 34.8738 48.384C35.1031 48.528 35.3565 48.6 35.6338 48.6C35.9111 48.6 36.1645 48.5253 36.3938 48.376C36.6231 48.2267 36.8071 48.024 36.9458 47.768C37.0845 47.512 37.1538 47.2293 37.1538 46.92C37.1538 46.6107 37.0845 46.328 36.9458 46.072C36.8071 45.816 36.6231 45.6133 36.3938 45.464C36.1645 45.3147 35.9111 45.24 35.6338 45.24C35.3618 45.24 35.1111 45.3173 34.8818 45.472C34.6525 45.6213 34.4685 45.824 34.3298 46.08C34.1911 46.336 34.1218 46.6213 34.1218 46.936ZM40.6467 49V44.832H41.1907V46.616H41.8147L43.2147 44.832H43.8387L42.2467 46.856L44.0387 49H43.3987L41.8147 47.12H41.1907V49H40.6467ZM46.3682 49.08C45.9682 49.08 45.6109 48.9813 45.2962 48.784C44.9869 48.5867 44.7442 48.3253 44.5682 48C44.3922 47.6693 44.3042 47.312 44.3042 46.928C44.3042 46.5387 44.3922 46.1813 44.5682 45.856C44.7495 45.5253 44.9949 45.2613 45.3042 45.064C45.6189 44.8613 45.9735 44.76 46.3682 44.76C46.7682 44.76 47.1229 44.8613 47.4322 45.064C47.7469 45.2613 47.9922 45.5253 48.1682 45.856C48.3495 46.1813 48.4402 46.5387 48.4402 46.928C48.4402 47.312 48.3522 47.6693 48.1762 48C48.0002 48.3253 47.7549 48.5867 47.4402 48.784C47.1309 48.9813 46.7735 49.08 46.3682 49.08ZM44.8562 46.936C44.8562 47.2453 44.9229 47.528 45.0562 47.784C45.1949 48.0347 45.3789 48.2347 45.6082 48.384C45.8375 48.528 46.0909 48.6 46.3682 48.6C46.6455 48.6 46.8989 48.5253 47.1282 48.376C47.3575 48.2267 47.5415 48.024 47.6802 47.768C47.8189 47.512 47.8882 47.2293 47.8882 46.92C47.8882 46.6107 47.8189 46.328 47.6802 46.072C47.5415 45.816 47.3575 45.6133 47.1282 45.464C46.8989 45.3147 46.6455 45.24 46.3682 45.24C46.0962 45.24 45.8455 45.3173 45.6162 45.472C45.3869 45.6213 45.2029 45.824 45.0642 46.08C44.9255 46.336 44.8562 46.6213 44.8562 46.936ZM49.342 49V44.832H49.902L51.558 47.704L53.222 44.832H53.758V49H53.238V45.648L51.734 48.256H51.382L49.862 45.648V49H49.342ZM54.9514 49V44.832H58.3034V49H57.7594V45.32H55.4954V49H54.9514ZM59.1063 49.024V48.528C59.2449 48.528 59.3703 48.4907 59.4823 48.416C59.5996 48.3413 59.7009 48.2107 59.7863 48.024C59.8769 47.8373 59.9489 47.5787 60.0023 47.248C60.0556 46.9173 60.0903 46.4987 60.1063 45.992L60.1543 44.832H62.8583V49H62.3143V45.32H60.6343L60.6183 46.04C60.5916 46.8133 60.5196 47.416 60.4023 47.848C60.2849 48.28 60.1169 48.584 59.8983 48.76C59.6849 48.9307 59.4209 49.0187 59.1063 49.024ZM65.8609 49.08C65.4609 49.08 65.1036 48.9813 64.7889 48.784C64.4743 48.5867 64.2263 48.3227 64.0449 47.992C63.8636 47.6613 63.7729 47.2987 63.7729 46.904C63.7729 46.5147 63.8609 46.1573 64.0369 45.832C64.2183 45.5067 64.4663 45.248 64.7809 45.056C65.0956 44.8587 65.4529 44.76 65.8529 44.76C66.2636 44.76 66.6236 44.8587 66.9329 45.056C67.2423 45.2533 67.4823 45.5147 67.6529 45.84C67.8289 46.16 67.9169 46.512 67.9169 46.896C67.9169 46.9813 67.9143 47.0533 67.9089 47.112H64.3409C64.3676 47.4107 64.4529 47.6773 64.5969 47.912C64.7409 48.1413 64.9249 48.3253 65.1489 48.464C65.3729 48.5973 65.6183 48.664 65.8849 48.664C66.1569 48.664 66.4129 48.5947 66.6529 48.456C66.8929 48.3173 67.0636 48.136 67.1649 47.912L67.6369 48.04C67.5516 48.2427 67.4183 48.424 67.2369 48.584C67.0609 48.7387 66.8556 48.8613 66.6209 48.952C66.3863 49.0373 66.1329 49.08 65.8609 49.08ZM64.3249 46.72H67.4049C67.3836 46.4213 67.3009 46.1573 67.1569 45.928C67.0129 45.6933 66.8289 45.512 66.6049 45.384C66.3809 45.2507 66.1329 45.184 65.8609 45.184C65.5889 45.184 65.3409 45.2507 65.1169 45.384C64.8929 45.512 64.7089 45.6933 64.5649 45.928C64.4263 46.1573 64.3463 46.4213 64.3249 46.72ZM68.7483 49V44.832H69.2923V46.616H69.9163L71.3163 44.832H71.9403L70.3483 46.856L72.1403 49H71.5003L69.9163 47.12H69.2923V49H68.7483ZM74.5018 49.08C74.0964 49.08 73.7364 48.9813 73.4218 48.784C73.1071 48.5813 72.8591 48.3173 72.6778 47.992C72.4964 47.6613 72.4058 47.2987 72.4058 46.904C72.4058 46.5093 72.4938 46.152 72.6698 45.832C72.8458 45.5067 73.0911 45.248 73.4058 45.056C73.7204 44.8587 74.0831 44.76 74.4938 44.76C74.8831 44.76 75.2244 44.8507 75.5178 45.032C75.8164 45.208 76.0404 45.448 76.1898 45.752L75.6618 45.92C75.5444 45.7067 75.3791 45.5413 75.1658 45.424C74.9578 45.3013 74.7258 45.24 74.4698 45.24C74.1871 45.24 73.9311 45.312 73.7018 45.456C73.4778 45.6 73.2964 45.8 73.1578 46.056C73.0244 46.3067 72.9578 46.5893 72.9578 46.904C72.9578 47.2187 73.0271 47.504 73.1658 47.76C73.3044 48.016 73.4884 48.2213 73.7178 48.376C73.9471 48.5253 74.2004 48.6 74.4778 48.6C74.6591 48.6 74.8351 48.568 75.0058 48.504C75.1764 48.44 75.3231 48.3547 75.4458 48.248C75.5684 48.136 75.6511 48.016 75.6938 47.888L76.2298 48.048C76.1551 48.2453 76.0324 48.424 75.8618 48.584C75.6911 48.7387 75.4884 48.8613 75.2538 48.952C75.0191 49.0373 74.7684 49.08 74.5018 49.08ZM77.0764 49V44.832H77.6204V46.624H80.0044V44.832H80.5484V49H80.0044V47.112H77.6204V49H77.0764ZM83.5244 49.08C83.1244 49.08 82.7671 48.9813 82.4524 48.784C82.1431 48.5867 81.9004 48.3253 81.7244 48C81.5484 47.6693 81.4604 47.312 81.4604 46.928C81.4604 46.5387 81.5484 46.1813 81.7244 45.856C81.9058 45.5253 82.1511 45.2613 82.4604 45.064C82.7751 44.8613 83.1298 44.76 83.5244 44.76C83.9244 44.76 84.2791 44.8613 84.5884 45.064C84.9031 45.2613 85.1484 45.5253 85.3244 45.856C85.5058 46.1813 85.5964 46.5387 85.5964 46.928C85.5964 47.312 85.5084 47.6693 85.3324 48C85.1564 48.3253 84.9111 48.5867 84.5964 48.784C84.2871 48.9813 83.9298 49.08 83.5244 49.08ZM82.0124 46.936C82.0124 47.2453 82.0791 47.528 82.2124 47.784C82.3511 48.0347 82.5351 48.2347 82.7644 48.384C82.9938 48.528 83.2471 48.6 83.5244 48.6C83.8018 48.6 84.0551 48.5253 84.2844 48.376C84.5138 48.2267 84.6978 48.024 84.8364 47.768C84.9751 47.512 85.0444 47.2293 85.0444 46.92C85.0444 46.6107 84.9751 46.328 84.8364 46.072C84.6978 45.816 84.5138 45.6133 84.2844 45.464C84.0551 45.3147 83.8018 45.24 83.5244 45.24C83.2524 45.24 83.0018 45.3173 82.7724 45.472C82.5431 45.6213 82.3591 45.824 82.2204 46.08C82.0818 46.336 82.0124 46.6213 82.0124 46.936ZM86.4983 49V44.832H88.9863V45.32H87.0423V49H86.4983ZM91.5244 49.08C91.1244 49.08 90.7671 48.9813 90.4524 48.784C90.1431 48.5867 89.9004 48.3253 89.7244 48C89.5484 47.6693 89.4604 47.312 89.4604 46.928C89.4604 46.5387 89.5484 46.1813 89.7244 45.856C89.9058 45.5253 90.1511 45.2613 90.4604 45.064C90.7751 44.8613 91.1298 44.76 91.5244 44.76C91.9244 44.76 92.2791 44.8613 92.5884 45.064C92.9031 45.2613 93.1484 45.5253 93.3244 45.856C93.5058 46.1813 93.5964 46.5387 93.5964 46.928C93.5964 47.312 93.5084 47.6693 93.3324 48C93.1564 48.3253 92.9111 48.5867 92.5964 48.784C92.2871 48.9813 91.9298 49.08 91.5244 49.08ZM90.0124 46.936C90.0124 47.2453 90.0791 47.528 90.2124 47.784C90.3511 48.0347 90.5351 48.2347 90.7644 48.384C90.9938 48.528 91.2471 48.6 91.5244 48.6C91.8018 48.6 92.0551 48.5253 92.2844 48.376C92.5138 48.2267 92.6978 48.024 92.8364 47.768C92.9751 47.512 93.0444 47.2293 93.0444 46.92C93.0444 46.6107 92.9751 46.328 92.8364 46.072C92.6978 45.816 92.5138 45.6133 92.2844 45.464C92.0551 45.3147 91.8018 45.24 91.5244 45.24C91.2524 45.24 91.0018 45.3173 90.7724 45.472C90.5431 45.6213 90.3591 45.824 90.2204 46.08C90.0818 46.336 90.0124 46.6213 90.0124 46.936ZM0.592 57V52.84H1.136V56.264L3.672 52.832H4.16V57H3.616V53.632L1.12 57H0.592ZM5.342 57V52.832H5.886V54.624H8.27V52.832H8.814V57H8.27V55.112H5.886V57H5.342ZM11.0541 57V53.32H9.56606V52.832H13.0861V53.32H11.5981V57H11.0541ZM15.6266 57.08C15.2266 57.08 14.8692 56.9813 14.5546 56.784C14.2399 56.5867 13.9919 56.3227 13.8106 55.992C13.6292 55.6613 13.5386 55.2987 13.5386 54.904C13.5386 54.5147 13.6266 54.1573 13.8026 53.832C13.9839 53.5067 14.2319 53.248 14.5466 53.056C14.8612 52.8587 15.2186 52.76 15.6186 52.76C16.0292 52.76 16.3892 52.8587 16.6986 53.056C17.0079 53.2533 17.2479 53.5147 17.4186 53.84C17.5946 54.16 17.6826 54.512 17.6826 54.896C17.6826 54.9813 17.6799 55.0533 17.6746 55.112H14.1066C14.1332 55.4107 14.2186 55.6773 14.3626 55.912C14.5066 56.1413 14.6906 56.3253 14.9146 56.464C15.1386 56.5973 15.3839 56.664 15.6506 56.664C15.9226 56.664 16.1786 56.5947 16.4186 56.456C16.6586 56.3173 16.8292 56.136 16.9306 55.912L17.4026 56.04C17.3172 56.2427 17.1839 56.424 17.0026 56.584C16.8266 56.7387 16.6212 56.8613 16.3866 56.952C16.1519 57.0373 15.8986 57.08 15.6266 57.08ZM14.0906 54.72H17.1706C17.1492 54.4213 17.0666 54.1573 16.9226 53.928C16.7786 53.6933 16.5946 53.512 16.3706 53.384C16.1466 53.2507 15.8986 53.184 15.6266 53.184C15.3546 53.184 15.1066 53.2507 14.8826 53.384C14.6586 53.512 14.4746 53.6933 14.3306 53.928C14.1919 54.1573 14.1119 54.4213 14.0906 54.72ZM20.6499 57.08C20.3032 57.08 19.9912 56.9893 19.7139 56.808C19.4419 56.6267 19.2259 56.4027 19.0659 56.136V58.704H18.5219V52.832H19.0099V53.64C19.1752 53.3787 19.3939 53.168 19.6659 53.008C19.9432 52.8427 20.2419 52.76 20.5619 52.76C20.8499 52.76 21.1139 52.8213 21.3539 52.944C21.5939 53.0613 21.8019 53.2213 21.9779 53.424C22.1592 53.6267 22.2979 53.8587 22.3939 54.12C22.4899 54.376 22.5379 54.6427 22.5379 54.92C22.5379 55.3093 22.4579 55.6693 22.2979 56C22.1432 56.3253 21.9219 56.5867 21.6339 56.784C21.3512 56.9813 21.0232 57.08 20.6499 57.08ZM20.4979 56.6C20.8019 56.6 21.0632 56.52 21.2819 56.36C21.5059 56.1947 21.6792 55.984 21.8019 55.728C21.9245 55.472 21.9859 55.2027 21.9859 54.92C21.9859 54.6213 21.9165 54.344 21.7779 54.088C21.6392 53.832 21.4525 53.6267 21.2179 53.472C20.9885 53.3173 20.7272 53.24 20.4339 53.24C20.2525 53.24 20.0605 53.288 19.8579 53.384C19.6605 53.4747 19.4845 53.6 19.3299 53.76C19.1805 53.9147 19.0925 54.0853 19.0659 54.272V55.552C19.1885 55.8453 19.3805 56.0933 19.6419 56.296C19.9032 56.4987 20.1885 56.6 20.4979 56.6ZM23.4514 57V52.832H23.9954V54.624H26.3794V52.832H26.9234V57H26.3794V55.112H23.9954V57H23.4514ZM29.9234 57.08C29.5234 57.08 29.1661 56.9813 28.8514 56.784C28.5368 56.5867 28.2888 56.3227 28.1074 55.992C27.9261 55.6613 27.8354 55.2987 27.8354 54.904C27.8354 54.5147 27.9234 54.1573 28.0994 53.832C28.2808 53.5067 28.5288 53.248 28.8434 53.056C29.1581 52.8587 29.5154 52.76 29.9154 52.76C30.3261 52.76 30.6861 52.8587 30.9954 53.056C31.3048 53.2533 31.5448 53.5147 31.7154 53.84C31.8914 54.16 31.9794 54.512 31.9794 54.896C31.9794 54.9813 31.9768 55.0533 31.9714 55.112H28.4034C28.4301 55.4107 28.5154 55.6773 28.6594 55.912C28.8034 56.1413 28.9874 56.3253 29.2114 56.464C29.4354 56.5973 29.6808 56.664 29.9474 56.664C30.2194 56.664 30.4754 56.5947 30.7154 56.456C30.9554 56.3173 31.1261 56.136 31.2274 55.912L31.6994 56.04C31.6141 56.2427 31.4808 56.424 31.2994 56.584C31.1234 56.7387 30.9181 56.8613 30.6834 56.952C30.4488 57.0373 30.1954 57.08 29.9234 57.08ZM28.3874 54.72H31.4674C31.4461 54.4213 31.3634 54.1573 31.2194 53.928C31.0754 53.6933 30.8914 53.512 30.6674 53.384C30.4434 53.2507 30.1954 53.184 29.9234 53.184C29.6514 53.184 29.4034 53.2507 29.1794 53.384C28.9554 53.512 28.7714 53.6933 28.6274 53.928C28.4888 54.1573 28.4088 54.4213 28.3874 54.72ZM33.8588 57V53.32H32.3708V52.832H35.8908V53.32H34.4028V57H33.8588ZM36.2388 55.072V54.568H38.5748V55.072H36.2388ZM39.6858 57V52.832H40.2458L41.9018 55.704L43.5658 52.832H44.1018V57H43.5818V53.648L42.0778 56.256H41.7258L40.2058 53.648V57H39.6858ZM44.9671 55.8C44.9671 55.544 45.0418 55.3227 45.1911 55.136C45.3405 54.944 45.5458 54.7947 45.8071 54.688C46.0738 54.5813 46.3805 54.528 46.7271 54.528C46.9298 54.528 47.1405 54.5467 47.3591 54.584C47.5778 54.616 47.7725 54.6613 47.9431 54.72V54.368C47.9431 54.016 47.8391 53.736 47.6311 53.528C47.4231 53.32 47.1351 53.216 46.7671 53.216C46.5485 53.216 46.3298 53.2587 46.1111 53.344C45.8925 53.424 45.6658 53.544 45.4311 53.704L45.2231 53.32C45.4951 53.1333 45.7618 52.9947 46.0231 52.904C46.2845 52.808 46.5511 52.76 46.8231 52.76C47.3351 52.76 47.7405 52.9067 48.0391 53.2C48.3378 53.4933 48.4871 53.8987 48.4871 54.416V56.344C48.4871 56.488 48.5538 56.5627 48.6871 56.568V57C48.5698 57.016 48.4871 57.0213 48.4391 57.016C48.3058 57.0107 48.2045 56.968 48.1351 56.888C48.0658 56.808 48.0285 56.7227 48.0231 56.632L48.0151 56.328C47.8285 56.568 47.5858 56.7547 47.2871 56.888C46.9885 57.016 46.6845 57.08 46.3751 57.08C46.1031 57.08 45.8605 57.024 45.6471 56.912C45.4338 56.7947 45.2658 56.64 45.1431 56.448C45.0258 56.2507 44.9671 56.0347 44.9671 55.8ZM47.7591 56.12C47.8818 55.976 47.9431 55.8427 47.9431 55.72V55.112C47.5751 54.968 47.1911 54.896 46.7911 54.896C46.4018 54.896 46.0871 54.9733 45.8471 55.128C45.6071 55.2827 45.4871 55.4933 45.4871 55.76C45.4871 55.9893 45.5751 56.1973 45.7511 56.384C45.9325 56.5707 46.1831 56.664 46.5031 56.664C46.7645 56.664 47.0071 56.6133 47.2311 56.512C47.4605 56.4107 47.6365 56.28 47.7591 56.12ZM51.7905 57.08C51.4438 57.08 51.1318 56.9893 50.8545 56.808C50.5825 56.6267 50.3665 56.4027 50.2065 56.136V58.704H49.6625V52.832H50.1505V53.64C50.3158 53.3787 50.5345 53.168 50.8065 53.008C51.0838 52.8427 51.3825 52.76 51.7025 52.76C51.9905 52.76 52.2545 52.8213 52.4945 52.944C52.7345 53.0613 52.9425 53.2213 53.1185 53.424C53.2998 53.6267 53.4385 53.8587 53.5345 54.12C53.6305 54.376 53.6785 54.6427 53.6785 54.92C53.6785 55.3093 53.5985 55.6693 53.4385 56C53.2838 56.3253 53.0625 56.5867 52.7745 56.784C52.4918 56.9813 52.1638 57.08 51.7905 57.08ZM51.6385 56.6C51.9425 56.6 52.2038 56.52 52.4225 56.36C52.6465 56.1947 52.8198 55.984 52.9425 55.728C53.0652 55.472 53.1265 55.2027 53.1265 54.92C53.1265 54.6213 53.0572 54.344 52.9185 54.088C52.7798 53.832 52.5932 53.6267 52.3585 53.472C52.1292 53.3173 51.8678 53.24 51.5745 53.24C51.3932 53.24 51.2012 53.288 50.9985 53.384C50.8012 53.4747 50.6252 53.6 50.4705 53.76C50.3212 53.9147 50.2332 54.0853 50.2065 54.272V55.552C50.3292 55.8453 50.5212 56.0933 50.7825 56.296C51.0438 56.4987 51.3292 56.6 51.6385 56.6ZM54.592 57V52.832H55.136V54.616H55.76L57.16 52.832H57.784L56.192 54.856L57.984 57H57.344L55.76 55.12H55.136V57H54.592ZM60.3375 57.08C59.9375 57.08 59.5802 56.9813 59.2655 56.784C58.9508 56.5867 58.7028 56.3227 58.5215 55.992C58.3402 55.6613 58.2495 55.2987 58.2495 54.904C58.2495 54.5147 58.3375 54.1573 58.5135 53.832C58.6948 53.5067 58.9428 53.248 59.2575 53.056C59.5722 52.8587 59.9295 52.76 60.3295 52.76C60.7402 52.76 61.1002 52.8587 61.4095 53.056C61.7188 53.2533 61.9588 53.5147 62.1295 53.84C62.3055 54.16 62.3935 54.512 62.3935 54.896C62.3935 54.9813 62.3908 55.0533 62.3855 55.112H58.8175C58.8442 55.4107 58.9295 55.6773 59.0735 55.912C59.2175 56.1413 59.4015 56.3253 59.6255 56.464C59.8495 56.5973 60.0948 56.664 60.3615 56.664C60.6335 56.664 60.8895 56.5947 61.1295 56.456C61.3695 56.3173 61.5402 56.136 61.6415 55.912L62.1135 56.04C62.0282 56.2427 61.8948 56.424 61.7135 56.584C61.5375 56.7387 61.3322 56.8613 61.0975 56.952C60.8628 57.0373 60.6095 57.08 60.3375 57.08ZM58.8015 54.72H61.8815C61.8602 54.4213 61.7775 54.1573 61.6335 53.928C61.4895 53.6933 61.3055 53.512 61.0815 53.384C60.8575 53.2507 60.6095 53.184 60.3375 53.184C60.0655 53.184 59.8175 53.2507 59.5935 53.384C59.3695 53.512 59.1855 53.6933 59.0415 53.928C58.9028 54.1573 58.8228 54.4213 58.8015 54.72ZM64.2728 57V53.32H62.7848V52.832H66.3048V53.32H64.8168V57H64.2728ZM67.0373 57V52.84H67.5813V56.264L70.1173 52.832H70.6053V57H70.0613V53.632L67.5653 57H67.0373ZM71.7873 57V52.832H72.3313V54.624H74.7153V52.832H75.2593V57H74.7153V55.112H72.3313V57H71.7873ZM76.4514 57V52.832H78.9394V53.32H76.9954V57H76.4514ZM79.3656 55.8C79.3656 55.544 79.4402 55.3227 79.5896 55.136C79.7389 54.944 79.9442 54.7947 80.2056 54.688C80.4722 54.5813 80.7789 54.528 81.1256 54.528C81.3282 54.528 81.5389 54.5467 81.7576 54.584C81.9762 54.616 82.1709 54.6613 82.3416 54.72V54.368C82.3416 54.016 82.2376 53.736 82.0296 53.528C81.8216 53.32 81.5336 53.216 81.1656 53.216C80.9469 53.216 80.7282 53.2587 80.5096 53.344C80.2909 53.424 80.0642 53.544 79.8296 53.704L79.6216 53.32C79.8936 53.1333 80.1602 52.9947 80.4216 52.904C80.6829 52.808 80.9496 52.76 81.2216 52.76C81.7336 52.76 82.1389 52.9067 82.4376 53.2C82.7362 53.4933 82.8856 53.8987 82.8856 54.416V56.344C82.8856 56.488 82.9522 56.5627 83.0856 56.568V57C82.9682 57.016 82.8856 57.0213 82.8376 57.016C82.7042 57.0107 82.6029 56.968 82.5336 56.888C82.4642 56.808 82.4269 56.7227 82.4216 56.632L82.4136 56.328C82.2269 56.568 81.9842 56.7547 81.6856 56.888C81.3869 57.016 81.0829 57.08 80.7736 57.08C80.5016 57.08 80.2589 57.024 80.0456 56.912C79.8322 56.7947 79.6642 56.64 79.5416 56.448C79.4242 56.2507 79.3656 56.0347 79.3656 55.8ZM82.1576 56.12C82.2802 55.976 82.3416 55.8427 82.3416 55.72V55.112C81.9736 54.968 81.5896 54.896 81.1896 54.896C80.8002 54.896 80.4856 54.9733 80.2456 55.128C80.0056 55.2827 79.8856 55.4933 79.8856 55.76C79.8856 55.9893 79.9736 56.1973 80.1496 56.384C80.3309 56.5707 80.5816 56.664 80.9016 56.664C81.1629 56.664 81.4056 56.6133 81.6296 56.512C81.8589 56.4107 82.0349 56.28 82.1576 56.12Z" fill="white"/>
</svg>
