<svg width="452" height="537" viewBox="0 0 452 537" fill="none" xmlns="http://www.w3.org/2000/svg">
<path d="M73.2071 192.855L180.978 133.669C182.846 132.579 187.675 133.825 187.675 138.342L184.248 221.201C184.248 222.292 183.625 223.226 182.847 223.693L76.7892 285.527C74.9204 286.617 70.8711 284.748 70.8711 280.231L71.6496 195.347C71.6496 194.256 72.2726 193.322 73.2071 192.855Z" fill="#B7BAC7"/>
<path d="M74.9131 194.412L183.463 134.759C185.332 133.669 187.668 135.227 187.668 137.563L186.889 223.071C186.889 224.161 186.266 225.095 185.332 225.718L76.7824 285.371C74.9135 286.462 72.5771 284.904 72.5771 282.568L73.3561 197.06C73.5119 195.97 74.1344 194.879 74.9131 194.412Z" fill="#EBEAF1"/>
<path d="M163.072 188.806L160.113 187.248V194.725L163.072 196.438V188.806Z" fill="#27449C"/>
<path d="M120.397 188.962L117.438 187.248V194.88L120.397 196.438V188.962Z" fill="#27449C"/>
<path d="M120.397 242.072L117.438 240.358V247.99L120.397 249.548V242.072Z" fill="#27449C"/>
<path d="M155.746 198.774C154.812 200.02 154.033 201.733 153.566 203.758C153.255 205.16 153.099 207.808 153.099 211.546C153.099 214.816 152.943 217.464 152.632 219.178C152.32 220.891 151.541 222.76 150.607 224.473C149.517 226.186 148.271 227.744 146.713 229.146C145.156 230.547 142.975 232.105 140.172 233.974L138.459 235.064V227.432C140.795 226.031 142.197 224.94 142.976 224.161C143.599 223.538 144.221 222.76 144.533 221.981C144.844 221.202 145 220.112 145 218.71C145 217.776 145 215.439 145.156 211.857C145.312 209.521 145.623 207.496 145.934 205.783C146.402 204.07 147.025 202.668 147.804 201.11C148.582 199.709 149.672 198.151 150.918 196.749C149.517 196.749 148.427 196.438 147.804 196.126C147.181 195.659 146.558 195.036 146.09 193.946C145.623 192.855 145.312 191.454 145.312 189.429C145.156 185.847 145 183.355 145 182.109C145 180.863 144.844 179.928 144.533 179.616C144.221 179.305 143.754 179.149 143.131 179.305C142.508 179.461 140.951 180.239 138.614 181.797V174.165L140.328 173.075C143.131 171.362 145.156 170.271 146.402 169.804C148.271 169.181 149.673 169.025 150.763 169.493C151.697 169.804 152.476 170.739 152.787 172.14C153.099 173.542 153.41 176.19 153.41 180.395C153.41 182.887 153.566 184.601 153.722 185.535C153.877 186.781 154.345 187.56 154.968 188.183C155.591 188.65 156.214 188.962 156.993 188.806C157.771 188.65 158.861 188.183 160.419 187.404V195.036C158.239 196.126 156.681 197.372 155.746 198.774Z" fill="#27449C"/>
<path d="M95.7847 227.277C97.6535 226.031 99.2114 224.629 100.146 223.383C101.08 222.137 101.859 220.424 102.326 218.399C102.637 216.997 102.793 214.349 102.793 210.611C102.793 207.34 102.949 204.693 103.416 202.979C103.728 201.266 104.506 199.397 105.441 197.684C106.531 195.97 107.777 194.413 109.334 193.011C110.892 191.609 113.072 190.052 115.875 188.338L117.588 187.248V194.724C115.252 196.282 113.695 197.372 113.072 197.995C112.449 198.774 111.982 199.397 111.67 200.176C111.359 200.799 111.203 202.045 111.203 203.602C111.047 208.742 110.892 212.013 110.736 213.726C110.424 216.062 109.646 218.243 108.711 220.268C107.933 221.67 106.842 223.383 105.285 225.408C106.531 225.408 107.465 225.563 108.244 226.031C109.023 226.498 109.646 227.277 110.113 228.211C110.58 229.301 110.891 230.859 110.891 232.884C111.047 236.466 111.203 238.802 111.203 240.048C111.203 241.294 111.359 242.073 111.67 242.54C111.982 243.008 112.449 243.008 113.228 242.852C113.851 242.696 115.408 241.917 117.588 240.516V248.148L115.875 249.238C113.072 250.951 111.047 252.041 109.802 252.509C107.933 253.132 106.375 253.287 105.441 252.976C104.506 252.664 103.728 251.73 103.416 250.328C103.105 248.926 102.793 246.123 102.793 242.073C102.793 239.581 102.638 237.868 102.482 236.933C102.17 235.687 101.859 234.909 101.236 234.286C100.613 233.663 99.9896 233.507 99.2109 233.662C98.4322 233.818 97.3421 234.285 95.7847 235.064V227.277Z" fill="#27449C"/>
<path d="M158.697 200.332C157.762 201.578 157.139 203.292 156.672 205.316C156.36 206.718 156.205 209.366 156.205 213.104C156.205 216.375 156.049 219.022 155.738 220.736C155.426 222.449 154.647 224.318 153.713 225.876C152.623 227.589 151.377 229.146 149.82 230.548C148.262 231.95 146.082 233.507 143.279 235.376L141.566 236.467V228.835C143.902 227.433 145.304 226.343 146.082 225.564C146.705 224.785 147.328 224.162 147.64 223.383C147.951 222.605 148.107 221.515 148.107 220.113C148.107 219.178 148.107 216.842 148.263 213.26C148.418 210.923 148.73 208.899 149.041 207.185C149.508 205.628 150.131 204.07 150.91 202.513C151.689 201.111 152.779 199.554 154.025 198.152C152.623 198.152 151.533 197.84 150.91 197.529C150.287 197.062 149.664 196.439 149.197 195.348C148.73 194.258 148.418 192.856 148.418 190.831C148.262 187.249 148.107 184.757 148.107 183.511C148.107 182.265 147.951 181.331 147.64 181.019C147.328 180.708 146.861 180.552 146.238 180.708C145.615 180.863 144.058 181.642 141.722 183.2V175.724L143.435 174.633C146.238 172.92 148.263 171.83 149.508 171.363C151.377 170.74 152.779 170.584 153.869 171.051C154.803 171.362 155.582 172.297 155.893 173.699C156.205 175.1 156.517 177.748 156.517 181.954C156.517 184.446 156.672 186.159 156.828 187.093C156.984 188.339 157.451 189.118 158.073 189.741C158.696 190.364 159.319 190.52 160.098 190.364C160.877 190.208 161.967 189.741 163.524 188.963V196.594C161.188 197.684 159.787 199.086 158.697 200.332Z" fill="url(#paint0_linear)"/>
<path d="M98.7363 228.992C100.761 227.746 102.163 226.344 103.097 225.098C104.032 223.852 104.81 222.139 105.278 220.114C105.589 218.712 105.745 216.064 105.745 212.326C105.745 209.056 105.901 206.408 106.368 204.694C106.679 202.981 107.458 201.112 108.548 199.399C109.638 197.686 110.884 196.128 112.442 194.726C113.999 193.325 116.18 191.767 118.983 190.054L120.696 188.964V196.44C118.36 197.997 116.803 199.088 116.024 199.711C115.401 200.489 114.934 201.112 114.622 201.735C114.311 202.358 114.155 203.604 114.155 205.162C113.999 210.301 113.844 213.572 113.688 215.13C113.376 217.466 112.598 219.646 111.663 221.671C110.884 223.073 109.794 224.786 108.237 226.811C109.483 226.811 110.417 226.967 111.196 227.434C111.975 227.901 112.597 228.68 113.065 229.615C113.532 230.705 113.843 232.262 113.999 234.287C114.155 237.87 114.31 240.206 114.31 241.452C114.31 242.698 114.466 243.476 114.778 243.944C115.089 244.411 115.556 244.411 116.335 244.255C116.958 244.1 118.515 243.321 120.696 241.919V249.551L118.983 250.641C116.18 252.354 114.155 253.444 112.909 253.912C111.04 254.535 109.483 254.69 108.548 254.379C107.614 254.067 106.835 253.133 106.523 251.731C106.212 250.329 105.901 247.526 105.901 243.476C105.901 240.984 105.745 239.271 105.589 238.337C105.277 237.091 104.966 236.312 104.343 235.689C103.72 235.066 103.097 234.91 102.319 235.066C101.54 235.222 100.45 235.689 98.8922 236.468V228.992H98.7363Z" fill="url(#paint1_linear)"/>
<path d="M141.418 175.723L138.459 174.165V181.641L141.418 183.354V175.723Z" fill="url(#paint2_linear)"/>
<path d="M141.418 228.835L138.459 227.277V234.909L141.418 236.467V228.835Z" fill="url(#paint3_linear)"/>
<path d="M98.7437 228.991L95.7847 227.277V234.909L98.7437 236.467V228.991Z" fill="url(#paint4_linear)"/>
<path d="M2.49188 65.9184L121.788 0.347085C123.812 -0.743177 129.263 0.658531 129.263 5.64258L125.525 97.3803C125.525 98.6263 124.903 99.7167 123.968 100.184L6.54124 168.559C4.51663 169.649 0 167.78 0 162.64L0.934395 68.7221C0.934395 67.6318 1.55744 66.5414 2.49188 65.9184Z" fill="#B7BAC7"/>
<path d="M4.50764 67.7879L124.583 1.74902C126.763 0.65876 129.255 2.37198 129.255 4.86401L128.321 99.5612C128.321 100.807 127.697 101.898 126.607 102.365L6.53233 168.403C4.50772 169.494 1.85986 167.781 1.85986 165.288L2.79474 70.5913C2.95048 69.3453 3.5732 68.2552 4.50764 67.7879Z" fill="#EBEAF1"/>
<path d="M54.4998 75.4204L52.3197 72.9286L21.3271 106.415L23.5077 108.907L54.4998 75.4204Z" fill="#C20B1B"/>
<path d="M55.2806 102.054L53.0999 99.5618L33.6319 103.611L33.0088 106.882L55.2806 102.054Z" fill="#C20B1B"/>
<path d="M78.9538 87.2562L100.602 64.6722L78.4866 69.6563L78.1753 60.4671L109.946 55.0157L110.102 62.8032L79.1097 96.2898L78.9538 87.2562Z" fill="url(#paint5_linear)"/>
<path d="M69.9238 108.283L57.1533 66.6972L63.694 62.6477L76.3086 104.234L69.9238 108.283Z" fill="url(#paint6_linear)"/>
<path d="M23.6696 116.538L23.5137 108.75L54.6612 75.2635L54.9725 84.2972L33.3252 106.726L55.4397 101.897L55.5956 110.931L23.6696 116.538Z" fill="url(#paint7_linear)"/>
<path d="M23.5072 108.905L21.3271 106.413L21.483 114.045L23.663 116.537L23.5072 108.905Z" fill="#D30B1B"/>
<path d="M63.8432 62.8038L61.6631 60.1562L55.1221 64.2055L57.3026 66.8533L63.8432 62.8038Z" fill="#C20B1B"/>
<path d="M69.9174 108.284L67.7369 105.792L55.1221 64.2058L57.3026 66.8538L69.9174 108.284Z" fill="#D30B1B"/>
<path d="M110.095 55.1727L107.915 52.5247L76.144 58.1317L78.3241 60.6238L110.095 55.1727Z" fill="#C20B1B"/>
<path d="M78.4799 69.814L76.2995 67.1662L76.144 58.1323L78.324 60.6245L78.4799 69.814Z" fill="#D30B1B"/>
<path d="M78.9555 87.2574L76.7754 84.7653L94.6852 66.0751L100.603 64.8291L78.9555 87.2574Z" fill="#C20B1B"/>
<path d="M79.2665 96.4474L77.0867 93.7997L76.7754 84.7662L78.9553 87.2582L79.2665 96.4474Z" fill="#D30B1B"/>
<path d="M261.168 466.353L384.046 536.286L451.948 482.24L324.242 410.438L261.168 466.353Z" fill="url(#paint8_linear)"/>
<path d="M349.949 412.466C318.178 397.202 267.095 397.981 235.948 414.179C204.8 430.377 205.267 455.765 237.038 470.873C268.809 486.136 319.891 485.357 351.039 469.159C382.343 453.117 381.72 427.574 349.949 412.466Z" fill="white"/>
<path d="M349.324 412.778C317.865 397.67 267.406 398.449 236.569 414.491C205.733 430.378 206.2 455.61 237.66 470.562C269.119 485.67 319.578 484.891 350.414 468.849C381.25 452.962 380.784 427.73 349.324 412.778Z" fill="#FBFCFC"/>
<path d="M348.695 413.088C317.548 398.136 267.555 398.915 237.186 414.802C206.661 430.533 207.128 455.453 238.276 470.249C269.424 485.202 319.417 484.423 349.786 468.536C380.311 452.805 379.843 427.885 348.695 413.088Z" fill="#F8F8F9"/>
<path d="M348.072 413.4C317.236 398.759 267.866 399.382 237.809 414.957C207.595 430.532 208.062 455.141 238.898 469.782C269.735 484.578 319.105 483.799 349.163 468.224C379.376 452.649 378.909 428.04 348.072 413.4Z" fill="#F4F5F5"/>
<path d="M347.621 413.712C317.252 399.227 268.35 399.85 238.448 415.269C208.546 430.689 209.169 454.986 239.538 469.627C269.907 484.112 318.809 483.489 348.711 468.07C378.457 452.494 377.99 428.197 347.621 413.712Z" fill="#F1F1F2"/>
<path d="M346.997 414.022C316.94 399.693 268.661 400.316 239.071 415.58C209.636 430.843 210.103 454.829 240.161 469.314C270.218 483.644 318.497 483.021 348.088 467.757C377.522 452.493 377.055 428.351 346.997 414.022Z" fill="#EDEEEF"/>
<path d="M346.37 414.336C316.624 400.162 268.811 400.785 239.688 415.893C210.565 431.001 211.032 454.675 240.778 469.005C270.525 483.334 318.336 482.555 347.46 467.447C376.583 452.339 376.116 428.509 346.37 414.336Z" fill="#EAEAEC"/>
<path d="M345.745 414.648C316.31 400.63 269.122 401.254 240.31 416.206C211.498 431.158 211.965 454.521 241.4 468.694C270.835 482.712 318.024 482.089 346.835 467.137C375.647 452.185 375.18 428.666 345.745 414.648Z" fill="#E6E7E9"/>
<path d="M345.12 414.958C315.997 401.096 269.431 401.719 240.931 416.515C212.431 431.312 212.898 454.519 242.021 468.381C271.144 482.243 317.71 481.619 346.21 466.823C374.554 452.027 374.087 428.819 345.12 414.958Z" fill="#E2E3E5"/>
<path d="M344.492 415.27C315.836 401.564 269.737 402.187 241.548 416.828C213.359 431.312 213.826 454.364 242.638 468.07C271.294 481.776 317.393 481.153 345.582 466.512C373.615 451.872 373.148 428.976 344.492 415.27Z" fill="#DFE0E2"/>
<path d="M343.877 415.58C315.532 402.03 269.9 402.653 242.179 417.137C214.302 431.467 214.769 454.206 243.113 467.757C271.458 481.307 317.089 480.684 344.811 466.199C372.688 451.87 372.221 429.13 343.877 415.58Z" fill="#DBDCDF"/>
<path d="M343.254 415.892C315.221 402.497 270.212 403.12 242.802 417.294C215.392 431.467 215.704 453.895 243.737 467.29C271.77 480.684 316.779 480.061 344.189 465.732C371.755 451.715 371.287 429.286 343.254 415.892Z" fill="#D8D9DC"/>
<path d="M342.632 416.205C314.91 402.966 270.525 403.589 243.426 417.606C216.327 431.624 216.795 453.74 244.36 466.979C272.082 480.218 316.468 479.595 343.566 465.578C370.82 451.56 370.353 429.443 342.632 416.205Z" fill="#D4D5D9"/>
<path d="M342.003 416.517C314.593 403.434 270.83 404.057 244.043 417.919C217.256 431.781 217.723 453.586 244.977 466.669C272.388 479.752 316.15 479.129 342.938 465.267C369.88 451.405 369.413 429.6 342.003 416.517Z" fill="#D1D2D6"/>
<path d="M341.38 416.826C314.437 403.899 270.986 404.522 244.511 418.228C218.035 431.935 218.502 453.428 245.445 466.356C272.388 479.283 315.839 478.66 342.315 464.954C368.946 451.248 368.479 429.754 341.38 416.826Z" fill="#CDCED2"/>
<path d="M340.905 417.139C314.273 404.367 271.445 404.99 245.281 418.541C219.117 432.091 219.584 453.429 246.216 466.045C272.847 478.816 315.675 478.193 341.839 464.643C367.847 451.249 367.536 429.911 340.905 417.139Z" fill="#C9CBCF"/>
<path d="M340.302 417.449C313.982 404.833 271.776 405.456 245.924 418.851C220.071 432.245 220.538 453.272 246.858 465.732C273.178 478.347 315.383 477.725 341.236 464.33C366.933 451.091 366.621 430.065 340.302 417.449Z" fill="#C6C7CC"/>
<path d="M339.674 417.761C313.666 405.301 272.084 405.924 246.543 419.163C221.157 432.402 221.469 453.117 247.477 465.577C273.485 478.037 315.067 477.414 340.608 464.175C365.994 450.936 365.527 430.221 339.674 417.761Z" fill="#C2C4C9"/>
<path d="M339.049 418.075C313.508 405.77 272.237 406.394 247.163 419.477C222.089 432.56 222.401 452.963 248.098 465.267C273.795 477.572 314.91 476.949 339.984 463.866C365.058 450.783 364.591 430.379 339.049 418.075Z" fill="#BFC0C6"/>
<path d="M338.425 418.385C313.196 406.237 272.548 406.86 247.785 419.632C223.023 432.403 223.334 452.651 248.72 464.799C273.949 476.948 314.597 476.325 339.36 463.398C364.122 450.626 363.655 430.534 338.425 418.385Z" fill="#BBBDC2"/>
<path d="M337.799 418.696C312.881 406.703 272.856 407.326 248.405 419.942C223.954 432.557 224.421 452.494 249.339 464.487C274.257 476.324 314.282 475.856 338.733 463.085C363.184 450.625 362.717 430.688 337.799 418.696Z" fill="#B8B9BF"/>
<path d="M337.174 419.009C312.567 407.327 273.165 407.795 249.026 420.255C224.886 432.715 225.354 452.34 249.96 464.177C274.567 475.858 313.969 475.391 338.109 462.931C362.093 450.471 361.781 430.846 337.174 419.009Z" fill="#B4B6BC"/>
<path d="M327.678 396.422C308.833 387.7 278.465 388.012 259.776 397.357C246.538 404.054 242.956 413.399 248.874 421.343C250.899 417.449 254.948 413.867 261.022 410.751C279.555 401.406 309.923 401.095 328.923 409.817C334.374 412.309 338.112 415.268 340.448 418.539C344.498 410.907 340.292 402.341 327.678 396.422Z" fill="#DB5E1E"/>
<path d="M355.563 436.607L354.939 412.777L233.151 412.466L233.774 437.853C233.463 447.198 239.537 456.543 251.996 463.552C275.98 476.947 314.603 476.168 338.12 462.15C349.8 455.142 355.563 446.264 355.563 437.386V437.074C355.563 436.763 355.563 436.763 355.563 436.607Z" fill="#B7BAC7"/>
<path d="M336.706 388.325C312.722 374.93 274.098 375.709 250.582 389.726C227.065 403.9 227.377 426.172 251.361 439.411C275.345 452.806 313.968 452.027 337.484 438.009C361.001 423.992 360.689 401.719 336.706 388.325Z" fill="#EBEAF1"/>
<path d="M327.677 396.422C308.833 387.7 278.464 388.012 259.931 397.357C244.513 405.144 242.021 416.514 252.767 425.236C254.947 426.95 257.439 428.507 260.554 430.065C279.554 438.787 309.923 438.475 328.456 429.13C331.259 427.728 333.595 426.327 335.464 424.613C346.366 415.735 343.718 403.898 327.677 396.422Z" fill="url(#paint9_linear)"/>
<path d="M319.258 390.506C300.102 384.276 275.807 386.301 260.389 394.556C260.233 394.556 260.078 394.711 260.078 394.711C257.43 396.113 255.094 397.67 253.225 399.539C239.209 411.844 246.217 427.886 268.643 435.207C287.487 441.437 311.471 439.567 327.045 431.468C327.201 431.468 327.356 431.313 327.512 431.157C330.315 429.755 332.807 428.042 334.832 426.173C348.692 413.869 341.84 397.826 319.258 390.506Z" fill="url(#paint10_linear)"/>
<path d="M271.597 431.157C251.818 424.927 245.744 411.688 258.047 401.253C270.351 390.973 296.515 387.547 316.294 393.777C336.072 400.007 342.147 413.246 329.843 423.681C317.54 433.805 291.375 437.232 271.597 431.157ZM316.138 393.777C296.515 387.702 270.506 390.973 258.359 401.253C246.055 411.533 252.13 424.772 271.908 431.002C291.531 437.076 317.54 433.805 329.687 423.526C341.835 413.246 335.761 400.007 316.138 393.777Z" fill="white"/>
<path d="M278.619 425.238C265.07 421.033 260.865 411.844 269.275 404.835C277.684 397.826 295.594 395.49 308.988 399.695C322.537 403.901 326.742 413.09 318.332 420.099C310.078 427.107 292.168 429.444 278.619 425.238ZM309.144 399.695C295.75 395.49 277.996 397.826 269.586 404.835C261.176 411.844 265.381 420.877 278.774 425.083C292.168 429.288 309.922 426.952 318.332 419.943C326.742 412.934 322.537 403.901 309.144 399.695Z" fill="white"/>
<path d="M285.78 419.32C278.461 416.983 276.28 412.155 280.797 408.261C285.313 404.523 294.969 403.277 302.132 405.457C309.452 407.794 311.632 412.622 307.116 416.516C302.6 420.254 292.944 421.5 285.78 419.32ZM302.132 405.613C294.969 403.433 285.313 404.679 280.797 408.417C276.28 412.155 278.461 417.139 285.78 419.32C292.944 421.5 302.6 420.41 307.116 416.516C311.477 412.778 309.296 407.794 302.132 405.613Z" fill="white"/>
<path d="M263.496 429.912H263.34L263.184 429.756L263.34 429.601L325.168 392.843H325.324H325.48L325.636 392.999L325.48 393.155L263.496 429.912Z" fill="white"/>
<path d="M327.356 431.157C327.2 431.312 327.044 431.312 326.888 431.468L260.076 394.866C260.232 394.866 260.387 394.711 260.387 394.711L327.356 431.157Z" fill="white"/>
<path d="M312.101 403.278C302.134 398.605 286.248 398.761 276.437 403.745C266.625 408.729 266.937 416.672 276.748 421.5C286.716 426.329 302.601 426.017 312.412 421.033C322.068 415.893 321.912 407.95 312.101 403.278Z" fill="white"/>
<path d="M311.79 403.278C301.978 398.605 286.248 398.761 276.592 403.745C266.936 408.729 267.092 416.516 276.903 421.345C286.715 426.017 302.445 425.862 312.101 420.878C321.757 415.894 321.601 408.106 311.79 403.278Z" fill="#FBFCFC"/>
<path d="M311.631 403.434C301.975 398.761 286.246 399.073 276.746 403.901C267.246 408.886 267.402 416.673 277.057 421.19C286.713 425.863 302.443 425.551 311.943 420.723C321.443 415.894 321.287 408.107 311.631 403.434Z" fill="#F8F8F9"/>
<path d="M311.475 403.59C301.819 399.073 286.401 399.229 277.057 404.057C267.712 408.886 267.712 416.673 277.368 421.19C287.024 425.707 302.443 425.551 311.787 420.722C321.287 415.738 321.131 408.107 311.475 403.59Z" fill="#F4F5F5"/>
<path d="M311.317 403.59C301.817 399.073 286.554 399.229 277.21 404.057C267.866 408.886 268.021 416.517 277.521 421.034C287.021 425.551 302.284 425.395 311.628 420.567C320.972 415.739 320.817 408.107 311.317 403.59Z" fill="#F1F1F2"/>
<path d="M311.008 403.744C301.663 399.227 286.557 399.538 277.368 404.211C268.179 409.039 268.335 416.515 277.68 421.032C287.024 425.549 302.131 425.237 311.32 420.565C320.664 415.737 320.508 408.26 311.008 403.744Z" fill="#EDEEEF"/>
<path d="M310.855 403.9C301.51 399.383 286.715 399.695 277.526 404.367C268.493 409.04 268.649 416.516 277.837 420.877C287.182 425.394 301.977 425.083 311.166 420.41C320.355 415.737 320.199 408.261 310.855 403.9Z" fill="#EAEAEC"/>
<path d="M310.692 403.901C301.504 399.54 286.708 399.696 277.831 404.368C268.798 409.041 268.954 416.361 278.143 420.722C287.331 425.083 302.126 424.927 311.004 420.254C320.037 415.582 319.881 408.262 310.692 403.901Z" fill="#E6E7E9"/>
<path d="M310.535 404.056C301.502 399.695 286.863 399.851 277.986 404.523C269.108 409.196 269.264 416.36 278.297 420.722C287.33 425.083 301.969 424.927 310.846 420.254C319.723 415.582 319.567 408.417 310.535 404.056Z" fill="#E2E3E5"/>
<path d="M310.399 404.057C301.366 399.696 287.037 400.008 278.316 404.525C269.595 409.041 269.595 416.206 278.628 420.567C287.661 424.928 301.989 424.617 310.71 420.1C319.432 415.583 319.276 408.418 310.399 404.057Z" fill="#DFE0E2"/>
<path d="M310.068 404.212C301.192 400.007 287.019 400.163 278.298 404.68C269.577 409.196 269.733 416.205 278.61 420.41C287.487 424.616 301.659 424.46 310.38 419.943C319.102 415.582 318.945 408.418 310.068 404.212Z" fill="#DBDCDF"/>
<path d="M309.911 404.368C301.19 400.163 287.174 400.318 278.452 404.835C269.887 409.352 270.042 416.205 278.764 420.41C287.485 424.615 301.502 424.46 310.223 419.943C318.789 415.582 318.633 408.573 309.911 404.368Z" fill="#D8D9DC"/>
<path d="M309.775 404.366C301.054 400.161 287.193 400.472 278.783 404.834C270.373 409.195 270.373 416.203 279.095 420.253C287.816 424.458 301.677 424.147 310.086 419.786C318.496 415.425 318.341 408.572 309.775 404.366Z" fill="#D4D5D9"/>
<path d="M309.616 404.523C301.05 400.473 287.345 400.629 278.935 404.99C270.525 409.351 270.681 416.204 279.247 420.254C287.813 424.303 301.517 424.147 309.927 419.786C318.181 415.425 318.026 408.572 309.616 404.523Z" fill="#D1D2D6"/>
<path d="M309.308 404.678C300.898 400.629 287.348 400.784 279.094 405.146C270.84 409.507 270.996 416.204 279.405 420.253C287.815 424.303 301.365 424.147 309.619 419.786C317.873 415.425 317.873 408.572 309.308 404.678Z" fill="#CDCED2"/>
<path d="M309.151 404.68C300.897 400.63 287.504 400.941 279.249 405.147C271.151 409.352 271.151 416.05 279.561 419.944C287.971 423.993 301.208 423.682 309.463 419.476C317.717 415.427 317.561 408.729 309.151 404.68Z" fill="#C9CBCF"/>
<path d="M308.992 404.835C300.737 400.942 287.656 401.097 279.557 405.303C271.459 409.508 271.615 416.05 279.869 419.943C288.123 423.837 301.361 423.681 309.303 419.476C317.402 415.271 317.246 408.729 308.992 404.835Z" fill="#C6C7CC"/>
<path d="M308.838 404.992C300.739 401.098 287.657 401.253 279.715 405.459C271.772 409.508 271.928 416.05 280.026 419.944C288.125 423.838 301.206 423.682 309.149 419.477C317.091 415.271 316.936 408.73 308.838 404.992Z" fill="#C2C4C9"/>
<path d="M308.678 404.992C300.735 401.098 287.809 401.41 280.022 405.459C272.235 409.509 272.235 415.894 280.333 419.788C288.276 423.682 301.202 423.37 308.989 419.321C316.776 415.271 316.62 408.886 308.678 404.992Z" fill="#BFC0C6"/>
<path d="M308.369 405.148C300.426 401.41 287.811 401.566 280.024 405.615C272.237 409.665 272.393 415.895 280.335 419.633C288.278 423.371 300.893 423.215 308.68 419.166C316.467 415.272 316.311 408.886 308.369 405.148Z" fill="#BBBDC2"/>
<path d="M308.21 405.148C300.423 401.41 287.964 401.566 280.332 405.615C272.701 409.509 272.857 415.739 280.644 419.477C288.431 423.215 300.89 423.059 308.521 419.009C316.153 415.116 315.997 408.886 308.21 405.148Z" fill="#B8B9BF"/>
<path d="M308.055 405.302C300.423 401.564 288.12 401.875 280.488 405.769C273.013 409.663 273.013 415.737 280.8 419.475C288.431 423.213 300.891 422.901 308.366 419.008C315.842 415.114 315.686 409.04 308.055 405.302Z" fill="#B4B6BC"/>
<path d="M361.317 276.647C361.317 276.647 347.612 289.263 347.612 298.297V321.816C347.612 329.292 353.53 335.366 360.849 335.522C361.005 335.522 361.161 335.522 361.317 335.522H361.473C368.792 335.522 374.71 329.136 374.71 321.816V298.92C374.865 288.017 361.317 276.647 361.317 276.647Z" fill="#FF2838"/>
<path d="M229.55 276.647C229.55 276.647 215.845 289.263 215.845 298.297V321.816C215.845 329.292 221.763 335.366 229.083 335.522C229.239 335.522 229.394 335.522 229.55 335.522H229.705C237.025 335.522 242.943 329.136 242.943 321.816V298.92C243.099 288.017 229.55 276.647 229.55 276.647Z" fill="#FF2838"/>
<path d="M394.165 394.864C394.009 394.708 393.853 394.708 393.697 394.708H393.542C393.386 394.708 393.23 394.708 393.075 394.864C391.362 395.798 389.804 400.627 389.648 400.938L387.935 410.128L385.443 424.457L383.418 435.515L389.493 441.278L396.968 408.57C396.501 399.069 395.411 395.487 394.165 394.864Z" fill="#1270E8"/>
<path d="M393.075 394.863L356.476 335.054L345.886 341.285L388.092 410.127L389.804 400.937C389.804 400.626 391.362 395.798 393.075 394.863Z" fill="#EBEAF1"/>
<path d="M337.176 382.557L385.456 424.454L387.948 410.125L345.742 341.283L337.176 382.557Z" fill="#B7BAC7"/>
<path d="M404.765 388.631C404.453 388.475 403.986 388.475 403.675 388.631L393.084 394.861C393.24 394.861 393.396 394.705 393.551 394.705H393.707C393.863 394.705 394.018 394.706 394.174 394.861C395.42 395.484 396.511 399.066 396.978 408.567L389.502 441.275L400.092 435.045L407.568 402.337C407.101 392.836 406.011 389.41 404.765 388.631Z" fill="url(#paint11_linear)"/>
<path d="M197.626 394.864C197.47 394.864 197.315 394.708 197.159 394.708H197.003C196.847 394.708 196.692 394.708 196.536 394.864C195.29 395.487 194.2 399.069 193.732 408.57L201.209 441.278L207.283 435.515L201.053 400.938C201.053 400.627 199.495 395.798 197.626 394.864Z" fill="#1270E8"/>
<path d="M197.78 394.863C199.493 395.798 201.05 400.626 201.206 400.937L202.919 410.127L245.124 341.285L234.533 335.054L197.78 394.863Z" fill="#EBEAF1"/>
<path d="M202.768 410.125L205.259 424.454L253.694 382.557L244.973 341.283L202.768 410.125Z" fill="#B7BAC7"/>
<path d="M196.539 394.863C196.695 394.707 196.851 394.707 197.006 394.707H197.162C197.318 394.707 197.474 394.707 197.629 394.863L187.039 388.633C186.728 388.477 186.261 388.321 185.949 388.633C184.703 389.256 183.613 392.838 183.146 402.339L190.621 435.047L201.211 441.277L193.736 408.569C194.203 399.068 195.449 395.486 196.539 394.863Z" fill="url(#paint12_linear)"/>
<path d="M295.6 421.81C322.855 421.81 339.518 409.35 339.674 400.004H251.371C251.838 409.35 268.346 421.81 295.6 421.81Z" fill="url(#paint13_linear)"/>
<path d="M229.562 317.924C229.562 354.525 248.095 391.438 250.899 397.513V397.668C250.899 406.702 267.874 419.006 295.752 419.006C323.629 419.006 340.604 406.702 340.604 397.668C340.604 397.668 360.539 354.837 361.474 322.129C356.334 323.842 229.562 317.924 229.562 317.924Z" fill="#EBEAF1"/>
<path d="M361.318 193.165V323.685C351.35 334.12 323.629 341.285 296.374 341.285C267.718 341.285 240.776 329.759 229.562 319.791V193.165C229.562 176.343 258.997 162.793 295.44 162.793C331.727 162.637 361.318 176.343 361.318 193.165Z" fill="#EBEAF1"/>
<path opacity="0.32" d="M303.218 303.904C303.218 303.904 283.284 316.52 283.284 325.554V349.228C283.284 362.779 292.005 372.903 304.464 372.903C311.784 372.903 321.595 361.689 321.595 354.212V331.317C321.595 314.651 303.218 303.904 303.218 303.904Z" fill="url(#paint14_linear)"/>
<path opacity="0.32" d="M229.409 278.206V345.024C229.409 345.024 246.54 346.893 246.54 324.309V311.537C246.696 301.258 236.728 282.879 229.409 278.206Z" fill="url(#paint15_linear)"/>
<path d="M295.434 295.185C295.434 295.185 281.729 307.8 281.729 316.834V340.353C281.729 347.829 287.647 353.903 294.967 354.059C295.122 354.059 295.278 354.059 295.434 354.059H295.59C302.909 354.059 308.827 347.673 308.827 340.353V317.457C308.983 306.555 295.434 295.185 295.434 295.185Z" fill="#FF2838"/>
<path d="M361.318 193.634C356.801 198.306 348.703 204.848 338.58 207.963C327.055 203.29 311.948 200.486 295.44 200.486C279.554 200.486 265.071 203.134 253.702 207.34C243.267 204.069 234.702 197.527 229.562 192.855C229.562 192.855 229.562 230.08 229.562 230.858C229.562 247.68 258.997 261.23 295.44 261.23C331.883 261.23 361.318 247.524 361.318 230.858C361.318 230.391 361.318 193.634 361.318 193.634Z" fill="url(#paint16_linear)"/>
<path d="M361.318 193.165C361.318 209.986 331.883 223.537 295.44 223.537C258.997 223.537 229.562 209.986 229.562 193.165C229.562 176.343 258.997 162.793 295.44 162.793C331.727 162.637 361.318 176.343 361.318 193.165Z" fill="#EBEAF1"/>
<path d="M313.179 179.772C303.056 173.542 286.703 173.853 276.736 180.395C266.768 186.936 266.924 197.216 277.047 203.29C287.17 209.52 303.523 209.209 313.49 202.667C323.457 196.125 323.457 185.846 313.179 179.772Z" fill="white"/>
<path d="M313.023 179.773C302.9 173.698 286.859 174.01 276.891 180.396C267.08 186.781 267.08 197.061 277.203 203.135C287.326 209.21 303.367 208.898 313.334 202.512C323.301 196.127 323.146 185.847 313.023 179.773Z" fill="#FBFCFC"/>
<path d="M312.863 179.928C302.896 173.853 286.855 174.165 277.199 180.551C267.387 186.936 267.543 196.905 277.51 202.979C287.478 209.054 303.519 208.742 313.175 202.356C322.986 195.97 322.83 186.002 312.863 179.928Z" fill="#F8F8F9"/>
<path d="M312.555 180.085C302.743 174.166 286.858 174.322 277.202 180.708C267.546 187.094 267.702 196.906 277.513 202.98C287.325 208.899 303.21 208.743 312.866 202.357C322.677 195.972 322.522 186.003 312.555 180.085Z" fill="#F4F5F5"/>
<path d="M312.396 180.239C302.585 174.32 287.011 174.631 277.511 180.861C268.011 187.092 268.166 196.904 277.822 202.823C287.634 208.741 303.208 208.429 312.708 202.199C322.364 195.969 322.208 186.157 312.396 180.239Z" fill="#F1F1F2"/>
<path d="M312.24 180.395C302.584 174.632 287.165 174.787 277.665 181.017C268.165 187.248 268.321 196.904 277.976 202.667C287.632 208.43 303.051 208.274 312.551 202.044C322.051 195.97 321.895 186.157 312.24 180.395Z" fill="#EDEEEF"/>
<path d="M312.082 180.395C302.582 174.632 287.319 174.943 277.975 181.018C268.63 187.092 268.786 196.749 278.286 202.511C287.786 208.274 303.049 207.963 312.393 201.888C321.738 195.814 321.582 186.158 312.082 180.395Z" fill="#EAEAEC"/>
<path d="M311.773 180.551C302.429 174.788 287.322 175.1 277.978 181.174C268.789 187.248 268.945 196.749 278.289 202.356C287.633 208.119 302.74 207.808 312.084 201.733C321.428 195.815 321.273 186.314 311.773 180.551Z" fill="#E6E7E9"/>
<path d="M311.61 180.707C302.266 175.1 287.315 175.256 278.282 181.33C269.094 187.248 269.25 196.594 278.594 202.356C287.938 207.963 302.889 207.652 311.922 201.733C321.11 195.815 320.955 186.314 311.61 180.707Z" fill="#E2E3E5"/>
<path d="M311.458 180.861C302.269 175.254 287.474 175.565 278.441 181.484C269.408 187.403 269.564 196.592 278.752 202.199C287.941 207.806 302.737 207.495 311.769 201.576C320.802 195.658 320.646 186.468 311.458 180.861Z" fill="#DFE0E2"/>
<path d="M311.299 181.017C302.267 175.566 287.627 175.722 278.749 181.64C269.872 187.403 270.028 196.592 279.061 202.043C288.094 207.495 302.734 207.339 311.611 201.42C320.488 195.658 320.332 186.468 311.299 181.017Z" fill="#DBDCDF"/>
<path d="M310.988 181.173C301.955 175.722 287.627 176.033 278.75 181.796C269.872 187.559 270.028 196.593 279.061 202.044C288.094 207.495 302.422 207.184 311.3 201.421C320.177 195.658 320.021 186.469 310.988 181.173Z" fill="#D8D9DC"/>
<path d="M310.853 181.174C301.976 175.878 287.804 176.034 279.083 181.797C270.361 187.404 270.517 196.437 279.394 201.733C288.271 207.029 302.443 206.873 311.164 201.11C319.885 195.503 319.73 186.625 310.853 181.174Z" fill="#D4D5D9"/>
<path d="M310.675 181.33C301.954 176.035 287.937 176.346 279.216 181.953C270.65 187.561 270.806 196.438 279.527 201.734C288.249 207.029 302.265 206.874 310.987 201.111C319.552 195.504 319.397 186.626 310.675 181.33Z" fill="#D1D2D6"/>
<path d="M310.539 181.485C301.973 176.19 287.957 176.502 279.547 181.953C271.137 187.56 271.137 196.282 279.858 201.422C288.424 206.561 302.44 206.405 310.85 200.798C319.26 195.503 319.104 186.781 310.539 181.485Z" fill="#CDCED2"/>
<path d="M310.225 181.64C301.66 176.5 287.955 176.656 279.701 182.108C271.446 187.559 271.446 196.125 280.012 201.421C288.578 206.561 302.282 206.405 310.537 200.953C318.946 195.346 318.791 186.78 310.225 181.64Z" fill="#C9CBCF"/>
<path d="M310.071 181.797C301.661 176.657 288.112 176.968 279.858 182.264C271.603 187.715 271.759 196.126 280.169 201.266C288.579 206.405 302.129 206.094 310.383 200.798C318.637 195.347 318.481 186.781 310.071 181.797Z" fill="#C6C7CC"/>
<path d="M309.91 181.798C301.655 176.814 288.262 176.969 280.164 182.265C272.066 187.56 272.065 195.971 280.475 200.955C288.729 205.939 302.123 205.783 310.221 200.487C318.32 195.348 318.164 186.937 309.91 181.798Z" fill="#C2C4C9"/>
<path d="M309.756 181.951C301.502 176.967 288.42 177.278 280.321 182.418C272.223 187.714 272.379 195.969 280.633 200.953C288.887 205.937 301.969 205.626 310.068 200.486C318.166 195.346 317.855 186.935 309.756 181.951Z" fill="#BFC0C6"/>
<path d="M309.443 182.107C301.345 177.279 288.418 177.434 280.476 182.574C272.533 187.714 272.689 195.969 280.787 200.797C288.886 205.626 301.812 205.47 309.755 200.33C317.698 195.19 317.541 187.091 309.443 182.107Z" fill="#BBBDC2"/>
<path d="M309.287 182.264C301.344 177.435 288.418 177.591 280.631 182.731C272.844 187.871 272.844 195.814 280.942 200.798C288.885 205.627 301.811 205.471 309.598 200.331C317.385 195.191 317.229 187.092 309.287 182.264Z" fill="#B8B9BF"/>
<path d="M309.127 182.42C301.341 177.592 288.57 177.903 280.939 182.887C273.152 187.871 273.308 195.814 281.25 200.643C289.193 205.471 301.808 205.16 309.439 200.176C317.07 195.036 316.914 187.092 309.127 182.42Z" fill="#B4B6BC"/>
<path d="M305.555 175.41C299.481 172.607 289.982 172.762 284.063 175.722C279.859 177.746 278.768 180.862 280.637 183.354C281.26 182.108 282.506 181.017 284.531 180.083C290.449 177.123 300.104 176.968 306.022 179.771C307.735 180.55 308.982 181.485 309.76 182.575C311.006 179.927 309.604 177.279 305.555 175.41Z" fill="#DB5E1E"/>
<path d="M314.583 191.141L314.427 180.861L275.805 180.705L275.96 191.452C275.804 194.411 277.829 197.371 281.722 199.551C289.353 203.756 301.657 203.601 309.132 199.084C312.87 196.903 314.583 194.1 314.583 191.296V191.141Z" fill="url(#paint17_linear)"/>
<path d="M308.51 172.762C300.879 168.557 288.576 168.712 281.101 173.229C273.625 177.746 273.781 184.755 281.412 188.96C289.043 193.166 301.347 193.01 308.822 188.493C316.298 184.132 316.141 177.123 308.51 172.762Z" fill="url(#paint18_linear)"/>
<path d="M305.552 175.41C299.479 172.607 289.979 172.762 284.061 175.722C279.077 178.214 278.454 181.796 281.724 184.6C282.347 185.223 283.282 185.69 284.216 186.157C290.29 188.961 299.79 188.805 305.708 185.846C306.643 185.379 307.266 184.911 307.889 184.444C311.627 181.485 310.692 177.747 305.552 175.41Z" fill="url(#paint19_linear)"/>
<path d="M287.802 177.435C284.999 179.148 282.974 181.64 281.884 184.6C282.507 185.223 283.441 185.69 284.376 186.157C290.45 188.96 299.95 188.805 305.868 185.846C306.802 185.378 307.425 184.911 308.048 184.444C307.736 183.665 307.425 183.042 306.958 182.263C303.065 175.566 294.343 173.385 287.802 177.435Z" fill="url(#paint20_linear)"/>
<path d="M305.555 175.41C299.481 172.607 289.982 172.762 284.063 175.722C279.859 177.746 278.768 180.862 280.637 183.354C281.26 182.108 282.506 181.017 284.531 180.083C290.449 177.123 300.104 176.968 306.022 179.771C307.735 180.55 308.982 181.485 309.76 182.575C311.006 179.927 309.604 177.279 305.555 175.41Z" fill="#DB5E1E"/>
<path d="M314.583 191.141L314.427 180.861L275.805 180.705L275.96 191.452C275.804 194.411 277.829 197.371 281.722 199.551C289.353 203.756 301.657 203.601 309.132 199.084C312.87 196.903 314.583 194.1 314.583 191.296V191.141Z" fill="#EBEAF1"/>
<path d="M308.51 172.762C300.879 168.557 288.576 168.712 281.101 173.229C273.625 177.746 273.781 184.755 281.412 188.96C289.043 193.166 301.347 193.01 308.822 188.493C316.298 184.132 316.141 177.123 308.51 172.762Z" fill="#B7BAC7"/>
<path d="M305.552 175.41C299.479 172.607 289.979 172.762 284.061 175.722C279.077 178.214 278.454 181.796 281.724 184.6C282.347 185.223 283.282 185.69 284.216 186.157C290.29 188.961 299.79 188.805 305.708 185.846C306.643 185.379 307.266 184.911 307.889 184.444C311.627 181.485 310.692 177.747 305.552 175.41Z" fill="#2648CC"/>
<path d="M287.802 177.435C284.999 179.148 282.974 181.64 281.884 184.6C282.507 185.223 283.441 185.69 284.376 186.157C290.45 188.96 299.95 188.805 305.868 185.846C306.802 185.378 307.425 184.911 308.048 184.444C307.736 183.665 307.425 183.042 306.958 182.263C303.065 175.566 294.343 173.385 287.802 177.435Z" fill="url(#paint21_radial)"/>
<path d="M275.016 173.229C275.016 174.008 275.95 178.057 277.663 180.549C280.622 184.443 284.983 186.468 289.188 187.402C298.221 189.427 313.795 186.001 314.262 172.451C304.606 180.861 283.114 180.238 275.016 173.229Z" fill="url(#paint22_linear)"/>
<path d="M307.725 160.925C304.143 159.212 290.438 156.408 281.094 161.237C278.135 162.794 273.462 165.753 275.02 174.164C275.798 178.058 280.315 181.952 284.831 184.288C289.036 186.468 296.045 186.157 298.693 185.69C301.496 185.222 304.143 184.444 306.324 183.353C308.971 181.952 311.775 180.083 313.176 176.967C315.98 171.205 312.709 163.261 307.725 160.925Z" fill="url(#paint23_linear)"/>
<path d="M272.698 169.024C272.698 169.803 273.632 173.853 275.657 176.345C278.927 180.238 283.911 182.263 288.583 183.198C298.706 185.222 316.304 181.796 316.616 168.246C305.87 176.812 281.731 176.033 272.698 169.024Z" fill="#1270E8"/>
<path d="M272.698 168.244C272.698 169.023 273.632 173.072 275.657 175.564C278.927 179.458 283.911 181.483 288.583 182.418C298.706 184.442 316.304 181.016 316.616 167.465C305.87 176.032 281.731 175.253 272.698 168.244Z" fill="url(#paint24_linear)"/>
<path d="M309.446 155.94C305.397 154.227 289.979 151.423 279.544 156.252C276.274 157.809 270.979 160.768 272.848 169.179C273.782 173.073 278.766 176.966 283.905 179.303C288.733 181.483 296.52 181.172 299.323 180.704C302.438 180.237 305.397 179.458 307.889 178.368C310.848 176.966 313.962 175.098 315.52 171.982C318.479 166.22 314.897 158.432 309.446 155.94Z" fill="url(#paint25_linear)"/>
<path d="M271.604 163.73C271.604 164.509 272.694 168.559 274.718 171.051C278.145 174.944 283.284 176.969 288.424 177.904C299.014 179.929 317.547 176.502 317.858 162.952C306.489 171.518 281.104 170.739 271.604 163.73Z" fill="#1270E8"/>
<path d="M271.604 163.107C271.604 163.885 272.694 167.935 274.718 170.427C278.145 174.321 283.284 176.345 288.424 177.28C299.014 179.305 317.547 175.878 317.858 162.328C306.489 170.738 281.104 170.115 271.604 163.107Z" fill="url(#paint26_linear)"/>
<path d="M310.224 150.802C305.864 149.089 289.822 146.285 278.921 151.113C275.494 152.671 269.888 155.63 271.913 164.041C272.847 167.935 278.142 171.829 283.437 174.165C288.421 176.345 296.675 176.034 299.79 175.566C303.216 175.099 306.175 174.32 308.823 173.23C311.938 171.828 315.208 169.959 316.921 166.844C319.724 161.082 315.987 153.138 310.224 150.802Z" fill="url(#paint27_linear)"/>
<path d="M315.216 154.694C311.478 150.333 303.691 147.374 294.502 147.374C285.625 147.374 277.838 150.177 274.1 154.383C273.166 155.317 272.542 156.407 272.075 157.498C271.764 158.432 271.453 159.367 271.453 160.457C271.453 160.769 271.452 161.08 271.608 161.547C271.764 162.637 272.075 163.572 272.698 164.662C275.657 169.802 284.379 173.54 294.658 173.54C304.625 173.54 313.191 169.958 316.306 164.974C316.928 164.039 317.24 163.105 317.552 162.17C317.707 161.703 317.707 161.08 317.707 160.613C317.707 159.678 317.551 158.744 317.24 157.965C316.773 156.563 315.994 155.629 315.216 154.694Z" fill="#1270E8"/>
<path d="M315.216 153.605C311.478 149.244 303.691 146.285 294.502 146.285C285.625 146.285 277.838 149.088 274.1 153.293C273.166 154.228 272.542 155.318 272.075 156.409C271.764 157.343 271.453 158.278 271.453 159.368C271.453 159.679 271.452 159.991 271.608 160.458C271.764 161.549 272.075 162.483 272.698 163.573C275.657 168.713 284.379 172.451 294.658 172.451C304.625 172.451 313.191 168.869 316.306 163.885C316.928 162.95 317.24 162.016 317.552 161.081C317.707 160.614 317.707 159.991 317.707 159.524C317.707 158.589 317.551 157.655 317.24 156.876C316.773 155.63 315.994 154.54 315.216 153.605Z" fill="url(#paint28_linear)"/>
<path d="M294.652 148.152C281.882 148.152 273.004 154.071 273.004 159.522C273.004 164.818 281.882 170.892 294.652 170.892C307.423 170.892 316.3 164.974 316.3 159.522C316.144 154.071 307.267 148.152 294.652 148.152Z" fill="url(#paint29_linear)"/>
<path opacity="0.67" d="M296.206 90.2135C295.739 90.2135 295.272 90.2135 294.649 90.2135C277.05 90.2135 262.878 104.387 262.878 121.987C262.878 128.217 264.591 133.98 267.706 138.808C271.288 144.727 273.001 151.424 273.157 158.433C273.157 161.548 275.337 164.663 279.386 167.155C287.796 171.983 301.813 172.139 310.223 167.155C314.427 164.818 316.14 162.482 316.296 158.433C316.608 151.424 318.321 144.571 321.903 138.496C325.018 133.201 326.731 126.971 326.419 120.273C325.641 104.075 311.936 90.2135 296.206 90.2135Z" fill="url(#paint30_linear)"/>
<g opacity="0.55">
<path opacity="0.55" d="M305.237 93.9518C304.614 95.8208 303.835 97.8455 303.212 99.7145C306.482 101.272 309.286 103.453 311.622 106.1C313.179 104.854 314.581 103.453 316.139 102.207C313.179 98.6243 309.442 95.8208 305.237 93.9518Z" fill="url(#paint31_linear)"/>
<path opacity="0.55" d="M302.744 100.804C302.122 102.674 301.343 104.698 300.72 106.567C302.9 107.502 304.613 109.059 306.171 110.773C307.728 109.527 309.13 108.125 310.688 106.879C308.507 104.387 305.859 102.206 302.744 100.804Z" fill="url(#paint32_linear)"/>
<path opacity="0.55" d="M313.012 107.813C315.037 110.616 316.594 114.043 317.217 117.47C319.241 117.314 321.266 117.158 323.291 116.846C322.356 112.33 320.487 107.969 317.84 104.386C316.283 105.477 314.57 106.723 313.012 107.813Z" fill="url(#paint33_linear)"/>
<path opacity="0.55" d="M307.108 111.862C308.51 113.731 309.444 115.912 309.911 118.092C311.936 117.936 313.961 117.625 315.986 117.469C315.363 114.198 313.961 111.083 311.936 108.28C310.379 109.681 308.821 110.772 307.108 111.862Z" fill="url(#paint34_linear)"/>
</g>
<path d="M295.115 115.756C287.328 115.756 281.099 121.986 281.099 129.774V157.653C281.099 159.99 282.967 161.859 285.303 161.859C287.639 161.859 289.508 159.99 289.508 157.653V129.774C289.508 126.659 292 124.167 295.115 124.167C298.23 124.167 300.721 126.659 300.721 129.774V157.653C300.721 159.99 302.59 161.859 304.926 161.859C307.262 161.859 309.131 159.99 309.131 157.653V129.774C309.131 122.142 302.902 115.756 295.115 115.756Z" fill="url(#paint35_linear)"/>
<path d="M285.466 152.67C284.22 152.67 283.13 153.604 283.13 154.85C283.13 156.096 284.064 157.031 285.466 157.031C286.712 157.031 287.646 156.096 287.646 154.85C287.646 153.604 286.712 152.67 285.466 152.67Z" fill="url(#paint36_radial)"/>
<path d="M285.466 145.194C284.22 145.194 283.13 146.129 283.13 147.375C283.13 148.621 284.064 149.555 285.466 149.555C286.712 149.555 287.646 148.621 287.646 147.375C287.646 146.129 286.712 145.194 285.466 145.194Z" fill="url(#paint37_radial)"/>
<path d="M285.466 137.874C284.22 137.874 283.13 138.808 283.13 140.054C283.13 141.3 284.064 142.235 285.466 142.235C286.712 142.235 287.646 141.3 287.646 140.054C287.646 138.808 286.712 137.874 285.466 137.874Z" fill="url(#paint38_radial)"/>
<path d="M285.466 130.398C284.22 130.398 283.13 131.333 283.13 132.579C283.13 133.825 284.064 134.759 285.466 134.759C286.712 134.759 287.646 133.825 287.646 132.579C287.646 131.333 286.712 130.398 285.466 130.398Z" fill="url(#paint39_radial)"/>
<path d="M286.386 122.923C285.14 122.923 284.205 123.857 284.205 125.103C284.205 126.349 285.14 127.284 286.386 127.284C287.632 127.284 288.566 126.349 288.566 125.103C288.721 124.013 287.632 122.923 286.386 122.923Z" fill="url(#paint40_radial)"/>
<path d="M291.855 118.717C290.609 118.717 289.519 119.651 289.519 120.897C289.519 122.143 290.453 123.078 291.855 123.078C293.101 123.078 294.035 122.143 294.035 120.897C294.035 119.651 293.101 118.717 291.855 118.717Z" fill="url(#paint41_radial)"/>
<path d="M304.932 152.67C303.687 152.67 302.752 153.604 302.752 154.85C302.752 156.096 303.687 157.031 304.932 157.031C306.178 157.031 307.268 156.096 307.268 154.85C307.113 153.604 306.178 152.67 304.932 152.67Z" fill="url(#paint42_radial)"/>
<path d="M304.932 145.194C303.687 145.194 302.752 146.129 302.752 147.375C302.752 148.621 303.687 149.555 304.932 149.555C306.178 149.555 307.268 148.621 307.268 147.375C307.113 146.129 306.178 145.194 304.932 145.194Z" fill="url(#paint43_radial)"/>
<path d="M304.932 137.874C303.687 137.874 302.752 138.808 302.752 140.054C302.752 141.3 303.687 142.235 304.932 142.235C306.178 142.235 307.268 141.3 307.268 140.054C307.113 138.808 306.178 137.874 304.932 137.874Z" fill="url(#paint44_radial)"/>
<path d="M304.932 130.398C303.687 130.398 302.752 131.333 302.752 132.579C302.752 133.825 303.687 134.759 304.932 134.759C306.178 134.759 307.268 133.825 307.268 132.579C307.113 131.333 306.178 130.398 304.932 130.398Z" fill="url(#paint45_radial)"/>
<path d="M303.841 122.923C302.596 122.923 301.661 123.857 301.661 125.103C301.661 126.349 302.596 127.284 303.841 127.284C305.087 127.284 306.021 126.349 306.021 125.103C306.177 124.013 305.087 122.923 303.841 122.923Z" fill="url(#paint46_radial)"/>
<path d="M298.394 118.717C297.148 118.717 296.058 119.651 296.058 120.897C296.058 122.143 297.148 123.078 298.394 123.078C299.64 123.078 300.73 122.143 300.73 120.897C300.73 119.651 299.64 118.717 298.394 118.717Z" fill="url(#paint47_radial)"/>
<path opacity="0.13" d="M361.313 190.052V193.012C361.313 209.833 331.878 223.383 295.435 223.383C261.328 223.383 233.295 211.39 229.869 196.127V185.224C229.869 122.145 295.902 33.3665 295.902 33.3665C296.058 33.678 361.313 112.955 361.313 190.052Z" fill="url(#paint48_linear)"/>
<path opacity="0.4" d="M272.386 191.919C271.451 192.853 271.295 194.41 272.23 195.501C273.164 196.591 274.722 196.591 275.812 195.656C276.902 194.722 276.902 193.165 275.968 192.074C275.033 190.984 273.32 190.984 272.386 191.919Z" fill="white"/>
<path d="M323.631 193.789C322.54 194.723 322.541 196.281 323.475 197.371C324.41 198.461 325.967 198.461 327.057 197.527C328.147 196.592 328.147 195.035 327.213 193.944C326.278 192.854 324.565 192.698 323.631 193.789Z" fill="white"/>
<path opacity="0.4" d="M294.038 150.333C292.948 151.423 292.948 153.137 293.882 154.227C294.972 155.317 296.685 155.317 297.775 154.383C298.865 153.292 298.865 151.579 297.931 150.489C296.841 149.399 295.128 149.399 294.038 150.333Z" fill="white"/>
<path opacity="0.4" d="M292.477 159.678C291.855 160.301 291.855 161.391 292.477 162.014C293.1 162.637 294.191 162.637 294.814 162.014C295.437 161.391 295.437 160.301 294.814 159.678C294.191 159.055 293.256 159.055 292.477 159.678Z" fill="white"/>
<path opacity="0.8" d="M289.988 156.565C289.521 157.032 289.521 157.655 289.988 157.966C290.455 158.434 291.079 158.434 291.39 157.966C291.857 157.499 291.857 156.876 291.39 156.565C291.079 156.097 290.455 156.097 289.988 156.565Z" fill="white"/>
<path opacity="0.8" d="M329.382 179.927C328.914 180.395 328.914 181.017 329.382 181.329C329.849 181.796 330.472 181.796 330.783 181.329C331.251 180.862 331.251 180.239 330.783 179.927C330.472 179.46 329.849 179.46 329.382 179.927Z" fill="white"/>
<path opacity="0.4" d="M281.901 132.421C281.745 132.577 281.745 132.733 281.901 132.889C282.056 133.045 282.212 133.045 282.368 132.889C282.523 132.733 282.523 132.577 282.368 132.421C282.212 132.266 282.056 132.266 281.901 132.421Z" fill="white"/>
<path opacity="0.8" d="M283.761 145.505C283.606 145.661 283.606 145.816 283.761 145.972C283.917 146.128 284.073 146.128 284.228 145.972C284.384 145.816 284.384 145.661 284.228 145.505C284.073 145.349 283.917 145.349 283.761 145.505Z" fill="white"/>
<path opacity="0.8" d="M311.322 192.854C311.166 193.01 311.166 193.165 311.322 193.321C311.478 193.477 311.633 193.477 311.789 193.321C311.945 193.165 311.945 193.01 311.789 192.854C311.633 192.698 311.478 192.698 311.322 192.854Z" fill="white"/>
<path opacity="0.8" d="M308.371 188.805C308.215 188.961 308.215 189.116 308.371 189.272C308.526 189.428 308.682 189.428 308.838 189.272C308.994 189.116 308.994 188.961 308.838 188.805C308.682 188.805 308.526 188.805 308.371 188.805Z" fill="white"/>
<path opacity="0.4" d="M259.923 144.726C258.366 146.128 258.366 148.62 259.768 150.177C261.17 151.735 263.661 151.735 265.219 150.333C266.776 148.931 266.776 146.439 265.375 144.882C263.973 143.324 261.481 143.324 259.923 144.726Z" fill="white"/>
<path d="M251.676 177.901C250.897 178.679 250.897 179.77 251.52 180.548C252.299 181.327 253.389 181.327 254.167 180.548C254.946 179.77 254.946 178.679 254.323 177.901C253.7 177.278 252.454 177.278 251.676 177.901Z" fill="white"/>
<path opacity="0.4" d="M287.197 170.892C286.418 171.67 286.418 172.916 287.041 173.539C287.82 174.318 288.91 174.318 289.688 173.695C290.467 172.916 290.467 171.826 289.844 171.047C289.221 170.113 287.975 170.113 287.197 170.892Z" fill="white"/>
<path opacity="0.4" d="M268.036 123.543C267.257 124.322 267.257 125.412 267.88 126.19C268.658 126.969 269.748 126.969 270.527 126.346C271.305 125.567 271.306 124.477 270.683 123.699C269.904 122.764 268.814 122.764 268.036 123.543Z" fill="white"/>
<path opacity="0.4" d="M246.228 161.859C245.449 162.638 245.449 163.728 246.072 164.507C246.851 165.286 247.941 165.286 248.719 164.507C249.498 163.728 249.498 162.638 248.875 161.859C248.252 161.236 247.006 161.08 246.228 161.859Z" fill="white"/>
<path opacity="0.4" d="M324.884 165.441C324.105 166.22 324.105 167.466 324.728 168.089C325.506 168.868 326.597 168.868 327.376 168.089C328.155 167.311 328.154 166.22 327.531 165.441C326.908 164.818 325.662 164.662 324.884 165.441Z" fill="white"/>
<path opacity="0.4" d="M301.045 125.414C300.266 126.192 300.266 127.283 300.889 128.061C301.667 128.84 302.758 128.84 303.537 128.217C304.315 127.438 304.315 126.348 303.692 125.569C303.069 124.791 301.823 124.791 301.045 125.414Z" fill="white"/>
<path d="M337.654 136.937C337.343 137.248 337.343 137.871 337.654 138.183C337.966 138.495 338.588 138.65 338.9 138.183C339.211 137.871 339.211 137.248 338.9 136.937C338.588 136.625 337.966 136.625 337.654 136.937Z" fill="white"/>
<path opacity="0.4" d="M280.013 187.559C279.545 188.026 279.545 188.649 280.013 189.117C280.48 189.584 281.103 189.584 281.57 189.117C282.037 188.649 282.037 188.026 281.57 187.559C281.103 187.092 280.48 187.092 280.013 187.559Z" fill="white"/>
<path d="M276.45 137.249C275.983 137.716 275.983 138.34 276.45 138.807C276.917 139.274 277.54 139.274 278.007 138.807C278.474 138.34 278.474 137.716 278.007 137.249C277.696 136.938 276.917 136.782 276.45 137.249Z" fill="white"/>
<path d="M249.964 139.431C249.652 139.742 249.652 140.21 249.964 140.521C250.275 140.833 250.742 140.833 251.053 140.521C251.365 140.21 251.365 139.742 251.053 139.431C250.742 139.119 250.275 139.119 249.964 139.431Z" fill="white"/>
<path d="M258.535 164.196C258.068 164.664 258.068 165.287 258.535 165.754C259.002 166.221 259.625 166.221 260.092 165.754C260.56 165.287 260.56 164.664 260.092 164.196C259.625 163.729 258.846 163.729 258.535 164.196Z" fill="white"/>
<path d="M258.844 167.465C258.532 167.776 258.532 168.088 258.844 168.399C258.999 168.711 259.467 168.711 259.779 168.399C260.09 168.244 260.09 167.776 259.779 167.465C259.467 167.309 258.999 167.309 258.844 167.465Z" fill="white"/>
<path opacity="0.4" d="M267.411 108.279C266.165 109.214 265.853 110.771 266.787 112.017C267.722 113.263 269.435 113.575 270.525 112.64C271.771 111.706 272.083 109.992 271.148 108.902C270.369 107.656 268.656 107.344 267.411 108.279Z" fill="white"/>
<path opacity="0.4" d="M275.515 98.3111C274.736 98.7783 274.58 99.8687 275.203 100.647C275.671 101.426 276.761 101.582 277.384 100.959C278.162 100.492 278.318 99.4014 277.695 98.6226C277.228 97.9997 276.293 97.8438 275.515 98.3111Z" fill="white"/>
<path opacity="0.8" d="M278.309 102.674C277.842 102.985 277.687 103.608 277.998 104.075C278.309 104.543 278.932 104.698 279.399 104.387C279.866 104.075 280.022 103.452 279.711 102.985C279.399 102.518 278.776 102.362 278.309 102.674Z" fill="white"/>
<path opacity="0.4" d="M285.162 110.46C285.006 110.616 285.006 110.772 285.162 110.928C285.318 111.084 285.473 111.084 285.629 110.928C285.785 110.772 285.785 110.616 285.629 110.46C285.473 110.305 285.318 110.305 285.162 110.46Z" fill="white"/>
<path opacity="0.8" d="M302.452 102.674C302.296 102.674 302.14 102.83 302.14 102.986C302.14 103.141 302.296 103.297 302.452 103.297C302.607 103.297 302.763 103.141 302.763 102.986C302.763 102.83 302.607 102.674 302.452 102.674Z" fill="white"/>
<path opacity="0.4" d="M321.758 99.7126C319.578 99.7126 317.865 101.27 317.865 103.451C317.865 105.631 319.422 107.345 321.602 107.345C323.783 107.345 325.496 105.787 325.496 103.606C325.652 101.582 323.939 99.8684 321.758 99.7126Z" fill="white"/>
<path opacity="0.4" d="M302.917 112.33C301.982 112.953 301.827 114.199 302.449 114.978C303.072 115.757 304.318 116.068 305.097 115.445C306.031 114.822 306.187 113.576 305.564 112.798C304.941 111.863 303.695 111.707 302.917 112.33Z" fill="white"/>
<path opacity="0.4" d="M330.171 139.118C329.081 139.118 328.302 139.897 328.146 140.987C328.146 142.078 328.925 143.012 330.015 143.012C331.105 143.012 332.04 142.233 332.04 141.143C332.195 140.053 331.261 139.118 330.171 139.118Z" fill="white"/>
<path opacity="0.4" d="M296.375 54.5458C295.285 54.5458 294.506 55.3246 294.351 56.4149C294.351 57.5053 295.13 58.4399 296.22 58.4399C297.31 58.4399 298.089 57.6612 298.244 56.5708C298.244 55.4805 297.466 54.5458 296.375 54.5458Z" fill="white"/>
<path opacity="0.4" d="M301.978 83.5172C300.888 83.5172 300.109 84.2959 299.954 85.3861C299.954 86.4763 300.732 87.4109 301.823 87.4109C302.913 87.4109 303.692 86.6322 303.847 85.542C303.847 84.296 303.069 83.5172 301.978 83.5172Z" fill="white"/>
<path d="M286.711 63.1133C286.244 63.1133 285.777 63.4248 285.777 64.0478C285.777 64.515 286.088 64.9823 286.711 64.9823C287.178 64.9823 287.646 64.6708 287.646 64.0478C287.646 63.5805 287.178 63.1133 286.711 63.1133Z" fill="white"/>
<path d="M313.202 103.607C312.579 103.607 312.111 104.075 312.111 104.698C312.111 105.321 312.579 105.788 313.202 105.788C313.825 105.788 314.293 105.321 314.293 104.698C314.293 104.075 313.825 103.607 313.202 103.607Z" fill="white"/>
<path d="M311.644 122.455C311.177 122.455 310.866 122.767 310.866 123.234C310.866 123.701 311.177 124.013 311.644 124.013C312.111 124.013 312.423 123.701 312.423 123.234C312.423 122.767 312.111 122.455 311.644 122.455Z" fill="white"/>
<path d="M323.157 130.552C322.534 130.552 322.067 131.019 322.067 131.642C322.067 132.266 322.534 132.733 323.157 132.733C323.779 132.733 324.247 132.266 324.247 131.642C324.247 131.019 323.779 130.552 323.157 130.552Z" fill="white"/>
<path d="M315.231 122.455C314.919 122.455 314.608 122.766 314.608 123.078C314.608 123.389 314.919 123.701 315.231 123.701C315.542 123.701 315.853 123.389 315.853 123.078C315.853 122.766 315.542 122.455 315.231 122.455Z" fill="white"/>
<path opacity="0.4" d="M271.926 176.345C271.614 176.656 271.614 177.123 271.926 177.434C272.238 177.746 272.705 177.746 273.016 177.434C273.328 177.123 273.328 176.656 273.016 176.345C272.705 176.189 272.238 176.189 271.926 176.345Z" fill="white"/>
<path opacity="0.4" d="M318.648 178.835C318.337 179.146 318.337 179.614 318.648 179.925C318.96 180.237 319.427 180.237 319.739 179.925C320.05 179.614 320.05 179.146 319.739 178.835C319.427 178.679 318.96 178.679 318.648 178.835Z" fill="white"/>
<path d="M291.394 85.8512C290.616 86.63 290.615 87.8761 291.238 88.6549C292.017 89.4336 293.263 89.4335 294.042 88.8105C294.82 88.0318 294.821 86.7859 294.198 86.0071C293.419 85.2284 292.173 85.0725 291.394 85.8512Z" fill="white"/>
<path opacity="0.13" d="M361.313 190.052C361.313 190.052 356.018 135.851 327.206 116.538C313.19 107.192 318.485 57.3518 296.837 60.7783C270.361 64.9836 294.19 119.653 268.96 125.727C248.558 130.555 229.869 185.536 229.869 185.536C229.869 122.456 295.902 33.6777 295.902 33.6777C296.058 33.6777 361.313 112.955 361.313 190.052Z" fill="url(#paint49_linear)"/>
<path opacity="0.13" d="M361.305 190.051V193.011C361.305 209.832 331.87 223.382 295.428 223.382C261.321 223.382 302.592 182.108 315.051 172.451C338.256 154.54 269.108 130.71 297.92 105.478C315.207 90.2143 288.575 76.3523 296.051 33.209C296.051 33.6762 361.305 112.954 361.305 190.051Z" fill="url(#paint50_linear)"/>
<defs>
<linearGradient id="paint0_linear" x1="163.083" y1="203.69" x2="141.472" y2="203.69" gradientUnits="userSpaceOnUse">
<stop offset="8e-08" stop-color="#00A3FF"/>
<stop offset="1" stop-color="#1270E8"/>
</linearGradient>
<linearGradient id="paint1_linear" x1="120.398" y1="221.704" x2="98.7799" y2="221.704" gradientUnits="userSpaceOnUse">
<stop offset="8e-08" stop-color="#00A3FF"/>
<stop offset="1" stop-color="#1270E8"/>
</linearGradient>
<linearGradient id="paint2_linear" x1="141.48" y1="178.704" x2="138.521" y2="178.704" gradientUnits="userSpaceOnUse">
<stop offset="7e-07" stop-color="#0083D2"/>
<stop offset="1" stop-color="#0F54AF"/>
</linearGradient>
<linearGradient id="paint3_linear" x1="141.48" y1="231.88" x2="138.521" y2="231.88" gradientUnits="userSpaceOnUse">
<stop offset="7e-07" stop-color="#0083D2"/>
<stop offset="1" stop-color="#0F54AF"/>
</linearGradient>
<linearGradient id="paint4_linear" x1="98.8014" y1="231.926" x2="95.8361" y2="231.926" gradientUnits="userSpaceOnUse">
<stop offset="7e-07" stop-color="#0083D2"/>
<stop offset="1" stop-color="#0F54AF"/>
</linearGradient>
<linearGradient id="paint5_linear" x1="78.2812" y1="75.7477" x2="110.251" y2="75.7477" gradientUnits="userSpaceOnUse">
<stop offset="8e-08" stop-color="#FF3D49"/>
<stop offset="1" stop-color="#D80B1E"/>
</linearGradient>
<linearGradient id="paint6_linear" x1="57.2577" y1="85.5448" x2="76.4581" y2="85.5448" gradientUnits="userSpaceOnUse">
<stop offset="8e-08" stop-color="#FF3D49"/>
<stop offset="1" stop-color="#D80B1E"/>
</linearGradient>
<linearGradient id="paint7_linear" x1="23.4483" y1="96.0082" x2="55.4476" y2="96.0082" gradientUnits="userSpaceOnUse">
<stop offset="8e-08" stop-color="#FF3D49"/>
<stop offset="1" stop-color="#D80B1E"/>
</linearGradient>
<linearGradient id="paint8_linear" x1="253.693" y1="416.201" x2="401.652" y2="509.641" gradientUnits="userSpaceOnUse">
<stop stop-color="#DADDE4"/>
<stop offset="1" stop-color="#DADDE4" stop-opacity="0"/>
</linearGradient>
<linearGradient id="paint9_linear" x1="294.028" y1="388.848" x2="294.028" y2="425.744" gradientUnits="userSpaceOnUse">
<stop offset="8e-08" stop-color="#00A3FF"/>
<stop offset="1" stop-color="#1270E8"/>
</linearGradient>
<linearGradient id="paint10_linear" x1="254.235" y1="397.994" x2="313.119" y2="450.659" gradientUnits="userSpaceOnUse">
<stop offset="8e-08" stop-color="#00A3FF"/>
<stop offset="1" stop-color="#1270E8"/>
</linearGradient>
<linearGradient id="paint11_linear" x1="386.748" y1="407.032" x2="395.676" y2="413.778" gradientUnits="userSpaceOnUse">
<stop offset="8e-08" stop-color="#00A3FF"/>
<stop offset="1" stop-color="#1270E8"/>
</linearGradient>
<linearGradient id="paint12_linear" x1="192.21" y1="398.275" x2="192.21" y2="444.101" gradientUnits="userSpaceOnUse">
<stop offset="8e-08" stop-color="#00A3FF"/>
<stop offset="1" stop-color="#1270E8"/>
</linearGradient>
<linearGradient id="paint13_linear" x1="251.494" y1="410.85" x2="339.788" y2="410.85" gradientUnits="userSpaceOnUse">
<stop offset="8e-08" stop-color="#00A3FF"/>
<stop offset="1" stop-color="#1270E8"/>
</linearGradient>
<linearGradient id="paint14_linear" x1="299.831" y1="337.854" x2="314.362" y2="361.333" gradientUnits="userSpaceOnUse">
<stop stop-color="#6C7F9F"/>
<stop offset="0.9441" stop-color="#6C7F9F"/>
</linearGradient>
<linearGradient id="paint15_linear" x1="225.112" y1="308.064" x2="243.225" y2="322.639" gradientUnits="userSpaceOnUse">
<stop stop-color="#6C7F9F"/>
<stop offset="0.9441" stop-color="#6C7F9F"/>
</linearGradient>
<linearGradient id="paint16_linear" x1="229.482" y1="227.035" x2="361.297" y2="227.035" gradientUnits="userSpaceOnUse">
<stop offset="8e-08" stop-color="#00A3FF"/>
<stop offset="1" stop-color="#1270E8"/>
</linearGradient>
<linearGradient id="paint17_linear" x1="275.644" y1="191.706" x2="314.517" y2="191.706" gradientUnits="userSpaceOnUse">
<stop stop-color="#FFD7A7"/>
<stop offset="1" stop-color="#FF0044"/>
</linearGradient>
<linearGradient id="paint18_linear" x1="294.967" y1="169.068" x2="294.967" y2="196.409" gradientUnits="userSpaceOnUse">
<stop stop-color="#FFD7A7"/>
<stop offset="1" stop-color="#FF0044"/>
</linearGradient>
<linearGradient id="paint19_linear" x1="294.965" y1="172.974" x2="294.965" y2="184.69" gradientUnits="userSpaceOnUse">
<stop stop-color="#0072F6"/>
<stop offset="1" stop-color="#002179"/>
</linearGradient>
<linearGradient id="paint20_linear" x1="289.07" y1="177.767" x2="298.675" y2="187.371" gradientUnits="userSpaceOnUse">
<stop stop-color="#00C8FF"/>
<stop offset="1" stop-color="#006CD7"/>
</linearGradient>
<radialGradient id="paint21_radial" cx="0" cy="0" r="1" gradientUnits="userSpaceOnUse" gradientTransform="translate(294.933 181.757) scale(10.3037 10.3046)">
<stop stop-color="#4D6AFF"/>
<stop offset="1" stop-color="#2648CC"/>
</radialGradient>
<linearGradient id="paint22_linear" x1="275.017" y1="180.14" x2="314.218" y2="180.14" gradientUnits="userSpaceOnUse">
<stop offset="8e-08" stop-color="#00A3FF"/>
<stop offset="1" stop-color="#1270E8"/>
</linearGradient>
<linearGradient id="paint23_linear" x1="274.823" y1="172.191" x2="314.218" y2="172.191" gradientUnits="userSpaceOnUse">
<stop offset="8e-08" stop-color="#00A3FF"/>
<stop offset="1" stop-color="#1270E8"/>
</linearGradient>
<linearGradient id="paint24_linear" x1="272.663" y1="175.25" x2="316.632" y2="175.25" gradientUnits="userSpaceOnUse">
<stop offset="8e-08" stop-color="#00A3FF"/>
<stop offset="1" stop-color="#1270E8"/>
</linearGradient>
<linearGradient id="paint25_linear" x1="272.438" y1="167.293" x2="316.622" y2="167.293" gradientUnits="userSpaceOnUse">
<stop offset="8e-08" stop-color="#00A3FF"/>
<stop offset="1" stop-color="#1270E8"/>
</linearGradient>
<linearGradient id="paint26_linear" x1="271.549" y1="170.027" x2="317.754" y2="170.027" gradientUnits="userSpaceOnUse">
<stop offset="8e-08" stop-color="#00A3FF"/>
<stop offset="1" stop-color="#1270E8"/>
</linearGradient>
<linearGradient id="paint27_linear" x1="271.307" y1="162.072" x2="317.75" y2="162.072" gradientUnits="userSpaceOnUse">
<stop offset="8e-08" stop-color="#00A3FF"/>
<stop offset="1" stop-color="#1270E8"/>
</linearGradient>
<linearGradient id="paint28_linear" x1="271.538" y1="159.387" x2="317.614" y2="159.387" gradientUnits="userSpaceOnUse">
<stop offset="8e-08" stop-color="#00A3FF"/>
<stop offset="1" stop-color="#1270E8"/>
</linearGradient>
<linearGradient id="paint29_linear" x1="272.986" y1="159.385" x2="316.163" y2="159.385" gradientUnits="userSpaceOnUse">
<stop stop-color="#0072F6"/>
<stop offset="1" stop-color="#002179"/>
</linearGradient>
<linearGradient id="paint30_linear" x1="317.953" y1="153.271" x2="273.323" y2="108.646" gradientUnits="userSpaceOnUse">
<stop stop-color="#FFCC38"/>
<stop offset="1" stop-color="#FF9500"/>
</linearGradient>
<linearGradient id="paint31_linear" x1="302.086" y1="99.984" x2="324.469" y2="99.984" gradientUnits="userSpaceOnUse">
<stop stop-color="white"/>
<stop offset="0.0391" stop-color="#F3F3F3"/>
<stop offset="0.3989" stop-color="#8D8D8D"/>
<stop offset="0.6885" stop-color="#414141"/>
<stop offset="0.8938" stop-color="#121212"/>
<stop offset="0.9961"/>
<stop offset="1"/>
</linearGradient>
<linearGradient id="paint32_linear" x1="289.808" y1="105.817" x2="308.576" y2="105.817" gradientUnits="userSpaceOnUse">
<stop stop-color="white"/>
<stop offset="0.0391" stop-color="#F3F3F3"/>
<stop offset="0.3989" stop-color="#8D8D8D"/>
<stop offset="0.6885" stop-color="#414141"/>
<stop offset="0.8938" stop-color="#121212"/>
<stop offset="0.9961"/>
<stop offset="1"/>
</linearGradient>
<linearGradient id="paint33_linear" x1="311.905" y1="110.934" x2="326.519" y2="110.934" gradientUnits="userSpaceOnUse">
<stop stop-color="white"/>
<stop offset="0.0391" stop-color="#F3F3F3"/>
<stop offset="0.3989" stop-color="#8D8D8D"/>
<stop offset="0.6885" stop-color="#414141"/>
<stop offset="0.8938" stop-color="#121212"/>
<stop offset="0.9961"/>
<stop offset="1"/>
</linearGradient>
<linearGradient id="paint34_linear" x1="298.462" y1="113.345" x2="312.888" y2="113.345" gradientUnits="userSpaceOnUse">
<stop stop-color="white"/>
<stop offset="0.0391" stop-color="#F3F3F3"/>
<stop offset="0.3989" stop-color="#8D8D8D"/>
<stop offset="0.6885" stop-color="#414141"/>
<stop offset="0.8938" stop-color="#121212"/>
<stop offset="0.9961"/>
<stop offset="1"/>
</linearGradient>
<linearGradient id="paint35_linear" x1="295.129" y1="159.054" x2="295.129" y2="115.425" gradientUnits="userSpaceOnUse">
<stop offset="8e-08" stop-color="#194E95"/>
<stop offset="1" stop-color="white"/>
</linearGradient>
<radialGradient id="paint36_radial" cx="0" cy="0" r="1" gradientUnits="userSpaceOnUse" gradientTransform="translate(285.421 154.831) scale(2.21774 2.21787)">
<stop stop-color="white"/>
<stop offset="0.9961"/>
<stop offset="1"/>
</radialGradient>
<radialGradient id="paint37_radial" cx="0" cy="0" r="1" gradientUnits="userSpaceOnUse" gradientTransform="translate(285.421 147.409) scale(2.21774)">
<stop stop-color="white"/>
<stop offset="0.9961"/>
<stop offset="1"/>
</radialGradient>
<radialGradient id="paint38_radial" cx="0" cy="0" r="1" gradientUnits="userSpaceOnUse" gradientTransform="translate(285.421 140.001) scale(2.21774 2.21798)">
<stop stop-color="white"/>
<stop offset="0.9961"/>
<stop offset="1"/>
</radialGradient>
<radialGradient id="paint39_radial" cx="0" cy="0" r="1" gradientUnits="userSpaceOnUse" gradientTransform="translate(285.421 132.587) scale(2.22085 2.22098)">
<stop stop-color="white"/>
<stop offset="0.9961"/>
<stop offset="1"/>
</radialGradient>
<radialGradient id="paint40_radial" cx="0" cy="0" r="1" gradientUnits="userSpaceOnUse" gradientTransform="translate(286.432 125.173) scale(2.2177)">
<stop stop-color="white"/>
<stop offset="0.9961"/>
<stop offset="1"/>
</radialGradient>
<radialGradient id="paint41_radial" cx="0" cy="0" r="1" gradientUnits="userSpaceOnUse" gradientTransform="translate(291.85 120.823) scale(2.21753 2.21798)">
<stop stop-color="white"/>
<stop offset="0.9961"/>
<stop offset="1"/>
</radialGradient>
<radialGradient id="paint42_radial" cx="0" cy="0" r="1" gradientUnits="userSpaceOnUse" gradientTransform="translate(304.879 154.831) scale(2.21774 2.21787)">
<stop stop-color="white"/>
<stop offset="0.9961"/>
<stop offset="1"/>
</radialGradient>
<radialGradient id="paint43_radial" cx="0" cy="0" r="1" gradientUnits="userSpaceOnUse" gradientTransform="translate(304.879 147.409) scale(2.21774)">
<stop stop-color="white"/>
<stop offset="0.9961"/>
<stop offset="1"/>
</radialGradient>
<radialGradient id="paint44_radial" cx="0" cy="0" r="1" gradientUnits="userSpaceOnUse" gradientTransform="translate(304.879 140.001) scale(2.21774 2.21798)">
<stop stop-color="white"/>
<stop offset="0.9961"/>
<stop offset="1"/>
</radialGradient>
<radialGradient id="paint45_radial" cx="0" cy="0" r="1" gradientUnits="userSpaceOnUse" gradientTransform="translate(304.879 132.587) scale(2.22085 2.22098)">
<stop stop-color="white"/>
<stop offset="0.9961"/>
<stop offset="1"/>
</radialGradient>
<radialGradient id="paint46_radial" cx="0" cy="0" r="1" gradientUnits="userSpaceOnUse" gradientTransform="translate(303.852 125.173) scale(2.21749 2.21776)">
<stop stop-color="white"/>
<stop offset="0.9961"/>
<stop offset="1"/>
</radialGradient>
<radialGradient id="paint47_radial" cx="0" cy="0" r="1" gradientUnits="userSpaceOnUse" gradientTransform="translate(298.453 120.823) scale(2.21928 2.21953)">
<stop stop-color="white"/>
<stop offset="0.9961"/>
<stop offset="1"/>
</radialGradient>
<linearGradient id="paint48_linear" x1="235.717" y1="128.52" x2="367.175" y2="128.52" gradientUnits="userSpaceOnUse">
<stop offset="8e-08" stop-color="#00A3FF"/>
<stop offset="1" stop-color="#1270E8"/>
</linearGradient>
<linearGradient id="paint49_linear" x1="235.717" y1="111.796" x2="367.175" y2="111.796" gradientUnits="userSpaceOnUse">
<stop offset="8e-08" stop-color="#00A3FF"/>
<stop offset="1" stop-color="#1270E8"/>
</linearGradient>
<linearGradient id="paint50_linear" x1="285.746" y1="128.518" x2="364.851" y2="128.518" gradientUnits="userSpaceOnUse">
<stop offset="8e-08" stop-color="#00A3FF"/>
<stop offset="1" stop-color="#1270E8"/>
</linearGradient>
</defs>
</svg>
