<svg width="29" height="29" viewBox="0 0 29 29" fill="none" xmlns="http://www.w3.org/2000/svg">
<path d="M25.655 29H25.4655C3.55624 27.7396 0.44546 9.24654 0.0106199 3.60269C-0.0244179 3.16388 0.0274434 2.72246 0.163232 2.30373C0.29902 1.885 0.516067 1.49718 0.801937 1.16251C1.08781 0.827839 1.43688 0.552883 1.82915 0.353398C2.22143 0.153913 2.6492 0.0338205 3.08795 1.04577e-06H9.23146C9.67807 -0.00043146 10.1145 0.1333 10.4843 0.383874C10.854 0.634447 11.1401 0.990317 11.3053 1.40539L13.0001 5.57692C13.1632 5.98242 13.2037 6.42693 13.1165 6.85526C13.0293 7.28358 12.8182 7.67683 12.5095 7.98615L10.1346 10.3842C10.5056 12.4931 11.5151 14.4372 13.0267 15.9533C14.5383 17.4694 16.4789 18.4845 18.5861 18.8612L21.0056 16.4631C21.3194 16.1576 21.7163 15.9514 22.1465 15.8701C22.5768 15.7887 23.0214 15.8359 23.4251 16.0058L27.6285 17.69C28.0372 17.8605 28.3858 18.1489 28.6301 18.5184C28.8743 18.8878 29.0031 19.3217 28.9999 19.7646V25.6538C28.9999 26.5413 28.6475 27.3924 28.0202 28.0199C27.3929 28.6475 26.5422 29 25.655 29ZM3.35554 2.23077C3.05983 2.23077 2.77623 2.34828 2.56714 2.55746C2.35804 2.76663 2.24057 3.05034 2.24057 3.34615V3.43539C2.75346 10.0385 6.04263 25.6538 25.5881 26.7692C25.7346 26.7783 25.8814 26.7583 26.0202 26.7105C26.1589 26.6627 26.2869 26.5879 26.3967 26.4905C26.5065 26.3931 26.596 26.2749 26.66 26.1429C26.7241 26.0108 26.7615 25.8673 26.77 25.7208V19.7646L22.5665 18.0804L19.3666 21.2592L18.8314 21.1923C9.13111 19.9765 7.81544 10.2727 7.81544 10.1723L7.74854 9.63692L10.9151 6.43577L9.24261 2.23077H3.35554Z" fill="#5068D4"/>
</svg>
