<svg width="29" height="22" viewBox="0 0 29 22" fill="none" xmlns="http://www.w3.org/2000/svg">
<path d="M27.1875 0H1.8125C1.3318 0 0.870779 0.193154 0.530869 0.536971C0.190959 0.880787 0 1.3471 0 1.83333V20.1667C0 20.6529 0.190959 21.1192 0.530869 21.463C0.870779 21.8068 1.3318 22 1.8125 22H27.1875C27.6682 22 28.1292 21.8068 28.4691 21.463C28.809 21.1192 29 20.6529 29 20.1667V1.83333C29 1.3471 28.809 0.880787 28.4691 0.536971C28.1292 0.193154 27.6682 0 27.1875 0ZM25.7919 20.1667H3.31687L9.66062 13.53L8.35563 12.2558L1.8125 19.1033V3.22667L13.0772 14.5658C13.4168 14.9073 13.8762 15.099 14.355 15.099C14.8338 15.099 15.2932 14.9073 15.6328 14.5658L27.1875 2.9425V18.9842L20.5175 12.2375L19.2397 13.53L25.7919 20.1667ZM2.99969 1.83333H25.7194L14.355 13.2642L2.99969 1.83333Z" fill="#5068D4"/>
</svg>
