<svg width="29" height="36" viewBox="0 0 29 36" fill="none" xmlns="http://www.w3.org/2000/svg">
<path d="M14.4993 8.46338C13.4439 8.46338 12.4123 8.75217 11.5348 9.29324C10.6573 9.83431 9.97337 10.6034 9.56951 11.5031C9.16564 12.4029 9.05997 13.393 9.26586 14.3481C9.47175 15.3033 9.97995 16.1807 10.7262 16.8694C11.4724 17.558 12.4232 18.027 13.4583 18.217C14.4934 18.407 15.5663 18.3095 16.5413 17.9368C17.5163 17.5641 18.3497 16.933 18.936 16.1232C19.5223 15.3134 19.8353 14.3614 19.8353 13.3875C19.8336 12.082 19.271 10.8304 18.2706 9.90726C17.2703 8.98413 15.914 8.46487 14.4993 8.46338ZM14.4993 15.8496C13.9716 15.8496 13.4558 15.7052 13.017 15.4346C12.5783 15.1641 12.2363 14.7796 12.0344 14.3297C11.8325 13.8798 11.7796 13.3848 11.8826 12.9072C11.9855 12.4296 12.2396 11.9909 12.6127 11.6466C12.9859 11.3022 13.4613 11.0677 13.9788 10.9727C14.4963 10.8777 15.0328 10.9265 15.5203 11.1129C16.0078 11.2992 16.4245 11.6148 16.7176 12.0197C17.0108 12.4245 17.1673 12.9005 17.1673 13.3875C17.1665 14.0402 16.8851 14.666 16.3849 15.1276C15.8848 15.5892 15.2066 15.8488 14.4993 15.8496Z" fill="#5068D4"/>
<path d="M24.7529 3.91815C22.2177 1.57922 18.8335 0.189808 15.2535 0.0180589C11.6735 -0.15369 8.15145 0.904403 5.36711 2.98813C2.58277 5.07185 0.733528 8.03348 0.176295 11.3014C-0.380939 14.5694 0.393336 17.912 2.34968 20.6841L12.4302 34.965C12.6546 35.2828 12.9613 35.5439 13.3226 35.7246C13.6839 35.9053 14.0884 36 14.4994 36C14.9104 36 15.3148 35.9053 15.6762 35.7246C16.0375 35.5439 16.3442 35.2828 16.5685 34.965L26.6494 20.6841C28.4647 18.1125 29.2669 15.0433 28.9216 11.9909C28.5763 8.93844 27.1045 6.08829 24.7529 3.91815ZM24.414 19.3402L14.4994 33.3855L4.58478 19.3402C1.54996 15.0409 2.20086 9.28736 6.13246 5.65905C7.23122 4.64508 8.53564 3.84075 9.97124 3.29198C11.4069 2.74322 12.9455 2.46078 14.4994 2.46078C16.0533 2.46078 17.592 2.74322 19.0276 3.29198C20.4632 3.84075 21.7676 4.64508 22.8664 5.65905C26.798 9.28736 27.4488 15.0409 24.414 19.3402Z" fill="#5068D4"/>
</svg>
