<svg width="81" height="78" viewBox="0 0 81 78" fill="none" xmlns="http://www.w3.org/2000/svg">
<path d="M58.5471 78C59.0779 78 59.5558 77.8943 59.9804 77.6301L79.9383 66.5311C80.6284 66.1612 81 65.5269 81 64.8399C81 64.1528 80.6284 63.5185 79.9915 63.1486L52.2837 47.293L24.576 31.4373C24.1514 31.2259 23.6737 31.0674 23.1429 31.0674C22.6121 31.0674 22.1343 31.1731 21.7097 31.4373L1.06166 43.012C0.371624 43.3819 0 44.0161 0 44.7032C0 45.3903 0.371572 46.0245 1.00853 46.3945L29.0879 61.9859L57.1672 77.5772C57.5387 77.8415 58.0163 78 58.5471 78Z" fill="white"/>
<path d="M1.06166 43.0648C0.743184 43.2762 0.477816 43.4876 0.265497 43.8047C0.106257 44.069 0 44.3861 0 44.7561C0 45.4431 0.371572 46.0774 1.00853 46.4473L28.2386 61.563L29.0347 61.9858L57.114 77.5772C57.2202 77.63 57.3263 77.6829 57.4325 77.7357C57.751 77.8943 58.1756 77.9472 58.5471 77.9472C58.6533 77.9472 58.7595 77.9472 58.9187 77.9472C59.2903 77.8943 59.6619 77.7886 59.9804 77.63L79.9383 66.5311C80.2568 66.3197 80.5223 66.1083 80.7347 65.7912C80.8939 65.5269 81 65.157 81 64.8399C81 64.1528 80.6284 63.5185 79.9915 63.1486L53.0799 47.7686L52.2837 47.293L24.576 31.4373C24.1514 31.2259 23.6737 31.0674 23.1429 31.0674C22.6121 31.0674 22.1343 31.1731 21.7097 31.4373L1.06166 43.0648Z" fill="#FEFEFE"/>
<path d="M1.06166 43.0652C0.743183 43.2766 0.477816 43.5408 0.265496 43.8051C0.106257 44.0694 0 44.3865 0 44.7564C0 45.4435 0.424652 46.0778 1.00853 46.3949L28.2385 61.5106L29.0347 61.9334L57.0608 77.5247C57.167 77.5776 57.2732 77.6304 57.3793 77.6833C57.6978 77.8419 58.1225 77.8947 58.4941 77.8947C58.6003 77.8947 58.7063 77.8947 58.8655 77.8947C59.2371 77.8419 59.6087 77.7362 59.9272 77.5776L79.8853 66.5315C80.2038 66.3201 80.4691 66.0558 80.6814 65.7916C80.8407 65.5273 80.9468 65.2102 80.9468 64.8403C80.9468 64.1532 80.5221 63.5189 79.9383 63.2018L53.0799 47.8747L52.2837 47.3991L24.576 31.5434C24.1514 31.332 23.6737 31.1735 23.1429 31.1735C22.6121 31.1735 22.1343 31.332 21.7096 31.5434L1.06166 43.0652Z" fill="#FDFDFD"/>
<path d="M1.06102 43.1185C0.742543 43.3299 0.477065 43.5942 0.317825 43.8584C0.158585 44.1227 0.0524902 44.4398 0.0524902 44.7569C0.0524902 45.3911 0.477195 46.0254 1.11415 46.3953L28.344 61.511L29.1404 61.9338L57.1666 77.5252C57.2727 77.578 57.3789 77.6309 57.485 77.6837C57.8035 77.8423 58.2281 77.8951 58.5997 77.8951C58.7058 77.8951 58.812 77.8951 58.9713 77.8423C59.3428 77.7894 59.7143 77.6837 60.0328 77.5252L79.9909 66.4791C80.3094 66.2677 80.5748 66.0034 80.7341 65.7392C80.8933 65.4749 80.9994 65.1578 80.9994 64.8407C80.9994 64.2065 80.5748 63.5722 79.9909 63.2023L53.1324 47.8752L52.3363 47.3995L24.6285 31.5968C24.2039 31.3854 23.7261 31.2268 23.1953 31.2268C22.7176 31.2268 22.1868 31.3854 21.7622 31.5968L1.06102 43.1185Z" fill="#FCFCFC"/>
<path d="M1.05916 43.1185C0.74068 43.3299 0.475202 43.5942 0.315963 43.8584C0.156723 44.1227 0.10376 44.4398 0.10376 44.7569C0.10376 45.3911 0.528302 46.0254 1.16526 46.3953L28.3421 61.511L29.1385 61.9338L57.1646 77.4724C57.2708 77.5252 57.3769 77.5781 57.4831 77.6309C57.8016 77.7895 58.2262 77.8423 58.5977 77.8423C58.7039 77.8423 58.8101 77.8423 58.9693 77.7895C59.3409 77.7366 59.7124 77.6309 60.0308 77.4724L79.9358 66.4263C80.2543 66.2149 80.5198 65.9506 80.679 65.6863C80.8382 65.4221 80.8913 65.105 80.8913 64.7879C80.8913 64.1536 80.4667 63.5194 79.8297 63.1494L52.9713 47.8223L52.1751 47.3467L24.4674 31.5439C24.0428 31.3325 23.5649 31.1739 23.0341 31.2268C22.5564 31.2268 22.0257 31.3854 21.601 31.5968L1.05916 43.1185Z" fill="#FBFBFB"/>
<path d="M1.11205 43.1185C0.793575 43.3299 0.528098 43.5942 0.368859 43.8584C0.209619 44.1227 0.156494 44.4398 0.156494 44.7569C0.156494 45.3911 0.634277 46.0254 1.21815 46.3953L28.395 61.511L29.1911 61.9338L57.2173 77.4724C57.3234 77.5252 57.4296 77.5781 57.5357 77.6309C57.8542 77.7895 58.279 77.8423 58.6505 77.8423C58.7567 77.8423 58.8627 77.8423 59.022 77.7895C59.3935 77.7366 59.7652 77.6309 60.0836 77.4724L79.9886 66.4263C80.307 66.2149 80.5725 65.9506 80.7318 65.6863C80.891 65.4221 80.9439 65.105 80.9439 64.7879C80.9439 64.1536 80.4663 63.5194 79.8825 63.1494L53.0771 47.8223L52.2809 47.3467L24.5732 31.5439C24.1486 31.3325 23.6709 31.1739 23.1401 31.2268C22.6624 31.2268 22.1315 31.3854 21.7069 31.5968L1.11205 43.1185Z" fill="#FAFAFB"/>
<path d="M1.11205 43.1714C0.793575 43.3828 0.528098 43.647 0.368859 43.9113C0.209619 44.1755 0.156494 44.4927 0.156494 44.8098C0.156494 45.444 0.634277 46.0782 1.21815 46.4482L28.395 61.511L29.1911 61.9338L57.2173 77.4724C57.3234 77.5252 57.4296 77.5781 57.5357 77.6309C57.8542 77.7895 58.279 77.8423 58.6505 77.8423C58.7567 77.8423 58.8627 77.8423 59.022 77.7895C59.3935 77.7366 59.7652 77.6309 60.0836 77.4724L79.9886 66.4263C80.307 66.2149 80.5725 65.9506 80.7318 65.6863C80.891 65.4221 80.9439 65.105 80.9439 64.7879C80.9439 64.1536 80.4663 63.5194 79.8825 63.1494L53.0771 47.8223L52.2809 47.3467L24.6264 31.5439C24.2017 31.3325 23.7239 31.1739 23.1931 31.2268C22.7154 31.2268 22.1846 31.3854 21.76 31.5968L1.11205 43.1714Z" fill="#F9F9FA"/>
<path d="M1.11205 43.1714C0.793575 43.3828 0.528098 43.647 0.368859 43.9113C0.209619 44.1755 0.156494 44.4927 0.156494 44.8098C0.156494 45.444 0.634277 46.0782 1.21815 46.3953L28.3418 61.4582L29.1382 61.881L57.1111 77.4195C57.2173 77.4723 57.3235 77.5252 57.4296 77.578C57.7481 77.7366 58.1727 77.7894 58.5442 77.7894C58.6504 77.7894 58.7566 77.7894 58.9158 77.7366C59.2874 77.6837 59.659 77.578 59.9775 77.4195L79.8824 66.3734C80.2009 66.162 80.4662 65.8977 80.6255 65.6335C80.7847 65.3692 80.8378 65.0521 80.8378 64.735C80.8378 64.1008 80.36 63.4665 79.7762 63.1494L52.9709 47.8752L52.1748 47.3995L24.5201 31.5968C24.0955 31.3854 23.6178 31.2268 23.087 31.2797C22.6093 31.2797 22.0785 31.4382 21.6539 31.6496L1.11205 43.1714Z" fill="#F8F8F9"/>
<path d="M1.11044 43.1707C0.738878 43.3821 0.526481 43.6463 0.367241 43.9106C0.208001 44.1748 0.208008 44.492 0.208008 44.8091C0.208008 45.4433 0.685792 46.0775 1.26967 46.3946L28.3934 61.4575L29.1896 61.8803L57.1628 77.4188C57.269 77.4716 57.3751 77.5245 57.4813 77.5773C57.7998 77.7359 58.2243 77.7887 58.5959 77.7887C58.7021 77.7887 58.8083 77.7887 58.9675 77.7359C59.3391 77.683 59.7105 77.5245 60.029 77.4188L79.934 66.3727C80.3055 66.1613 80.5179 65.897 80.6772 65.6328C80.8364 65.3685 80.8364 65.0514 80.8364 64.7343C80.8364 64.1001 80.3586 63.4658 79.7747 63.1487L53.0226 47.8745L52.2263 47.4517L24.5717 31.6489C24.147 31.3847 23.6694 31.279 23.1386 31.3318C22.6608 31.3318 22.13 31.4904 21.7584 31.7018L1.11044 43.1707Z" fill="#F7F7F8"/>
<path d="M1.11688 43.2234C0.798397 43.4348 0.532971 43.699 0.426811 43.9633C0.267572 44.2276 0.267578 44.5447 0.267578 44.8618C0.267578 45.4432 0.79828 46.1302 1.32908 46.4473L28.453 61.5102L29.196 61.933L57.1693 77.4715C57.2754 77.5243 57.3816 77.5772 57.4877 77.63C57.8062 77.7886 58.2308 77.8415 58.6024 77.8415C58.7085 77.8415 58.8147 77.8414 58.974 77.7886C59.2925 77.7357 59.717 77.5772 60.0355 77.4715L79.8875 66.4254C80.206 66.214 80.4714 65.9498 80.5776 65.6855C80.7368 65.4212 80.7368 65.1041 80.7368 64.787C80.7368 64.2056 80.2059 63.5186 79.6751 63.2014L52.9228 47.9272L52.1266 47.5044L24.472 31.7016C24.0474 31.4902 23.5696 31.3317 23.0388 31.3845C22.561 31.3845 22.0303 31.5431 21.6588 31.7545L1.11688 43.2234Z" fill="#F6F6F7"/>
<path d="M1.16961 43.2234C0.79805 43.4348 0.585705 43.699 0.479546 43.9633C0.320306 44.2276 0.320312 44.5447 0.320312 44.8089C0.320312 45.3903 0.851228 46.0774 1.43511 46.3945L28.5057 61.4573L29.2489 61.8801L57.2219 77.4186C57.3281 77.4715 57.4342 77.5244 57.5404 77.5772C57.8589 77.7358 58.2836 77.7886 58.6552 77.7886C58.7613 77.7886 58.8674 77.7886 59.0266 77.7358C59.3451 77.6829 59.7698 77.5243 60.0883 77.3658L79.9401 66.3726C80.3116 66.1611 80.524 65.8969 80.6301 65.6326C80.7894 65.3684 80.7894 65.0513 80.7894 64.787C80.7894 64.2056 80.2586 63.5186 79.6747 63.2014L52.9756 47.9272L52.1794 47.5044L24.5247 31.7016C24.1001 31.4902 23.6224 31.3317 23.0916 31.3845C22.6139 31.3845 22.083 31.5959 21.7115 31.7545L1.16961 43.2234Z" fill="#F5F5F6"/>
<path d="M1.16961 43.2236C0.79805 43.435 0.585705 43.6993 0.479546 43.9636C0.320306 44.2278 0.320312 44.5449 0.320312 44.8092C0.320312 45.3906 0.851228 46.0776 1.43511 46.3948L28.5057 61.4576L29.2489 61.8804L57.2219 77.4189C57.3281 77.4718 57.4342 77.5246 57.5404 77.5775C57.8589 77.736 58.2836 77.7889 58.6552 77.7889C58.7613 77.7889 58.8674 77.7889 59.0266 77.736C59.3451 77.6832 59.7698 77.5246 60.0883 77.3661L79.9401 66.3728C80.3116 66.1614 80.524 65.8972 80.6301 65.6329C80.7894 65.3686 80.7894 65.0515 80.7894 64.7873C80.7894 64.2059 80.2586 63.5188 79.6747 63.2017L52.9756 47.9275L52.1794 47.5046L24.5247 31.7019C24.1001 31.4905 23.6224 31.3848 23.0916 31.3848C22.667 31.3848 22.03 31.5962 21.7115 31.7547L1.16961 43.2236Z" fill="#F4F4F5"/>
<path d="M1.16961 43.2765C0.798052 43.4879 0.585706 43.7521 0.479546 44.0164C0.320306 44.2807 0.320312 44.5978 0.320312 44.862C0.320312 45.4434 0.904309 46.1305 1.43511 46.3948L28.4528 61.4047L29.1959 61.8275L57.116 77.3661C57.2221 77.4189 57.3283 77.4718 57.4345 77.5246C57.7529 77.6832 58.1775 77.736 58.5491 77.736C58.6553 77.736 58.7614 77.736 58.9207 77.6832C59.2392 77.6303 59.717 77.4718 59.9824 77.3132L79.8342 66.32C80.2058 66.1086 80.4181 65.8443 80.5243 65.5801C80.6835 65.3158 80.6304 64.9987 80.6835 64.7344C80.6835 64.153 80.0997 63.466 79.5689 63.1488L52.8697 47.9275L52.0733 47.5046L24.4187 31.7019C23.994 31.4905 23.5164 31.3848 22.9856 31.3848C22.5609 31.3848 21.9239 31.5962 21.6054 31.8076L1.16961 43.2765Z" fill="#F3F3F4"/>
<path d="M1.16796 43.2765C0.796401 43.4879 0.584056 43.7521 0.477896 44.0164C0.318656 44.2278 0.371795 44.5978 0.371795 44.862C0.371795 45.4434 0.955628 46.0776 1.48643 46.3948L28.5041 61.4047L29.2473 61.8275L57.1673 77.3132C57.2204 77.3661 57.3796 77.4189 57.4858 77.4718C57.8043 77.6303 58.2289 77.6832 58.6004 77.6832C58.7066 77.6832 58.8128 77.6832 58.972 77.6303C59.2905 77.5775 59.7151 77.4189 59.9805 77.2604L79.8324 66.2671C80.2039 66.0557 80.4163 65.7915 80.5224 65.5272C80.6817 65.3158 80.6285 64.9458 80.6285 64.6816C80.6285 64.1002 80.0447 63.466 79.5139 63.1488L52.8679 47.9275L52.0715 47.5046L24.4701 31.7019C24.0455 31.4905 23.5676 31.3848 23.0368 31.3848C22.6122 31.3848 21.9754 31.5962 21.6569 31.8076L1.16796 43.2765Z" fill="#F2F3F4"/>
<path d="M1.16732 43.2765C0.79576 43.4879 0.583466 43.7521 0.530386 44.0164C0.371147 44.2278 0.424285 44.5978 0.424285 44.862C0.424285 45.4434 1.00812 46.0776 1.53892 46.3948L28.5566 61.4047L29.2998 61.8275L57.2197 77.3132C57.2728 77.3661 57.432 77.4189 57.5381 77.4718C57.8566 77.6303 58.2814 77.6832 58.6529 77.6832C58.7591 77.6832 58.8651 77.6832 59.0244 77.6303C59.3428 77.5775 59.8206 77.4189 60.0329 77.2604L79.8318 66.2671C80.2033 66.0557 80.4156 65.7915 80.4687 65.5272C80.6279 65.3158 80.575 64.9458 80.575 64.6816C80.575 64.1002 79.991 63.466 79.4602 63.1488L52.8141 47.9275L52.0709 47.5046L24.4695 31.7019C24.0448 31.4905 23.567 31.3848 23.0362 31.3848C22.6116 31.3848 21.9747 31.5962 21.6562 31.8076L1.16732 43.2765Z" fill="#F1F2F3"/>
<path d="M1.16732 43.329C0.795761 43.5404 0.583466 43.8047 0.530386 44.069C0.371147 44.2804 0.424285 44.6503 0.424285 44.9146C0.424285 45.4431 1.0612 46.1302 1.53892 46.4473L28.5035 61.4573L29.2467 61.8801L57.1668 77.3657C57.2199 77.4186 57.3791 77.4714 57.4853 77.5243C57.8038 77.6828 58.2284 77.7357 58.5999 77.7357C58.7061 77.7357 58.8123 77.7357 58.9715 77.6828C59.29 77.63 59.7677 77.4714 59.98 77.3129L79.7788 66.3197C80.1503 66.1083 80.3628 65.844 80.4159 65.5797C80.5751 65.3683 80.522 64.9984 80.522 64.7341C80.522 64.2056 79.8851 63.5185 79.4073 63.2014L52.7611 47.98L52.018 47.5572L24.4164 31.8073C23.9917 31.5959 23.5141 31.4902 22.9833 31.543C22.5586 31.543 21.9216 31.7544 21.6031 31.9658L1.16732 43.329Z" fill="#F0F1F2"/>
<path d="M1.21894 43.3288C0.847378 43.5402 0.635085 43.8044 0.582005 44.0687C0.422765 44.2801 0.475741 44.5972 0.475741 44.9143C0.475741 45.4429 1.11282 46.1299 1.59054 46.447L28.555 61.4042L29.2982 61.827L57.1652 77.3126C57.2183 77.3655 57.3775 77.4183 57.4836 77.4712C57.8021 77.6297 58.2267 77.6826 58.5983 77.6826C58.7044 77.6826 58.8106 77.6826 58.9699 77.6297C59.2883 77.5769 59.7661 77.4183 59.9784 77.2598L79.7771 66.2665C80.1486 66.0551 80.3611 65.7909 80.4142 65.5266C80.5734 65.3152 80.5203 64.9981 80.5203 64.681C80.5203 64.1525 79.8834 63.4654 79.4056 63.1483L52.8126 47.9269L52.0694 47.5041L24.4679 31.7542C24.0433 31.5428 23.5655 31.4371 23.0347 31.4899C22.61 31.4899 21.9732 31.7013 21.6547 31.9127L1.21894 43.3288Z" fill="#EFF0F1"/>
<path d="M1.22226 43.3288C0.850697 43.5402 0.638403 43.8044 0.585323 44.0687C0.426084 44.2801 0.532192 44.5972 0.532192 44.8615C0.532192 45.39 1.16916 46.0771 1.69996 46.3413L28.6647 61.2985L29.4077 61.7213L57.2747 77.2069C57.3278 77.2598 57.487 77.3126 57.5931 77.3655C57.9116 77.5241 58.3362 77.5769 58.7078 77.5769C58.8139 77.5769 58.9201 77.5769 59.0262 77.5241C59.3447 77.4712 59.8224 77.3126 60.0348 77.1541L79.8336 66.1609C80.2052 65.9495 80.4175 65.6852 80.4706 65.4209C80.6298 65.2095 80.5237 64.8924 80.5237 64.6282C80.5237 64.0996 79.8867 63.4126 79.3559 63.0954L52.7628 47.9269L52.0198 47.5041L24.4182 31.7542C23.9935 31.5428 23.5159 31.4371 22.9851 31.4899C22.5604 31.4899 21.9234 31.7013 21.6049 31.9127L1.22226 43.3288Z" fill="#EEEFF0"/>
<path d="M1.22226 43.3816C0.850697 43.593 0.638403 43.8573 0.585323 44.1216C0.426084 44.333 0.532192 44.6501 0.532192 44.9143C0.532192 45.4429 1.22224 46.1299 1.69996 46.3942L28.6115 61.3513L29.3546 61.7741L57.2215 77.2598C57.2746 77.3126 57.4338 77.3655 57.54 77.4183C57.8585 77.5769 58.2832 77.6298 58.6548 77.6298C58.7609 77.6298 58.8671 77.6298 58.9732 77.5769C59.2917 77.5241 59.7695 77.3655 59.9818 77.2069L79.7805 66.2137C80.152 66.0023 80.3645 65.738 80.4176 65.4738C80.5768 65.2624 80.4706 64.9453 80.4706 64.681C80.4706 64.1525 79.7805 63.4654 79.3028 63.2011L52.7099 48.0326L51.9667 47.6098L24.365 31.8599C23.9404 31.6485 23.4627 31.5428 22.9319 31.5956C22.5073 31.5956 21.8703 31.8599 21.5518 32.0184L1.22226 43.3816Z" fill="#EDEEEF"/>
<path d="M1.22008 43.3819C0.848523 43.5933 0.636119 43.8576 0.636119 44.1218C0.529959 44.3332 0.583149 44.6503 0.583149 44.9146C0.583149 45.4431 1.27319 46.1302 1.75091 46.3945L28.6625 61.3516L29.4055 61.7744L57.2724 77.2601C57.3255 77.3129 57.4847 77.3658 57.5909 77.4186C57.9094 77.5772 58.334 77.63 58.7055 77.63C58.8117 77.63 58.9179 77.63 59.0771 77.5772C59.3425 77.5243 59.8733 77.3658 60.0856 77.2072L79.8314 66.2668C80.2029 66.0554 80.4153 65.7912 80.4153 65.5269C80.5215 65.3155 80.4683 64.9984 80.4683 64.7341C80.4683 64.2056 79.7783 63.5185 79.3005 63.2543L52.7606 48.0857L52.0176 47.6629L24.416 31.913C23.9913 31.7016 23.5137 31.5959 22.9829 31.6487C22.6113 31.6487 21.9212 31.913 21.6027 32.0715L1.22008 43.3819Z" fill="#ECEDEE"/>
<path d="M1.22008 43.3819C0.848523 43.5933 0.636119 43.8576 0.636119 44.1218C0.529959 44.3332 0.583149 44.6503 0.583149 44.9146C0.583149 45.4431 1.2732 46.1302 1.75091 46.3945L28.6625 61.3516L29.4055 61.7744L57.2725 77.2601C57.3256 77.3129 57.4848 77.3658 57.591 77.4186C57.9095 77.5772 58.334 77.63 58.7056 77.63C58.8118 77.63 58.9179 77.63 59.0241 77.5772C59.2895 77.5243 59.8203 77.3658 60.0326 77.2072L79.7784 66.2668C80.1499 66.0554 80.3623 65.7912 80.3623 65.5269C80.4685 65.3155 80.4155 64.9984 80.4155 64.7341C80.4155 64.2056 79.7254 63.5185 79.2477 63.2543L52.7077 48.0857L51.9645 47.6629L24.3629 31.913C23.9382 31.7016 23.4606 31.5959 22.9298 31.6487C22.5582 31.6487 21.8681 31.913 21.5496 32.0715L1.22008 43.3819Z" fill="#EBECED"/>
<path d="M1.27265 43.4345C0.901094 43.6459 0.74177 43.9101 0.68869 44.1744C0.582531 44.3858 0.635558 44.7029 0.635558 44.9672C0.635558 45.4429 1.3256 46.1828 1.80332 46.447L28.6618 61.4042L29.4049 61.827L57.2186 77.3127C57.2717 77.3655 57.431 77.4184 57.5371 77.4712C57.8556 77.6298 58.2803 77.6826 58.6519 77.6826C58.7581 77.6826 58.8642 77.6826 58.9704 77.6298C59.2358 77.5769 59.7666 77.3655 59.9789 77.2598L79.7246 66.3194C80.0961 66.108 80.2553 65.8438 80.3084 65.5795C80.4146 65.3681 80.3615 65.051 80.3615 64.7867C80.3615 64.3111 79.6715 63.5711 79.1938 63.3069L52.6539 48.1383L51.9107 47.7155L24.3622 31.9656C23.9376 31.7542 23.4069 31.6485 22.9291 31.7013C22.5576 31.7013 21.8675 31.9656 21.549 32.1241L1.27265 43.4345Z" fill="#EAEBEC"/>
<path d="M1.27372 43.4347C0.902164 43.6461 0.74284 43.9104 0.68976 44.1746C0.5836 44.3861 0.68976 44.7032 0.68976 44.9674C0.68976 45.4431 1.43289 46.183 1.85753 46.4473L28.716 61.3516L29.4592 61.7744L57.273 77.2072C57.3261 77.26 57.4853 77.3129 57.5915 77.3657C57.9099 77.5243 58.3345 77.5771 58.7061 77.5771C58.8123 77.5771 58.9184 77.5771 59.0246 77.5243C59.29 77.4714 59.8208 77.26 60.0331 77.1543L79.7788 66.2139C80.1504 66.0025 80.3097 65.7383 80.3628 65.474C80.469 65.2626 80.3628 64.9455 80.3628 64.6812C80.3628 64.2056 79.6197 63.4656 79.195 63.2014L52.7082 48.0857L51.965 47.6629L24.4165 31.913C23.9919 31.7016 23.4611 31.5959 22.9834 31.6487C22.6118 31.6487 21.9218 31.913 21.6564 32.0715L1.27372 43.4347Z" fill="#E9EAEC"/>
<path d="M1.27372 43.4345C0.902164 43.6459 0.74284 43.9101 0.68976 44.1744C0.5836 44.3858 0.68976 44.7029 0.68976 44.9143C0.68976 45.39 1.43294 46.0771 1.91066 46.3413L28.7691 61.2456L29.5121 61.6684L57.3261 77.1012C57.3792 77.1541 57.5384 77.2069 57.6446 77.2598C57.963 77.4183 58.3876 77.4712 58.7592 77.4712C58.8654 77.4712 58.9715 77.4712 59.0777 77.4183C59.3431 77.3655 59.8739 77.1541 60.0862 77.0484L79.8319 66.108C80.2035 65.8966 80.3628 65.6323 80.4159 65.3681C80.522 65.1567 80.4159 64.8395 80.4159 64.5753C80.4159 64.0996 79.6728 63.3597 79.2481 63.1483L52.7611 48.0326L52.0181 47.6098L24.4696 31.8599C24.045 31.6485 23.5141 31.5428 23.0364 31.5956C22.6648 31.5956 21.9748 31.8599 21.7094 32.0184L1.27372 43.4345Z" fill="#E8E9EB"/>
<path d="M1.27372 43.4873C0.902164 43.6987 0.74284 43.963 0.68976 44.2273C0.5836 44.4387 0.68976 44.7558 0.68976 44.9672C0.68976 45.4429 1.43294 46.1299 1.91066 46.3942L28.716 61.2985L29.406 61.6684L57.2199 77.1012C57.273 77.1541 57.4322 77.2069 57.5384 77.2598C57.8568 77.4183 58.2816 77.4712 58.6532 77.4183C58.7593 77.4183 58.8655 77.4183 58.9716 77.3655C59.237 77.3126 59.7678 77.1012 59.9802 76.9955L79.6728 66.0552C80.0443 65.8437 80.2036 65.5795 80.2036 65.3152C80.3098 65.1038 80.2036 64.7867 80.2036 64.5753C80.2036 64.0996 79.4604 63.4125 78.9827 63.1483L52.4959 48.0326L51.7527 47.6098L24.2041 31.8599C23.8326 31.6485 23.2488 31.5428 22.771 31.5956C22.3995 31.5956 21.7094 31.8599 21.444 32.0184L1.27372 43.4873Z" fill="#E7E8EA"/>
<path d="M1.27333 43.4873C0.901767 43.6987 0.742495 43.963 0.742495 44.2273C0.636335 44.4387 0.742495 44.7558 0.742495 44.9672C0.742495 45.4429 1.53859 46.1299 1.96323 46.3942L28.7687 61.2985L29.4588 61.6684L57.2726 77.1012C57.3257 77.1541 57.485 77.2069 57.5911 77.2598C57.9096 77.4183 58.3342 77.4712 58.7057 77.4183C58.8119 77.4183 58.9181 77.4183 59.0242 77.3655C59.2896 77.3655 59.8204 77.1012 60.0327 76.9955L79.7255 66.0552C80.0971 65.8437 80.2562 65.5795 80.2562 65.3152C80.3624 65.1038 80.2562 64.7867 80.2562 64.5753C80.2562 64.0996 79.4601 63.4125 79.0355 63.1483L52.6016 48.0326L51.8586 47.6098L24.31 31.8599C23.9385 31.6485 23.3545 31.5428 22.8768 31.5956C22.5052 31.5956 21.8152 31.9127 21.5498 32.0184L1.27333 43.4873Z" fill="#E6E7E9"/>
<path d="M1.27313 43.4876C0.901567 43.699 0.742295 43.9632 0.742295 44.2275C0.636135 44.4389 0.795427 44.756 0.795427 44.9674C0.795427 45.3902 1.59152 46.1302 2.01616 46.3944L28.8216 61.2459L29.5115 61.6158L57.2724 77.0486C57.3255 77.1015 57.4847 77.1543 57.5909 77.2072C57.9093 77.3657 58.3339 77.4186 58.7055 77.3657C58.8117 77.3657 58.9178 77.3657 59.024 77.3129C59.2894 77.3129 59.8202 77.0486 60.0325 76.9429L79.7253 66.0025C80.0968 65.7911 80.2559 65.5269 80.2559 65.2626C80.3621 65.0512 80.203 64.7341 80.203 64.5227C80.203 64.0999 79.4067 63.3599 78.9821 63.0957L52.5484 47.98L51.8052 47.5572L24.2567 31.8073C23.8851 31.5959 23.3013 31.4902 22.8236 31.543C22.5051 31.543 21.762 31.8601 21.4966 32.0187L1.27313 43.4876Z" fill="#E5E6E8"/>
<path d="M1.32426 43.5401C0.9527 43.7515 0.79359 44.0158 0.79359 44.28C0.68743 44.4386 0.846559 44.8086 0.846559 45.02C0.846559 45.4428 1.64282 46.1827 2.06745 46.447L28.8198 61.2984L29.5097 61.6684L57.2705 77.1012C57.3236 77.154 57.4828 77.2069 57.589 77.2597C57.9074 77.4183 58.332 77.4711 58.7036 77.4183C58.8097 77.4183 58.9159 77.3654 59.0221 77.3654C59.2875 77.3654 59.8183 77.1012 60.0306 76.9955L79.7233 66.0551C80.0949 65.8437 80.254 65.5794 80.254 65.3151C80.3602 65.1037 80.201 64.7866 80.201 64.5752C80.201 64.1524 79.4048 63.4125 78.9801 63.1482L52.5465 48.0854L51.8033 47.6626L24.2548 31.9127C23.8832 31.7012 23.2994 31.5956 22.8217 31.7013C22.5032 31.7013 21.7601 32.0184 21.4947 32.1769L1.32426 43.5401Z" fill="#E4E5E7"/>
<path d="M1.32426 43.5401C0.9527 43.7515 0.79359 44.0158 0.79359 44.28C0.68743 44.4386 0.846559 44.8086 0.846559 45.02C0.846559 45.4428 1.6959 46.1827 2.06745 46.3941L28.8198 61.2456L29.5097 61.6155L57.2705 77.0483C57.3236 77.1011 57.4828 77.154 57.589 77.2068C57.9074 77.3654 58.332 77.4183 58.7036 77.3654C58.8097 77.3654 58.9159 77.3126 59.0221 77.3126C59.2875 77.2597 59.8183 77.0483 60.0306 76.9426L79.7233 66.0551C80.0949 65.8437 80.254 65.5794 80.254 65.3151C80.3602 65.1566 80.201 64.7866 80.201 64.5752C80.201 64.1524 79.3517 63.4125 78.9801 63.2011L52.5994 48.1382L51.8564 47.7154L24.3609 32.0184C23.9893 31.807 23.4055 31.7013 22.9278 31.807C22.6093 31.807 21.8662 32.1241 21.6008 32.2826L1.32426 43.5401Z" fill="#E3E4E6"/>
<path d="M1.32426 43.5401C0.952699 43.7515 0.79359 44.0158 0.79359 44.28C0.68743 44.4386 0.846559 44.8086 0.846559 45.02C0.846559 45.4428 1.69589 46.1827 2.06745 46.3941L28.7666 61.2456L29.4567 61.6155L57.2173 77.0483C57.2704 77.1011 57.4296 77.154 57.5358 77.2068C57.8542 77.3654 58.279 77.4183 58.6505 77.3654C58.7567 77.3654 58.8629 77.3126 58.969 77.3126C59.1813 77.3126 59.7652 77.0483 59.9244 76.9426L79.564 66.0551C79.9356 65.8437 80.0947 65.5794 80.0947 65.3151C80.2008 65.1566 80.0417 64.7866 80.0417 64.5752C80.0417 64.1524 79.1924 63.4125 78.8208 63.2011L52.4401 48.1382L51.6971 47.7154L24.2016 32.0184C23.8301 31.807 23.2463 31.7013 22.7685 31.807C22.4501 31.807 21.7069 32.1241 21.4415 32.2826L1.32426 43.5401Z" fill="#E2E3E5"/>
<path d="M1.324 43.5931C0.952439 43.8045 0.793219 44.0688 0.846299 44.333C0.740139 44.4916 0.89943 44.8616 0.89943 45.0201C0.89943 45.4429 1.74866 46.1829 2.17329 46.3943L28.8724 61.2457L29.5625 61.6157L57.3233 77.0485C57.3764 77.1013 57.5356 77.1542 57.6418 77.207C57.9603 77.3656 58.3848 77.4185 58.7564 77.3656C58.8626 77.3656 58.9687 77.3127 59.0749 77.3127C59.2872 77.3127 59.871 77.0485 60.0303 76.9428L79.6699 66.0553C80.0414 65.8438 80.2007 65.5796 80.1476 65.3153C80.2537 65.1568 80.0944 64.7868 80.0944 64.6283C80.0944 64.2054 79.2453 63.4655 78.8737 63.2541L52.493 48.1912L51.803 47.7684L24.3077 32.0714C23.9361 31.86 23.3521 31.7542 22.8744 31.8599C22.5559 31.8599 21.8128 32.1771 21.5474 32.3356L1.324 43.5931Z" fill="#E1E2E5"/>
<path d="M1.32577 43.593C0.954213 43.8044 0.794994 44.0686 0.848073 44.3329C0.741914 44.4915 0.954336 44.8086 0.954336 45.02C0.954336 45.4428 1.85664 46.1827 2.2282 46.3941L28.9273 61.2456L29.6174 61.6155L57.325 76.9955C57.3781 77.0483 57.5373 77.1012 57.6435 77.154C57.9619 77.3126 58.3865 77.3654 58.7581 77.3126C58.8642 77.3126 58.9704 77.2597 59.0765 77.2597C59.2889 77.2597 59.8727 76.9955 60.0319 76.8898L79.6715 66.0022C80.0431 65.7908 80.2023 65.5266 80.1492 65.2623C80.2554 65.1038 80.0431 64.7338 80.0431 64.5752C80.0431 64.1524 79.1937 63.4125 78.7691 63.2011L52.4416 48.1382L51.7515 47.7154L24.2563 32.0184C23.8847 31.807 23.3009 31.7013 22.8232 31.807C22.5047 31.807 21.7616 32.1241 21.4962 32.2826L1.32577 43.593Z" fill="#E0E1E4"/>
<path d="M1.37877 43.593C1.00721 43.8044 0.847989 44.0686 0.901069 44.3329C0.794909 44.4915 1.00717 44.8086 1.00717 45.02C1.00717 45.3899 1.90964 46.1299 2.2812 46.3941L28.9273 61.1927L29.6173 61.5627L57.3251 76.9426C57.3782 76.9954 57.5374 77.0483 57.6436 77.1012C57.962 77.2597 58.3866 77.3126 58.7582 77.2597C58.8643 77.2597 58.9705 77.2069 59.0767 77.2069C59.289 77.2069 59.8728 76.9426 60.0321 76.8369L79.6717 65.9494C80.0433 65.738 80.2025 65.4737 80.1494 65.2095C80.2556 65.0509 80.0433 64.6809 80.0433 64.5224C80.0433 64.1524 79.1408 63.3596 78.7693 63.1482L52.4417 48.1382L51.7516 47.7154L24.2562 32.0184C23.8847 31.807 23.3008 31.7013 22.8231 31.807C22.5046 31.807 21.7615 32.1241 21.4961 32.2826L1.37877 43.593Z" fill="#DFE0E3"/>
<path d="M1.37877 43.6458C1.00721 43.8572 0.847989 44.1215 0.901069 44.3857C0.794909 44.5443 1.00717 44.8614 1.00717 45.0728C1.00717 45.4428 1.90964 46.1827 2.2812 46.3941L28.9273 61.1927L29.6173 61.5627L57.3251 76.9426C57.3782 76.9954 57.5374 77.0483 57.6436 77.1012C57.962 77.2597 58.3866 77.3126 58.7582 77.2597C58.8643 77.2597 58.9705 77.2069 59.0767 77.2069C59.289 77.2069 59.8728 76.9426 60.0321 76.8369L79.6717 65.9494C80.0433 65.738 80.2025 65.4737 80.1494 65.2095C80.2556 65.0509 80.0433 64.7338 80.0433 64.5224C80.0433 64.1524 79.1408 63.3596 78.7693 63.1482L52.4948 48.1382L51.8047 47.7154L24.3093 32.0184C23.9378 31.807 23.3538 31.7013 22.8761 31.807C22.5576 31.807 21.8145 32.1769 21.5491 32.2826L1.37877 43.6458Z" fill="#DEDFE2"/>
<path d="M1.37877 43.6458C1.00721 43.8572 0.847989 44.1744 0.901069 44.4386C0.794909 44.5972 1.00717 44.9143 1.00717 45.1257C1.00717 45.4957 1.90964 46.2356 2.2812 46.447L28.9273 61.2456L29.6173 61.6155L57.325 76.9955C57.3781 77.0483 57.5373 77.1012 57.6435 77.154C57.962 77.3126 58.3866 77.3654 58.7581 77.3126C58.8643 77.3126 58.9704 77.2597 59.0766 77.2597C59.2889 77.2597 59.8728 76.9426 60.032 76.8898L79.6185 66.0022C79.9901 65.7908 80.1493 65.4737 80.0962 65.2623C80.2024 65.1038 79.9901 64.7866 79.9901 64.5752C79.9901 64.2053 79.0878 63.4653 78.7162 63.2539L52.4416 48.244L51.7515 47.8212L24.2562 32.1241C23.8846 31.9127 23.3008 31.807 22.8231 31.9127C22.5577 31.9127 21.7615 32.2826 21.4961 32.3884L1.37877 43.6458Z" fill="#DDDEE1"/>
<path d="M1.37898 43.646C1.00742 43.8574 0.848253 44.1745 0.954413 44.3859C0.848253 44.5444 1.11365 44.8616 1.11365 45.073C1.11365 45.4429 2.06903 46.1829 2.38751 46.3943L28.9806 61.1929L29.6705 61.5628L57.3782 76.9428C57.4313 76.9956 57.6436 77.0485 57.6967 77.1013C58.0151 77.2599 58.4399 77.3127 58.8115 77.2599C58.9176 77.2599 59.0238 77.207 59.1299 77.207C59.3422 77.207 59.9261 76.8899 60.0853 76.8371L79.6718 65.9495C80.0434 65.7381 80.2025 65.421 80.0964 65.2096C80.2025 65.0511 79.9372 64.7339 79.9903 64.5225C79.9903 64.1526 79.0349 63.4126 78.7164 63.2012L52.4418 48.1912L51.7517 47.7684L24.3095 32.0714C23.938 31.86 23.354 31.7542 22.8763 31.8599C22.6109 31.8599 21.8147 32.2299 21.5493 32.3356L1.37898 43.646Z" fill="#DCDDE0"/>
<path d="M1.37898 43.6988C1.00742 43.9102 0.848253 44.2273 0.954413 44.4387C0.848253 44.5973 1.11365 44.9144 1.11365 45.1258C1.11365 45.4958 2.06903 46.2357 2.38751 46.4471L28.9806 61.2457L29.6705 61.6157L57.3253 76.9956C57.3784 77.0485 57.5907 77.1013 57.6437 77.1542C57.9622 77.3127 58.3868 77.3656 58.7584 77.3127C58.8645 77.3127 58.9707 77.2599 59.0768 77.2599C59.2892 77.2599 59.873 76.9428 60.0322 76.8899L79.6188 66.0552C79.9903 65.8438 80.1496 65.5267 80.0435 65.3153C80.1496 65.1567 79.8842 64.8396 79.8842 64.6282C79.8842 64.2583 78.9287 63.5183 78.6102 63.3069L52.3887 48.2969L51.6988 47.8741L24.2564 32.1771C23.8849 31.9657 23.301 31.86 22.8233 31.9657C22.5579 31.9657 21.7616 32.3356 21.5493 32.4413L1.37898 43.6988Z" fill="#DBDCDF"/>
<path d="M1.37898 43.6991C1.00742 43.9105 0.848253 44.2276 0.954413 44.4918C0.848253 44.6504 1.11365 44.9675 1.11365 45.1261C1.11365 45.496 2.06908 46.236 2.44064 46.4474L29.0336 61.1931L29.7236 61.5631L57.3782 76.943C57.4313 76.9959 57.6436 77.0487 57.6967 77.1016C58.0151 77.2601 58.4399 77.313 58.8115 77.2601C58.9176 77.2601 59.0238 77.2073 59.1299 77.2073C59.3422 77.2073 59.9261 76.8901 60.0853 76.8373L79.6718 66.0026C80.0434 65.7912 80.2025 65.4741 80.0964 65.2099C80.2025 65.0513 79.9371 64.7342 79.9371 64.5756C79.9371 64.2057 78.9817 63.4657 78.6101 63.2543L52.3887 48.2972L51.6988 47.9272L24.2564 32.2302C23.8848 32.0188 23.301 31.9131 22.8233 32.0188C22.5579 32.0188 21.7616 32.3887 21.5493 32.4944L1.37898 43.6991Z" fill="#DADBDE"/>
<path d="M1.4321 43.6987C1.06054 43.9101 0.901214 44.2272 1.00737 44.4915C0.901214 44.6501 1.16661 44.9672 1.16661 45.1257C1.16661 45.4428 2.17512 46.2356 2.4936 46.3942L29.0335 61.1399L29.7236 61.5099L57.3782 76.8898C57.4313 76.8898 57.6436 76.9955 57.6966 77.0484C58.0151 77.2069 58.4399 77.2598 58.8114 77.2069C58.9176 77.2069 59.0238 77.1541 59.1299 77.1541C59.3422 77.1541 59.9261 76.8369 60.0853 76.7841L79.6187 65.9494C79.9902 65.738 80.1496 65.4209 80.0434 65.2095C80.1496 65.051 79.8842 64.7338 79.8842 64.5753C79.8842 64.2582 78.8756 63.4654 78.5572 63.254L52.3357 48.2969L51.6456 47.9269L24.2033 32.2298C23.8317 32.0184 23.2479 31.9656 22.7702 32.0713C22.5048 32.0713 21.7086 32.4413 21.4963 32.547L1.4321 43.6987Z" fill="#DADBDE"/>
<path d="M1.4321 43.6987C1.06054 43.9101 0.901214 44.2272 1.00737 44.4915C0.901214 44.6501 1.16661 44.9672 1.16661 45.1257C1.16661 45.4428 2.17512 46.2356 2.4936 46.3942L29.0335 61.1399L29.7236 61.5098L57.3782 76.8369C57.4313 76.8369 57.6436 76.9955 57.6966 76.9955C58.0151 77.154 58.4399 77.2069 58.8114 77.154C58.9176 77.154 59.0238 77.1012 59.1299 77.1012C59.3422 77.1012 59.9261 76.7841 60.0853 76.7312L79.6187 65.8966C79.9902 65.6851 80.1496 65.368 80.0434 65.1566C80.1496 64.9981 79.8842 64.681 79.8842 64.5224C79.8842 64.2053 78.8756 63.4125 78.5572 63.254L52.3887 48.2968L51.6988 47.9269L24.2564 32.2298C23.8848 32.0184 23.301 31.9656 22.8233 32.0713C22.5579 32.0713 21.7616 32.4413 21.5493 32.547L1.4321 43.6987Z" fill="#D9DADD"/>
<path d="M1.43039 43.7516C1.05883 43.963 0.899555 44.2801 1.05879 44.5444C0.952635 44.7029 1.27116 45.02 1.27116 45.1786C1.27116 45.4957 2.27968 46.2885 2.59816 46.447L29.1381 61.1927L29.775 61.5627L57.4296 76.8898C57.4827 76.8898 57.695 77.0484 57.7481 77.0484C58.0666 77.2069 58.4912 77.2598 58.8627 77.2069C58.9689 77.2069 59.0752 77.1541 59.1814 77.1541C59.3406 77.1541 59.9775 76.837 60.1368 76.7313L79.6701 65.8966C80.0417 65.6852 80.201 65.3681 80.0417 65.1038C80.1479 64.9452 79.8294 64.6281 79.8294 64.4696C79.8294 64.1525 78.8208 63.3597 78.5024 63.2011L52.334 48.244L51.6439 47.874L24.2016 32.2298C23.83 32.0184 23.2462 31.9656 22.7685 32.0713C22.5031 32.0713 21.7069 32.4412 21.4946 32.5998L1.43039 43.7516Z" fill="#D8D9DC"/>
<path d="M1.43551 43.7516C1.06395 43.963 0.957754 44.2801 1.06391 44.5444C0.957754 44.6501 1.27628 45.02 1.27628 45.1786C1.27628 45.4957 2.33788 46.2885 2.60327 46.447L29.0901 61.1927L29.727 61.5627L57.3286 76.8898C57.3817 76.8898 57.594 77.0484 57.647 77.0484C57.9655 77.2069 58.3901 77.2598 58.7617 77.2069C58.8678 77.2069 58.974 77.1541 59.0801 77.1541C59.2394 77.1541 59.8763 76.837 60.0355 76.7313L79.569 65.8966C79.9406 65.6852 80.0466 65.3681 79.9405 65.1038C80.0466 64.9981 79.7283 64.6281 79.7283 64.4696C79.7283 64.1525 78.7197 63.3597 78.4013 63.2011L52.2328 48.244L51.5429 47.874L24.1005 32.2298C23.729 32.0184 23.1452 31.9656 22.6674 32.0713C22.402 32.0713 21.6057 32.4941 21.3934 32.5998L1.43551 43.7516Z" fill="#D7D8DB"/>
<path d="M1.43551 43.7516C1.06395 43.963 0.957754 44.2801 1.06391 44.5444C1.01083 44.6501 1.27628 45.02 1.27628 45.1786C1.27628 45.4957 2.33788 46.2356 2.60327 46.447L29.0901 61.1399L29.727 61.5098L57.3286 76.8369C57.3817 76.8369 57.594 76.9955 57.647 76.9955C57.9655 77.154 58.3901 77.2069 58.7617 77.154C58.8678 77.154 58.974 77.1012 59.0801 77.1012C59.2394 77.1012 59.8763 76.7841 60.0355 76.6784L79.569 65.8437C79.9406 65.6323 80.0466 65.3152 79.9405 65.0509C80.0466 64.9452 79.7283 64.5753 79.7283 64.4167C79.7283 64.0996 78.6667 63.3068 78.4013 63.1482L52.2859 48.244L51.5959 47.874L24.2066 32.2298C23.8351 32.0184 23.2513 31.9656 22.7735 32.0713C22.5612 32.0713 21.712 32.4941 21.4997 32.5998L1.43551 43.7516Z" fill="#D6D7DA"/>
<path d="M1.43551 43.8043C1.06395 44.0157 0.957754 44.3328 1.06391 44.5971C1.01083 44.7028 1.27628 45.0728 1.27628 45.1785C1.27628 45.4956 2.33777 46.2355 2.65625 46.3941L29.0901 61.0869L29.727 61.4569L57.3286 76.784C57.3817 76.784 57.594 76.9425 57.6471 76.9425C57.9656 77.1011 58.3902 77.154 58.7617 77.1011C58.8679 77.1011 58.974 77.0482 59.0802 77.0482C59.2394 77.0482 59.8764 76.7311 60.0356 76.6254L79.516 65.7908C79.8875 65.5793 79.9937 65.2622 79.8876 64.998C79.9407 64.8923 79.6752 64.5223 79.6752 64.3638C79.6752 64.0467 78.6136 63.3067 78.3482 63.0953L52.2328 48.191L51.5429 47.8211L24.1537 32.1769C23.7821 31.9655 23.1982 31.9126 22.7204 32.0183C22.5081 32.0183 21.6589 32.4411 21.4466 32.5468L1.43551 43.8043Z" fill="#D5D6D9"/>
<path d="M1.48811 43.8047C1.11655 44.0161 1.01051 44.3332 1.11667 44.5975C1.06359 44.7032 1.38195 45.0731 1.32887 45.1788C1.32887 45.4431 2.4436 46.2359 2.709 46.3944L29.1428 61.0873L29.7798 61.4573L57.3812 76.7843C57.4343 76.7843 57.6466 76.9429 57.6997 76.9429C58.0182 77.1015 58.4429 77.1543 58.8145 77.1015C58.9206 77.1015 59.0268 77.0486 59.1329 77.0486C59.2922 77.0486 59.9291 76.7315 60.0883 76.6258L79.5687 65.7911C79.9403 65.5797 80.0463 65.2626 79.9401 64.9983C79.9932 64.8926 79.728 64.5227 79.728 64.417C79.728 64.1527 78.6664 63.3599 78.4009 63.2014L52.2856 48.2971L51.5955 47.9271L24.2063 32.2829C23.8347 32.0715 23.2509 32.0187 22.7732 32.1244C22.5609 32.1244 21.6586 32.5472 21.4993 32.6529L1.48811 43.8047Z" fill="#D4D5D8"/>
<path d="M1.48811 43.8047C1.11655 44.0161 1.01051 44.3332 1.11667 44.5975C1.06359 44.7032 1.38201 45.0203 1.38201 45.1788C1.38201 45.4431 2.49673 46.2359 2.76213 46.3944L29.1957 61.0873L29.8327 61.4573L57.4342 76.7843C57.4873 76.7843 57.6996 76.9429 57.7527 76.9429C58.0711 77.1015 58.4957 77.1543 58.8673 77.1015C58.9734 77.1015 59.0798 77.0486 59.1859 76.9958C59.3452 76.9958 59.9821 76.6786 60.1413 76.5729L79.6215 65.7911C79.993 65.5797 80.0992 65.2626 79.9931 64.9983C80.0462 64.8926 79.7278 64.5227 79.7278 64.417C79.7278 64.1527 78.613 63.3599 78.3476 63.2014L52.2855 48.2971L51.5954 47.9271L24.2062 32.2829C23.8347 32.0715 23.2509 32.0187 22.7731 32.1244C22.5608 32.1244 21.6585 32.5472 21.4993 32.6529L1.48811 43.8047Z" fill="#D3D4D7"/>
<path d="M1.48803 43.8573C1.11647 44.0687 1.01032 44.3858 1.16956 44.6501C1.11648 44.7558 1.43506 45.0729 1.43506 45.2314C1.43506 45.4957 2.54963 46.2885 2.81503 46.447L29.1957 61.1399L29.8327 61.5099L57.3812 76.837C57.4342 76.837 57.6465 76.9955 57.6996 76.9955C58.0181 77.1541 58.4429 77.2069 58.8144 77.1541C58.9206 77.1541 59.0267 77.1012 59.1329 77.0484C59.2921 77.0484 59.929 76.7313 60.0352 76.6256L79.5155 65.8437C79.8871 65.6323 79.9933 65.3152 79.834 65.051C79.8871 64.9453 79.5687 64.5753 79.5687 64.4696C79.5687 64.2053 78.454 63.4125 78.1886 63.254L52.1263 48.3497L51.4894 47.9797L24.1001 32.3355C23.7286 32.1241 23.1447 32.0713 22.667 32.177C22.4547 32.177 21.5522 32.5998 21.393 32.7055L1.48803 43.8573Z" fill="#D2D3D6"/>
<path d="M1.48803 43.8573C1.11647 44.0687 1.01032 44.3858 1.16956 44.6501C1.11648 44.7558 1.43506 45.0729 1.43506 45.2314C1.43506 45.4957 2.54963 46.2885 2.81503 46.447L29.1957 61.0871L29.8327 61.457L57.3812 76.7841C57.4342 76.7841 57.6465 76.9427 57.6996 76.9427C58.0181 77.1012 58.4429 77.1541 58.8144 77.1012C58.9206 77.1012 59.0267 77.0484 59.1329 76.9955C59.2921 76.9955 59.929 76.6784 60.0352 76.5727L79.5155 65.7909C79.8871 65.5795 79.9933 65.2624 79.834 64.9981C79.8871 64.8924 79.5687 64.5224 79.5687 64.4167C79.5687 64.1525 78.454 63.3597 78.1886 63.2011L52.1263 48.3497L51.4894 47.9798L24.1001 32.3355C23.7286 32.1241 23.1446 32.0713 22.72 32.177C22.5077 32.177 21.6054 32.5998 21.4461 32.7055L1.48803 43.8573Z" fill="#D1D2D6"/>
<path d="M1.48803 43.8578C1.11647 44.0692 1.01032 44.3863 1.16956 44.6506C1.11648 44.7563 1.43506 45.0734 1.43506 45.232C1.43506 45.4962 2.6027 46.289 2.81502 46.3947L29.1957 61.0348L29.8326 61.4047L57.3811 76.679C57.4342 76.679 57.6465 76.8375 57.6996 76.8375C58.0181 76.9961 58.4428 77.0489 58.8144 76.9961C58.9205 76.9961 59.0267 76.9432 59.1328 76.8904C59.2921 76.8904 59.9289 76.5204 60.0351 76.4675L79.4623 65.6857C79.8339 65.4743 79.94 65.1572 79.7808 64.893C79.8339 64.7872 79.5155 64.4701 79.5155 64.3116C79.5155 64.0473 78.3477 63.2545 78.1353 63.096L52.1263 48.2445L51.4893 47.8746L24.1001 32.2304C23.7285 32.019 23.1446 31.9661 22.72 32.1247C22.5077 32.1247 21.6053 32.5475 21.4461 32.6532L1.48803 43.8578Z" fill="#D0D1D5"/>
<path d="M1.54076 43.9107C1.1692 44.1221 1.06306 44.4392 1.2223 44.7035C1.16922 44.8092 1.54076 45.1263 1.54076 45.2848C1.54076 45.5491 2.70857 46.3419 2.92089 46.4476L29.2485 61.0876L29.8854 61.4575L57.4339 76.7318C57.487 76.7318 57.6993 76.8903 57.7524 76.8903C58.0709 77.0489 58.4955 77.1017 58.867 77.0489C58.9732 77.0489 59.0795 76.996 59.1857 76.9432C59.3449 76.9432 59.9818 76.5732 60.0879 76.5204L79.5152 65.7386C79.8868 65.5272 79.9929 65.21 79.8337 64.9458C79.8868 64.8401 79.5152 64.523 79.5152 64.3644C79.5152 64.1002 78.3474 63.3074 78.1351 63.2017L52.1259 48.3502L51.489 47.9803L24.1529 32.3361C23.7813 32.1247 23.1974 32.0718 22.7727 32.2304C22.5604 32.2304 21.658 32.706 21.5518 32.7589L1.54076 43.9107Z" fill="#CFD0D4"/>
<path d="M1.54076 43.9107C1.1692 44.1221 1.06306 44.4392 1.2223 44.7035C1.16922 44.8092 1.54076 45.1263 1.54076 45.232C1.54076 45.4434 2.70846 46.289 2.97386 46.3947L29.3017 61.0348L29.9386 61.4047L57.4871 76.679C57.5402 76.679 57.7525 76.8375 57.8056 76.8375C58.1241 76.9961 58.5487 77.0489 58.9202 76.9961C59.0264 76.9961 59.1325 76.9432 59.2387 76.8904C59.3449 76.8904 60.035 76.5204 60.1411 76.4676L79.5684 65.6857C79.94 65.4743 80.0461 65.1572 79.8869 64.893C79.94 64.7873 79.5684 64.4701 79.5684 64.3644C79.5684 64.153 78.4006 63.3074 78.1883 63.2017L52.1791 48.3503L51.5422 47.9803L24.2059 32.3361C23.8343 32.1247 23.2505 32.0718 22.8259 32.2304C22.6667 32.2304 21.7112 32.706 21.605 32.7589L1.54076 43.9107Z" fill="#CECFD3"/>
<path d="M1.53641 43.9107C1.16485 44.1221 1.05875 44.4392 1.27107 44.7035C1.21799 44.8092 1.58954 45.1263 1.58954 45.232C1.58954 45.4434 2.81032 46.289 3.02264 46.3947L29.3502 61.0348L29.9873 61.4047L57.4827 76.679C57.5358 76.679 57.7481 76.8375 57.8012 76.8375C58.1197 76.9961 58.5443 77.0489 58.9158 76.9961C59.022 76.9961 59.1281 76.9432 59.2343 76.8904C59.3404 76.8904 60.0305 76.5204 60.1367 76.4676L79.564 65.6857C79.9355 65.4743 80.0416 65.1572 79.8293 64.893C79.8824 64.7873 79.5108 64.4701 79.5108 64.3644C79.5108 64.153 78.2901 63.3074 78.0778 63.2017L52.1216 48.3503L51.4846 47.9803L24.1485 32.3361C23.777 32.1247 23.193 32.0718 22.7684 32.2304C22.6091 32.2304 21.6536 32.706 21.5475 32.7589L1.53641 43.9107Z" fill="#CDCED2"/>
<path d="M1.53641 43.9637C1.16485 44.1751 1.05875 44.4922 1.27107 44.7564C1.21799 44.8621 1.58954 45.1793 1.58954 45.285C1.58954 45.4964 2.81032 46.2891 3.02264 46.4477L29.2972 61.0349L29.9342 61.4048L57.4295 76.6791C57.4826 76.6791 57.6949 76.8376 57.748 76.8376C58.0665 76.9962 58.4911 77.049 58.8626 76.9962C58.9688 76.9962 59.0751 76.9433 59.1812 76.8905C59.2874 76.8905 59.9774 76.5205 60.0835 76.4677L79.5108 65.6859C79.8823 65.4745 79.9884 65.1573 79.7761 64.8931C79.8292 64.7874 79.4576 64.4703 79.4576 64.3646C79.4576 64.1532 78.2369 63.3075 78.0245 63.2018L52.0684 48.4032L51.4315 48.0333L24.0954 32.3891C23.7238 32.1777 23.1399 32.1248 22.7152 32.2834C22.556 32.2834 21.6007 32.759 21.4945 32.8119L1.53641 43.9637Z" fill="#CCCDD1"/>
<path d="M1.53641 43.9635C1.16485 44.1749 1.05875 44.492 1.27107 44.7563C1.21799 44.862 1.64251 45.1791 1.64251 45.2848C1.64251 45.4962 2.86345 46.289 3.07577 46.3947L29.3502 60.9819L29.9873 61.299L57.4827 76.5732C57.5357 76.5732 57.748 76.7318 57.8011 76.7318C58.1196 76.8903 58.5442 76.9432 58.9157 76.8903C59.0219 76.8903 59.1281 76.8375 59.2342 76.7846C59.3404 76.7846 60.0305 76.4147 60.1366 76.3618L79.5108 65.58C79.8823 65.3686 79.9884 65.0515 79.7761 64.7872C79.8292 64.6815 79.4046 64.3644 79.4576 64.2587C79.4576 64.0473 78.2369 63.2017 78.0245 63.096L52.0684 48.2974L51.4315 47.9274L24.0954 32.3361C23.7238 32.1247 23.1399 32.0718 22.7152 32.2304C22.556 32.2304 21.6007 32.706 21.4945 32.7589L1.53641 43.9635Z" fill="#CBCCD0"/>
<path d="M1.53641 43.9634C1.16485 44.1748 1.05875 44.4919 1.27107 44.7562C1.21799 44.8619 1.64251 45.179 1.64251 45.2847C1.64251 45.4961 2.91653 46.2889 3.07577 46.3946L29.3502 60.9818L29.9873 61.2989L57.4827 76.5731C57.5357 76.5731 57.748 76.7317 57.8011 76.7317C58.1196 76.8903 58.5442 76.9431 58.9157 76.8903C59.0219 76.8903 59.1281 76.8374 59.2342 76.7845C59.3404 76.7845 60.0305 76.4146 60.1366 76.3617L79.5108 65.6328C79.8823 65.4213 79.9884 65.1042 79.7761 64.84C79.8292 64.7343 79.4047 64.4172 79.4047 64.3115C79.4047 64.1 78.1837 63.3073 77.9714 63.2016L52.0684 48.403L51.4315 48.033L24.0954 32.4417C23.7238 32.2303 23.1399 32.1774 22.7152 32.336C22.556 32.336 21.6007 32.8116 21.4945 32.9173L1.53641 43.9634Z" fill="#CACBCF"/>
<path d="M1.59463 44.0165C1.22307 44.2279 1.11681 44.545 1.32913 44.8093C1.27605 44.915 1.70073 45.2321 1.70073 45.3378C1.70073 45.5492 2.97459 46.342 3.13384 46.4477L29.3554 61.0349L29.9393 61.352L57.3816 76.6262C57.3816 76.6262 57.647 76.7848 57.7001 76.7848C58.0186 76.9433 58.4433 76.9962 58.8149 76.9433C58.9211 76.9433 59.0272 76.8905 59.1334 76.8376C59.2395 76.8376 59.9295 76.4677 60.0356 76.4148L79.41 65.6859C79.7815 65.4745 79.8876 65.1573 79.6753 64.8931C79.7284 64.7874 79.3037 64.4703 79.3037 64.3646C79.3037 64.1532 78.0298 63.3604 77.8706 63.2547L51.9675 48.4561L51.3306 48.0861L23.9944 32.4948C23.6229 32.2834 23.0389 32.2305 22.6143 32.3891C22.455 32.3891 21.4995 32.8647 21.3934 32.9704L1.59463 44.0165Z" fill="#C9CACF"/>
<path d="M1.59269 44.0163C1.22113 44.2277 1.11492 44.5448 1.38032 44.8091C1.32724 44.8619 1.75192 45.2319 1.75192 45.2847C1.75192 45.4433 3.02578 46.2889 3.18502 46.3946L29.4065 60.9818L29.9905 61.2989L57.4327 76.5731C57.4327 76.5731 57.6981 76.7317 57.7512 76.7317C58.0697 76.8903 58.4943 76.9431 58.8658 76.8903C58.972 76.8903 59.0783 76.8374 59.1845 76.7845C59.2906 76.7845 59.9806 76.4146 60.0867 76.3617L79.4609 65.6328C79.8324 65.4213 79.9386 65.1042 79.6732 64.84C79.7263 64.7871 79.3017 64.4172 79.3017 64.3115C79.3017 64.1529 78.0278 63.3073 77.8685 63.2016L51.9655 48.403L51.3286 48.033L24.0454 32.4417C23.6738 32.2303 23.0901 32.1774 22.6654 32.336C22.5062 32.336 21.5507 32.8645 21.4445 32.9173L1.59269 44.0163Z" fill="#C8C9CE"/>
<path d="M1.59269 44.0163C1.22113 44.2277 1.11492 44.5448 1.38032 44.8091C1.32724 44.8619 1.75192 45.2319 1.75192 45.2847C1.75192 45.4433 3.07892 46.2889 3.23816 46.3946L29.4597 60.9289L30.0435 61.246L57.4859 76.4674C57.4859 76.4674 57.7513 76.626 57.8044 76.626C58.1229 76.7846 58.5475 76.8374 58.919 76.7845C59.0252 76.7845 59.1313 76.7317 59.2375 76.6788C59.3436 76.6788 60.0338 76.3089 60.1399 76.256L79.5141 65.5271C79.8856 65.3156 79.9919 64.9985 79.7264 64.7343C79.7795 64.6814 79.3549 64.3115 79.3549 64.2586C79.3549 64.1001 78.081 63.2544 77.9218 63.1487L52.0717 48.403L51.4347 48.033L24.1517 32.4417C23.7801 32.2303 23.1962 32.1774 22.7716 32.336C22.6654 32.336 21.6568 32.8645 21.5507 32.9173L1.59269 44.0163Z" fill="#C7C8CD"/>
<path d="M1.59269 44.0694C1.22113 44.2808 1.11492 44.5979 1.38032 44.8621C1.32724 44.915 1.80489 45.285 1.80489 45.3378C1.80489 45.4964 3.13188 46.342 3.29112 46.4477L29.4597 60.982L30.0435 61.2991L57.4859 76.5205C57.4859 76.5205 57.7513 76.679 57.8043 76.679C58.1228 76.8376 58.5474 76.8904 58.919 76.8376C59.0251 76.8376 59.1313 76.7848 59.2374 76.7319C59.3436 76.7319 60.0337 76.3619 60.1399 76.3091L79.4609 65.5801C79.8324 65.3687 79.9386 65.0516 79.6732 64.7873C79.7263 64.7345 79.2487 64.3645 79.2487 64.3117C79.2487 64.1531 77.9217 63.3075 77.7624 63.2018L51.9124 48.4561L51.2754 48.0861L23.9924 32.4948C23.6209 32.2834 23.0369 32.2305 22.6123 32.3891C22.5061 32.3891 21.4976 32.9176 21.3914 32.9704L1.59269 44.0694Z" fill="#C6C7CC"/>
<path d="M1.59269 44.0693C1.22113 44.2807 1.11492 44.5978 1.38032 44.862C1.32724 44.9149 1.80489 45.2849 1.80489 45.3377C1.80489 45.4963 3.13188 46.3419 3.29112 46.3948L29.4597 60.9291L30.0435 61.2462L57.4859 76.4675C57.4859 76.4675 57.7513 76.6261 57.8043 76.6261C58.1228 76.7847 58.5474 76.8375 58.919 76.7847C59.0251 76.7847 59.1313 76.7318 59.2374 76.679C59.3436 76.679 60.0337 76.309 60.1399 76.2562L79.4609 65.5272C79.8324 65.3158 79.9386 64.9987 79.6732 64.7344C79.7263 64.6816 79.2487 64.3116 79.2487 64.2587C79.2487 64.1002 77.9217 63.2545 77.7624 63.1488L51.9655 48.4031L51.3286 48.0332L24.0454 32.4418C23.6738 32.2304 23.0901 32.1776 22.6654 32.389C22.5593 32.389 21.5507 32.9175 21.4445 32.9703L1.59269 44.0693Z" fill="#C5C6CB"/>
<path d="M1.64531 44.0692C1.27375 44.2806 1.16771 44.5977 1.43311 44.8619C1.38003 44.9148 1.85768 45.2319 1.85768 45.3376C1.85768 45.4962 3.18467 46.3418 3.34391 46.3947L29.4593 60.929L30.0431 61.2461L57.4324 76.4675C57.4324 76.4675 57.6978 76.626 57.7509 76.626C58.0694 76.7846 58.494 76.8374 58.8655 76.7846C58.9717 76.7846 59.078 76.7317 59.1841 76.6789C59.2903 76.6789 59.9803 76.2561 60.0864 76.2561L79.4076 65.5271C79.7792 65.3157 79.8852 64.9986 79.6198 64.7343C79.6729 64.6815 79.1952 64.3115 79.1952 64.2587C79.1952 64.1001 77.8682 63.2545 77.709 63.2016L51.9121 48.4559L51.2751 48.0859L23.9921 32.4946C23.6205 32.2831 23.0366 32.2303 22.612 32.4417C22.5058 32.4417 21.4972 32.9702 21.3911 33.0231L1.64531 44.0692Z" fill="#C4C5CA"/>
<path d="M1.64404 44.122C1.27248 44.3334 1.21952 44.6505 1.43184 44.9148C1.37876 44.9676 1.85641 45.2848 1.85641 45.3905C1.85641 45.549 3.23648 46.3418 3.34264 46.4475L29.458 60.9818L30.0418 61.2989L57.4311 76.5203L57.6964 76.6789C58.0149 76.8374 58.4396 76.8903 58.8112 76.7846C58.9174 76.7846 59.0235 76.7317 59.1297 76.6789C59.1827 76.6789 59.9258 76.2561 60.0319 76.2561L79.3531 65.5271C79.7247 65.3157 79.8309 64.9986 79.5655 64.7343C79.6185 64.6815 79.1407 64.3115 79.1407 64.2586C79.1407 64.1001 77.7607 63.2544 77.6545 63.2016L51.8577 48.4559L51.2208 48.0859L23.9377 32.4946C23.5661 32.2831 22.9822 32.2303 22.5575 32.4417C22.4514 32.4417 21.443 32.9702 21.3368 33.0231L1.64404 44.122Z" fill="#C3C4C9"/>
<path d="M1.64298 44.1221C1.27142 44.3335 1.21835 44.6507 1.48375 44.9149C1.43067 44.9678 1.90848 45.2849 1.90848 45.3906C1.90848 45.4963 3.28855 46.3419 3.39471 46.4476L29.5099 60.9291L30.0938 61.2462L57.483 76.4676C57.483 76.4676 57.7484 76.6261 57.8015 76.6261C58.12 76.7847 58.5446 76.8375 58.9161 76.7847C59.0223 76.7847 59.1284 76.7318 59.2346 76.679C59.2877 76.679 60.0309 76.2562 60.137 76.2562L79.458 65.5801C79.8296 65.3686 79.8826 65.0515 79.6172 64.7873C79.6703 64.7344 79.1927 64.3645 79.1927 64.3116C79.1927 64.2059 77.8126 63.3074 77.7064 63.2546L51.9627 48.5089L51.3789 48.1389L24.0958 32.5475C23.7242 32.3361 23.1403 32.2833 22.7157 32.4947C22.6095 32.4947 21.6011 33.0232 21.4949 33.0761L1.64298 44.1221Z" fill="#C2C3C8"/>
<path d="M1.64298 44.1221C1.27142 44.3335 1.21835 44.6507 1.48375 44.9149C1.43067 44.9678 1.96145 45.2849 1.96145 45.3377C1.96145 45.4434 3.34168 46.2891 3.44784 46.3419L29.51 60.8234L30.0939 61.1405L57.4832 76.3618C57.4832 76.3618 57.7486 76.5204 57.8017 76.5204C58.1202 76.679 58.5448 76.7318 58.9163 76.6261C59.0225 76.6261 59.1286 76.5733 59.2348 76.5204C59.2879 76.5204 60.031 76.0976 60.0841 76.0976L79.3521 65.4215C79.7237 65.2101 79.7768 64.893 79.5114 64.6287C79.5645 64.5759 79.0337 64.2587 79.0337 64.153C79.0337 64.0473 77.6536 63.1489 77.5474 63.096L51.8036 48.4031L51.2198 48.0332L23.9366 32.4418C23.5651 32.2304 22.9811 32.1776 22.5565 32.389C22.4503 32.389 21.4418 32.9175 21.3887 32.9703L1.64298 44.1221Z" fill="#C1C2C7"/>
<path d="M1.64298 44.1751C1.27142 44.3865 1.21835 44.7036 1.48375 44.9679C1.48375 45.0207 1.96145 45.3379 1.96145 45.3907C1.96145 45.4964 3.39465 46.342 3.50081 46.3949L29.5631 60.8764L30.1471 61.1935L57.5362 76.4149L57.8017 76.5734C58.1202 76.732 58.5448 76.7848 58.9163 76.6791C59.0225 76.6791 59.1286 76.6263 59.2348 76.5734C59.2879 76.5734 60.031 76.1506 60.0841 76.1506L79.3521 65.4745C79.7237 65.2631 79.7768 64.946 79.5114 64.6817C79.5645 64.6288 79.0337 64.3117 79.0337 64.2589C79.0337 64.1532 77.6005 63.2547 77.5474 63.2019L51.8036 48.509L51.2198 48.1919L23.9898 32.6005C23.6182 32.3891 23.0343 32.3363 22.6096 32.5477C22.5035 32.5477 21.495 33.0762 21.4419 33.129L1.64298 44.1751Z" fill="#C0C2C7"/>
<path d="M1.64298 44.1744C1.27142 44.3858 1.21835 44.703 1.48375 44.9672C1.48375 45.0201 1.96145 45.3372 1.96145 45.39C1.96145 45.4957 3.39465 46.3414 3.50081 46.3942L29.5631 60.8757L30.1471 61.1928L57.4832 76.4142C57.4832 76.4142 57.7486 76.5727 57.8017 76.5727C58.1202 76.7313 58.5448 76.7842 58.9163 76.6784C59.0225 76.6784 59.1286 76.6256 59.2348 76.5727C59.2879 76.5727 60.031 76.1499 60.0841 76.1499L79.3521 65.4738C79.7237 65.2624 79.7768 64.9453 79.5114 64.681C79.5114 64.6282 79.0337 64.3111 79.0337 64.2582C79.0337 64.1525 77.6005 63.3069 77.4943 63.254L51.8036 48.5612L51.2198 48.244L23.9898 32.7055C23.6182 32.4941 23.0343 32.4941 22.6096 32.6527C22.5566 32.6527 21.495 33.2341 21.4419 33.2341L1.64298 44.1744Z" fill="#BFC1C6"/>
<path d="M1.69596 44.1746C1.3244 44.386 1.27133 44.7031 1.53673 44.9673C1.53673 45.0202 2.01443 45.3373 2.01443 45.3902C2.01443 45.4959 3.44763 46.3415 3.55379 46.3944L29.5629 60.8758L30.1469 61.1929L57.483 76.3615C57.483 76.3615 57.7484 76.52 57.8015 76.52C58.12 76.6786 58.5446 76.7314 58.9161 76.6257C59.0223 76.6257 59.1284 76.5729 59.2346 76.52C59.2877 76.52 60.0308 76.0972 60.0839 76.0972L79.3519 65.4211C79.7235 65.2097 79.7765 64.8926 79.5111 64.6283C79.5111 64.5755 79.0334 64.2583 79.0334 64.2055C79.0334 64.0998 77.6002 63.2542 77.4941 63.2013L51.8034 48.5084L51.2196 48.1913L23.9896 32.6528C23.618 32.4414 23.0341 32.4414 22.6095 32.6C22.5564 32.6 21.4948 33.1813 21.4417 33.1813L1.69596 44.1746Z" fill="#BEC0C5"/>
<path d="M1.69611 44.2273C1.32455 44.4387 1.27152 44.8087 1.59 45.0201C1.59 45.0729 2.12084 45.39 2.12084 45.4429C2.12084 45.5486 3.60696 46.3942 3.66004 46.4471L29.6692 60.8757L30.2532 61.1928L57.5893 76.3613L57.8548 76.5199C58.1733 76.6784 58.5979 76.7313 58.9695 76.6256C59.0756 76.6256 59.1818 76.5727 59.2879 76.5199C59.341 76.5199 60.0842 76.097 60.1372 76.097L79.4053 65.4209C79.7769 65.2095 79.8299 64.8396 79.5114 64.6282C79.5114 64.5753 78.9806 64.2582 78.9806 64.2053C78.9806 64.0996 77.5474 63.254 77.4412 63.2012L51.7505 48.5611L51.1667 48.244L23.9366 32.7055C23.5651 32.4941 22.9811 32.4941 22.5565 32.6527C22.5034 32.6527 21.4418 33.2341 21.3887 33.2341L1.69611 44.2273Z" fill="#BDBFC4"/>
<path d="M1.6961 44.2273C1.32455 44.4387 1.27152 44.8087 1.59 45.0201C1.59 45.0729 2.12084 45.39 2.12084 45.4429C2.12084 45.4957 3.60696 46.3942 3.66004 46.4471L29.6692 60.8757L30.2531 61.1928L57.5893 76.3613C57.5893 76.3613 57.8547 76.5199 57.9077 76.5199C58.1731 76.6784 58.5979 76.7313 58.9694 76.6256C59.0756 76.6256 59.1817 76.5727 59.2879 76.5199C59.341 76.5199 60.0841 76.097 60.1372 76.097L79.3521 65.4209C79.7236 65.2095 79.7767 64.8396 79.4582 64.6282C79.4582 64.5753 78.9274 64.2582 78.9274 64.2053C78.9274 64.1525 77.4412 63.254 77.3882 63.2012L51.7505 48.5611L51.1667 48.244L23.9366 32.7055C23.5651 32.4941 22.928 32.4941 22.5565 32.6527C22.5034 32.6527 21.4418 33.2341 21.3887 33.2341L1.6961 44.2273Z" fill="#BCBEC3"/>
<path d="M1.69611 44.2274C1.32455 44.4388 1.27152 44.8088 1.59 45.0202C1.59 45.0202 2.12084 45.3902 2.12084 45.443C2.12084 45.4959 3.60696 46.3943 3.66004 46.3943L29.6162 60.823L30.2001 61.1401L57.5362 76.3086L57.8017 76.4672C58.0671 76.6257 58.4917 76.6786 58.8632 76.5729C58.9694 76.5729 59.0757 76.52 59.1819 76.4672C59.2349 76.4672 59.9779 76.0443 60.031 76.0443L79.2461 65.3682C79.6177 65.1568 79.6707 64.7868 79.3522 64.5754C79.3522 64.5754 78.8214 64.2055 78.8214 64.1526C78.8214 64.0998 77.3351 63.2013 77.282 63.1484L51.6444 48.5084L51.0605 48.1913L23.8305 32.6528C23.459 32.4414 22.822 32.4414 22.4504 32.6C22.3973 32.6 21.3357 33.1813 21.2826 33.2342L1.69611 44.2274Z" fill="#BBBDC2"/>
<path d="M1.69611 44.2803C1.32455 44.4917 1.27152 44.8616 1.59 45.073L2.12084 45.443C2.12084 45.4959 3.66009 46.3943 3.71317 46.3943L29.6692 60.823L30.2532 61.1401L57.5362 76.3086L57.8017 76.4672C58.0671 76.6257 58.5448 76.6786 58.8632 76.5729C58.9694 76.5729 59.0757 76.52 59.1819 76.4672C59.2349 76.4672 60.031 76.0443 60.031 75.9915L79.2461 65.3154C79.6177 65.104 79.6707 64.734 79.3522 64.5226C79.3522 64.5226 78.8214 64.1526 78.8214 64.0998C78.8214 64.0469 77.3351 63.1484 77.282 63.1484L51.6444 48.5084L51.0605 48.1913L23.8305 32.6528C23.459 32.4414 22.822 32.4414 22.4504 32.6C22.3973 32.6 21.3357 33.1813 21.2826 33.2342L1.69611 44.2803Z" fill="#BABCC1"/>
<path d="M1.75431 44.2806C1.38275 44.4921 1.32956 44.862 1.64804 45.0734L2.23201 45.4434C2.23201 45.4962 3.77126 46.3419 3.82434 46.3947L29.7805 60.8233L30.3114 61.1405L57.5944 76.309L57.8599 76.4675C58.1253 76.6261 58.6029 76.6789 58.9214 76.5732C59.0276 76.5732 59.1337 76.5204 59.2399 76.4675C59.2399 76.4675 60.0892 76.0447 60.0892 75.9919L79.3041 65.3686C79.6757 65.1572 79.7289 64.7872 79.4104 64.5758L78.8264 64.2059C78.8264 64.153 77.287 63.2545 77.287 63.2545L51.7026 48.6145L51.1186 48.2974L23.9417 32.7589C23.5701 32.5475 22.9331 32.5475 22.5616 32.7589C22.5085 32.7589 21.4469 33.3403 21.3938 33.3931L1.75431 44.2806Z" fill="#B9BBC0"/>
<path d="M1.74879 44.2804C1.37723 44.4918 1.3241 44.8618 1.69566 45.0732L2.27963 45.4431C2.27963 45.496 3.81888 46.3416 3.87196 46.3945L29.775 60.7702L30.3058 61.0873L57.5889 76.2559L57.8544 76.4144C58.1198 76.573 58.5443 76.6258 58.9159 76.5201C59.022 76.5201 59.1282 76.4673 59.2343 76.4144C59.2343 76.4144 60.0836 75.9916 60.0836 75.9388L79.2456 65.3155C79.6172 65.1041 79.6701 64.7341 79.2986 64.5227L78.7148 64.1528C78.7148 64.0999 77.1753 63.2014 77.1223 63.2014L51.5378 48.5614L50.9539 48.2443L23.777 32.7058C23.4054 32.4944 22.7684 32.4944 22.3968 32.7058C22.3968 32.7058 21.2821 33.34 21.2291 33.34L1.74879 44.2804Z" fill="#B8BAC0"/>
<path d="M1.74879 44.2806C1.37723 44.4921 1.3241 44.862 1.69566 45.0734L2.27963 45.4434C2.27963 45.4434 3.81888 46.3419 3.87196 46.3947L29.775 60.7705L30.3058 61.0876L57.5889 76.2561L57.8544 76.4147C58.1198 76.5732 58.5443 76.6261 58.9159 76.5204C59.022 76.5204 59.1282 76.4675 59.2343 76.4147C59.2343 76.4147 60.0836 75.9919 60.0836 75.939L79.2456 65.3158C79.6172 65.1043 79.6701 64.7344 79.2986 64.523L78.7148 64.153C78.7148 64.153 77.1753 63.2017 77.1223 63.2017L51.5378 48.6145L50.9539 48.2974L23.777 32.7589C23.4054 32.5475 22.7684 32.5475 22.3968 32.7589C22.3968 32.7589 21.2821 33.3931 21.2291 33.3931L1.74879 44.2806Z" fill="#B7B9BF"/>
<path d="M1.74879 44.3333C1.37723 44.5447 1.3241 44.9146 1.69566 45.126L2.27963 45.496L3.87196 46.3945L29.775 60.7703L30.3058 61.0874L57.5889 76.2031L57.8544 76.3616C58.1198 76.5202 58.5974 76.573 58.9159 76.4673C59.022 76.4673 59.1282 76.4145 59.2343 76.3616L60.0836 75.8859L79.2456 65.2627C79.6172 65.0513 79.6701 64.6813 79.2986 64.4699L78.7148 64.0999C78.7148 64.0999 77.1223 63.2014 77.1223 63.1486L51.5908 48.5614L51.007 48.2443L23.8301 32.7058C23.4585 32.4944 22.8215 32.4944 22.45 32.7058C22.45 32.7058 21.3353 33.34 21.2822 33.34L1.74879 44.3333Z" fill="#B6B8BE"/>
<path d="M1.74879 44.3335C1.37723 44.5449 1.3241 44.9149 1.69566 45.1263L2.27963 45.4962L3.87196 46.3947L29.7219 60.7705L30.2527 61.0876L57.4828 76.2033L57.7481 76.3618C58.0135 76.5204 58.4913 76.5732 58.8098 76.4675C58.916 76.4675 59.0221 76.4147 59.1283 76.3618L59.9776 75.8862L79.1394 65.2629C79.5109 65.0515 79.5641 64.6815 79.1925 64.4701L78.6086 64.1002L77.0162 63.2017L51.4847 48.6145L50.9008 48.2974L23.7238 32.7589C23.3523 32.5475 22.7154 32.5475 22.3439 32.7589C22.3439 32.7589 21.2292 33.3931 21.1761 33.3931L1.74879 44.3335Z" fill="#B5B7BD"/>
<path d="M79.2443 64.4701L51.5365 48.6145L23.8288 32.7589C23.4572 32.5475 22.8202 32.5475 22.4487 32.7589L1.80046 44.3335C1.4289 44.5449 1.37593 44.9149 1.74749 45.1263L29.8267 60.7176L57.906 76.309C58.2776 76.5204 58.9146 76.5204 59.2862 76.309L79.2443 65.2101C79.6159 65.0515 79.6159 64.6815 79.2443 64.4701Z" fill="#B4B6BC"/>
<path d="M77.9776 65.5267L61.3636 74.5116C61.0982 74.6701 60.7267 74.6701 60.4613 74.5116L13.061 47.4513L31.7451 38.7836L78.0307 64.0469C78.5615 64.364 78.5615 65.2096 77.9776 65.5267Z" fill="#EE8300"/>
<path d="M78.6141 64.8925L77.818 65.3153L77.6056 64.6811L23.0927 34.7669L19.4302 3.1085L19.3241 1.9986L18.8993 1.94575L18.4216 0.730159L19.1648 0.201626C19.2179 0.148774 19.271 0.148774 19.3241 0.201626L74.527 30.6973C74.9517 30.9615 75.2701 31.3843 75.3232 31.86L75.7479 35.1368L78.9857 64.1526C79.0388 64.4697 78.8795 64.734 78.6141 64.8925Z" fill="#C34000"/>
<path d="M77.0778 65.3675L22.2461 35.2418L18.6899 4.48195L18.5306 3.05494L18.2651 0.940869C18.2651 0.72946 18.4244 0.623752 18.6367 0.729456L19.1144 0.993712L74.3707 31.5951L74.9015 35.7175L78.1393 64.6804C78.2454 65.2089 77.6086 65.6318 77.0778 65.3675Z" fill="url(#paint0_linear)"/>
<path d="M76.1728 32.6515L60.1427 74.7218C59.5588 75.5674 58.391 75.8316 57.4887 75.356L3.66548 45.8117C2.76312 45.336 1.80768 44.4904 2.33848 42.9577L18.4217 0.887429C19.0056 0.0417962 20.1734 -0.222458 21.0757 0.25321C24.5259 2.15588 31.4795 5.96123 39.3884 10.348C42.4139 11.9864 45.5457 13.7305 48.7305 15.4746C52.8708 17.7472 57.011 20.0199 60.8328 22.134C65.2915 24.5652 69.3255 26.7849 72.4042 28.4762C73.625 29.1633 74.6866 29.7446 75.589 30.2203C76.4913 30.696 76.7567 31.8059 76.1728 32.6515Z" fill="#EBEAF1"/>
<path d="M20.4386 2.68525C20.2794 2.57955 20.0671 2.68524 20.014 2.8438L4.67383 43.6985C4.67383 43.6985 53.9853 70.6002 54.0384 70.4416L58.3378 59.0256L69.3784 29.587L57.807 23.2447L20.4386 2.68525Z" fill="url(#paint1_linear)"/>
<path d="M74.7929 29.9563C65.0792 24.5654 20.2796 0.094921 20.2265 0.0420689C19.9611 -0.0636351 18.7934 0.0949169 19.218 0.306325C29.4625 5.96149 73.7845 30.3263 73.7845 30.3263C74.3153 30.6434 74.6868 31.3833 74.3683 31.9118L57.9134 74.4049C57.648 74.7748 57.2765 75.3034 57.7542 75.4091C57.9665 75.4619 58.7628 75.092 58.9751 74.4577L75.483 31.859C75.9076 31.2776 75.4829 30.3263 74.7929 29.9563Z" fill="white"/>
<path d="M74.8445 29.9567C65.0778 24.5658 20.4375 0.148139 20.2783 0.0424351C20.0129 -0.0632689 18.8451 0.0952831 19.2698 0.306691C29.5142 5.96186 73.7298 30.2209 73.8359 30.3266C74.3667 30.6438 74.7384 31.3837 74.4199 31.9122L57.9651 74.4052C57.6997 74.7752 57.3281 75.3037 57.8059 75.4094C58.0182 75.4623 58.8143 75.0923 59.0266 74.4581L75.5345 31.8594C75.9061 31.3308 75.5345 30.3795 74.8445 29.9567Z" fill="#FEFEFE"/>
<path d="M74.8443 29.9567C65.0777 24.5658 20.5968 0.200991 20.2783 0.0424351C20.0129 -0.0632689 18.8451 0.0952831 19.2698 0.306691C29.5142 5.96186 73.6235 30.1681 73.8358 30.3266C74.3666 30.6438 74.7383 31.3837 74.4198 31.9122L57.965 74.4052C57.6996 74.7752 57.2749 75.3037 57.7526 75.4094C57.965 75.4623 58.7612 75.0923 58.9735 74.4581L75.4813 31.9122C75.9059 31.3308 75.5344 30.3795 74.8443 29.9567Z" fill="#FDFDFD"/>
<path d="M74.8443 29.9572C65.0776 24.5663 20.7029 0.254356 20.2783 0.0429483C20.0129 -0.0627559 18.8451 0.0429442 19.2698 0.307205C29.5142 5.96238 73.4642 30.1158 73.8358 30.3272C74.3666 30.6443 74.7382 31.4371 74.4197 31.9127L57.965 74.4058C57.6996 74.7758 57.2749 75.3043 57.7526 75.41C57.9649 75.4628 58.7612 75.1457 58.9735 74.4587L75.4812 31.9127C75.959 31.3314 75.5343 30.38 74.8443 29.9572Z" fill="#FCFCFD"/>
<path d="M74.8443 29.9572C65.0776 24.5663 20.8091 0.307209 20.2783 0.0429482C20.0129 -0.0627559 18.8451 0.0429442 19.2698 0.307204C29.5142 5.96237 73.3581 30.0629 73.8358 30.3272C74.3666 30.6443 74.7382 31.4371 74.4197 31.9127L57.965 74.4058C57.6996 74.7757 57.2749 75.3043 57.7526 75.41C57.9649 75.4628 58.7612 75.0929 58.9735 74.4586L75.4812 31.9127C75.959 31.3314 75.5343 30.38 74.8443 29.9572Z" fill="#FBFBFC"/>
<path d="M74.8443 30.0088C65.0776 24.6179 20.9152 0.411696 20.2783 0.094584C20.0129 -0.0111201 18.8451 0.0945799 19.2698 0.35884C29.5141 6.01401 73.2519 30.0617 73.8357 30.3788C74.3665 30.6959 74.7382 31.4887 74.4197 31.9644L57.9649 74.4574C57.6995 74.8274 57.2749 75.3559 57.7526 75.4087C57.9649 75.4616 58.7611 75.1445 58.9735 74.4574L75.4812 31.9115C75.9589 31.3301 75.5874 30.3788 74.8443 30.0088Z" fill="#FAFAFB"/>
<path d="M74.8977 30.0102C65.0778 24.6193 21.0745 0.465891 20.3314 0.0959268C20.066 -0.00977734 18.8983 0.0959227 19.376 0.360183C29.6204 6.01535 73.2521 29.9573 73.9952 30.3802C74.526 30.6973 74.8977 31.49 74.5792 32.0186L58.1243 74.5116C57.8589 74.8816 57.4343 75.4101 57.912 75.463C58.1243 75.5158 58.8675 75.1987 59.1329 74.5645L75.6407 32.0186C75.9592 31.3315 75.5877 30.3802 74.8977 30.0102Z" fill="#F9F9FA"/>
<path d="M74.8976 30.0102C65.0778 24.6193 21.2337 0.518743 20.3314 0.0959267C20.066 -0.00977731 18.8983 0.0959227 19.376 0.360183C29.6204 6.01535 73.1459 29.9045 73.9951 30.3801C74.5259 30.6973 74.8976 31.49 74.5791 32.0185L58.1243 74.5644C57.8589 74.9344 57.4342 75.41 57.9119 75.5158C58.1242 75.5686 58.8674 75.2515 59.1328 74.6173L75.5876 32.0714C76.0123 31.3315 75.5876 30.3801 74.8976 30.0102Z" fill="#F8F8FA"/>
<path d="M74.8976 30.0102C65.0778 24.6193 21.3399 0.571595 20.3314 0.0959267C20.066 -0.00977731 18.8983 0.0959227 19.376 0.360183C29.6204 6.01535 72.9866 29.8516 73.9951 30.3801C74.5259 30.6973 74.8976 31.49 74.5791 32.0185L58.1243 74.5644C57.8589 74.9344 57.3811 75.41 57.9119 75.5158C58.1242 75.5686 58.8674 75.2515 59.1328 74.6173L75.5876 32.0714C76.0123 31.3315 75.5876 30.3801 74.8976 30.0102Z" fill="#F7F7F9"/>
<path d="M74.8977 30.0102C65.0779 24.5664 21.4461 0.624447 20.3314 0.0959267C20.066 -0.00977731 18.8983 0.0959227 19.376 0.360183C29.6204 6.01535 72.8806 29.7988 73.9952 30.3801C74.526 30.6973 74.8977 31.49 74.5792 32.0185L58.1244 74.5644C57.859 74.9344 57.3812 75.41 57.912 75.5158C58.1243 75.5686 58.8675 75.2515 59.1329 74.6173L75.5877 32.0714C76.0124 31.3843 75.6408 30.3801 74.8977 30.0102Z" fill="#F6F6F8"/>
<path d="M74.8977 30.0102C65.0248 24.5664 21.5522 0.624447 20.3314 0.0959267C20.066 -0.00977731 18.8983 0.0959227 19.376 0.360183C29.6204 6.01535 72.7744 29.7459 73.9952 30.3801C74.526 30.6973 74.8977 31.5429 74.5792 32.0185L58.1244 74.5644C57.859 74.9344 57.3812 75.41 57.912 75.5158C58.1243 75.5686 58.8675 75.2515 59.1329 74.6173L75.5877 32.1242C76.0124 31.3843 75.6408 30.3801 74.8977 30.0102Z" fill="#F5F6F7"/>
<path d="M74.9508 30.0103C65.078 24.5665 21.7118 0.677409 20.3848 0.0960364C20.1194 -0.00966773 19.0048 0.096021 19.4294 0.307429C29.6738 5.9626 72.7216 29.5875 74.0486 30.3274C74.5794 30.6445 74.9508 31.4902 74.6324 31.9658L58.1778 74.5117C57.9124 74.8817 57.4346 75.3574 57.9654 75.4102C58.1777 75.4102 58.9209 75.1459 59.1863 74.5117L75.6409 32.0187C76.0125 31.3844 75.6409 30.3803 74.9508 30.0103Z" fill="#F4F5F7"/>
<path d="M74.951 30.0103C65.0781 24.5665 21.871 0.783113 20.3848 0.0960364C20.1194 -0.00966773 19.0048 0.096021 19.4294 0.307429C29.6738 5.9626 72.6156 29.5346 74.0487 30.3274C74.5795 30.6445 74.951 31.4902 74.6325 31.9658L58.1779 74.5117C57.9125 74.8817 57.4347 75.3574 57.9655 75.4102C58.1778 75.4102 58.921 75.1459 59.1864 74.5117L75.6411 32.0187C76.0657 31.3844 75.641 30.3803 74.951 30.0103Z" fill="#F3F4F6"/>
<path d="M74.9496 30.0103C65.0767 24.5665 21.9759 0.835965 20.3835 0.0960364C20.1712 -0.00966772 19.0035 0.096021 19.4282 0.307429C29.6726 5.9626 72.4549 29.4818 74.0473 30.3274C74.5781 30.6445 74.9496 31.4901 74.6311 32.0187L58.1765 74.5646C57.9111 74.9345 57.4333 75.4102 57.9641 75.4631C58.1765 75.4631 58.9196 75.1988 59.185 74.5646L75.6396 32.0715C76.0643 31.3844 75.6927 30.4331 74.9496 30.0103Z" fill="#F2F3F5"/>
<path d="M74.9496 30.0103C65.0767 24.5665 22.0821 0.888817 20.3835 0.0960364C20.1712 -0.00966775 19.0035 0.0960211 19.4282 0.307429C29.6726 5.9626 72.3488 29.4289 74.0473 30.3803C74.5781 30.6974 74.9496 31.543 74.6311 32.0715L58.1765 74.6174C57.9111 74.9874 57.3803 75.4631 57.9641 75.5159C58.1765 75.5159 58.9196 75.2517 59.185 74.6174L75.6396 32.1244C76.0643 31.3844 75.6927 30.4331 74.9496 30.0103Z" fill="#F1F2F4"/>
<path d="M74.9497 30.0103C65.0238 24.5665 22.1883 0.888817 20.3836 0.0960364C20.1712 -0.00966775 19.0035 0.0960211 19.4282 0.307429C29.6726 5.9626 72.2427 29.3761 74.0474 30.3803C74.5782 30.6974 74.9497 31.543 74.6312 32.0715L58.1766 74.6174C57.9112 74.9874 57.3803 75.4631 57.9642 75.5159C58.1765 75.5159 58.9197 75.2517 59.1851 74.6174L75.5868 32.1244C76.0645 31.3844 75.6928 30.4331 74.9497 30.0103Z" fill="#F0F1F3"/>
<path d="M75.0077 30.0096C65.0818 24.5659 22.3525 0.993842 20.4417 0.0953568C20.2293 -0.0103473 19.0616 0.0424894 19.4863 0.30675C29.7307 5.96192 72.1945 29.2697 74.1584 30.3796C74.6892 30.6967 75.0609 31.5423 74.7424 32.0709L58.2876 74.6168C58.0222 74.9867 57.4914 75.4095 58.0752 75.5152C58.2876 75.5152 59.0307 75.251 59.2961 74.6168L75.6978 32.1237C76.0694 31.3838 75.6978 30.4324 75.0077 30.0096Z" fill="#EFF0F3"/>
<path d="M75.0084 30.0096C65.0825 24.513 22.4594 0.993842 20.4423 0.0953568C20.23 -0.0103473 19.0623 0.0424894 19.5401 0.30675C29.7845 5.96192 72.1422 29.2168 74.2123 30.3796C74.7431 30.6967 75.1145 31.5952 74.7961 32.0709L58.3414 74.6168C58.076 74.9867 57.5452 75.4095 58.1291 75.4624C58.3414 75.4624 59.0846 75.1981 59.35 74.5639L75.7516 32.1237C76.1232 31.3838 75.7516 30.4324 75.0084 30.0096Z" fill="#EEEFF2"/>
<path d="M75.0084 30.0096C65.0825 24.513 22.6186 1.09955 20.4423 0.0953568C20.23 -0.0103473 19.0623 0.0424894 19.5401 0.30675C29.7845 5.96192 71.9829 29.164 74.2123 30.3796C74.7431 30.6967 75.1145 31.5952 74.7961 32.0709L58.3414 74.6168C58.076 74.9867 57.5452 75.4095 58.1291 75.4624C58.3414 75.4624 59.0846 75.1981 59.35 74.5639L75.7516 32.1237C76.1232 31.4366 75.7516 30.4324 75.0084 30.0096Z" fill="#EDEEF1"/>
<path d="M75.0084 30.0096C65.0294 24.513 22.7248 1.09955 20.4423 0.0953568C20.23 -0.0103473 19.0623 0.0424894 19.5401 0.30675C29.7845 5.96192 71.8768 29.1111 74.2123 30.3796C74.7431 30.6967 75.1145 31.5952 74.7961 32.0709L58.3414 74.6168C58.076 74.9867 57.5452 75.4095 58.1291 75.4624C58.3414 75.4624 59.0315 75.1981 59.35 74.5639L75.7516 32.1237C76.1232 31.4366 75.7516 30.4324 75.0084 30.0096Z" fill="#ECEDF0"/>
<path d="M75.0089 30.0096C65.0299 24.513 22.8313 1.1524 20.3896 0.0953568C20.1773 -0.0103473 19.0096 0.0424894 19.4873 0.30675C29.7317 5.96192 71.7179 29.0054 74.1596 30.3796C74.6904 30.6967 75.062 31.5952 74.7436 32.1237L58.2887 74.6696C58.0233 75.0396 57.4394 75.4624 58.0764 75.5152C58.2887 75.5152 58.9788 75.251 59.2973 74.6168L75.699 32.1766C76.1236 31.4366 75.752 30.4324 75.0089 30.0096Z" fill="#EBECF0"/>
<path d="M75.0557 30.0626C65.0767 24.566 22.984 1.31108 20.4361 0.148331C20.2238 0.0426264 19.1092 0.0954833 19.5339 0.359744C29.7784 6.01491 71.6586 29.0055 74.2064 30.4325C74.7372 30.7497 75.1087 31.6482 74.7902 32.1767L58.3355 74.7226C58.0701 75.0925 57.4862 75.5153 58.1231 75.5682C58.3355 75.5682 59.0255 75.3039 59.2909 74.6697L75.6927 32.2295C76.1173 31.4367 75.7989 30.4325 75.0557 30.0626Z" fill="#EAEBEF"/>
<path d="M75.0556 30.0626C65.0765 24.566 23.0901 1.31108 20.4361 0.148331C20.2238 0.0426264 19.1092 0.0954833 19.5339 0.359744C29.7783 6.01491 71.5523 28.9527 74.2063 30.4326C74.7371 30.7497 75.1086 31.6482 74.7901 32.1767L58.3354 74.7226C58.07 75.0926 57.4861 75.4625 58.123 75.5154C58.3354 75.5682 59.0255 75.2511 59.3439 74.6169L75.7457 32.1767C76.1703 31.4368 75.7987 30.4326 75.0556 30.0626Z" fill="#E9EAEE"/>
<path d="M75.0556 30.0627C65.0765 24.5661 23.1963 1.41688 20.4361 0.0955783C20.2238 -0.0101258 19.1092 0.0427198 19.5339 0.254128C29.7783 5.9093 71.393 28.7942 74.2063 30.3269C74.7371 30.6441 75.1086 31.5425 74.7901 32.0711L58.3354 74.617C58.07 74.9869 57.4861 75.3569 58.123 75.4098C58.3353 75.4626 59.0254 75.1455 59.2908 74.5113L75.6394 32.0711C76.1702 31.4368 75.7987 30.4855 75.0556 30.0627Z" fill="#E8E9ED"/>
<path d="M75.0556 30.0627C65.0234 24.5661 23.3555 1.41688 20.4361 0.0955783C20.2238 -0.0101258 19.1092 0.0427198 19.5339 0.254128C29.7783 5.9093 71.2869 28.7414 74.2063 30.3269C74.7371 30.6441 75.1086 31.5954 74.7901 32.0711L58.3354 74.617C58.07 74.9869 57.4861 75.304 58.123 75.4098C58.3353 75.4626 59.0254 75.1455 59.2908 74.5113L75.6394 32.0711C76.1702 31.4368 75.7987 30.4855 75.0556 30.0627Z" fill="#E7E8ED"/>
<path d="M75.0557 30.0627C65.0235 24.5132 23.4617 1.46973 20.4361 0.0955783C20.2238 -0.0101258 19.1092 0.0427198 19.5339 0.254128C29.7783 5.9093 71.1808 28.6357 74.2064 30.3269C74.7372 30.6441 75.1087 31.5954 74.7902 32.0711L58.3355 74.617C58.0701 74.9869 57.4861 75.304 58.1231 75.4098C58.3354 75.4626 59.0255 75.1455 59.2909 74.5113L75.6395 32.1239C76.1703 31.4897 75.8519 30.4855 75.0557 30.0627Z" fill="#E6E7EC"/>
<path d="M75.1084 30.0627C65.0763 24.5132 23.6207 1.57544 20.489 0.0955783C20.2767 -0.0101258 19.1619 0.0427198 19.5866 0.254128C29.831 5.9093 71.1273 28.5828 74.3121 30.3269C74.8429 30.6441 75.2146 31.5954 74.8961 32.0711L58.4412 74.617C58.1758 74.9869 57.5388 75.3041 58.2289 75.4098C58.4412 75.4098 59.1312 75.1455 59.3966 74.5113L75.7454 32.1239C76.2231 31.4897 75.8516 30.4855 75.1084 30.0627Z" fill="#E5E6EB"/>
<path d="M75.1085 30.0627C65.0764 24.5132 23.727 1.57544 20.4891 0.0955783C20.2768 -0.0101258 19.1621 0.0427198 19.6398 0.254128C29.8843 5.9093 71.0744 28.53 74.3653 30.3269C74.8961 30.6441 75.2676 31.5954 74.9492 32.1239L58.4413 74.7227C58.1759 75.0926 57.539 75.4097 58.176 75.5154C58.3883 75.5683 59.0784 75.2512 59.3438 74.617L75.6923 32.2296C76.2231 31.4897 75.8517 30.4855 75.1085 30.0627Z" fill="#E4E5EA"/>
<path d="M75.1084 30.063C65.0232 24.5136 23.8332 1.62866 20.4891 0.0959483C20.2768 -0.00975575 19.1621 -0.00976222 19.6398 0.254498C29.8843 5.90967 70.915 28.4775 74.3652 30.3273C74.896 30.6444 75.2675 31.5957 74.949 32.1243L58.4412 74.723C58.1758 75.093 57.5388 75.4101 58.2289 75.4629C58.4412 75.4629 59.1312 75.1987 59.3966 74.5644L75.7453 32.1771C76.223 31.4901 75.8515 30.4859 75.1084 30.063Z" fill="#E3E5EA"/>
<path d="M75.1085 30.063C65.0233 24.5136 23.9924 1.68151 20.4891 0.0959483C20.2768 -0.00975575 19.1621 -0.00976222 19.6398 0.254498C29.8843 5.90967 70.8089 28.4246 74.3653 30.3273C74.8961 30.6444 75.2676 31.5957 74.9491 32.1243L58.4413 74.723C58.1759 75.093 57.539 75.4101 58.176 75.4629C58.3883 75.4629 59.0783 75.1987 59.3437 74.5644L75.6923 32.1771C76.2231 31.4901 75.9047 30.4859 75.1085 30.063Z" fill="#E2E4E9"/>
<path d="M75.1085 30.063C65.0233 24.5136 24.0986 1.78721 20.4891 0.0959483C20.2768 -0.00975575 19.1621 -0.00976221 19.6398 0.254498C29.8843 5.90966 70.7028 28.3189 74.3653 30.3802C74.8961 30.6973 75.2676 31.6486 74.9491 32.1771L58.4945 74.7758C58.2291 75.1458 57.592 75.4629 58.229 75.5158C58.4413 75.5158 59.1313 75.2515 59.3967 74.6173L75.7455 32.23C76.2232 31.49 75.9047 30.4859 75.1085 30.063Z" fill="#E1E3E8"/>
<path d="M75.1132 30.063C65.028 24.5136 24.2094 1.84007 20.4938 0.0959483C20.3346 -0.00975575 19.1668 -0.00976221 19.6445 0.254498C29.889 5.90966 70.6013 28.2661 74.37 30.3802C74.9008 30.6973 75.2723 31.6486 74.9538 32.1771L58.4991 74.7758C58.2337 75.1458 57.5436 75.4101 58.2337 75.5158C58.446 75.5158 59.0829 75.2515 59.4014 74.6173L75.7502 32.23C76.281 31.49 75.9094 30.4859 75.1132 30.063Z" fill="#E0E2E7"/>
<path d="M75.1661 30.063C65.0809 24.5136 24.3685 1.89292 20.5468 0.0959483C20.3875 -0.00975575 19.273 -0.00976221 19.6977 0.254498C29.9421 5.90966 70.5482 28.2132 74.4231 30.3802C74.9539 30.6973 75.3254 31.7015 75.0069 32.1771L58.5521 74.7758C58.2867 75.1458 57.5967 75.4101 58.2867 75.5158C58.499 75.5158 59.136 75.2515 59.4545 74.6173L75.7501 32.2828C76.2809 31.49 75.9092 30.4859 75.1661 30.063Z" fill="#DFE1E6"/>
<path d="M75.1662 30.063C65.0279 24.4607 24.4747 1.94577 20.5468 0.0959483C20.3876 -0.00975575 19.273 -0.00976222 19.6977 0.254498C29.9421 5.90967 70.3891 28.1604 74.4232 30.3802C74.954 30.6973 75.3255 31.7015 75.007 32.1771L58.5521 74.7758C58.2867 75.1458 57.5968 75.4101 58.2868 75.4629C58.4991 75.4629 59.1361 75.2515 59.4546 74.5644L75.7502 32.23C76.281 31.49 75.9624 30.4859 75.1662 30.063Z" fill="#DEE0E6"/>
<path d="M75.1662 30.063C65.0279 24.4607 24.634 1.94577 20.5468 0.0959483C20.3876 -0.00975575 19.273 -0.00976221 19.6977 0.254498C29.9421 5.90966 70.2829 28.1075 74.4232 30.3802C74.954 30.6973 75.3255 31.7014 75.007 32.23L58.5521 74.8287C58.2867 75.1987 57.5968 75.4629 58.2868 75.5158C58.4991 75.5158 59.1361 75.3044 59.4546 74.6173L75.7502 32.2828C76.281 31.5429 75.9624 30.4859 75.1662 30.063Z" fill="#DDDFE5"/>
<path d="M75.1662 30.0625C65.0279 24.4602 24.687 2.05097 20.5468 0.0954398C20.3876 -0.0102643 19.273 -0.0102821 19.6977 0.201126C29.9421 5.85629 70.1768 27.9485 74.4232 30.3268C74.954 30.6439 75.3255 31.6481 75.007 32.1766L58.5521 74.7754C58.2867 75.1453 57.5437 75.4096 58.2868 75.4624C58.4991 75.4624 59.1361 75.251 59.4546 74.6168L75.7502 32.2823C76.281 31.5424 75.9624 30.5382 75.1662 30.0625Z" fill="#DCDEE4"/>
<path d="M75.1661 30.0626C65.0278 24.4603 24.8463 2.10388 20.5468 0.0954976C20.3875 0.0426455 19.273 -0.0102243 19.6977 0.201184C29.9421 5.85635 70.0704 27.8957 74.476 30.3269C75.0068 30.644 75.3785 31.6482 75.06 32.1767L58.6052 74.7754C58.3398 75.1454 57.5967 75.4097 58.3398 75.4625C58.5522 75.4625 59.1891 75.2511 59.5076 74.6169L75.803 32.2824C76.3338 31.5424 75.9623 30.5383 75.1661 30.0626Z" fill="#DBDDE3"/>
<path d="M75.2192 30.0626C65.0279 24.4603 25.0055 2.15673 20.5999 0.0954976C20.4406 0.0426455 19.326 -0.0102243 19.8037 0.201184C29.9951 5.85635 70.0705 27.8428 74.5823 30.3269C75.1131 30.644 75.4846 31.6482 75.1661 32.1767L58.7113 74.7754C58.4459 75.1454 57.7028 75.4097 58.4459 75.4625C58.6582 75.4625 59.2952 75.2511 59.6137 74.6169L75.9093 32.2824C76.3339 31.5424 76.0154 30.5383 75.2192 30.0626Z" fill="#DBDCE3"/>
<path d="M75.2192 30.1155C65.0279 24.5131 25.1117 2.26243 20.5999 0.148346C20.4406 0.0954935 19.326 0.0426438 19.8037 0.254052C29.9951 5.90922 69.9112 27.8428 74.5823 30.3797C75.1131 30.6968 75.4846 31.701 75.1661 32.2295L58.7113 74.8283C58.4459 75.1983 57.7028 75.4625 58.4459 75.5154C58.6582 75.5154 59.2952 75.304 59.6137 74.6697L75.9093 32.3353C76.3339 31.5425 76.0154 30.5383 75.2192 30.1155Z" fill="#DADBE2"/>
<path d="M75.2192 30.1159C65.0279 24.5136 25.2178 2.36861 20.5999 0.148828C20.4406 0.0959755 19.326 -0.00972623 19.8037 0.254534C29.9951 5.90971 69.8051 27.7376 74.5823 30.3802C75.1131 30.6973 75.4846 31.7544 75.1661 32.23L58.7113 74.8288C58.4459 75.1988 57.7028 75.463 58.4459 75.463C58.6582 75.463 59.2952 75.2516 59.6137 74.6174L75.9093 32.3357C76.3339 31.543 76.0154 30.5388 75.2192 30.1159Z" fill="#D9DAE1"/>
<path d="M75.2192 30.1159C65.0279 24.5136 25.324 2.36861 20.5999 0.148828C20.4406 0.0959755 19.326 -0.00972623 19.8037 0.254534C29.9951 5.90971 69.6989 27.6848 74.5823 30.3802C75.1131 30.6973 75.4846 31.7544 75.1661 32.23L58.7113 74.8288C58.4459 75.1988 57.7028 75.5159 58.4459 75.463C58.6582 75.463 59.2952 75.2516 59.6137 74.6174L75.8561 32.3357C76.3869 31.543 76.0154 30.5388 75.2192 30.1159Z" fill="#D8D9E0"/>
<path d="M75.2718 30.1159C65.0805 24.5136 25.5359 2.42147 20.6526 0.148828C20.4934 0.0959755 19.3787 -0.0097262 19.8564 0.254534C30.0478 5.9097 69.6452 27.6319 74.6347 30.3802C75.1655 30.6973 75.5371 31.7543 75.2186 32.2829L58.7639 74.8816C58.4985 75.2516 57.7023 75.5687 58.4985 75.5158C58.7109 75.5158 59.3478 75.3044 59.6663 74.6702L75.9087 32.3886C76.3864 31.5429 76.068 30.5387 75.2718 30.1159Z" fill="#D7D8E0"/>
<path d="M75.2726 30.1159C65.0281 24.4608 25.6426 2.47432 20.653 0.148828C20.4938 0.0959755 19.4322 -0.0097262 19.8569 0.254534C30.0483 5.9097 69.5398 27.579 74.6355 30.3802C75.1663 30.6973 75.5379 31.7543 75.2194 32.2829L58.7645 74.8816C58.4991 75.2516 57.703 75.5687 58.4992 75.5158C58.7115 75.5158 59.3485 75.3044 59.667 74.6702L75.9095 32.3886C76.3872 31.5958 76.0688 30.5387 75.2726 30.1159Z" fill="#D6D7DF"/>
<path d="M75.2726 30.1159C65.0281 24.4608 25.7487 2.52717 20.653 0.148828C20.4938 0.0959755 19.4322 -0.0097262 19.8569 0.254534C30.0483 5.9097 69.3805 27.5262 74.6355 30.3802C75.1663 30.6973 75.5379 31.7543 75.2194 32.2829L58.7645 74.8816C58.4991 75.2516 57.703 75.5687 58.4992 75.5158C58.7115 75.5158 59.2954 75.3044 59.667 74.6702L75.9095 32.3886C76.3872 31.5958 76.0688 30.5387 75.2726 30.1159Z" fill="#D5D6DE"/>
<path d="M75.2738 30.1159C65.0294 24.4608 25.8564 2.63287 20.6015 0.148828C20.4423 0.0959755 19.3807 -0.0097262 19.8054 0.254534C29.9967 5.9097 69.2227 27.4205 74.5837 30.3802C75.1145 30.6973 75.5391 31.7543 75.1675 32.2829L58.7128 74.8816C58.4474 75.2516 57.6512 75.5687 58.4474 75.5158C58.6597 75.5158 59.2436 75.3044 59.6152 74.6702L75.8576 32.3886C76.3884 31.5958 76.07 30.5387 75.2738 30.1159Z" fill="#D4D5DD"/>
<path d="M75.2739 30.1159C65.0294 24.4608 25.9626 2.68573 20.6015 0.148828C20.4423 0.0959755 19.3807 -0.0097262 19.8054 0.254534C29.9967 5.9097 69.1166 27.3676 74.5838 30.3802C75.1146 30.6973 75.4861 31.7543 75.1676 32.2829L58.7128 74.8816C58.4474 75.2516 57.6513 75.5687 58.4475 75.463C58.6598 75.463 59.2437 75.2516 59.6152 74.6174L75.8577 32.3357C76.4415 31.5958 76.1231 30.5387 75.2739 30.1159Z" fill="#D3D4DC"/>
<path d="M75.2739 30.1159C65.0294 24.4608 26.0687 2.73858 20.6015 0.148828C20.4423 0.0959755 19.3807 -0.0097262 19.8054 0.254534C29.9967 5.9097 69.0104 27.3148 74.5838 30.3802C75.1146 30.6973 75.4861 31.8072 75.1676 32.2829L58.7128 74.8816C58.4474 75.2516 57.6513 75.5687 58.4475 75.463C58.6598 75.463 59.2437 75.2516 59.6152 74.6174L75.8577 32.3357C76.4415 31.5958 76.1231 30.5916 75.2739 30.1159Z" fill="#D2D4DC"/>
<path d="M75.3255 30.1158C65.0279 24.4606 26.2264 2.73845 20.653 0.148699C20.4938 0.0958468 19.4322 -0.00986612 19.8569 0.201542C30.0482 5.85671 68.9559 27.2089 74.6886 30.3801C75.2194 30.6972 75.6441 31.8071 75.2725 32.2827L58.8176 74.8815C58.5522 75.2514 57.7029 75.5685 58.5522 75.4628C58.7645 75.4628 59.3484 75.2514 59.7199 74.6172L75.9624 32.3884C76.4401 31.5956 76.1217 30.5915 75.3255 30.1158Z" fill="#D1D3DB"/>
<path d="M75.3261 30.1157C65.0286 24.4605 26.3334 2.84403 20.6539 0.0957204C20.4946 0.0428683 19.433 -0.0628447 19.9107 0.148564C30.102 5.80374 68.8504 27.1031 74.7423 30.3271C75.2731 30.6442 75.6976 31.7541 75.3261 32.2298L58.8713 74.8285C58.6059 75.1985 57.7567 75.5156 58.6059 75.4099C58.8183 75.4099 59.4021 75.1985 59.7737 74.5643L76.0161 32.3355C76.4408 31.5955 76.1223 30.5913 75.3261 30.1157Z" fill="#D0D2DA"/>
<path d="M75.3234 30.1157C65.0259 24.4605 26.4367 2.89688 20.6509 0.0957204C20.5448 0.0428683 19.43 -0.0628447 19.9077 0.148564C30.0991 5.80373 68.7416 26.9974 74.7396 30.3271C75.2704 30.6442 75.695 31.7541 75.3234 32.2826L58.8685 74.8814C58.6031 75.2513 57.7539 75.5685 58.6032 75.4628C58.8155 75.4628 59.3994 75.2513 59.771 74.6171L75.9604 32.3883C76.4381 31.5955 76.1727 30.5913 75.3234 30.1157Z" fill="#CFD1D9"/>
<path d="M75.3234 30.1157C65.0259 24.4076 26.5959 2.94973 20.6509 0.0957204C20.5448 0.0428683 19.43 -0.0628447 19.9077 0.148564C30.0991 5.75088 68.6354 26.9446 74.7396 30.3271C75.2704 30.6442 75.695 31.7541 75.3234 32.2826L58.8685 74.8814C58.6031 75.2513 57.7539 75.5156 58.6032 75.4627C58.8155 75.4627 59.3994 75.2513 59.771 74.6171L75.9604 32.3883C76.4912 31.6484 76.1727 30.5913 75.3234 30.1157Z" fill="#CED0D9"/>
<path d="M75.3234 30.1155C64.9728 24.4075 26.649 3.05526 20.6509 0.0955442C20.5448 0.0426921 19.43 -0.115873 19.9077 0.148387C30.0991 5.80356 68.5292 26.8915 74.7396 30.3269C75.2704 30.644 75.695 31.7539 75.3234 32.2824L58.8685 74.8812C58.6031 75.2511 57.7539 75.5154 58.6032 75.4097C58.8155 75.4097 59.3994 75.1983 59.771 74.564L75.9604 32.3353C76.4912 31.6482 76.1727 30.5912 75.3234 30.1155Z" fill="#CDCFD8"/>
<path d="M75.3762 30.1155C65.0256 24.4075 26.8612 3.05526 20.7039 0.0955442C20.5978 0.0426921 19.483 -0.115873 19.9607 0.148387C30.1521 5.80356 68.4757 26.8387 74.7922 30.3269C75.323 30.644 75.7478 31.7539 75.3762 32.2824L58.9214 74.8812C58.656 75.2511 57.7537 75.5154 58.6561 75.4097C58.8684 75.4097 59.4523 75.1983 59.8238 74.564L76.0131 32.3353C76.4909 31.6482 76.1724 30.5912 75.3762 30.1155Z" fill="#CCCED7"/>
<path d="M75.378 30.1155C65.0274 24.4075 26.9692 3.16096 20.7058 0.0955442C20.5996 0.0426921 19.5379 -0.115873 19.9626 0.148387C30.1539 5.7507 68.3183 26.733 74.7941 30.3269C75.3249 30.644 75.7496 31.8068 75.378 32.2824L58.9232 74.9341C58.6578 75.304 57.7555 75.5683 58.6047 75.4626C58.8171 75.4626 59.4009 75.2512 59.7725 74.6169L75.9618 32.3881C76.4926 31.6482 76.2273 30.5912 75.378 30.1155Z" fill="#CBCDD6"/>
<path d="M75.378 30.1689C65.0274 24.4608 27.0754 3.26716 20.7058 0.148889C20.5996 0.0960368 19.5379 -0.0625282 19.9626 0.201732C30.1539 5.8569 68.2121 26.7335 74.7941 30.3803C75.3249 30.6974 75.7496 31.8601 75.378 32.3358L58.9232 74.9874C58.6578 75.3573 57.7555 75.6216 58.6047 75.5159C58.8171 75.463 59.4009 75.3045 59.7725 74.6703L75.9618 32.4943C76.4926 31.6487 76.2273 30.5917 75.378 30.1689Z" fill="#CACCD6"/>
<path d="M75.3781 30.1688C65.0275 24.4608 27.1815 3.32001 20.7058 0.148889C20.5996 0.0960368 19.5379 -0.0625281 19.9626 0.201732C30.1539 5.80405 68.106 26.6806 74.7941 30.3803C75.3249 30.6974 75.7496 31.8601 75.3781 32.3886L58.9232 75.0402C58.6578 75.4102 57.7555 75.6744 58.6048 75.5687C58.8171 75.5159 59.401 75.3573 59.7725 74.7231L75.9619 32.5472C76.5457 31.6487 76.2273 30.5917 75.3781 30.1688Z" fill="#C9CBD5"/>
<path d="M75.3781 30.1688C64.9744 24.4608 27.2877 3.37286 20.7058 0.148889C20.5996 0.0960368 19.5379 -0.0625281 19.9626 0.201732C30.1539 5.80405 67.9999 26.6278 74.7941 30.3803C75.3249 30.6974 75.7496 31.8601 75.3781 32.3886L58.9232 75.0402C58.6578 75.4102 57.7555 75.6744 58.6048 75.5687C58.8171 75.5159 59.3479 75.3573 59.7725 74.7231L75.9619 32.5472C76.5457 31.6487 76.2273 30.5917 75.3781 30.1688Z" fill="#C8CAD4"/>
<path d="M75.4293 30.1688C65.0256 24.4608 27.4449 3.42572 20.7569 0.148889C20.6507 0.0960368 19.5892 -0.0625282 20.0138 0.201732C30.2052 5.80405 67.8919 26.5749 74.8985 30.3803C75.4293 30.6974 75.8538 31.8601 75.4823 32.3886L59.0275 75.0402C58.7621 75.4102 57.8066 75.6744 58.709 75.5159C58.9213 75.463 59.4521 75.3045 59.8768 74.6703L76.0131 32.4943C76.5439 31.6487 76.2786 30.6445 75.4293 30.1688Z" fill="#C7C9D3"/>
<path d="M75.4293 30.1688C65.0256 24.408 27.5511 3.53142 20.7569 0.148889C20.6507 0.0960368 19.5892 -0.0625282 20.0138 0.201732C30.2052 5.80405 67.7858 26.4692 74.8985 30.3803C75.4293 30.6974 75.8538 31.8601 75.4823 32.3886L59.0275 75.0402C58.7621 75.4102 57.8066 75.6744 58.709 75.5159C58.9213 75.463 59.4521 75.3045 59.8768 74.6703L76.0131 32.4943C76.5439 31.7016 76.2786 30.6445 75.4293 30.1688Z" fill="#C6C8D3"/>
<path d="M75.4301 30.1682C65.0264 24.4073 27.711 3.58361 20.7576 0.148224C20.6514 0.095372 19.5898 -0.0631841 20.0675 0.148224C30.2589 5.75054 67.7333 26.3628 74.9522 30.3267C75.483 30.6438 75.9077 31.8066 75.5362 32.3351L59.0813 74.9867C58.8159 75.3567 57.8605 75.6209 58.7629 75.4624C58.9752 75.4095 59.506 75.251 59.9306 74.6167L76.067 32.4408C76.5978 31.7009 76.2794 30.6438 75.4301 30.1682Z" fill="#C5C7D2"/>
<path d="M75.4301 30.1682C65.0264 24.4073 27.8172 3.63646 20.7576 0.148224C20.6514 0.095372 19.5898 -0.0631841 20.0675 0.148224C30.2589 5.75054 67.6272 26.31 74.9522 30.3267C75.483 30.6438 75.9077 31.8594 75.5362 32.3351L59.0813 74.9867C58.8159 75.3567 57.8605 75.6209 58.7629 75.4624C58.9752 75.4095 59.506 75.251 59.9306 74.6167L76.067 32.4408C76.5978 31.7009 76.2794 30.6438 75.4301 30.1682Z" fill="#C4C6D1"/>
<path d="M75.4299 30.1682C64.9732 24.4073 27.9233 3.68931 20.7576 0.148224C20.6514 0.095372 19.5898 -0.0631841 20.0675 0.148224C30.2588 5.75054 67.5209 26.2571 74.952 30.3267C75.4828 30.6438 75.9076 31.8594 75.536 32.3351L59.0812 74.9867C58.8158 75.3567 57.8604 75.6209 58.7628 75.4624C58.9751 75.4095 59.5059 75.251 59.9305 74.6167L76.0668 32.4408C76.5976 31.7009 76.3323 30.6438 75.4299 30.1682Z" fill="#C3C5D0"/>
<path d="M75.4825 30.1682C65.0258 24.4073 28.0292 3.79502 20.8103 0.148224C20.7041 0.095372 19.6425 -0.0631841 20.1202 0.148224C30.3116 5.75054 67.4675 26.2043 75.0048 30.3267C75.5356 30.6439 75.9603 31.8595 75.5888 32.3351L59.134 74.9867C58.8686 75.3567 57.9132 75.6209 58.8155 75.4095C59.0278 75.3567 59.5586 75.1981 59.9301 74.5639L76.0665 32.4408C76.5973 31.7009 76.3318 30.6439 75.4825 30.1682Z" fill="#C2C4CF"/>
<path d="M75.4841 30.1682C65.0274 24.4073 28.137 3.95357 20.8119 0.148224C20.7058 0.0953721 19.6972 -0.0631841 20.1219 0.148224C30.3132 5.75054 67.3099 26.0986 75.0064 30.3796C75.5372 30.6967 75.962 31.9123 75.5904 32.4408L59.1356 75.0924C58.8702 75.4624 57.8617 75.7267 58.8171 75.5153C59.0295 75.4624 59.5602 75.3567 59.9318 74.7225L76.0681 32.5994C76.5989 31.7009 76.3334 30.6439 75.4841 30.1682Z" fill="#C1C3CF"/>
<path d="M75.4842 30.1684C65.0274 24.4075 28.2962 3.9009 20.8119 0.14841C20.7058 0.0955583 19.6972 -0.11585 20.1219 0.14841C30.3132 5.75072 67.2037 26.0459 75.0065 30.3798C75.5373 30.6969 75.962 31.9125 75.5904 32.441L59.1356 75.0926C58.8702 75.4625 57.8617 75.7268 58.8172 75.5154C59.0295 75.4625 59.5602 75.304 59.9318 74.7226L76.0681 32.5995C76.652 31.7011 76.3334 30.644 75.4842 30.1684Z" fill="#C0C3CE"/>
<path d="M75.4842 30.1684C64.9744 24.4075 28.3493 4.00661 20.8119 0.14841C20.7058 0.0955583 19.6972 -0.11585 20.1219 0.14841C30.3132 5.75072 67.0976 25.9931 75.0065 30.3798C75.5373 30.6969 75.962 31.9125 75.5905 32.441L59.1357 75.0926C58.8703 75.4625 57.8618 75.7268 58.8172 75.5154C59.0295 75.4625 59.5603 75.3568 59.9318 74.7226L76.015 32.5995C76.652 31.7011 76.3866 30.644 75.4842 30.1684Z" fill="#BFC2CD"/>
<path d="M75.4842 30.1684C64.9744 24.3546 28.5085 4.05946 20.8119 0.14841C20.7058 0.0955583 19.6972 -0.11585 20.1219 0.14841C30.3132 5.75072 66.9914 25.9402 75.0065 30.3798C75.5373 30.6969 75.962 31.9125 75.5905 32.441L59.1357 75.0926C58.8703 75.4625 57.8618 75.7268 58.8172 75.5154C59.0295 75.4625 59.5603 75.3568 59.9318 74.7226L76.015 32.5995C76.652 31.7539 76.3866 30.644 75.4842 30.1684Z" fill="#BEC1CC"/>
<path d="M75.5371 30.1684C65.0273 24.3546 28.6146 4.16516 20.8119 0.14841C20.7058 0.0955583 19.6972 -0.11585 20.1219 0.14841C30.3132 5.75072 66.8851 25.8874 75.0594 30.3798C75.5902 30.6969 76.0148 31.9653 75.6432 32.441L59.1886 75.0926C58.9232 75.4625 57.9146 75.7268 58.87 75.5154C59.0823 75.4625 59.6132 75.3568 59.9848 74.7226L76.0679 32.5995C76.6518 31.7539 76.3864 30.644 75.5371 30.1684Z" fill="#BDC0CC"/>
<path d="M75.5335 30.1684C65.0237 24.3546 28.7171 4.27087 20.8081 0.14841C20.7551 0.0955583 19.6934 -0.11585 20.1181 0.14841C30.3094 5.75072 66.7223 25.7816 75.0558 30.3798C75.5866 30.6969 76.0112 31.9653 75.6396 32.441L59.185 75.0926C58.9196 75.4625 57.9109 75.674 58.8663 75.4625C59.0787 75.4097 59.5565 75.304 59.9811 74.6698L76.0644 32.5467C76.6482 31.7539 76.3828 30.6969 75.5335 30.1684Z" fill="#BCBFCB"/>
<path d="M75.5344 30.1684C65.0245 24.3546 28.8241 4.32372 20.809 0.14841C20.7559 0.0955583 19.6943 -0.11585 20.1721 0.14841C30.3634 5.75072 66.6701 25.7288 75.1098 30.3798C75.6406 30.6969 76.0652 31.9653 75.6936 32.441L59.2388 75.0926C58.9734 75.4625 57.9118 75.674 58.9203 75.4625C59.0796 75.4097 59.6103 75.304 60.035 74.6698L76.1182 32.5995C76.702 31.7539 76.4367 30.6969 75.5344 30.1684Z" fill="#BBBECA"/>
<path d="M75.5344 30.1684C64.9715 24.3546 28.9302 4.37657 20.809 0.14841C20.7559 0.0955583 19.6943 -0.11585 20.1721 0.14841C30.3634 5.75073 66.5639 25.676 75.1098 30.3798C75.6406 30.6969 76.0652 31.9653 75.6936 32.4939L59.2388 75.1454C58.9734 75.5154 57.9118 75.7268 58.9203 75.5154C59.1326 75.4626 59.6103 75.3569 60.035 74.7226L76.1182 32.6524C76.702 31.7539 76.4367 30.6969 75.5344 30.1684Z" fill="#BABDC9"/>
<path d="M75.5344 30.2214C64.9715 24.4076 29.0364 4.53526 20.809 0.201389C20.7559 0.148537 19.6943 -0.0628714 20.1721 0.201389C30.3634 5.80371 66.4578 25.6761 75.1098 30.4328C75.6406 30.7499 76.0652 32.0183 75.6936 32.5469L59.2388 75.1985C58.9734 75.5684 57.9118 75.7798 58.9203 75.5684C59.0796 75.5156 59.6103 75.4099 60.035 74.7756L76.1182 32.7054C76.702 31.7541 76.4367 30.697 75.5344 30.2214Z" fill="#B9BCC9"/>
<path d="M75.5873 30.2217C65.0244 24.4079 29.1424 4.74699 20.8619 0.201721C20.8088 0.148869 19.7471 -0.0625298 20.2248 0.148878C30.4161 5.75119 66.3513 25.5179 75.1626 30.3802C75.6934 30.6973 76.1181 31.9658 75.7465 32.4943L59.2917 75.1459C59.0263 75.5158 57.9647 75.7273 58.9733 75.5158C59.1856 75.463 59.6632 75.3573 60.0879 74.7231L76.1711 32.6529C76.7019 31.7544 76.4366 30.6973 75.5873 30.2217Z" fill="#B8BBC8"/>
<path d="M75.5871 30.2217C65.0242 24.4079 29.2485 4.79984 20.8619 0.148865C20.8088 0.096013 19.7471 -0.115386 20.2248 0.0960218C30.4161 5.69834 66.245 25.4121 75.1624 30.3274C75.6932 30.6445 76.1179 31.9129 75.7464 32.4415L59.2916 75.0931C59.0262 75.463 57.9646 75.6744 58.9731 75.463C59.1324 75.4102 59.6631 75.3045 60.0878 74.6702L76.1178 32.6C76.7017 31.7544 76.4895 30.6973 75.5871 30.2217Z" fill="#B7BAC7"/>
<path d="M65.2373 49.7763C64.1757 49.1949 62.8487 49.512 62.1587 50.4634C61.5217 51.4147 61.8401 52.6831 62.8486 53.2117C63.9102 53.793 65.2373 53.4759 65.9273 52.5246C66.6174 51.5732 66.2989 50.3048 65.2373 49.7763Z" fill="#B7BAC7"/>
<path d="M65.0756 50.041C64.2263 49.5653 63.0585 49.8296 62.5277 50.6224C61.9969 51.4151 62.2624 52.4722 63.1117 52.9479C63.961 53.4235 65.1286 53.1593 65.6594 52.3665C66.1902 51.5737 65.9249 50.5166 65.0756 50.041Z" fill="white"/>
<path d="M20.4386 2.68525C20.2794 2.57955 20.0671 2.68524 20.014 2.8438L4.67383 43.6985C4.67383 43.6985 53.9853 70.6002 54.0384 70.4416L58.3378 59.0256L69.3784 29.587L57.807 23.2447L20.4386 2.68525Z" fill="url(#paint2_linear)"/>
<path d="M42.6729 26.574L45.38 28.0539L45.6454 27.2611L42.9913 25.7284L42.6729 26.574Z" fill="white"/>
<path d="M49.1506 30.2215L52.7599 32.2827L53.0783 31.49L49.416 29.4287L49.1506 30.2215Z" fill="white"/>
<path d="M45.7522 28.3183L48.5655 29.9038L48.8309 29.0582L46.0177 27.4727L45.7522 28.3183Z" fill="white"/>
<path d="M42.0388 28.3715L52.0708 34.1324L52.3893 33.2868L42.3042 27.5787L42.0388 28.3715Z" fill="white"/>
<path d="M51.3279 33.7095L58.9184 37.9905L59.1839 37.1978L51.6464 32.8639L51.3279 33.7095Z" fill="white"/>
<path d="M41.3462 30.1685L44.637 32.0712L44.9555 31.2784L41.6647 29.3757L41.3462 30.1685Z" fill="white"/>
<path d="M40.6594 32.018L50.7445 37.726L51.063 36.9332L40.9779 31.2252L40.6594 32.018Z" fill="white"/>
<path d="M40.0181 33.8154L42.3535 35.1367L42.6188 34.3439L40.2834 33.0226L40.0181 33.8154Z" fill="white"/>
<path d="M43.0447 35.5598L45.8578 37.1453L46.1763 36.3525L43.3631 34.767L43.0447 35.5598Z" fill="white"/>
<path d="M39.3325 35.6644L44.2689 38.4126L44.5344 37.6199L39.651 34.8187L39.3325 35.6644Z" fill="white"/>
<path d="M45.1692 38.9418L49.4156 41.373L49.7341 40.5802L45.4345 38.149L45.1692 38.9418Z" fill="white"/>
<path d="M32.8545 18.805L37.7907 21.6062L38.0562 20.8134L33.1729 18.0122L32.8545 18.805Z" fill="white"/>
<path d="M48.5646 26.7332L38.9571 21.2894L38.6387 22.1351L48.246 27.526L48.5646 26.7332Z" fill="white"/>
<path d="M38.6387 24.3016L42.832 26.627L43.0973 25.8343L38.9571 23.5088L38.6387 24.3016Z" fill="white"/>
<path d="M35.2471 22.3466L38.0604 23.985L38.3257 23.1394L35.5655 21.5538L35.2471 22.3466Z" fill="white"/>
<path d="M31.5281 22.4515L42.144 28.4766L42.4624 27.631L31.8465 21.6587L31.5281 22.4515Z" fill="white"/>
<path d="M35.4038 26.8385L41.4549 30.2739L41.7734 29.4812L35.6691 26.0458L35.4038 26.8385Z" fill="white"/>
<path d="M44.2158 31.8063L50.3197 35.2417L50.6382 34.4489L44.5343 31.0135L44.2158 31.8063Z" fill="white"/>
<path d="M30.1997 26.0991L40.8156 32.0713L41.0811 31.2786L30.4652 25.2534L30.1997 26.0991Z" fill="white"/>
<path d="M29.5144 27.8953L31.85 29.2167L32.1155 28.4239L29.8329 27.1025L29.5144 27.8953Z" fill="white"/>
<path d="M32.5923 29.6397L35.3522 31.2253L35.6707 30.4325L32.8576 28.8469L32.5923 29.6397Z" fill="white"/>
<path d="M35.8284 31.4901L40.1279 33.9212L40.4464 33.1285L36.1468 30.6973L35.8284 31.4901Z" fill="white"/>
<path d="M50.6918 36.7218L50.3733 37.5146L57.1145 41.3199L57.433 40.5272L50.6918 36.7218Z" fill="white"/>
<path d="M28.8203 29.6927L33.7567 32.4938L34.022 31.7011L29.1388 28.8999L28.8203 29.6927Z" fill="white"/>
<path d="M34.6587 33.0218L39.4892 35.7173L39.7547 34.9245L34.9242 32.229L34.6587 33.0218Z" fill="white"/>
<path d="M26.9121 16.1622L29.7254 17.7477L29.9909 16.955L27.2306 15.3694L26.9121 16.1622Z" fill="white"/>
<path d="M26.2715 17.9595L29.0847 19.5979L29.4032 18.7523L26.59 17.1667L26.2715 17.9595Z" fill="white"/>
<path d="M25.637 19.8616L28.4502 21.4472L28.7687 20.6544L25.9554 19.016L25.637 19.8616Z" fill="white"/>
<path d="M25.0554 21.6061L27.8687 23.1917L28.1342 22.3989L25.3739 20.8134L25.0554 21.6061Z" fill="white"/>
<path d="M24.4146 23.5082L27.1746 25.0938L27.4932 24.301L24.68 22.7155L24.4146 23.5082Z" fill="white"/>
<path d="M23.782 25.4112L26.5952 26.9967L26.8605 26.2039L24.1004 24.5656L23.782 25.4112Z" fill="white"/>
<path d="M23.1917 27.2087L26.0052 28.7942L26.2706 28.0014L23.4572 26.4159L23.1917 27.2087Z" fill="white"/>
<path d="M22.5591 29.0578L25.3722 30.6434L25.6907 29.8506L22.8775 28.265L22.5591 29.0578Z" fill="white"/>
<path d="M21.761 31.2253L24.5744 32.8108L24.8929 32.018L22.0795 30.4325L21.761 31.2253Z" fill="white"/>
<path d="M21.127 33.0748L23.9401 34.6603L24.2585 33.8676L21.4454 32.282L21.127 33.0748Z" fill="white"/>
<path d="M20.4856 34.9248L23.2987 36.5632L23.6172 35.7176L20.8041 34.1321L20.4856 34.9248Z" fill="white"/>
<path d="M19.853 36.8272L22.6662 38.4127L22.9846 37.62L20.1715 35.9816L19.853 36.8272Z" fill="white"/>
<path d="M19.2117 38.6774L22.0251 40.3159L22.3435 39.4702L19.5303 37.8846L19.2117 38.6774Z" fill="white"/>
<path d="M18.5776 40.5803L21.3908 42.1658L21.7092 41.3202L18.8961 39.7346L18.5776 40.5803Z" fill="white"/>
<path d="M34.7698 14.7883L35.1412 14.9997L35.3535 14.524L34.9819 14.3126L34.7698 14.7883Z" fill="white"/>
<path d="M35.4038 15.1058L35.7753 15.3172L35.9345 14.8415L35.563 14.6301L35.4038 15.1058Z" fill="white"/>
<path d="M35.9326 15.3702L36.3041 15.5816L36.5165 15.1059L36.1448 14.8945L35.9326 15.3702Z" fill="white"/>
<path d="M38.5344 37.8318L43.4708 40.5802L43.7363 39.7874L38.8529 36.9862L38.5344 37.8318Z" fill="white"/>
<path d="M48.3015 43.3814L53.185 46.1297L53.5035 45.3369L48.567 42.5358L48.3015 43.3814Z" fill="white"/>
<path d="M44.3726 41.1083L48.619 43.5395L48.9375 42.7468L44.6379 40.3156L44.3726 41.1083Z" fill="white"/>
<path d="M37.8948 39.6294L40.5488 41.1621L40.8673 40.3164L38.1601 38.8365L37.8948 39.6294Z" fill="white"/>
<path d="M40.9216 41.3728L43.7348 42.9584L44.0001 42.1656L41.2401 40.5801L40.9216 41.3728Z" fill="white"/>
<path d="M37.2078 41.4255L47.293 47.1863L47.5585 46.3407L37.5262 40.6327L37.2078 41.4255Z" fill="white"/>
<path d="M46.9219 46.975L53.1323 50.4633L53.4508 49.6705L47.1874 46.1823L46.9219 46.975Z" fill="white"/>
<path d="M36.5156 43.2757L39.8596 45.1255L40.1249 44.3327L36.8341 42.4301L36.5156 43.2757Z" fill="white"/>
<path d="M41.0852 45.8125L46.6054 48.9837L46.9238 48.1909L41.3505 45.0198L41.0852 45.8125Z" fill="white"/>
<path d="M35.8811 45.072L45.9133 50.8328L46.2317 49.9872L36.1464 44.2792L35.8811 45.072Z" fill="white"/>
<path d="M44.7446 52.366L51.0079 55.8542L51.2733 55.0615L45.0631 51.5204L44.7446 52.366Z" fill="white"/>
<path d="M35.1875 46.9222L37.523 48.2435L37.7883 47.3978L35.506 46.0765L35.1875 46.9222Z" fill="white"/>
<path d="M38.2668 48.6139L41.0268 50.1995L41.3452 49.4067L38.5322 47.8212L38.2668 48.6139Z" fill="white"/>
<path d="M41.5029 50.516L45.2716 52.6301L45.5371 51.8373L41.8214 49.6704L41.5029 50.516Z" fill="white"/>
<path d="M34.5544 48.7197L39.4378 51.5208L39.7563 50.6752L34.8198 47.9269L34.5544 48.7197Z" fill="white"/>
<path d="M40.3401 51.996L44.5865 54.4272L44.905 53.6344L40.6056 51.2032L40.3401 51.996Z" fill="white"/>
<path d="M33.8608 35.1893L38.6911 37.8847L38.9564 37.092L34.1263 34.3965L33.8608 35.1893Z" fill="white"/>
<path d="M27.3896 33.7093L30.0436 35.242L30.362 34.3964L27.6551 32.9165L27.3896 33.7093Z" fill="white"/>
<path d="M33.8093 37.3559L38.0027 39.7343L38.3212 38.8886L34.128 36.5631L33.8093 37.3559Z" fill="white"/>
<path d="M30.4094 35.4538L33.2227 37.0394L33.5411 36.2466L30.7279 34.6082L30.4094 35.4538Z" fill="white"/>
<path d="M26.6956 35.5066L37.3114 41.5318L37.6299 40.739L27.014 34.7139L26.6956 35.5066Z" fill="white"/>
<path d="M30.5732 39.8925L36.6773 43.328L36.9428 42.5352L30.8386 39.0997L30.5732 39.8925Z" fill="white"/>
<path d="M25.3691 39.1531L35.9853 45.1783L36.3038 44.3855L25.6876 38.3604L25.3691 39.1531Z" fill="white"/>
<path d="M27.7561 42.694L30.5692 44.2796L30.8345 43.4868L28.0214 41.9012L27.7561 42.694Z" fill="white"/>
<path d="M30.9978 44.544L35.2973 46.9752L35.6158 46.1824L31.3164 43.7512L30.9978 44.544Z" fill="white"/>
<path d="M24.0427 42.7999L28.9261 45.601L29.2446 44.7554L24.3082 41.9542L24.0427 42.7999Z" fill="white"/>
<path d="M29.8281 46.077L34.6585 48.7724L34.924 47.9796L30.1468 45.2842L29.8281 46.077Z" fill="white"/>
<path d="M30.2538 12.8858L28.396 10.9303L28.5552 10.5074L31.05 10.9303L30.8376 11.4588L29.1392 11.0888L30.4662 12.4101L30.2538 12.8858Z" fill="white"/>
<path d="M30.304 13.309L32.1618 11.0892L32.6397 11.3535L30.7817 13.5733L30.304 13.309Z" fill="white"/>
<path d="M31.9001 13.7843L32.1125 13.3086L33.8109 13.6786L32.4839 12.3573L32.6963 11.8816L34.5541 13.8371L34.3949 14.2599L31.9001 13.7843Z" fill="white"/>
<path d="M43.3148 59.3956L41.457 57.44L41.6163 57.0172L44.1109 57.44L43.8987 57.9686L42.2002 57.5986L43.5271 58.9199L43.3148 59.3956Z" fill="white"/>
<path d="M43.3652 59.8716L45.223 57.6519L45.7007 57.9161L43.8429 60.1359L43.3652 59.8716Z" fill="white"/>
<path d="M44.9612 60.2942L45.1735 59.8185L46.8719 60.1885L45.5451 58.8672L45.7573 58.3915L47.6149 60.347L47.4557 60.7698L44.9612 60.2942Z" fill="white"/>
<defs>
<linearGradient id="paint0_linear" x1="49.405" y1="34.3434" x2="83.277" y2="63.2122" gradientUnits="userSpaceOnUse">
<stop stop-color="#FFCC38"/>
<stop offset="1" stop-color="#FF9500"/>
</linearGradient>
<linearGradient id="paint1_linear" x1="54.18" y1="39.9227" x2="11.4921" y2="31.2581" gradientUnits="userSpaceOnUse">
<stop stop-color="#5553E6"/>
<stop offset="1" stop-color="#221A80"/>
</linearGradient>
<linearGradient id="paint2_linear" x1="4.72638" y1="36.5111" x2="69.4278" y2="36.5111" gradientUnits="userSpaceOnUse">
<stop offset="8e-08" stop-color="#00A3FF"/>
<stop offset="1" stop-color="#1270E8"/>
</linearGradient>
</defs>
</svg>
