<svg width="82" height="56" viewBox="0 0 82 56" fill="none" xmlns="http://www.w3.org/2000/svg">
<path d="M71.6016 9.5981C61.2524 4.17477 44.4349 4.22408 34.1354 9.5981C28.0652 12.8028 25.5774 17.1908 26.7218 21.3322C27.4681 18.4727 29.9559 15.7117 34.1354 13.5424C44.4349 8.11903 61.2524 8.11903 71.6016 13.5424C75.8309 15.761 78.2191 19.6559 78.9655 22.5155C80.1596 18.3247 77.7714 12.8028 71.6016 9.5981Z" fill="#B7BAC7"/>
<path d="M66.6701 10.1409C54.4799 6.19664 38.3589 8.36595 30.7462 14.9725C23.1335 21.5791 26.915 30.2071 39.1053 34.1513C51.3453 38.0955 67.4165 35.9262 75.0292 29.3197C82.6419 22.7131 78.9101 14.0851 66.6701 10.1409Z" fill="url(#paint0_linear)"/>
<path d="M44.6298 28.7774C37.2659 26.5094 35.0268 21.5791 39.6043 17.7827C44.1819 13.9864 53.8844 12.7538 61.1985 15.0218C68.5624 17.2897 70.8014 22.22 66.2239 26.0164C61.6463 29.8127 51.9937 31.0453 44.6298 28.7774ZM61.1487 15.071C53.8346 12.8031 44.2317 14.0357 39.6542 17.832C35.1264 21.5791 37.3653 26.5094 44.6795 28.7281C51.9936 30.996 61.5966 29.7634 66.1741 25.967C70.7019 22.22 68.4629 17.339 61.1487 15.071Z" fill="white"/>
<path d="M52.2463 22.2195C52.1965 22.2195 52.1467 22.1702 52.1467 22.1209V22.0224C52.1467 21.9731 52.1965 21.9238 52.2463 21.9238C52.2961 21.9238 52.3459 21.9731 52.3459 22.0224V22.1209C52.3459 22.1702 52.2961 22.2195 52.2463 22.2195Z" fill="white"/>
<path d="M52.2458 34.7423C52.196 34.7423 52.1462 34.6929 52.1462 34.6436V34.4464C52.1462 34.3971 52.196 34.3478 52.2458 34.3478C52.2956 34.3478 52.3454 34.3971 52.3454 34.4464V34.6436C52.3454 34.6929 52.2956 34.7423 52.2458 34.7423ZM52.2458 33.904C52.196 33.904 52.1462 33.8548 52.1462 33.8055V33.6082C52.1462 33.5589 52.196 33.5097 52.2458 33.5097C52.2956 33.5097 52.3454 33.5589 52.3454 33.6082V33.8055C52.3454 33.8548 52.2956 33.904 52.2458 33.904ZM52.2458 33.0659C52.196 33.0659 52.1462 33.0167 52.1462 32.9674V32.7701C52.1462 32.7208 52.196 32.6715 52.2458 32.6715C52.2956 32.6715 52.3454 32.7208 52.3454 32.7701V32.9674C52.3454 33.0167 52.2956 33.0659 52.2458 33.0659ZM52.2458 32.2278C52.196 32.2278 52.1462 32.1784 52.1462 32.1291V31.932C52.1462 31.8827 52.196 31.8333 52.2458 31.8333C52.2956 31.8333 52.3454 31.8827 52.3454 31.932V32.1291C52.3454 32.1784 52.2956 32.2278 52.2458 32.2278ZM52.2458 31.3896C52.196 31.3896 52.1462 31.3403 52.1462 31.291V31.0938C52.1462 31.0445 52.196 30.9952 52.2458 30.9952C52.2956 30.9952 52.3454 31.0445 52.3454 31.0938V31.291C52.3454 31.3403 52.2956 31.3896 52.2458 31.3896ZM52.2458 30.5515C52.196 30.5515 52.1462 30.5022 52.1462 30.4528V30.2557C52.1462 30.2064 52.196 30.157 52.2458 30.157C52.2956 30.157 52.3454 30.2064 52.3454 30.2557V30.4528C52.3454 30.5022 52.2956 30.5515 52.2458 30.5515ZM52.2458 29.7133C52.196 29.7133 52.1462 29.664 52.1462 29.6147V29.4175C52.1462 29.3682 52.196 29.3189 52.2458 29.3189C52.2956 29.3189 52.3454 29.3682 52.3454 29.4175V29.6147C52.3454 29.664 52.2956 29.7133 52.2458 29.7133ZM52.2458 28.8752C52.196 28.8752 52.1462 28.8259 52.1462 28.7766V28.5794C52.1462 28.5301 52.196 28.4808 52.2458 28.4808C52.2956 28.4808 52.3454 28.5301 52.3454 28.5794V28.7766C52.3454 28.8259 52.2956 28.8752 52.2458 28.8752ZM52.2458 28.037C52.196 28.037 52.1462 27.9877 52.1462 27.9384V27.7412C52.1462 27.6919 52.196 27.6426 52.2458 27.6426C52.2956 27.6426 52.3454 27.6919 52.3454 27.7412V27.9384C52.3454 27.9877 52.2956 28.037 52.2458 28.037ZM52.2458 27.1988C52.196 27.1988 52.1462 27.1496 52.1462 27.1003V26.903C52.1462 26.8537 52.196 26.8045 52.2458 26.8045C52.2956 26.8045 52.3454 26.8537 52.3454 26.903V27.1003C52.3454 27.1496 52.2956 27.1988 52.2458 27.1988ZM52.2458 26.3607C52.196 26.3607 52.1462 26.3114 52.1462 26.2621V26.0649C52.1462 26.0156 52.196 25.9663 52.2458 25.9663C52.2956 25.9663 52.3454 26.0156 52.3454 26.0649V26.2621C52.3454 26.3114 52.2956 26.3607 52.2458 26.3607ZM52.2458 25.5225C52.196 25.5225 52.1462 25.4733 52.1462 25.424V25.2267C52.1462 25.1774 52.196 25.1281 52.2458 25.1281C52.2956 25.1281 52.3454 25.1774 52.3454 25.2267V25.424C52.3454 25.5226 52.2956 25.5225 52.2458 25.5225ZM52.2458 24.6844C52.196 24.6844 52.1462 24.6351 52.1462 24.5858V24.3886C52.1462 24.3393 52.196 24.29 52.2458 24.29C52.2956 24.29 52.3454 24.3393 52.3454 24.3886V24.5858C52.3454 24.6351 52.2956 24.6844 52.2458 24.6844ZM52.2458 23.8463C52.196 23.8463 52.1462 23.7969 52.1462 23.7476V23.5505C52.1462 23.5012 52.196 23.4518 52.2458 23.4518C52.2956 23.4518 52.3454 23.5012 52.3454 23.5505V23.7476C52.3454 23.8462 52.2956 23.8463 52.2458 23.8463ZM52.2458 23.0574C52.196 23.0574 52.1462 23.0081 52.1462 22.9588V22.7616C52.1462 22.7123 52.196 22.663 52.2458 22.663C52.2956 22.663 52.3454 22.7123 52.3454 22.7616V22.9588C52.3454 23.0081 52.2956 23.0574 52.2458 23.0574Z" fill="white"/>
<path d="M52.2458 35.4821C52.196 35.4821 52.1462 35.4328 52.1462 35.3835V35.2849C52.1462 35.2356 52.196 35.1863 52.2458 35.1863C52.2956 35.1863 52.3454 35.2356 52.3454 35.2849V35.3835C52.3454 35.4328 52.2956 35.4821 52.2458 35.4821Z" fill="white"/>
<path d="M48.461 25.6215C44.5302 24.389 43.2863 21.7266 45.7741 19.7052C48.2122 17.6838 53.4366 16.9935 57.4171 18.2261C61.3479 19.4587 62.5918 22.0717 60.104 24.1424C57.6162 26.1638 52.3917 26.8541 48.461 25.6215ZM57.3674 18.2261C53.4366 16.9935 48.2619 17.6838 45.8239 19.7052C43.3858 21.7266 44.58 24.389 48.5108 25.5723C52.4415 26.8048 57.6162 26.1146 60.0542 24.0932C62.4923 22.0717 61.2484 19.4587 57.3674 18.2261Z" fill="white"/>
<path d="M36.3695 31.3898C36.3197 31.3898 36.3197 31.3898 36.2699 31.3405C36.2202 31.3405 36.2202 31.2912 36.2202 31.2419V31.1926L36.2699 31.1433L69.8553 11.3728C69.8553 11.3728 69.9051 11.3728 69.9548 11.3728C70.0046 11.3728 70.0046 11.3728 70.0544 11.3728C70.1041 11.3728 70.1041 11.4221 70.1041 11.4714V11.5207L70.0544 11.57L36.469 31.3405C36.4193 31.3405 36.3695 31.3898 36.3695 31.3898Z" fill="white"/>
<path d="M73.5361 33.3621C73.5361 33.3128 73.5361 33.3129 73.4864 33.2636L34.8259 12.2605C34.7264 12.2605 34.6269 12.3591 34.5771 12.4084L73.337 33.4608C73.3868 33.4608 73.3868 33.4608 73.4366 33.4608C73.4863 33.4608 73.4863 33.4608 73.5361 33.4608V33.3621Z" fill="white"/>
<path d="M52.1941 21.7756L78.7638 21.184C78.9131 21.184 79.0125 21.2333 79.0125 21.3319C79.0125 21.3812 79.0126 21.4304 78.9628 21.4304C78.913 21.4797 78.8633 21.5291 78.7638 21.5291L52.1941 21.9728V21.7756Z" fill="white"/>
<path d="M23.9351 20.938V25.0301C23.9351 27.3474 24.7311 30.059 25.4775 31.2916C26.373 32.7214 27.4677 33.954 30.1545 35.9754L30.7515 31.6367C30.8012 31.6367 24.6316 24.4878 23.9351 20.938Z" fill="#B7BAC7"/>
<path d="M73.5416 31.1432C69.7602 33.4111 65.4812 34.7423 61.2022 35.5311C56.8237 36.32 52.2958 36.3693 47.8675 35.9256C45.33 35.6791 42.8422 35.1861 40.4042 34.4958C39.1603 34.1507 37.9163 33.7069 34.4832 32.3757L34.3339 34.2493L25.5769 39.0317V42.9759L34.4832 38.0949C40.4041 40.9545 49.0617 41.7434 53.5895 41.7434C55.8285 41.7434 58.0675 41.5462 60.3065 41.201C62.4958 40.8559 64.6353 40.3629 66.7748 39.6726C69.1134 38.9331 71.4519 37.947 73.5416 36.6652C79.1641 33.3126 81.9504 28.8752 82.0001 24.4379V21.3319C81.9504 21.3812 79.1641 27.7413 73.5416 31.1432Z" fill="#B7BAC7"/>
<path d="M18.3091 38.44L22.3891 40.8065L34.4798 34.2C49.5559 39.9191 63.5871 38.3907 73.588 32.6715C79.0612 29.5161 81.8973 25.3747 81.9968 21.2333C82.0466 19.2612 81.4992 17.289 80.3548 15.4155C80.0563 14.9225 79.7081 14.3801 79.31 13.8871C79.111 13.6406 78.9119 13.3941 78.6632 13.1476C78.4641 12.9011 78.2154 12.6545 77.9666 12.408C77.469 11.915 76.9217 11.4712 76.3743 11.0275C76.0758 10.8303 75.7773 10.5838 75.4788 10.3373C75.3295 10.2387 75.1802 10.1401 74.9812 9.9922C74.6329 9.79499 74.3344 9.54845 73.9861 9.35124C73.7871 9.25263 73.6378 9.15404 73.4388 9.05543C62.0944 2.54744 43.6349 2.54744 32.39 9.05543C32.2408 9.15404 32.0418 9.25263 31.8925 9.35124C31.594 9.54845 31.2954 9.74566 30.9969 9.89357C30.151 10.4359 29.4047 11.0276 28.7081 11.6192C28.4594 11.8164 28.2105 12.0629 27.9618 12.3094C27.7627 12.5067 27.5139 12.7531 27.3149 12.9503C27.2154 13.0489 26.071 14.5281 26.071 14.5281C25.9715 14.676 25.872 14.8239 25.7725 14.9718C25.7227 15.0704 25.3744 15.6621 25.2252 15.8593C25.1754 16.0072 25.0759 16.1551 25.0262 16.2537C24.9764 16.3523 24.9267 16.5002 24.8769 16.5988C24.7774 16.796 24.7276 16.9439 24.6778 17.1411C24.6281 17.2397 24.6281 17.3383 24.5784 17.4369C24.5286 17.6341 24.3296 18.2258 24.3296 18.3244C24.2798 18.5709 24.2301 18.8174 24.1803 19.1132C24.1306 19.2611 24.1305 19.3597 24.1305 19.5076C24.0808 19.9021 24.0808 20.2472 24.0808 20.5923C24.0808 20.6416 24.0808 20.6416 24.0808 20.6909V20.8881C24.1306 24.0928 25.2252 28.7273 30.4993 31.7348L18.3091 38.44ZM30.7979 28.0864C28.2106 25.917 26.8173 23.4519 26.7676 20.9375C26.7676 20.9375 26.7676 20.7402 26.7676 20.6909C26.7676 20.4444 26.7676 20.1979 26.8174 19.9514C26.8174 19.9021 26.8174 19.8527 26.8174 19.8034C26.8174 19.7541 26.8174 19.6555 26.8671 19.6555C26.9169 19.4583 26.9169 19.2611 26.9667 19.1132C26.9667 19.0146 27.1159 18.6202 27.1656 18.4723C27.1656 18.423 27.2155 18.3244 27.2155 18.2751C27.2652 18.1272 27.315 17.9793 27.3647 17.8314C27.4145 17.7327 27.4642 17.6341 27.514 17.5848C27.5637 17.4862 27.6135 17.3876 27.6632 17.289C27.7627 17.1411 28.0115 16.6974 28.111 16.5495C28.1608 16.4509 28.2106 16.3523 28.3101 16.2537C28.5091 16.0072 29.2555 15.1197 29.4047 14.8731C29.554 14.6759 29.753 14.5281 29.9022 14.3802C30.1013 14.1829 30.3003 13.9858 30.4993 13.7885C31.0964 13.2462 31.793 12.7531 32.4896 12.2601C32.7384 12.0629 32.9872 11.915 33.2857 11.7671C33.3852 11.6685 33.4847 11.6192 33.5842 11.6192L33.833 11.4713C38.8086 8.61173 45.6251 6.98472 52.8895 6.98472C60.1539 6.98472 66.9705 8.56243 72.0456 11.4713C72.1949 11.5699 72.3939 11.6685 72.5432 11.7671C72.8417 11.9643 73.1402 12.1615 73.4388 12.3587C73.5383 12.408 73.8368 12.6545 73.8368 12.6545C74.0856 12.8517 74.3841 13.049 74.6329 13.2462C75.1305 13.6406 75.5783 14.035 75.9764 14.4294C76.1754 14.6266 76.3744 14.8239 76.5734 15.0211C76.7724 15.2183 76.9217 15.4155 77.1207 15.662C77.4193 16.0564 77.7178 16.4509 77.9168 16.796C78.8125 18.2258 79.2105 19.7049 79.1607 21.1346C79.0612 24.4379 76.5734 27.692 72.1451 30.2557C67.1198 33.1646 60.3529 34.7423 53.0886 34.7423C47.5656 34.7423 42.391 33.6576 37.8134 32.0799C35.2759 31.1925 31.395 28.5794 30.7979 28.0864Z" fill="#EBEAF1"/>
<path d="M25.6255 36.2218C24.5806 35.0878 22.6402 33.5102 20.9982 34.3976C20.9485 34.3976 1.19531 45.7866 1.19531 45.7866C1.39434 45.688 1.59341 45.5894 1.79244 45.5401C2.63829 45.3429 3.58365 45.688 4.28023 46.1811C5.02657 46.6741 5.72313 47.315 6.27044 48.0053C7.36508 49.435 8.21092 51.3086 8.21092 53.1328C8.21092 54.4147 7.76317 55.3515 7.01683 55.7459L26.7202 44.4062C27.4665 43.9624 27.9143 43.075 27.9143 41.7931C27.9143 41.4973 27.8645 41.2014 27.8148 40.8563C27.6158 39.18 26.8197 37.5037 25.6255 36.2218Z" fill="url(#paint1_linear)"/>
<path d="M4.12973 46.0824C1.84097 44.8005 0 45.8359 0 48.3997C0 51.0128 1.84097 54.1682 4.12973 55.4501C6.41849 56.732 8.25946 55.6966 8.25946 53.1329C8.25946 50.5691 6.41849 47.4136 4.12973 46.0824Z" fill="#002F6D"/>
<path d="M43.8364 9.10502L59.8081 34.2496C59.8081 22.8606 56.6735 6.3934 51.8471 1.06868C47.4189 -3.71371 43.8364 9.10502 43.8364 9.10502Z" fill="#EBEAF1"/>
<path d="M55.9754 2.20279C49.557 5.45679 41.4468 16.55 41.4468 33.1651L60.752 9.20381C60.8017 9.25311 60.8018 -0.213058 55.9754 2.20279Z" fill="url(#paint2_linear)"/>
<path d="M52.0937 3.82996C33.2859 3.82996 27.0166 20.6917 27.0166 20.6917L78.8624 21.3327C67.9658 15.9093 71.2995 3.82996 52.0937 3.82996Z" fill="url(#paint3_linear)"/>
<path d="M68.6143 1.85718H68.4153V21.3319H68.6143V1.85718Z" fill="#CDD6FF"/>
<path d="M69.0629 1.85771C69.0629 1.5126 68.8141 1.26611 68.5156 1.26611C68.2171 1.26611 67.9683 1.5126 67.9683 1.85771C67.9683 2.20282 68.2171 2.44938 68.5156 2.44938C68.8141 2.49868 69.0629 2.20282 69.0629 1.85771Z" fill="#CDD6FF"/>
<path d="M79.0124 1.85718H78.8135V21.3319H79.0124V1.85718Z" fill="#CDD6FF"/>
<path d="M79.4118 1.85771C79.4118 1.5126 79.163 1.26611 78.8645 1.26611C78.5659 1.26611 78.3171 1.5126 78.3171 1.85771C78.3171 2.20282 78.5659 2.44938 78.8645 2.44938C79.163 2.49868 79.4118 2.20282 79.4118 1.85771Z" fill="#CDD6FF"/>
<path d="M47.8665 1.85718H47.6675V21.3319H47.8665V1.85718Z" fill="#CDD6FF"/>
<path d="M48.3144 1.85771C48.3144 1.5126 48.0656 1.26611 47.7671 1.26611C47.4685 1.26611 47.2197 1.5126 47.2197 1.85771C47.2197 2.20282 47.4685 2.44938 47.7671 2.44938C48.0656 2.49868 48.3144 2.20282 48.3144 1.85771Z" fill="#CDD6FF"/>
<path d="M27.1182 1.85718H26.9192V21.3319H27.1182V1.85718Z" fill="#CDD6FF"/>
<path d="M27.5663 1.85771C27.5663 1.5126 27.3175 1.26611 27.019 1.26611C26.7205 1.26611 26.4717 1.5126 26.4717 1.85771C26.4717 2.20282 26.7205 2.44938 27.019 2.44938C27.3175 2.49868 27.5663 2.20282 27.5663 1.85771Z" fill="#CDD6FF"/>
<path d="M37.5168 1.85718H37.3179V20.8882H37.5168V1.85718Z" fill="#CDD6FF"/>
<path d="M37.9652 1.85771C37.9652 1.5126 37.7165 1.26611 37.4179 1.26611C37.1194 1.26611 36.8706 1.5126 36.8706 1.85771C36.8706 2.20282 37.1194 2.44938 37.4179 2.44938C37.7165 2.49868 37.9652 2.20282 37.9652 1.85771Z" fill="#CDD6FF"/>
<path d="M58.2649 1.85718H58.0659V21.3319H58.2649V1.85718Z" fill="#CDD6FF"/>
<path d="M58.664 1.85771C58.664 1.5126 58.4152 1.26611 58.1167 1.26611C57.8181 1.26611 57.5693 1.5126 57.5693 1.85771C57.5693 2.20282 57.8181 2.44938 58.1167 2.44938C58.465 2.49868 58.664 2.20282 58.664 1.85771Z" fill="#CDD6FF"/>
<path d="M53.6868 3.68201C47.8155 8.11928 41.4468 18.5222 41.4468 33.1652L51.3482 20.9873L53.6868 3.68201Z" fill="url(#paint4_linear)"/>
<path d="M51.3486 20.9874L59.7574 34.2499C59.7574 24.3893 57.4189 10.7323 53.6374 3.78052L51.3486 20.9874Z" fill="#EBEAF1"/>
<defs>
<linearGradient id="paint0_linear" x1="26.8344" y1="22.1628" x2="78.9907" y2="22.1628" gradientUnits="userSpaceOnUse">
<stop offset="8e-08" stop-color="#00A3FF"/>
<stop offset="1" stop-color="#1270E8"/>
</linearGradient>
<linearGradient id="paint1_linear" x1="1.18586" y1="44.9682" x2="27.9586" y2="44.9682" gradientUnits="userSpaceOnUse">
<stop offset="8e-08" stop-color="#00A3FF"/>
<stop offset="1" stop-color="#1270E8"/>
</linearGradient>
<linearGradient id="paint2_linear" x1="41.4731" y1="17.4931" x2="60.7948" y2="17.4931" gradientUnits="userSpaceOnUse">
<stop offset="8e-08" stop-color="#FF3D49"/>
<stop offset="1" stop-color="#D80C1E"/>
</linearGradient>
<linearGradient id="paint3_linear" x1="27.031" y1="12.5636" x2="78.8788" y2="12.5636" gradientUnits="userSpaceOnUse">
<stop stop-color="#FFCC38"/>
<stop offset="1" stop-color="#FF9500"/>
</linearGradient>
<linearGradient id="paint4_linear" x1="41.4731" y1="18.4206" x2="53.7102" y2="18.4206" gradientUnits="userSpaceOnUse">
<stop offset="8e-08" stop-color="#FF3D49"/>
<stop offset="1" stop-color="#D80C1E"/>
</linearGradient>
</defs>
</svg>
