<svg width="80" height="80" viewBox="0 0 80 80" fill="none" xmlns="http://www.w3.org/2000/svg">
<path d="M51.1494 79.9999C51.4755 79.9999 51.8015 79.9062 52.0345 79.7656L62.0033 74.2819C62.4225 74.0476 62.702 73.6257 62.702 73.2039C62.702 72.7821 62.469 72.3603 62.0498 72.1259L41.5999 60.3149C41.3204 60.1743 41.0409 60.0806 40.7148 60.0806C40.3888 60.0806 40.0626 60.1743 39.7831 60.3149L29.8144 65.7986C29.3952 66.0329 29.1157 66.4548 29.1157 66.8766C29.1157 67.2984 29.3486 67.7202 29.7678 67.9546L50.2178 79.7656C50.4973 79.953 50.8233 79.9999 51.1494 79.9999Z" fill="white"/>
<path d="M29.8143 65.7986C29.3951 66.0329 29.1621 66.4548 29.1621 66.8766C29.1621 67.2984 29.3951 67.7202 29.8143 67.9546L50.2642 79.7656C50.4972 79.9062 50.8233 79.9999 51.1493 79.9999C51.4754 79.9999 51.8015 79.9062 52.0344 79.7656L62.0033 74.2819C62.4225 74.0476 62.6554 73.6257 62.6554 73.2039C62.6554 72.7821 62.4225 72.3603 62.0033 72.1259L41.5999 60.3149C41.3669 60.1743 41.0409 60.0806 40.7148 60.0806C40.3887 60.0806 40.0625 60.1743 39.7831 60.3149L29.8143 65.7986Z" fill="#FEFEFE"/>
<path d="M29.8584 65.8448C29.4391 66.0792 29.2063 66.4541 29.2063 66.9228C29.2063 67.3446 29.4392 67.7196 29.8119 67.954L50.2618 79.7649C50.5413 79.9056 50.8208 79.9993 51.1469 79.9993C51.473 79.9993 51.7991 79.9056 52.032 79.7649L61.9542 74.2813C62.3735 74.0469 62.6063 73.672 62.6063 73.2033C62.6063 72.7815 62.3735 72.4065 62.0008 72.1722L41.5974 60.3612C41.3645 60.2206 41.0384 60.1268 40.7123 60.1268C40.3862 60.1268 40.0602 60.2206 39.8272 60.3612L29.8584 65.8448Z" fill="#FCFDFD"/>
<path d="M29.8584 65.8448C29.4391 66.0792 29.2063 66.4541 29.2063 66.876C29.2063 67.2978 29.4392 67.6727 29.8119 67.9071L50.2618 79.7181C50.4947 79.8587 50.8208 79.9524 51.1469 79.9524C51.473 79.9524 51.7991 79.8587 52.032 79.7181L61.9542 74.2344C62.3735 74.0001 62.6063 73.6251 62.6063 73.2033C62.6063 72.7815 62.3735 72.4065 62.0008 72.1722L41.5974 60.3612C41.3645 60.2206 41.0384 60.1268 40.7123 60.1268C40.3862 60.1268 40.0601 60.2206 39.7806 60.3612L29.8584 65.8448Z" fill="#FBFBFC"/>
<path d="M29.8584 65.8448C29.4391 66.0792 29.2063 66.4541 29.2063 66.876C29.2063 67.2978 29.4392 67.6727 29.8119 67.9071L50.2618 79.7181C50.5413 79.8587 50.8208 79.9524 51.1469 79.9524C51.473 79.9524 51.7991 79.8587 52.032 79.7181L61.9542 74.2344C62.3735 74.0001 62.6063 73.6251 62.6063 73.2033C62.6063 72.7815 62.3735 72.4065 62.0008 72.1722L41.5974 60.3612C41.3645 60.2206 41.0384 60.1268 40.7123 60.1268C40.3862 60.1268 40.0602 60.1737 39.8272 60.3612L29.8584 65.8448Z" fill="#FAFAFA"/>
<path d="M29.8591 65.845C29.4865 66.0793 29.207 66.4543 29.207 66.8761C29.207 67.2979 29.44 67.6729 29.8126 67.8604L50.2625 79.6714C50.4954 79.812 50.8215 79.9057 51.1476 79.9057C51.4271 79.9057 51.7998 79.812 52.0327 79.6714L61.9549 74.2346C62.3742 74.0002 62.607 73.6252 62.607 73.2034C62.607 72.7816 62.3742 72.4067 62.0016 72.2192L41.5981 60.4082C41.3652 60.2676 41.0391 60.1738 40.7131 60.1738C40.387 60.1738 40.0609 60.2207 39.828 60.3613L29.8591 65.845Z" fill="#F9F9F9"/>
<path d="M29.8591 65.8919C29.4865 66.1262 29.2536 66.5011 29.207 66.8761C29.207 67.2979 29.44 67.626 29.8126 67.8603L50.2626 79.6713C50.4955 79.8119 50.8216 79.9057 51.1477 79.8588C51.4272 79.8588 51.7998 79.7651 52.0327 79.6245L61.9083 74.1877C62.281 73.9533 62.514 73.5784 62.5606 73.2034C62.5606 72.7816 62.3276 72.4535 61.955 72.2192L41.5982 60.4082C41.3652 60.2676 40.9926 60.1738 40.7131 60.1738C40.387 60.1738 40.0609 60.2207 39.828 60.3613L29.8591 65.8919Z" fill="#F7F8F8"/>
<path d="M29.9054 65.8926C29.5327 66.1269 29.2998 66.455 29.2998 66.8768C29.2998 67.2518 29.5327 67.6267 29.9054 67.8611L50.3554 79.6721C50.5883 79.8127 50.9144 79.9064 51.2404 79.8596C51.5199 79.8596 51.8925 79.7658 52.1254 79.6252L62.0011 74.1884C62.3737 73.9541 62.6065 73.626 62.6065 73.2041C62.6065 72.8292 62.3737 72.4542 62.0011 72.2199L41.6442 60.4558C41.4113 60.3152 41.0388 60.2214 40.7593 60.2214C40.4332 60.2214 40.1071 60.2683 39.8742 60.4089L29.9054 65.8926Z" fill="#F6F6F7"/>
<path d="M29.9054 65.8926C29.5327 66.1269 29.2998 66.455 29.2998 66.8768C29.2998 67.2518 29.5327 67.6267 29.8588 67.8611L50.3088 79.6721C50.5417 79.8127 50.9143 79.9064 51.1938 79.8596C51.4733 79.8596 51.846 79.7658 52.0789 79.6252L61.9545 74.1884C62.3272 73.9541 62.5601 73.626 62.5601 73.2041C62.5601 72.8292 62.3272 72.4542 62.0011 72.2199L41.6443 60.4558C41.4113 60.3152 41.0388 60.2214 40.7593 60.2214C40.4332 60.2214 40.1071 60.2683 39.8742 60.4089L29.9054 65.8926Z" fill="#F5F5F6"/>
<path d="M29.9054 65.9392C29.5327 66.1267 29.2998 66.5016 29.2998 66.8766C29.2998 67.2516 29.4861 67.6265 29.8588 67.814L50.3088 79.625C50.5417 79.7656 50.9143 79.8593 51.1938 79.8124C51.4733 79.8124 51.846 79.6718 52.0789 79.5781L61.9545 74.1413C62.3272 73.9538 62.5601 73.5789 62.5601 73.2039C62.5601 72.829 62.3738 72.454 62.0011 72.2665L41.6443 60.5024C41.4113 60.3618 41.0388 60.2681 40.7593 60.2681C40.4332 60.2681 40.1071 60.3149 39.8742 60.4555L29.9054 65.9392Z" fill="#F4F4F5"/>
<path d="M29.9054 65.9394C29.5327 66.1269 29.2998 66.5019 29.2998 66.8768C29.2998 67.2518 29.4861 67.6267 29.8588 67.8142L50.3087 79.6252C50.5416 79.7658 50.9143 79.8596 51.1938 79.8127C51.4733 79.8127 51.846 79.6721 52.0789 79.5783L61.9078 74.1415C62.2805 73.9541 62.5134 73.5791 62.5134 73.2041C62.5134 72.8292 62.3271 72.4543 61.9544 72.2668L41.6442 60.5026C41.4113 60.362 41.0388 60.2214 40.7593 60.2214C40.4332 60.2214 40.1071 60.2683 39.8742 60.4089L29.9054 65.9394Z" fill="#F2F3F4"/>
<path d="M29.9054 65.9392C29.5327 66.1267 29.2998 66.5016 29.2998 66.8766C29.2998 67.2515 29.4861 67.5796 29.8588 67.814L50.3087 79.625C50.5416 79.7656 50.9143 79.8593 51.1938 79.8125C51.4733 79.8125 51.846 79.6719 52.0789 79.5781L61.9078 74.1413C62.2805 73.9538 62.5134 73.5789 62.5134 73.2039C62.5134 72.829 62.3271 72.5009 61.9544 72.2665L41.6442 60.5024C41.4113 60.3618 41.0387 60.2212 40.8058 60.2212C40.4797 60.1743 40.1536 60.268 39.9207 60.4086L29.9054 65.9392Z" fill="#F1F1F3"/>
<path d="M29.9096 65.986C29.5369 66.1734 29.3506 66.5484 29.3506 66.8765C29.3506 67.2514 29.5369 67.5795 29.9096 67.767L50.3595 79.578C50.5924 79.7186 50.9651 79.8123 51.2446 79.7655C51.5241 79.7655 51.8967 79.6249 52.083 79.5311L61.9119 74.0943C62.2846 73.9068 62.4709 73.5319 62.4709 73.2038C62.4709 72.8288 62.2846 72.5008 61.9119 72.3133L41.6019 60.5492C41.4156 60.4085 40.9963 60.2679 40.7634 60.2679C40.4374 60.2211 40.1113 60.3148 39.8783 60.4554L29.9096 65.986Z" fill="#F0F0F1"/>
<path d="M29.9557 65.9861C29.583 66.1736 29.3967 66.5017 29.3967 66.8766C29.3967 67.2516 29.583 67.5796 29.9557 67.7671L50.4057 79.5781C50.6386 79.7187 51.0113 79.7656 51.2908 79.7656C51.5703 79.7656 51.943 79.625 52.1293 79.5313L61.9585 74.1413C62.3311 73.9538 62.5174 73.6258 62.5174 73.2508C62.5174 72.8758 62.3312 72.5478 62.0051 72.3603L41.6947 60.5961C41.5083 60.4555 41.0891 60.3149 40.8562 60.3149C40.5301 60.2681 40.204 60.3618 39.9711 60.5024L29.9557 65.9861Z" fill="#EEEFF0"/>
<path d="M29.9557 65.9861C29.583 66.1736 29.3967 66.5017 29.3967 66.8766C29.3967 67.2516 29.583 67.5796 29.9091 67.7671L50.3592 79.5781C50.5921 79.7187 50.9648 79.7656 51.2443 79.7656C51.4772 79.7656 51.8964 79.625 52.0828 79.4844L61.8653 74.0944C62.238 73.907 62.4243 73.5789 62.4243 73.2039C62.4243 72.829 62.2379 72.5009 61.9118 72.3134L41.648 60.5961C41.4617 60.5024 41.0425 60.3149 40.8096 60.3149C40.4835 60.2681 40.1574 60.3618 39.9245 60.5024L29.9557 65.9861Z" fill="#EDEEEF"/>
<path d="M29.9557 66.0331C29.6296 66.2206 29.3967 66.5486 29.3967 66.9236C29.3967 67.2517 29.583 67.5798 29.9091 67.7672L50.3592 79.5782C50.5921 79.7188 50.9648 79.7657 51.2443 79.7657C51.4772 79.7657 51.8964 79.6251 52.0828 79.4845L61.8653 74.0946C62.1914 73.9071 62.4243 73.579 62.4243 73.204C62.4243 72.876 62.2379 72.5479 61.9118 72.3604L41.648 60.6431C41.4617 60.5494 41.0425 60.3619 40.8096 60.3619C40.4835 60.3151 40.1574 60.4088 39.9245 60.5494L29.9557 66.0331Z" fill="#ECECEE"/>
<path d="M29.9557 66.0329C29.6296 66.2204 29.3967 66.5485 29.3967 66.8766C29.3967 67.2046 29.583 67.5327 29.9091 67.7202L50.3592 79.5312C50.5921 79.6718 50.9648 79.7187 51.2443 79.7187C51.4772 79.7187 51.8964 79.5781 52.0828 79.4375L61.8653 74.0475C62.1914 73.86 62.4243 73.532 62.4243 73.2039C62.4243 72.8758 62.2379 72.5477 61.9118 72.3602L41.648 60.643C41.4617 60.5492 41.0425 60.3618 40.8096 60.3618C40.4835 60.3149 40.1574 60.3618 39.9245 60.5492L29.9557 66.0329Z" fill="#EBEBED"/>
<path d="M29.9557 66.0329C29.6296 66.2204 29.4433 66.5485 29.3967 66.8766C29.3967 67.2046 29.583 67.5327 29.9091 67.7202L50.3592 79.5312C50.5921 79.6718 50.9648 79.7187 51.2443 79.7187C51.4772 79.7187 51.8964 79.5781 52.0828 79.4375L61.8653 74.0475C62.1914 73.86 62.3777 73.532 62.4243 73.2039C62.4243 72.8758 62.2379 72.5477 61.9118 72.3602L41.648 60.643C41.4617 60.5492 41.0425 60.3618 40.8096 60.3618C40.5301 60.3149 40.1574 60.3618 39.9245 60.5492L29.9557 66.0329Z" fill="#E9EAEC"/>
<path d="M29.9554 66.0326C29.6293 66.2201 29.4429 66.5482 29.4429 66.8762C29.4429 67.2043 29.6293 67.5324 29.9554 67.7199L50.4052 79.5309C50.6381 79.6715 51.0108 79.7184 51.2903 79.6715C51.5232 79.6715 51.9424 79.484 52.1287 79.3903L61.8647 74.0003C62.1908 73.8129 62.377 73.4848 62.377 73.1567C62.377 72.8286 62.1908 72.5005 61.8647 72.3131L41.6476 60.5958C41.4612 60.5021 41.042 60.3146 40.8091 60.3146C40.483 60.2677 40.1569 60.3146 39.924 60.4552L29.9554 66.0326Z" fill="#E8E9EB"/>
<path d="M30.0006 66.0797C29.6745 66.2672 29.4883 66.5484 29.4883 66.8765C29.4883 67.2046 29.6745 67.4858 30.0006 67.6733L50.4506 79.4842C50.6835 79.6248 51.0562 79.6717 51.3357 79.6248C51.5686 79.6248 51.9878 79.4374 52.1741 79.3436L61.91 73.9537C62.236 73.7662 62.4224 73.485 62.4224 73.1569C62.4224 72.8288 62.2361 72.5476 61.9566 72.3602L41.7396 60.6429C41.5533 60.5492 41.1341 60.3617 40.9012 60.3617C40.6217 60.3148 40.249 60.3617 40.0161 60.5023L30.0006 66.0797Z" fill="#E7E7E9"/>
<path d="M30.0006 66.0796C29.6745 66.2671 29.4883 66.5483 29.4883 66.8764C29.4883 67.2045 29.6746 67.4857 29.9541 67.6732L50.4041 79.4841C50.637 79.6247 51.0097 79.6716 51.2892 79.6248C51.5221 79.6248 51.9413 79.4373 52.1276 79.3435L61.8637 74.0005C62.1897 73.813 62.376 73.5318 62.376 73.2037C62.376 72.8756 62.1896 72.5944 61.9101 72.4069L41.6931 60.6897C41.5067 60.5959 41.0875 60.4084 40.8546 60.4084C40.5751 60.3616 40.2024 60.4085 39.9695 60.5491L30.0006 66.0796Z" fill="#E6E6E8"/>
<path d="M30.0006 66.0797C29.6745 66.2672 29.4883 66.5484 29.4883 66.8765C29.4883 67.2046 29.6746 67.4858 29.9541 67.6733L50.4041 79.4842C50.637 79.6248 51.0097 79.6717 51.2892 79.6249C51.5221 79.6249 51.9413 79.4374 52.1276 79.3436L61.8637 74.0006C62.1897 73.8131 62.376 73.5319 62.376 73.2038C62.376 72.8757 62.1896 72.5945 61.9101 72.407L41.6931 60.7366C41.5067 60.6429 41.0875 60.4554 40.8546 60.4554C40.5751 60.4086 40.2024 60.4554 39.9695 60.596L30.0006 66.0797Z" fill="#E4E5E7"/>
<path d="M30.0006 66.1266C29.6745 66.3141 29.4883 66.5953 29.4883 66.8765C29.4883 67.2046 29.6746 67.4858 29.9541 67.6264L50.404 79.4374C50.637 79.578 51.0096 79.6248 51.2891 79.578C51.4755 79.578 51.9413 79.3905 52.1276 79.2968L61.817 73.9537C62.143 73.7662 62.3293 73.485 62.3293 73.1569C62.3293 72.8288 62.1431 72.5476 61.8636 72.407L41.6464 60.7366C41.5067 60.6429 41.0409 60.4554 40.8546 60.4554C40.5751 60.4086 40.2024 60.4554 39.9695 60.596L30.0006 66.1266Z" fill="#E3E4E6"/>
<path d="M30.0004 66.1264C29.6743 66.3138 29.5347 66.595 29.5347 66.8763C29.5347 67.1575 29.7209 67.4387 30.0004 67.6262L50.4504 79.4371C50.6833 79.5777 51.056 79.6246 51.3355 79.5777C51.5219 79.5777 51.9877 79.3903 52.174 79.2965L61.8633 73.9535C62.1894 73.766 62.3291 73.4848 62.3757 73.2036C62.3757 72.9223 62.1893 72.6411 61.9098 72.4537L41.7394 60.7833C41.5997 60.6896 41.1338 60.5021 40.9474 60.5021C40.6679 60.4552 40.2953 60.5021 40.0624 60.6427L30.0004 66.1264Z" fill="#E2E3E5"/>
<path d="M30.0004 66.1264C29.6743 66.3138 29.5347 66.595 29.5347 66.8763C29.5347 67.1575 29.6743 67.4387 30.0004 67.6262L50.4504 79.4371C50.6833 79.5777 51.056 79.6246 51.3355 79.5777C51.5218 79.5777 51.9876 79.3903 52.1273 79.2965L61.8167 73.9535C62.0962 73.766 62.2826 73.4848 62.2826 73.2036C62.2826 72.9223 62.1428 72.6411 61.8167 72.4537L41.6462 60.7833C41.5064 60.6896 41.0407 60.5021 40.8543 60.5021C40.5748 60.4552 40.2021 60.5021 39.9692 60.6427L30.0004 66.1264Z" fill="#E0E1E4"/>
<path d="M30.0467 66.1264C29.7672 66.3138 29.5808 66.5482 29.5808 66.8763C29.5808 67.1575 29.7205 67.4387 30 67.5793L50.4501 79.3903C50.683 79.5309 51.0557 79.5778 51.3352 79.5309C51.5215 79.5309 51.9873 79.3434 52.127 79.2497L61.8164 73.9066C62.0959 73.7191 62.2822 73.4848 62.2822 73.1567C62.2822 72.8755 62.1425 72.5943 61.863 72.4537L41.6924 60.7833C41.5527 60.6896 41.0869 60.5021 40.9006 60.5021C40.6211 60.4552 40.2484 60.5021 40.0155 60.6427L30.0467 66.1264Z" fill="#DFE0E3"/>
<path d="M30.0467 66.1733C29.7672 66.3608 29.5808 66.5952 29.5808 66.8764C29.5808 67.1576 29.7205 67.4388 30 67.5794L50.4501 79.3904C50.683 79.531 51.0556 79.5779 51.3351 79.531C51.5215 79.531 51.9872 79.3436 52.127 79.2498L61.7697 73.9067C62.0492 73.7193 62.2356 73.4849 62.2356 73.2037C62.2356 72.9225 62.0958 72.6413 61.8163 72.5007L41.6458 60.8303C41.506 60.7365 41.0403 60.5491 40.854 60.5491C40.5745 60.5022 40.2018 60.5491 39.9689 60.6897L30.0467 66.1733Z" fill="#DEDFE1"/>
<path d="M30.0467 66.1733C29.7672 66.314 29.5808 66.5952 29.5808 66.8764C29.5808 67.1576 29.7205 67.392 30 67.5794L50.4501 79.3904C50.683 79.531 51.0556 79.5779 51.3351 79.531C51.5215 79.531 51.9872 79.2967 52.127 79.2498L61.7697 73.9067C62.0492 73.7661 62.2356 73.4849 62.2356 73.2037C62.2356 72.9225 62.0958 72.6882 61.8163 72.5007L41.6924 60.8303C41.5527 60.7365 41.0869 60.5491 40.9006 60.5491C40.6211 60.5022 40.2484 60.5491 40.0155 60.6897L30.0467 66.1733Z" fill="#DDDEE0"/>
<path d="M30.0467 66.1736C29.7672 66.3142 29.5808 66.5954 29.5808 66.8766C29.5808 67.1579 29.7205 67.3922 30 67.5797L50.4501 79.3907C50.683 79.5313 51.0556 79.5782 51.3351 79.5313C51.5215 79.5313 51.9872 79.297 52.127 79.2501L61.7697 73.9539C62.0492 73.8133 62.2356 73.5321 62.2356 73.2508C62.2356 72.9696 62.0958 72.7353 61.8163 72.5478L41.6924 60.8774C41.5527 60.7837 41.0869 60.5962 40.9006 60.5962C40.6211 60.5493 40.2484 60.5962 40.0155 60.7368L30.0467 66.1736Z" fill="#DBDCDF"/>
<path d="M30.045 66.2206C29.7655 66.3612 29.6257 66.6424 29.6257 66.8767C29.6257 67.1579 29.7655 67.3923 30.045 67.5329L50.4951 79.3439C50.728 79.4845 51.1007 79.5313 51.3802 79.4376C51.5665 79.4376 52.0323 79.2033 52.172 79.1564L61.8148 73.8602C62.0943 73.7196 62.234 73.4384 62.234 73.204C62.234 72.9228 62.0943 72.6885 61.8148 72.5479L41.6908 60.9244C41.551 60.8306 41.0853 60.6431 40.8989 60.6431C40.6194 60.5963 40.2468 60.5963 40.0139 60.7369L30.045 66.2206Z" fill="#DADBDE"/>
<path d="M30.045 66.2204C29.7655 66.361 29.6257 66.5954 29.6257 66.8766C29.6257 67.1578 29.7655 67.3921 30.045 67.5328L50.4949 79.3438C50.7278 79.4844 51.1005 79.5312 51.38 79.4375C51.5197 79.4375 52.0321 79.2032 52.1718 79.1563L61.7679 73.8601C62.0474 73.7195 62.1871 73.4851 62.1871 73.2039C62.1871 72.9227 62.0474 72.6884 61.7679 72.5477L41.644 60.9242C41.5043 60.8305 41.0385 60.5961 40.8522 60.5961C40.5727 60.5024 40.2 60.5493 39.9671 60.6899L30.045 66.2204Z" fill="#D9DADD"/>
<path d="M30.0913 66.2204C29.8119 66.361 29.6721 66.5954 29.6721 66.8766C29.6721 67.1109 29.8118 67.3921 30.0447 67.5328L50.4947 79.3438C50.7276 79.4844 51.1003 79.5312 51.3798 79.4375C51.5195 79.4375 52.0319 79.2032 52.1716 79.1563L61.7677 73.8601C62.0472 73.7195 62.1869 73.4851 62.1869 73.2039C62.1869 72.9696 62.0472 72.7352 61.8143 72.5477L41.7371 60.9242C41.5973 60.8305 41.1314 60.5961 40.9451 60.5961C40.6656 60.5024 40.2929 60.5493 40.06 60.6899L30.0913 66.2204Z" fill="#D8D9DC"/>
<path d="M30.0913 66.2674C29.8119 66.408 29.6721 66.6423 29.6721 66.9236C29.6721 67.1579 29.8118 67.3923 30.0447 67.5329L50.4947 79.3439C50.7276 79.4845 51.1003 79.5313 51.3798 79.4376C51.5195 79.4376 52.0319 79.2032 52.1716 79.1564L61.7677 73.8602C62.0472 73.7196 62.1869 73.4852 62.1869 73.204C62.1869 72.9697 62.0472 72.7353 61.8143 72.5947L41.7371 60.9712C41.5973 60.9243 41.1315 60.6431 40.9917 60.6431C40.7122 60.5494 40.3396 60.5962 40.1066 60.7369L30.0913 66.2674Z" fill="#D6D7DB"/>
<path d="M30.0913 66.2673C29.8119 66.4079 29.6721 66.6422 29.6721 66.8766C29.6721 67.1109 29.8118 67.3453 30.0447 67.4859L50.4947 79.2969C50.7276 79.4375 51.1003 79.4844 51.3798 79.3906C51.5195 79.3906 52.0319 79.1563 52.1716 79.0625L61.7677 73.7664C62.0472 73.6257 62.1869 73.3914 62.1869 73.1571C62.1869 72.9227 62.0472 72.6884 61.8143 72.5477L41.7371 60.9242C41.6439 60.8773 41.1315 60.5961 40.9917 60.5961C40.7122 60.5024 40.3396 60.5493 40.1066 60.6899L30.0913 66.2673Z" fill="#D5D6DA"/>
<path d="M30.0913 66.2673C29.8584 66.4079 29.7187 66.6422 29.6721 66.8766C29.6721 67.1109 29.8118 67.3453 30.0447 67.4859L50.4947 79.2969C50.7276 79.4375 51.1003 79.4844 51.3798 79.3906C51.5195 79.3906 52.0319 79.1563 52.1716 79.0625L61.7677 73.7664C62.0006 73.6257 62.1403 73.3914 62.1869 73.1571C62.1869 72.9227 62.0472 72.6884 61.8143 72.5477L41.7371 60.9242C41.6439 60.8773 41.1315 60.5961 40.9917 60.5961C40.7122 60.5024 40.3396 60.5493 40.1066 60.6899L30.0913 66.2673Z" fill="#D4D5D8"/>
<path d="M30.0974 66.3144C29.8644 66.455 29.7246 66.6893 29.7246 66.9237C29.7246 67.158 29.8644 67.3924 30.0974 67.4861L50.5472 79.2971C50.7801 79.4377 51.1528 79.4846 51.4323 79.3908C51.5721 79.3908 52.0845 79.1565 52.2243 79.0627L61.7738 73.8134C62.0067 73.6728 62.1465 73.4385 62.1465 73.2041C62.1465 72.9698 62.0067 72.7354 61.7738 72.6417L41.7431 61.0182C41.6499 60.9713 41.1375 60.6901 40.9978 60.6901C40.7183 60.5964 40.3456 60.6433 40.1127 60.7839L30.0974 66.3144Z" fill="#D3D4D7"/>
<path d="M30.0974 66.3143C29.8644 66.4549 29.7246 66.6424 29.7246 66.8767C29.7246 67.1111 29.8644 67.2985 30.0974 67.4392L50.5473 79.2502C50.7802 79.3908 51.1529 79.4376 51.4324 79.3439C51.5721 79.3439 52.0845 79.0627 52.1777 79.0158L61.7273 73.7665C61.9602 73.6259 62.0999 73.4384 62.0999 73.204C62.0999 72.9697 61.9602 72.7822 61.7273 72.6416L41.6965 61.065C41.6033 61.0181 41.0909 60.7369 40.9512 60.7369C40.6717 60.6431 40.299 60.69 40.0661 60.8306L30.0974 66.3143Z" fill="#D1D2D6"/>
<path d="M30.1426 66.3143C29.9097 66.4549 29.77 66.6424 29.77 66.8767C29.77 67.1111 29.9098 67.2985 30.0961 67.4392L50.546 79.2502C50.7789 79.3908 51.1516 79.4376 51.4311 79.3439C51.5708 79.3439 52.0833 79.0627 52.1764 79.0158L61.726 73.7665C61.959 73.6259 62.0986 73.4384 62.0986 73.204C62.0986 72.9697 61.9589 72.7822 61.7725 72.6416L41.7419 61.065C41.6487 61.0181 41.1363 60.7369 40.9965 60.7369C40.717 60.6431 40.3444 60.69 40.1115 60.8306L30.1426 66.3143Z" fill="#D0D1D5"/>
<path d="M30.1426 66.3143C29.9097 66.4549 29.77 66.6424 29.77 66.8767C29.77 67.1111 29.9098 67.2985 30.0961 67.4392L50.5458 79.2502C50.7787 79.3908 51.1514 79.4376 51.4309 79.3439C51.5706 79.3439 52.083 79.0627 52.1762 79.0158L61.6791 73.7665C61.912 73.6259 62.0517 73.4384 62.0517 73.204C62.0517 72.9697 61.9121 72.7822 61.7257 72.6416L41.6951 61.065C41.602 61.0181 41.0896 60.7369 40.9498 60.7369C40.6703 60.6431 40.2976 60.69 40.0647 60.8306L30.1426 66.3143Z" fill="#CFD0D4"/>
<path d="M30.1426 66.3613C29.9097 66.5019 29.77 66.6894 29.77 66.8768C29.77 67.0643 29.8632 67.2987 30.0961 67.3924L50.5458 79.2034C50.7787 79.344 51.1514 79.3909 51.4309 79.2972C51.524 79.2972 52.083 79.0159 52.1762 78.9691L61.6791 73.7197C61.912 73.5791 62.0517 73.3916 62.0517 73.2042C62.0517 73.0167 61.9586 72.7824 61.7257 72.6886L41.7418 61.112C41.6486 61.0651 41.1362 60.7839 40.9964 60.7839C40.7169 60.6901 40.3443 60.737 40.1114 60.8776L30.1426 66.3613Z" fill="#CDCFD3"/>
<path d="M30.1426 66.3613C29.9097 66.5019 29.8166 66.6894 29.77 66.8768C29.77 67.0643 29.8632 67.2518 30.0961 67.3924L50.5458 79.2034C50.7787 79.344 51.1514 79.3909 51.4309 79.2972C51.524 79.2972 52.083 79.0159 52.1762 78.9691L61.6791 73.7197C61.912 73.5791 62.0051 73.3916 62.0517 73.2042C62.0517 73.0167 61.9586 72.8292 61.7257 72.6886L41.7418 61.112C41.6486 61.0651 41.1362 60.7839 40.9964 60.7839C40.7169 60.6901 40.3443 60.737 40.1114 60.8776L30.1426 66.3613Z" fill="#CCCED2"/>
<path d="M30.1419 66.3615C29.909 66.5021 29.8159 66.6896 29.8159 66.8771C29.8159 67.0646 29.909 67.252 30.1419 67.3926L50.5919 79.2036C50.8248 79.3442 51.1975 79.3911 51.477 79.2505C51.5702 79.2505 52.1292 78.9693 52.2223 78.9224L61.7253 73.6731C61.9582 73.5325 62.0513 73.345 62.0513 73.1575C62.0513 72.97 61.9582 72.7826 61.7253 72.642L41.7412 61.0653C41.648 61.0184 41.1356 60.7372 40.9958 60.7372C40.7163 60.6435 40.3436 60.6435 40.1107 60.831L30.1419 66.3615Z" fill="#CBCCD0"/>
<path d="M30.1419 66.4077C29.909 66.5483 29.8159 66.6889 29.8159 66.8763C29.8159 67.0638 29.909 67.2513 30.1419 67.345L50.5919 79.156C50.8248 79.2966 51.1975 79.3435 51.477 79.2029C51.5702 79.2029 52.1292 78.9217 52.2223 78.8748L61.7253 73.6724C61.9582 73.5318 62.0513 73.3911 62.0513 73.2037C62.0513 73.0162 61.9582 72.8287 61.7253 72.735L41.7412 61.1583C41.648 61.1114 41.1356 60.8302 40.9958 60.8302C40.7163 60.7365 40.3436 60.7365 40.1107 60.8771L30.1419 66.4077Z" fill="#CACBCF"/>
<path d="M30.1872 66.4078C30.0009 66.5015 29.8611 66.689 29.8611 66.8765C29.8611 67.0639 29.9542 67.2514 30.1406 67.3451L50.5905 79.1561C50.8235 79.2967 51.1961 79.2968 51.4756 79.203C51.5688 79.203 52.1278 78.9218 52.221 78.8749L61.6773 73.6725C61.8636 73.5787 62.0034 73.3912 62.0034 73.2038C62.0034 73.0163 61.9103 72.8288 61.7239 72.7351L41.7398 61.2053C41.6467 61.1584 41.1343 60.8772 41.0411 60.8772C40.7616 60.7835 40.3889 60.7835 40.156 60.9241L30.1872 66.4078Z" fill="#C8CACE"/>
<path d="M30.1872 66.4078C30.0009 66.5015 29.8611 66.689 29.8611 66.8765C29.8611 67.0639 29.9542 67.2045 30.1406 67.3451L50.5905 79.1561C50.8235 79.2967 51.1961 79.2968 51.4756 79.203C51.5688 79.203 52.1278 78.9218 52.221 78.8749L61.6773 73.6725C61.8636 73.5787 62.0034 73.3912 62.0034 73.2038C62.0034 73.0163 61.9103 72.8757 61.7239 72.7351L41.7863 61.2053C41.7397 61.1584 41.1342 60.8772 41.0876 60.8772C40.8081 60.7835 40.4354 60.7835 40.2025 60.9241L30.1872 66.4078Z" fill="#C7C9CD"/>
<path d="M30.1872 66.4549C30.0009 66.5486 29.8611 66.7361 29.8611 66.9236C29.8611 67.111 29.9542 67.2516 30.1406 67.3454L50.5905 79.1564C50.8235 79.297 51.1961 79.297 51.4756 79.2032C51.5688 79.2032 52.1278 78.922 52.221 78.8752L61.6773 73.6727C61.8636 73.579 62.0034 73.3915 62.0034 73.204C62.0034 73.0165 61.9103 72.8759 61.7239 72.7822L41.7863 61.2524C41.7397 61.2055 41.1342 60.9243 41.0876 60.9243C40.8081 60.8306 40.4354 60.8306 40.2025 60.9712L30.1872 66.4549Z" fill="#C6C7CC"/>
<path d="M30.1865 66.4549C30.0001 66.5486 29.907 66.7361 29.907 66.8767C29.907 67.0642 30.0001 67.2048 30.1865 67.2985L50.6364 79.1095C50.8693 79.2501 51.242 79.2501 51.5215 79.1563C51.6147 79.1563 52.1735 78.8282 52.2667 78.8282L61.7231 73.6258C61.9095 73.5321 62.0026 73.3446 62.0026 73.204C62.0026 73.0165 61.9095 72.8759 61.7231 72.7822L41.7856 61.2524C41.739 61.2055 41.1334 60.9243 41.0868 60.9243C40.8539 60.8306 40.4347 60.8306 40.2018 60.9712L30.1865 66.4549Z" fill="#C5C6CB"/>
<path d="M30.1865 66.4549C30.0001 66.5486 29.907 66.7361 29.907 66.8767C29.907 67.0173 30.0001 67.2048 30.1865 67.2985L50.6362 79.1095C50.8691 79.2501 51.2418 79.2501 51.5213 79.1563C51.5679 79.1563 52.1733 78.8282 52.2665 78.8282L61.6762 73.6258C61.8625 73.5321 61.9557 73.3446 61.9557 73.204C61.9557 73.0634 61.8625 72.8759 61.6762 72.7822L41.7389 61.2524C41.6924 61.2055 41.0868 60.9243 41.0402 60.9243C40.8073 60.8306 40.3881 60.8306 40.1552 60.9712L30.1865 66.4549Z" fill="#C3C5CA"/>
<path d="M30.1865 66.4549C30.0001 66.5486 29.907 66.6892 29.907 66.8767C29.907 67.0173 30.0001 67.1579 30.1865 67.2985L50.6365 79.1095C50.8694 79.2501 51.2421 79.2501 51.5216 79.1563C51.5682 79.1563 52.1737 78.8282 52.2203 78.8282L61.63 73.6258C61.8163 73.5321 61.9095 73.3915 61.9095 73.204C61.9095 73.0634 61.8163 72.9228 61.63 72.7822L41.7391 61.2524C41.6925 61.2055 41.087 60.9243 41.0404 60.9243C40.8075 60.8306 40.3882 60.8306 40.1553 60.9712L30.1865 66.4549Z" fill="#C2C4C8"/>
<path d="M30.2329 66.5015C30.0465 66.5953 29.9534 66.7359 29.9534 66.8765C29.9534 67.0171 30.0465 67.1577 30.1862 67.2514L50.6364 79.0624C50.8693 79.203 51.242 79.203 51.5215 79.1093C51.568 79.1093 52.1736 78.7812 52.2202 78.7812L61.6299 73.6256C61.8163 73.5319 61.9094 73.3913 61.9094 73.2507C61.9094 73.11 61.8163 72.9694 61.6766 72.8757L41.7854 61.3459C41.7388 61.299 41.1333 60.971 41.0867 60.971C40.8538 60.8772 40.4345 60.8772 40.2016 61.0178L30.2329 66.5015Z" fill="#C1C2C7"/>
<path d="M30.2329 66.5017C30.0465 66.5954 29.9534 66.736 29.9534 66.8766C29.9534 67.0172 30.0465 67.1579 30.1862 67.2516L50.6364 79.0626C50.8693 79.2032 51.242 79.2032 51.5215 79.1094C51.568 79.1094 52.1736 78.7814 52.2202 78.7814L61.6299 73.6258C61.8163 73.532 61.9094 73.3914 61.9094 73.2508C61.9094 73.1102 61.8163 72.9696 61.6766 72.8759L41.7854 61.393C41.7388 61.393 41.1333 61.018 41.0867 61.018C40.8538 60.8774 40.4345 60.9243 40.2016 61.0649L30.2329 66.5017Z" fill="#BFC1C6"/>
<path d="M30.2329 66.5016C30.0465 66.5953 30 66.7359 29.9534 66.8765C29.9534 67.0171 30.0465 67.1577 30.1862 67.2515L50.6362 79.0625C50.8691 79.2031 51.2418 79.2031 51.5213 79.1093C51.5679 79.1093 52.1734 78.7813 52.22 78.7344L61.5831 73.5788C61.7694 73.4851 61.8162 73.3444 61.8627 73.2038C61.8627 73.0632 61.7695 72.9226 61.6297 72.8289L41.7389 61.346C41.6923 61.346 41.0867 60.971 41.0401 60.971C40.8072 60.8304 40.388 60.8773 40.1551 61.0179L30.2329 66.5016Z" fill="#BEC0C5"/>
<path d="M30.2318 66.5485C30.092 66.6423 29.9988 66.7829 29.9988 66.9235C29.9988 67.0641 30.092 67.1579 30.2318 67.2516L50.6817 79.0626C50.9147 79.2032 51.2873 79.2032 51.5668 79.1094C51.6134 79.1094 52.219 78.7814 52.2656 78.7345L61.6288 73.5789C61.7686 73.4852 61.8618 73.3445 61.8618 73.2039C61.8618 73.0633 61.7686 72.9696 61.6288 72.8759L41.7843 61.393C41.7377 61.393 41.1322 61.018 41.0856 61.018C40.8527 60.8774 40.4334 60.9243 40.2005 61.0649L30.2318 66.5485Z" fill="#BDBFC4"/>
<path d="M30.2318 66.5484C30.092 66.6422 29.9988 66.7359 29.9988 66.8765C29.9988 67.0171 30.092 67.1108 30.2318 67.2046L50.6817 79.0156C50.9147 79.1562 51.2873 79.1562 51.5668 79.0156C51.6134 79.0156 52.219 78.6875 52.2656 78.6406L61.6288 73.485C61.7686 73.3913 61.8618 73.2976 61.8618 73.157C61.8618 73.0164 61.7686 72.9226 61.6288 72.8289L41.7843 61.346C41.7377 61.346 41.1322 60.971 41.0856 60.971C40.8527 60.8304 40.4334 60.8773 40.2005 61.0179L30.2318 66.5484Z" fill="#BCBDC3"/>
<path d="M30.2318 66.5486C30.092 66.6423 29.9988 66.7361 29.9988 66.8767C29.9988 67.0173 30.0454 67.111 30.1852 67.2048L50.6353 79.0158C50.8682 79.1564 51.2409 79.1564 51.5204 79.0158C51.567 79.0158 52.1725 78.6877 52.2191 78.6408L61.5823 73.4852C61.722 73.3915 61.8153 73.2977 61.8153 73.1571C61.8153 73.0165 61.7686 72.9228 61.6289 72.829L41.7843 61.3461L41.1323 60.9712C40.8993 60.8306 40.4801 60.8306 40.2472 60.9712L30.2318 66.5486Z" fill="#BABCC2"/>
<path d="M30.2777 66.5952C30.1379 66.689 30.0447 66.7827 30.0447 66.9233C30.0447 67.017 30.0913 67.1577 30.231 67.2045L50.6808 79.0155C50.9138 79.1562 51.2864 79.1562 51.5659 79.0155C51.5659 79.0155 52.2181 78.6406 52.2646 78.6406L61.5812 73.485C61.721 73.3913 61.8142 73.2975 61.8142 73.1569C61.8142 73.0632 61.7676 72.9226 61.6278 72.8757L41.7835 61.3928L41.1314 61.0178C40.8985 60.8772 40.5258 60.8772 40.2463 61.0178L30.2777 66.5952Z" fill="#B9BBC1"/>
<path d="M30.2777 66.5952C30.1379 66.689 30.0447 66.7827 30.0447 66.8764C30.0447 66.9702 30.0913 67.1108 30.231 67.1577L50.6808 78.9686C50.9138 79.1093 51.2864 79.1093 51.5659 78.9686C51.5659 78.9686 52.2181 78.5937 52.2646 78.5937L61.5812 73.4381C61.721 73.3444 61.8142 73.2506 61.8142 73.1569C61.8142 73.0631 61.7676 72.9225 61.6278 72.8757L41.8301 61.3928L41.178 61.0178C40.9451 60.8772 40.5725 60.8772 40.293 61.0178L30.2777 66.5952Z" fill="#B8BABF"/>
<path d="M30.2835 66.5955C30.1438 66.6892 30.0972 66.7829 30.0972 66.8767C30.0972 66.9704 30.1438 67.0642 30.2835 67.1579L50.7334 78.9689C50.9664 79.1095 51.339 79.1095 51.6185 78.9689C51.6185 78.9689 52.2707 78.5939 52.3173 78.5939L61.6339 73.4852C61.7736 73.3915 61.8202 73.2977 61.8202 73.204C61.8202 73.1102 61.7736 73.0165 61.6339 72.9228L41.8361 61.4399L41.184 61.0649C40.9511 60.9243 40.5318 60.9243 40.2989 61.0649L30.2835 66.5955Z" fill="#B7B8BE"/>
<path d="M30.2835 66.5956C30.1438 66.6893 30.0972 66.7831 30.0972 66.8768C30.0972 66.9705 30.1438 67.0643 30.2835 67.158L50.7334 78.969C50.9664 79.1096 51.3856 79.1096 51.6185 78.969C51.6185 78.969 52.2707 78.5941 52.3173 78.5941L61.6339 73.4853C61.7736 73.3916 61.8202 73.2979 61.8202 73.2041C61.8202 73.1104 61.7736 73.0167 61.6339 72.9229L41.8361 61.4869L41.184 61.1119C40.9511 60.9713 40.5784 60.9713 40.2989 61.1119L30.2835 66.5956Z" fill="#B5B7BD"/>
<path d="M61.585 72.9697L41.1349 61.1587C40.9019 61.0181 40.5293 61.0181 40.2498 61.1587L30.2809 66.6424C30.048 66.783 30.0014 67.0173 30.2809 67.1579L50.7311 78.9689C50.964 79.1095 51.3833 79.1095 51.6162 78.9689L61.585 73.4852C61.8179 73.3446 61.8179 73.1103 61.585 72.9697Z" fill="#B4B6BC"/>
<path d="M30.3716 66.6427H31.7225V66.8771L39.828 62.4714C40.4335 62.0965 41.5515 62.1433 42.2969 62.5651L60.1382 72.5482V72.3608H61.4891V73.4388C61.4891 73.4856 61.4426 73.5325 61.396 73.5325L51.7533 78.9224C51.1477 79.2505 50.1229 79.2036 49.4707 78.8287L30.4647 67.8613C30.4181 67.8145 30.3716 67.7676 30.4182 67.7207V66.6427H30.3716Z" fill="#B7BAC7"/>
<path d="M61.3997 72.4542L51.7569 77.8442C51.1513 78.1722 50.1265 78.1254 49.4744 77.7504L30.4683 66.7831C30.3751 66.7362 30.3751 66.5956 30.4683 66.5019L34.1951 64.4865L39.8316 61.3932C40.4372 61.0182 41.5551 61.0651 42.2539 61.4869L46.1204 63.6429L61.3997 72.173C61.4928 72.2668 61.4928 72.4073 61.3997 72.4542Z" fill="#EBEAF1"/>
<path d="M51.2417 42.3639C46.9562 39.9267 42.3444 42.317 42.391 46.9102L54.6888 71.2821L55.5272 70.8134L55.3409 49.113C55.3409 46.4415 53.7106 43.77 51.2417 42.3639Z" fill="#B7BAC7"/>
<path d="M54.7359 71.3298L47.469 67.2053L41.6928 63.9245L41.5531 47.4734C41.5065 42.8334 46.1181 40.4431 50.4037 42.9271C50.4037 42.9271 50.4037 42.9271 50.4503 42.9271C52.9191 44.3332 54.503 47.0048 54.5495 49.6763L54.7359 71.3298Z" fill="#E0E0E6"/>
<path d="M79.9841 31.3033L76.6767 58.3936L75.0463 71.9387C74.9065 73.0167 74.3009 74.6571 72.2513 74.6571C71.9718 74.6571 71.6923 74.6103 71.4128 74.5634H71.3662L55.6212 65.049L54.7362 64.5334L49.8915 61.5807L41.7395 56.6594L20.125 43.583C19.566 43.2549 19.24 42.6925 19.3332 42.13L19.7058 38.7086L20.8704 27.2725L23.479 1.82265C23.5256 1.40083 23.7119 1.07276 24.038 0.791546L24.0846 0.744667C24.1312 0.697798 24.1777 0.650935 24.2243 0.604066C25.1094 -0.0521009 26.507 -0.192707 27.3454 0.275984L37.5005 6.08773L60.885 19.4454L61.9565 20.0547L69.1768 24.1792L79.2853 29.9441C79.7512 30.1784 80.0772 30.7409 79.9841 31.3033Z" fill="#B7BAC7"/>
<path d="M79.0044 32.0067L73.9733 73.1577C73.8802 74.0014 73.0884 74.5638 72.2033 74.6575C71.9238 74.7044 71.6442 74.6575 71.3647 74.5638H71.3182C71.1785 74.5169 71.0852 74.4701 70.9455 74.4232L55.5265 65.5181L54.6414 65.0025L50.2626 62.4716L43.6944 58.6752L41.6448 57.5035L19.0055 44.427C18.4465 44.0989 18.1204 43.5365 18.2135 42.9741L18.7727 38.2403L20.1701 26.9449L21.847 13.1185L23.198 1.82306C23.2445 1.40124 23.4775 1.02629 23.8502 0.745074L23.8967 0.698212C23.9433 0.651343 23.9899 0.604462 24.083 0.557593C24.7352 0.182641 25.5737 0.135772 26.2724 0.557593L61.6755 20.9925L78.1659 30.5069C78.7715 30.8819 79.0509 31.4443 79.0044 32.0067Z" fill="#EBEAF1"/>
<path d="M76.7217 33.3654L72.11 71.0481C72.0169 71.7512 71.1319 72.1261 70.4331 71.7512L67.871 70.2982L61.9084 66.9237L57.8557 64.6271L46.536 58.206L21.5675 44.0516C20.729 43.5829 20.3097 42.7861 20.4029 41.9425L25.0147 4.25973C25.1079 3.55669 26.0395 3.18175 26.6916 3.5567L36.4741 9.13412L47.7937 15.5552L51.893 17.8518L57.5295 21.0857L75.6038 31.3501C76.3957 31.6781 76.8149 32.5218 76.7217 33.3654Z" fill="url(#paint0_linear)"/>
<path d="M76.722 33.3184L76.2563 37.0211L24.5491 7.54043L24.9683 4.119C25.0615 3.41596 25.9931 3.041 26.6452 3.41595L36.4277 8.99338L47.7475 15.4144L51.8467 17.7579L57.4833 20.9918L75.5575 31.2562C76.396 31.678 76.8152 32.4748 76.722 33.3184Z" fill="#4A4A66"/>
<path d="M66.9859 30.6938L63.8648 28.8659C63.7717 28.8191 63.7251 28.6785 63.7251 28.6316C63.7251 28.5379 63.8182 28.5379 63.9113 28.5847L67.0326 30.4126C67.1257 30.4595 67.1723 30.6001 67.1723 30.647C67.1723 30.6939 67.0791 30.7407 66.9859 30.6938Z" fill="white"/>
<path d="M74.39 35.0059C74.3434 34.959 74.2968 34.9121 74.2502 34.8653L72.5267 31.397C72.4801 31.3032 72.4801 31.2095 72.5733 31.2095C72.6665 31.2095 72.7596 31.2564 72.8062 31.3501L74.5299 34.8184C74.5765 34.9121 74.5764 35.0059 74.4832 35.0059C74.4367 35.0527 74.4366 35.0527 74.39 35.0059Z" fill="white"/>
<path d="M72.3878 33.834C72.3412 33.834 72.2947 33.7872 72.2947 33.7403C72.2481 33.6466 72.2481 33.5528 72.2947 33.5059L74.5771 32.3811C74.6236 32.3342 74.7635 32.3811 74.8101 32.4748C74.8566 32.5685 74.8566 32.6623 74.8101 32.7091L72.5275 33.834C72.481 33.8809 72.4344 33.8809 72.3878 33.834Z" fill="white"/>
<path d="M70.8081 30.0842C70.5286 29.7093 70.1094 29.4281 69.6902 29.2875C69.2709 29.1469 68.8516 29.1937 68.5721 29.4281C68.2926 29.6624 68.1529 30.0374 68.1995 30.4592C68.2927 31.3497 68.9914 32.2402 69.8299 32.5214C69.9697 32.5683 70.156 32.6152 70.2958 32.6152C70.5287 32.6152 70.7615 32.5683 70.9479 32.3808C71.2274 32.1465 71.3672 31.7715 71.3206 31.3497C71.3206 30.9279 71.0876 30.4592 70.8081 30.0842ZM70.715 32.0996C70.5287 32.2402 70.2492 32.2871 69.9697 32.1933C69.2709 31.959 68.6653 31.2091 68.5721 30.4592C68.5255 30.1311 68.6188 29.8968 68.8051 29.7562C68.8983 29.6624 69.038 29.6155 69.2243 29.6155C69.3175 29.6155 69.4572 29.6156 69.5969 29.6624C70.2957 29.8968 70.9013 30.6467 70.9945 31.3966C70.9945 31.6778 70.9013 31.959 70.715 32.0996Z" fill="white"/>
<g opacity="0.3">
<path opacity="0.3" d="M45.8846 20.2893L45.4654 23.7107L42.1581 50.098C42.0649 50.7073 41.0401 50.9885 40.2948 50.6135L37.36 49.02L18.6802 38.9431L18.7734 38.2401L20.1709 26.9446L21.8478 13.1183L22.6398 6.46289L44.4872 18.2739C45.512 18.7426 45.9778 19.5394 45.8846 20.2893Z" fill="#4A4A66"/>
<path opacity="0.3" d="M73.4142 27.7887L72.2963 37.6781C72.2497 38.0062 71.8304 38.1937 71.5509 38.0062L54.781 28.5855C54.6413 28.4918 54.5481 28.3512 54.5946 28.2106L55.8058 17.5713L61.6753 20.9927L73.4142 27.7887Z" fill="#4A4A66"/>
<path opacity="0.3" d="M76.212 51.551L56.6936 40.4899C56.3209 40.2556 55.7619 40.49 55.7153 40.8649L53.852 55.5818C53.8055 55.7692 53.9452 55.9567 54.1315 56.0504L73.6499 67.1115C74.0226 67.3459 74.5816 67.1115 74.6282 66.7366L76.4915 52.0197C76.4915 51.8323 76.3983 51.6448 76.212 51.551Z" fill="#4A4A66"/>
</g>
<path d="M38.7084 22.8667V26.5225V55.8156C38.7084 56.5187 37.8233 56.8936 37.0779 56.5187L34.2363 55.0189L2.32702 38.146C1.44194 37.6773 0.882812 36.8337 0.882812 35.99V3.04112C0.882812 2.33808 1.76792 1.96312 2.51325 2.33807L37.2643 20.7107C38.1494 21.1794 38.7084 22.0231 38.7084 22.8667Z" fill="#EE8300"/>
<path d="M38.7082 22.8669V26.5227L37.7765 27.132L2.09401 6.2752L0.929443 5.38469V3.0881C0.929443 2.38506 1.81455 2.01012 2.55987 2.38507L37.3106 20.7578C38.1491 21.1796 38.7082 22.0232 38.7082 22.8669Z" fill="#403E56"/>
<path d="M37.7787 23.3827V27.1791V56.3317C37.7787 57.0347 36.8936 57.4096 36.1483 57.0347L33.3533 55.5349L1.44406 38.662C1.25773 38.5683 1.07128 38.4277 0.884946 38.2871C0.32595 37.8184 0 37.1622 0 36.506V7.07229V3.55711C0 2.85407 0.884963 2.47911 1.63029 2.85406L36.3813 21.2267C37.2198 21.6954 37.7787 22.4922 37.7787 23.3827Z" fill="url(#paint1_linear)"/>
<path d="M37.7787 23.3827V27.1791L0 7.07229V3.55711C0 2.85407 0.884963 2.47911 1.63029 2.85406L36.3813 21.2267C37.2198 21.6954 37.7787 22.4922 37.7787 23.3827Z" fill="#4A4A66"/>
<path opacity="0.25" d="M29.9062 17.8053L0.884946 38.334C0.32595 37.8653 0 37.2091 0 36.5529V7.11915V3.55711C0 2.85407 0.884963 2.47911 1.63029 2.85406L29.9062 17.8053Z" fill="white"/>
<path d="M27.5324 20.664L24.1319 18.7893C24.0388 18.7424 23.9456 18.6018 23.9456 18.5081C23.9456 18.4143 24.0388 18.4143 24.1319 18.4612L27.5324 20.336C27.6256 20.3828 27.7188 20.5234 27.7188 20.5703C27.7188 20.7109 27.6256 20.7109 27.5324 20.664Z" fill="white"/>
<path d="M35.5906 25.1172C35.544 25.0703 35.4974 25.0235 35.4509 24.9766L33.2615 21.4614C33.2149 21.3677 33.2149 21.2739 33.2615 21.2739C33.3547 21.2739 33.4478 21.3208 33.4944 21.4145L35.6837 24.9297C35.7303 25.0235 35.7304 25.1172 35.6372 25.1641C35.6838 25.1172 35.6372 25.1172 35.5906 25.1172Z" fill="white"/>
<path d="M33.3998 23.8987C33.3532 23.8987 33.3067 23.8519 33.3067 23.805C33.2135 23.7113 33.2135 23.6175 33.3067 23.5706L35.4961 22.4458C35.5427 22.3989 35.6824 22.4458 35.7289 22.5864C35.8221 22.6801 35.8221 22.7739 35.7289 22.8207L33.5395 23.9456C33.493 23.9456 33.4464 23.9456 33.3998 23.8987Z" fill="white"/>
<path d="M30.3755 22.2579C29.537 21.7892 28.8848 20.8518 28.8848 20.1019C28.8848 19.3521 29.5836 19.1177 30.3755 19.5864C31.2141 20.0551 31.8663 20.9924 31.8663 21.7423C31.8663 22.4454 31.2141 22.6797 30.3755 22.2579ZM30.3755 19.9145C29.7233 19.5864 29.2109 19.727 29.2109 20.2894C29.2109 20.8518 29.7233 21.6017 30.3289 21.9298C30.9811 22.2579 31.4935 22.1173 31.4935 21.5549C31.5401 20.9925 31.0277 20.2426 30.3755 19.9145Z" fill="white"/>
<path d="M19.1899 26.0064L21.5654 27.3656V26.8032L19.1899 25.444V26.0064Z" fill="white"/>
<path d="M24.9663 29.2872L28.1806 31.115L28.2272 30.5526L24.9663 28.7247V29.2872Z" fill="white"/>
<path d="M21.9375 27.5536L24.4063 28.9597L24.4529 28.3973L21.9375 26.9912V27.5536Z" fill="white"/>
<path d="M19.1899 27.272L28.1804 32.3808V31.8183L19.1899 26.7096V27.272Z" fill="white"/>
<path d="M27.5312 32.006L34.2858 35.8493V35.2868L27.5312 31.4436V32.006Z" fill="white"/>
<path d="M19.1899 28.5374L22.1245 30.2247V29.6623L19.1899 27.975V28.5374Z" fill="white"/>
<path d="M19.1899 29.8501L28.1804 34.912V34.3496L19.1899 29.2877V29.8501Z" fill="white"/>
<path d="M19.1436 31.1155L21.2398 32.2873V31.7248L19.1902 30.5531L19.1436 31.1155Z" fill="white"/>
<path d="M21.8921 32.6624L24.4076 34.0685V33.5061L21.8921 32.1V32.6624Z" fill="white"/>
<path d="M19.1436 32.3809L23.5225 34.865L23.5691 34.3026L19.1436 31.8185V32.3809Z" fill="white"/>
<path d="M24.3645 35.3334L28.1843 37.4894V36.927L24.3645 34.771V35.3334Z" fill="white"/>
<path d="M9.82715 19.4453L14.2061 21.9293V21.3669L9.82715 18.8828V19.4453Z" fill="white"/>
<path d="M23.6208 26.6626L15.0496 21.8351L15.0029 22.3975L23.6208 27.225V26.6626Z" fill="white"/>
<path d="M15.6045 23.9914L19.3311 26.1005V25.5381L15.6045 23.429V23.9914Z" fill="white"/>
<path d="M12.5293 22.2568L15.0449 23.7097V23.1004L12.5293 21.6943V22.2568Z" fill="white"/>
<path d="M9.82715 22.0231L19.3303 27.3662V26.8037L9.82715 21.4138V22.0231Z" fill="white"/>
<path d="M13.8374 25.5852L19.2878 28.6317V28.0693L13.884 25.0228L13.8374 25.5852Z" fill="white"/>
<path d="M21.7549 29.9905L27.2051 33.0839V32.5215L21.7549 29.4281V29.9905Z" fill="white"/>
<path d="M9.78198 24.5533L19.285 29.8964V29.3339L9.82861 23.9908L9.78198 24.5533Z" fill="white"/>
<path d="M9.78198 25.8189L11.8783 26.9906V26.4282L9.78198 25.2565V25.8189Z" fill="white"/>
<path d="M12.5293 27.3658L15.0449 28.7718V28.2094L12.5293 26.8033V27.3658Z" fill="white"/>
<path d="M15.467 29.0064L19.2868 31.1624V30.5999L15.467 28.444V29.0064Z" fill="white"/>
<path d="M27.8589 34.162V34.7244L33.8682 38.1458V37.5834L27.8589 34.162Z" fill="white"/>
<path d="M9.78198 27.0843L14.1607 29.5683V29.0059L9.78198 26.5219V27.0843Z" fill="white"/>
<path d="M14.9507 30.0376L19.2831 32.4749V31.9124L14.9972 29.4752L14.9507 30.0376Z" fill="white"/>
<path d="M4.70459 17.007L7.22014 18.413V17.8506L4.70459 16.4446V17.007Z" fill="white"/>
<path d="M4.75098 18.2733L7.22003 19.6793L7.26666 19.1169L4.75098 17.7108V18.2733Z" fill="white"/>
<path d="M4.75098 19.586L7.26666 20.9921V20.4296L4.75098 19.0236V19.586Z" fill="white"/>
<path d="M4.79614 20.8046L7.31157 22.2576V21.6483L4.79614 20.2422V20.8046Z" fill="white"/>
<path d="M4.79614 22.1637L7.31157 23.5698V23.0074L4.84263 21.6013L4.79614 22.1637Z" fill="white"/>
<path d="M4.84277 23.4754L7.35871 24.8815V24.3191L4.88941 22.913L4.84277 23.4754Z" fill="white"/>
<path d="M4.93945 24.7879L7.40806 26.1939V25.6315L4.93945 24.1786V24.7879Z" fill="white"/>
<path d="M4.93945 26.0534L7.45488 27.4594V26.897L4.98594 25.491L4.93945 26.0534Z" fill="white"/>
<path d="M4.93945 27.6005L7.45488 29.0066V28.4441L4.98594 26.9912L4.93945 27.6005Z" fill="white"/>
<path d="M4.9856 28.8659L7.50102 30.3188V29.7564L4.9856 28.3035V28.8659Z" fill="white"/>
<path d="M4.9856 30.1783L7.50102 31.6312V31.0688L5.03222 29.6158L4.9856 30.1783Z" fill="white"/>
<path d="M5.03052 31.4906L7.54607 32.9436V32.3811L5.03052 30.9282V31.4906Z" fill="white"/>
<path d="M5.07715 32.8493L7.59232 34.2554V33.6929L5.07715 32.2869V32.8493Z" fill="white"/>
<path d="M5.07715 34.1617L7.59232 35.5677V35.0053L5.12363 33.5992L5.07715 34.1617Z" fill="white"/>
<path d="M10.1545 16.6798L10.5271 16.8672V16.4923L10.1545 16.3048V16.6798Z" fill="white"/>
<path d="M10.7112 16.9611L11.0373 17.1486V16.7737L10.7112 16.5862V16.9611Z" fill="white"/>
<path d="M11.1812 17.1955L11.5538 17.383V17.0549L11.1812 16.8674V17.1955Z" fill="white"/>
<path d="M19.1436 33.881L23.5226 36.3651V35.8027L19.1436 33.3186V33.881Z" fill="white"/>
<path d="M27.8589 38.8487L32.2376 41.3328L32.2842 40.7703L27.8589 38.2863V38.8487Z" fill="white"/>
<path d="M24.3647 36.8333L28.1381 38.9893V38.4268L24.3647 36.2709V36.8333Z" fill="white"/>
<path d="M19.1436 35.1933L21.5195 36.5056V35.9432L19.1436 34.584V35.1933Z" fill="white"/>
<path d="M21.8457 36.6928L24.3613 38.1458V37.5833L21.8923 36.1304L21.8457 36.6928Z" fill="white"/>
<path d="M19.1436 36.4584L28.1341 41.5671V40.9579L19.1436 35.896V36.4584Z" fill="white"/>
<path d="M27.8123 41.3797L33.3559 44.473V43.9106L27.8123 40.8173V41.3797Z" fill="white"/>
<path d="M19.1436 37.7237L22.0785 39.411V38.8485L19.1436 37.1613V37.7237Z" fill="white"/>
<path d="M23.2002 40.0203L28.138 42.8324V42.27L23.2002 39.4579V40.0203Z" fill="white"/>
<path d="M19.0974 38.9894L28.1344 44.0982V43.5358L19.144 38.427L19.0974 38.9894Z" fill="white"/>
<path d="M27.6689 45.1294L33.2125 48.2228V47.6604L27.6689 44.567V45.1294Z" fill="white"/>
<path d="M19.0974 40.2548L21.1937 41.4265V40.8641L19.0974 39.6924V40.2548Z" fill="white"/>
<path d="M21.8457 41.8016L24.3613 43.2545V42.6452L21.8457 41.2391V41.8016Z" fill="white"/>
<path d="M24.7834 43.4885L28.1374 45.3632V44.8008L24.7834 42.926V43.4885Z" fill="white"/>
<path d="M19.0974 41.5204L23.4763 44.0514V43.4421L19.0974 40.958V41.5204Z" fill="white"/>
<path d="M24.3179 44.4735L28.0912 46.6294V46.067L24.3179 43.911V44.4735Z" fill="white"/>
<path d="M14.9507 31.5375L19.2831 33.9747V33.4123L14.9507 30.9751V31.5375Z" fill="white"/>
<path d="M9.78271 29.8969L12.1584 31.2561V30.6937L9.78271 29.3345V29.8969Z" fill="white"/>
<path d="M15.5117 33.1307L19.2383 35.2398L19.2849 34.6774L15.5583 32.5682L15.5117 33.1307Z" fill="white"/>
<path d="M12.4829 31.4438L14.998 32.8498V32.2874L12.4829 30.8813V31.4438Z" fill="white"/>
<path d="M9.78223 31.1623L19.2385 36.5054V35.9429L9.78223 30.5999V31.1623Z" fill="white"/>
<path d="M13.7854 34.7245L19.2354 37.8178V37.2086L13.7854 34.1621V34.7245Z" fill="white"/>
<path d="M9.73535 33.6935L19.2382 39.0835V38.521L9.73535 33.1311V33.6935Z" fill="white"/>
<path d="M12.4829 36.5519L14.9515 37.958V37.3956L12.4829 35.9426V36.5519Z" fill="white"/>
<path d="M15.3755 38.1927L19.2418 40.3486V39.7862L15.3755 37.6302V38.1927Z" fill="white"/>
<path d="M9.73535 36.2713L14.1141 38.7553V38.1929L9.73535 35.7089V36.2713Z" fill="white"/>
<path d="M14.9043 39.1768L19.2365 41.614V41.0516L14.9043 38.6144V39.1768Z" fill="white"/>
<path d="M6.28691 14.8519L4.37695 13.2115V12.9303L6.33354 13.4927V13.8677L4.98257 13.4458L6.33354 14.5238L6.28691 14.8519Z" fill="white"/>
<path d="M6.4707 15.2265L7.2626 13.7267L7.68178 13.961L6.88989 15.414L6.4707 15.2265Z" fill="white"/>
<path d="M7.77856 15.6958V15.3677L9.12967 15.7895L7.77856 14.7115V14.3834L9.6887 15.977V16.2582L7.77856 15.6958Z" fill="white"/>
<path d="M28.4591 50.1913L26.5493 48.5509V48.2697L28.5058 48.8321V49.207L27.1549 48.7852L28.5058 49.8632L28.4591 50.1913Z" fill="white"/>
<path d="M28.6428 50.5191L29.4347 49.0193L29.8539 49.2536L29.0621 50.7065L28.6428 50.5191Z" fill="white"/>
<path d="M29.9524 50.988V50.6599L31.3033 51.0817L29.9524 50.0037V49.6757L31.8624 51.3161V51.5973L29.9524 50.988Z" fill="white"/>
<path d="M63.5437 26.804L47.426 17.8989C47.1465 17.7583 46.4011 17.9458 46.4011 18.6019L46.9135 31.0691C46.9135 31.2566 47.0067 31.3972 47.1465 31.444L62.9847 40.7241C63.2642 40.8647 63.8698 40.6304 63.8698 39.9273L63.73 27.179C63.7766 27.0383 63.6834 26.8509 63.5437 26.804Z" fill="#27449C"/>
<path d="M63.2645 27.0387L47.0536 18.0867C46.7741 17.9461 46.448 18.1804 46.448 18.5085L46.5879 31.3506C46.5879 31.5381 46.681 31.6787 46.8207 31.7256L63.0317 40.6775C63.3111 40.8181 63.6371 40.5838 63.6371 40.2557L63.4974 27.4136C63.4974 27.273 63.4043 27.1324 63.2645 27.0387Z" fill="url(#paint2_linear)"/>
<path d="M50.1301 26.1952L50.5495 25.9608V27.0857L50.1301 27.32V26.1952Z" fill="#B7BAC7"/>
<path d="M56.5093 26.195L56.9285 25.9607V27.0855L56.5093 27.3668V26.195Z" fill="#B7BAC7"/>
<path d="M56.5093 34.2094L56.9285 33.9751V35.0999L56.5093 35.3343V34.2094Z" fill="#B7BAC7"/>
<path d="M50.5491 27.0852V25.9604C50.782 26.101 50.9684 26.1479 51.0615 26.1947C51.1547 26.1947 51.2944 26.1947 51.341 26.101C51.4342 26.0072 51.4808 25.8667 51.5274 25.726C51.574 25.5854 51.5739 25.3511 51.5739 24.9761C51.5739 24.3668 51.6206 23.945 51.6671 23.7575C51.7137 23.5701 51.8068 23.4295 51.9931 23.3826C52.1329 23.3357 52.3658 23.3357 52.6453 23.4295C52.8317 23.4763 53.1577 23.6638 53.5304 23.8982L53.7632 24.0388V25.1167C53.3906 24.8824 53.2043 24.7887 53.1112 24.7418C53.018 24.7418 52.9248 24.7418 52.8782 24.7887C52.8316 24.8355 52.7851 24.9761 52.7851 25.1636C52.7851 25.3511 52.785 25.726 52.7384 26.2885C52.7384 26.5697 52.6919 26.804 52.5987 26.9915C52.5521 27.1321 52.459 27.2727 52.3658 27.3196C52.2727 27.3665 52.0863 27.4133 51.9 27.4133C52.0863 27.6477 52.2261 27.882 52.3658 28.0695C52.5056 28.3038 52.5522 28.5382 52.6453 28.7725C52.6919 29.0069 52.7385 29.335 52.7851 29.663C52.7851 30.2255 52.8317 30.5535 52.8317 30.6941C52.8317 30.8816 52.8782 31.0691 52.9248 31.1628C52.9714 31.2566 53.0645 31.3972 53.1577 31.4909C53.2508 31.5847 53.4838 31.7721 53.8099 31.9596V33.0845L53.577 32.9439C53.1578 32.6626 52.8316 32.4283 52.5987 32.2408C52.3658 32.0534 52.1795 31.819 52.0397 31.5378C51.9 31.3034 51.7602 31.0222 51.7136 30.741C51.667 30.4598 51.6205 30.0849 51.6205 29.5693C51.6205 29.0069 51.574 28.5851 51.5274 28.3976C51.4342 28.1164 51.341 27.8351 51.2013 27.6477C51.0615 27.5071 50.8751 27.2727 50.5491 27.0852Z" fill="#B7BAC7"/>
<path d="M60.1948 33.1317C59.9619 32.991 59.7756 32.9442 59.6824 32.8973C59.5892 32.8973 59.4495 32.8973 59.4029 32.9911C59.3098 33.0848 59.2631 33.2254 59.2165 33.366C59.17 33.5066 59.1699 33.7409 59.1699 34.1159C59.1699 34.7252 59.1234 35.147 59.0768 35.3345C59.0302 35.522 58.9371 35.6626 58.7973 35.7094C58.6576 35.7563 58.4246 35.7563 58.1451 35.6626C57.9587 35.6157 57.6326 35.4282 57.26 35.1939L57.0271 35.0533V33.9284C57.3532 34.1159 57.586 34.2565 57.6792 34.2565C57.7724 34.2565 57.8656 34.2565 57.9122 34.2096C57.9588 34.1628 58.0053 34.0222 58.0053 33.8347C58.0053 33.6472 58.0054 33.2723 58.0519 32.7567C58.0519 32.4286 58.0985 32.1943 58.1917 32.0537C58.2383 31.9131 58.3314 31.7725 58.4712 31.7256C58.5644 31.6787 58.7507 31.6318 58.8904 31.6318C58.6575 31.3506 58.4712 31.0694 58.3781 30.8819C58.2383 30.6007 58.1451 30.2726 58.0519 29.8977C58.0054 29.6634 58.0053 29.1478 57.9587 28.3979C57.9587 28.1635 57.9122 27.9761 57.9122 27.8823C57.8656 27.7886 57.819 27.6949 57.6792 27.5542C57.586 27.4605 57.3531 27.273 56.9805 27.0387V25.9138L57.2135 26.0544C57.6327 26.3357 57.9588 26.57 58.1917 26.7575C58.4246 26.9449 58.6109 27.1793 58.7507 27.4605C58.8904 27.6949 59.0302 27.9761 59.0768 28.2573C59.1234 28.5385 59.1699 28.9134 59.1699 29.429C59.1699 29.9914 59.1699 30.4132 59.263 30.6007C59.3096 30.8819 59.4494 31.1632 59.5892 31.3506C59.7289 31.5381 59.9619 31.7256 60.2414 31.9599V33.1317H60.1948Z" fill="#B7BAC7"/>
<path d="M50.1301 27.3198V26.1949C50.363 26.3355 50.5494 26.3824 50.6426 26.4292C50.7358 26.4292 50.8755 26.4292 50.9221 26.3355C51.0152 26.2418 51.0617 26.1012 51.1083 25.9605C51.1549 25.8199 51.1549 25.5856 51.1549 25.2106C51.1549 24.6013 51.2016 24.1795 51.2482 23.992C51.2948 23.8046 51.3878 23.664 51.5742 23.6171C51.7139 23.5702 51.9469 23.5702 52.2264 23.664C52.4127 23.7108 52.7388 23.8983 53.1115 24.1327L53.3443 24.2733V25.3981C52.9716 25.1638 52.7854 25.07 52.6922 25.0232C52.5991 24.9763 52.5058 25.0232 52.4592 25.07C52.4127 25.1169 52.3661 25.2575 52.3661 25.445C52.3661 25.6325 52.3661 26.0074 52.3195 26.5699C52.3195 26.8511 52.2729 27.0854 52.1798 27.2729C52.1332 27.4135 52.0401 27.5541 51.9469 27.601C51.8537 27.6478 51.6674 27.6947 51.481 27.6947C51.6674 27.929 51.8072 28.1634 51.9469 28.3509C52.0866 28.5852 52.1332 28.8196 52.2264 29.0539C52.273 29.2883 52.3195 29.6163 52.3661 29.9444C52.3661 30.46 52.4127 30.8349 52.4127 30.9755C52.4127 31.163 52.4593 31.3505 52.5059 31.4442C52.5524 31.538 52.6455 31.6786 52.7387 31.7723C52.8319 31.866 53.0649 32.0535 53.3909 32.241V33.3659L53.1579 33.2253C52.7387 32.944 52.4127 32.7097 52.1798 32.5222C51.9468 32.3348 51.7605 32.1004 51.6208 31.8192C51.481 31.5848 51.3413 31.3036 51.2947 31.0224C51.2481 30.7412 51.2016 30.3662 51.2016 29.8507C51.2016 29.2882 51.2015 28.8664 51.1083 28.6789C51.0617 28.3977 50.9221 28.1165 50.7823 27.929C50.6426 27.7416 50.4096 27.5541 50.1301 27.3198Z" fill="white"/>
<path d="M59.7236 33.3661C59.4907 33.2255 59.3044 33.1787 59.2112 33.1318C59.1181 33.1318 58.9783 33.1318 58.9317 33.2255C58.8386 33.3193 58.7919 33.4599 58.7454 33.6005C58.6988 33.7411 58.6987 33.9754 58.6987 34.3504C58.6987 34.9597 58.6522 35.3815 58.6056 35.569C58.559 35.7565 58.4658 35.8971 58.2795 35.9439C58.1397 35.9908 57.9069 35.9908 57.6274 35.8971C57.4411 35.8502 57.115 35.6627 56.7423 35.4284L56.5093 35.2878V34.1629C56.8354 34.3973 57.0684 34.491 57.1615 34.5379C57.2547 34.5379 57.3478 34.5379 57.3944 34.491C57.441 34.4441 57.4876 34.3035 57.4876 34.116C57.4876 33.9286 57.4875 33.5536 57.5341 33.0381C57.5341 32.71 57.5807 32.4756 57.6739 32.335C57.7205 32.1944 57.8136 32.0538 57.9534 32.0069C58.0465 31.9601 58.2329 31.9132 58.4192 31.9132C58.1863 31.632 58 31.3508 57.9069 31.1633C57.7671 30.8821 57.6739 30.554 57.5808 30.1791C57.5342 29.9447 57.5342 29.4291 57.4876 28.6792C57.4876 28.4449 57.441 28.2574 57.441 28.1637C57.3944 28.07 57.3479 27.9762 57.2081 27.8356C57.115 27.7419 56.8819 27.5544 56.5093 27.3201V26.1952L56.7423 26.3358C57.1615 26.617 57.4876 26.8514 57.7205 27.0388C57.9534 27.2263 58.1397 27.4607 58.2795 27.7419C58.4192 27.9762 58.559 28.2574 58.6056 28.5386C58.6522 28.8199 58.6987 29.1948 58.6987 29.7104C58.6987 30.2728 58.7454 30.6946 58.792 30.8821C58.8386 31.1633 58.9782 31.4445 59.118 31.632C59.2577 31.8195 59.4907 32.0069 59.7702 32.2413V33.3661H59.7236Z" fill="white"/>
<path d="M53.3428 24.2261L53.8087 23.9917V25.1166L53.3428 25.3509V24.2261Z" fill="#CACDDB"/>
<path d="M53.3428 32.2412L53.8087 31.96V33.1317L53.3428 33.366V32.2412Z" fill="#CACDDB"/>
<path d="M59.728 32.2414L60.1937 32.0071V33.1319L59.728 33.3663V32.2414Z" fill="#CACDDB"/>
<path d="M69.0835 54.8781L50.3107 44.4263C49.938 44.2388 48.9597 44.4263 48.9597 45.2699L49.4722 61.0648C49.4722 61.2523 49.5654 61.4398 49.7517 61.5804L68.1517 72.5009C68.5244 72.6883 69.3629 72.4071 69.3629 71.5166V55.3937C69.3629 55.1593 69.2698 54.9718 69.0835 54.8781Z" fill="#C20B1B"/>
<path d="M68.7102 55.1591L49.7974 44.6135C49.4248 44.3792 48.959 44.6604 48.959 45.1291V61.3927C48.959 61.5801 49.0521 61.8145 49.2385 61.9082L68.151 72.4538C68.5237 72.6881 68.9896 72.4069 68.9896 71.9382V55.6746C68.9896 55.4403 68.8965 55.2528 68.7102 55.1591Z" fill="url(#paint3_linear)"/>
<path d="M51.0078 48.0821L52.3122 48.7852V48.5977L51.0078 47.8947V48.0821Z" fill="white"/>
<path d="M52.5457 48.9255L53.617 49.5348V49.3473L52.5457 48.738V48.9255Z" fill="white"/>
<path d="M51.0073 48.5041L51.706 48.8791V48.6916L51.0073 48.3167V48.5041Z" fill="white"/>
<path d="M52.6821 49.4416L53.6135 49.9571V49.7697L52.6821 49.2542V49.4416Z" fill="white"/>
<path d="M51.7988 48.9255L52.5443 49.3473V49.1599L51.7988 48.738V48.9255Z" fill="white"/>
<path d="M51.0073 48.9255L53.616 50.3785V50.191L51.0073 48.738V48.9255Z" fill="white"/>
<path d="M51.0073 49.3479L51.8925 49.8165V49.6291L51.0073 49.1604V49.3479Z" fill="white"/>
<path d="M52.1716 50.0035L53.6157 50.8003V50.6128L52.1716 49.816V50.0035Z" fill="white"/>
<path d="M51.0073 49.7697L53.616 51.2227V51.0352L51.0073 49.5823V49.7697Z" fill="white"/>
<path d="M51.0073 50.191L51.6129 50.5191V50.3316L51.0073 50.0035V50.191Z" fill="white"/>
<path d="M51.7988 50.6132L52.5443 51.0351V50.8476L51.7988 50.4258V50.6132Z" fill="white"/>
<path d="M52.6821 51.0814L53.6135 51.6438V51.4563L52.6821 50.8939V51.0814Z" fill="white"/>
<path d="M51.0073 50.6132L52.3117 51.3163V51.1288L51.0073 50.4258V50.6132Z" fill="white"/>
<path d="M52.5457 51.4566L53.617 52.0659V51.8784L52.5457 51.2692V51.4566Z" fill="white"/>
<path d="M60.5043 58.3466L59.7124 58.8621L59.4329 58.4403C59.2465 58.3935 59.0602 58.2997 58.8273 58.206C57.5695 57.5029 56.5914 55.8156 56.5914 54.5033C56.5914 54.4096 56.5913 54.269 56.6379 54.1752L56.3584 53.7534L57.1037 53.2847C57.1503 53.2378 57.2435 53.191 57.2901 53.1441C57.7094 52.9566 58.2217 53.0035 58.8273 53.3784C60.085 54.0815 61.0633 55.7688 61.0633 57.0811C61.1099 57.6435 60.877 58.1122 60.5043 58.3466Z" fill="#B7BAC7"/>
<path d="M55.8018 61.2054C55.8018 60.7367 55.8949 60.3149 56.0812 59.9399L55.9881 59.6587C55.9881 59.6587 56.7334 59.19 56.78 59.1431L56.8732 59.0963C57.3856 58.815 58.0843 58.815 58.8297 59.2369C60.5067 60.2211 61.8576 62.8458 61.8111 64.6737L60.926 65.2361L58.9694 63.4082L59.3421 63.2676L55.8018 61.2054Z" fill="#B7BAC7"/>
<path d="M58.0399 53.8474C59.2976 54.5504 60.2758 56.2377 60.2758 57.55C60.2758 58.9092 59.251 59.3779 57.9933 58.6749C56.7356 57.9719 55.7573 56.2846 55.7573 54.9722C55.7573 53.6599 56.7822 53.1444 58.0399 53.8474Z" fill="white"/>
<path d="M57.9468 59.7999C59.6237 60.7373 60.9747 63.4088 60.9281 65.2367L54.9189 61.7684C54.9655 59.9405 56.3164 58.8625 57.9468 59.7999Z" fill="white"/>
<defs>
<linearGradient id="paint0_linear" x1="20.3899" y1="37.5714" x2="76.7511" y2="37.5714" gradientUnits="userSpaceOnUse">
<stop stop-color="#FFCC38"/>
<stop offset="1" stop-color="#FF9500"/>
</linearGradient>
<linearGradient id="paint1_linear" x1="-0.8424" y1="29.9397" x2="38.0168" y2="25.1969" gradientUnits="userSpaceOnUse">
<stop stop-color="#FFCC38"/>
<stop offset="1" stop-color="#FF9500"/>
</linearGradient>
<linearGradient id="paint2_linear" x1="63.5219" y1="29.0604" x2="46.539" y2="29.2205" gradientUnits="userSpaceOnUse">
<stop offset="8e-08" stop-color="#00A3FF"/>
<stop offset="1" stop-color="#1270E8"/>
</linearGradient>
<linearGradient id="paint3_linear" x1="48.9608" y1="58.5158" x2="69.0064" y2="58.5158" gradientUnits="userSpaceOnUse">
<stop offset="8e-08" stop-color="#FF3D49"/>
<stop offset="1" stop-color="#D80B1E"/>
</linearGradient>
</defs>
</svg>
