<svg width="16" height="16" viewBox="0 0 16 16" fill="none" xmlns="http://www.w3.org/2000/svg">
<path d="M11.4436 1.00009H13.5774C13.9547 1.00009 14.3166 1.14759 14.5833 1.41014C14.8501 1.67269 15 2.02878 15 2.40008V7.30005C15 7.67135 14.8501 8.02744 14.5833 8.28999C14.3166 8.55254 13.9547 8.70004 13.5774 8.70004H11.4436M6.46456 10.1V12.9C6.46456 13.457 6.68938 13.9911 7.08956 14.3849C7.48973 14.7788 8.03249 15 8.59842 15L11.4436 8.70004L11.4436 1.00009L3.42026 1.00009C3.07718 0.996272 2.74427 1.11461 2.48285 1.33328C2.22143 1.55196 2.04913 1.85625 1.99768 2.19008L1.01611 8.49004C0.985162 8.69069 0.998913 8.89556 1.05641 9.09046C1.11391 9.28536 1.21377 9.46563 1.34909 9.61877C1.48441 9.77192 1.65194 9.89428 1.84008 9.97738C2.02822 10.0605 2.23247 10.1023 2.43868 10.1L6.46456 10.1Z" stroke="#484848" stroke-linecap="round" stroke-linejoin="round"/>
</svg>
