<svg width="32" height="32" viewBox="0 0 32 32" fill="none" xmlns="http://www.w3.org/2000/svg">
<circle cx="16" cy="16" r="16" fill="#FFCA10"/>
<path fill-rule="evenodd" clip-rule="evenodd" d="M15.8368 6.09521C14.7608 6.09521 13.8886 6.96749 13.8886 8.0435V13.8882H8.0435C6.96749 13.8882 6.09521 14.7605 6.09521 15.8365C6.09521 16.9125 6.96749 17.7848 8.0435 17.7848H13.8886V23.6298C13.8886 24.7058 14.7608 25.5781 15.8368 25.5781C16.9128 25.5781 17.7851 24.7058 17.7851 23.6298V17.7848H23.6298C24.7058 17.7848 25.5781 16.9125 25.5781 15.8365C25.5781 14.7605 24.7058 13.8882 23.6298 13.8882H17.7851V8.0435C17.7851 6.96749 16.9128 6.09521 15.8368 6.09521Z" fill="white"/>
</svg>
