<svg width="40" height="40" viewBox="0 0 40 40" fill="none" xmlns="http://www.w3.org/2000/svg">
<path d="M40 20C40 31.0457 31.0457 40 20 40C8.9543 40 0 31.0457 0 20C0 8.9543 8.9543 0 20 0C31.0457 0 40 8.9543 40 20Z" fill="#ED1E24"/>
<path d="M22.4263 21.056H21.0223C18.8163 21.056 16.677 19.5202 16.677 15.6798C16.677 11.6801 18.6828 10.048 20.7214 10.048H22.4263V21.056ZM24.6323 8H20.822C17.0776 8 13.903 10.7205 13.903 16.0003C13.903 19.1682 15.4405 21.5043 18.1816 22.6557L13.067 31.4878C12.8997 31.7758 13.067 32 13.3341 32H15.7075C15.9078 32 16.0423 31.9361 16.109 31.7758L20.7553 23.104H22.4263V31.7758C22.4263 31.8722 22.5269 32 22.6604 32H24.7329C24.9332 32 25 31.9037 25 31.7443V8.31959C25 8.09632 24.8665 8 24.6323 8Z" fill="white"/>
</svg>
