<svg width="40" height="40" viewBox="0 0 40 40" fill="none" xmlns="http://www.w3.org/2000/svg">
<circle cx="20" cy="20" r="20" fill="#333333"/>
<path fill-rule="evenodd" clip-rule="evenodd" d="M17.7578 17.4501V16.514C17.4329 16.468 17.1053 16.4441 16.7772 16.4425C12.7645 16.4425 9.5 19.7076 9.5 23.7203C9.5 26.1817 10.7302 28.3606 12.6068 29.6782C11.3502 28.3344 10.6517 26.5631 10.6527 24.7234C10.6527 20.7679 13.8243 17.5424 17.7578 17.4501Z" fill="#00F2EA"/>
<path fill-rule="evenodd" clip-rule="evenodd" d="M17.9293 28.0467C19.7196 28.0467 21.1801 26.6225 21.2466 24.8476L21.2527 9.00316H24.1473C24.0855 8.67234 24.0542 8.33654 24.0538 8H20.1006L20.094 23.845C20.028 25.6194 18.567 27.043 16.7772 27.043C16.2399 27.0432 15.7106 26.9123 15.2354 26.6616C15.5422 27.0897 15.9466 27.4386 16.4151 27.6794C16.8835 27.9203 17.4026 28.0462 17.9293 28.0467ZM29.5545 14.3812V13.5006C28.4907 13.5016 27.4497 13.1921 26.5593 12.6101C27.34 13.509 28.3911 14.1304 29.555 14.3812" fill="#00F2EA"/>
<path fill-rule="evenodd" clip-rule="evenodd" d="M26.559 12.6095C25.6864 11.611 25.2057 10.3298 25.2063 9.00366H24.1471C24.2842 9.73663 24.5687 10.4341 24.9833 11.0539C25.3979 11.6738 25.9339 12.203 26.559 12.6095ZM16.777 20.3963C15.8959 20.3973 15.0512 20.7478 14.4281 21.3708C13.8051 21.9938 13.4547 22.8385 13.4536 23.7196C13.4542 24.3257 13.6204 24.9202 13.9343 25.4387C14.2482 25.9571 14.6978 26.38 15.2346 26.6615C14.8259 26.0979 14.6058 25.4195 14.6058 24.7234C14.6066 23.8422 14.957 22.9973 15.5801 22.3742C16.2031 21.751 17.0479 21.4005 17.9291 21.3995C18.2716 21.3995 18.5997 21.4561 18.9097 21.5534V17.5171C18.5849 17.4711 18.2572 17.4472 17.9291 17.4456C17.8714 17.4456 17.8148 17.4489 17.7576 17.45V20.5502C17.4405 20.4493 17.1098 20.3974 16.777 20.3963Z" fill="#FF004F"/>
<path fill-rule="evenodd" clip-rule="evenodd" d="M29.5546 14.3812V17.4539C27.5043 17.4539 25.6051 16.7981 24.0539 15.685V23.7197C24.0539 27.7323 20.79 30.9968 16.7773 30.9968C15.2267 30.9968 13.7887 30.5076 12.6069 29.6776C13.2864 30.4103 14.1098 30.9948 15.0257 31.3945C15.9416 31.7941 16.9302 32.0002 17.9294 32C21.9421 32 25.2066 28.7355 25.2066 24.7234V16.6887C26.8091 17.841 28.7335 18.4599 30.7072 18.4576V14.5032C30.3115 14.5032 29.9267 14.4603 29.5546 14.3806" fill="#FF004F"/>
<path fill-rule="evenodd" clip-rule="evenodd" d="M24.054 23.7196V15.685C25.6564 16.8374 27.5808 17.4563 29.5546 17.4539V14.3812C28.3909 14.1302 27.3399 13.5086 26.5594 12.6095C25.9343 12.203 25.3982 11.6738 24.9836 11.0539C24.5691 10.4341 24.2846 9.73663 24.1474 9.00366H21.2528L21.2468 24.8481C21.1803 26.6225 19.7198 28.0467 17.9295 28.0467C17.4027 28.0462 16.8837 27.9202 16.4152 27.6793C15.9468 27.4385 15.5424 27.0896 15.2355 26.6615C14.6987 26.3801 14.2489 25.9573 13.9349 25.4387C13.6209 24.9202 13.4546 24.3258 13.454 23.7196C13.455 22.8385 13.8055 21.9938 14.4285 21.3708C15.0515 20.7478 15.8963 20.3973 16.7774 20.3963C17.1193 20.3963 17.4474 20.4524 17.758 20.5502V17.45C13.8245 17.5424 10.6528 20.7679 10.6528 24.7234C10.6528 26.6362 11.396 28.3776 12.6069 29.6781C13.8277 30.5375 15.2845 30.9981 16.7774 30.9968C20.79 30.9968 24.054 27.7323 24.054 23.7196Z" fill="white"/>
</svg>
