<svg width="60" height="60" viewBox="0 0 60 60" fill="none" xmlns="http://www.w3.org/2000/svg">
<circle cx="30" cy="30" r="30" fill="#5068D4"/>
<path fill-rule="evenodd" clip-rule="evenodd" d="M23.2937 18.7081C23.3866 18.8012 23.4969 18.8751 23.6184 18.9255C23.7398 18.9759 23.8701 19.0018 24.0016 19.0018C24.1331 19.0018 24.2633 18.9759 24.3848 18.9255C24.5062 18.8751 24.6165 18.8012 24.7094 18.7081L30.0003 13.4153L35.2911 18.7081C35.3841 18.8011 35.4944 18.8748 35.6159 18.9251C35.7373 18.9754 35.8675 19.0013 35.999 19.0013C36.1304 19.0013 36.2606 18.9754 36.382 18.9251C36.5035 18.8748 36.6138 18.8011 36.7068 18.7081C36.7998 18.6152 36.8735 18.5048 36.9238 18.3833C36.9741 18.2619 37 18.1317 37 18.0003C37 17.8688 36.9741 17.7386 36.9238 17.6172C36.8735 17.4957 36.7998 17.3854 36.7068 17.2924L30.7081 11.2937C30.6152 11.2006 30.5049 11.1267 30.3834 11.0763C30.262 11.0259 30.1318 11 30.0003 11C29.8688 11 29.7385 11.0259 29.6171 11.0763C29.4956 11.1267 29.3853 11.2006 29.2924 11.2937L23.2937 17.2924C23.2006 17.3853 23.1267 17.4956 23.0763 17.6171C23.0259 17.7385 23 17.8688 23 18.0003C23 18.1318 23.0259 18.262 23.0763 18.3834C23.1267 18.5049 23.2006 18.6152 23.2937 18.7081Z" fill="white"/>
<path fill-rule="evenodd" clip-rule="evenodd" d="M30.0003 12.0015C29.7351 12.0015 29.4808 12.1069 29.2933 12.2944C29.1058 12.4819 29.0005 12.7361 29.0005 13.0013L29.0005 25.9985C29.0005 26.2636 29.1058 26.5179 29.2933 26.7054C29.4808 26.8929 29.7351 26.9983 30.0003 26.9983C30.2654 26.9983 30.5197 26.8929 30.7072 26.7054C30.8947 26.5179 31.0001 26.2636 31.0001 25.9985L31.0001 13.0013C31.0001 12.7361 30.8947 12.4819 30.7072 12.2944C30.5197 12.1069 30.2654 12.0015 30.0003 12.0015Z" fill="white"/>
<path d="M18.044 42.438C18.044 42.998 17.8993 43.4693 17.61 43.852C17.3207 44.2253 16.9287 44.51 16.434 44.706C15.9487 44.902 15.4167 45 14.838 45H10.036V35.06H15.356C15.8227 35.06 16.224 35.186 16.56 35.438C16.896 35.6807 17.1573 35.998 17.344 36.39C17.5307 36.782 17.624 37.1833 17.624 37.594C17.624 38.0793 17.5027 38.5367 17.26 38.966C17.0173 39.386 16.6627 39.6987 16.196 39.904C16.7653 40.072 17.2133 40.3753 17.54 40.814C17.876 41.2527 18.044 41.794 18.044 42.438ZM11.968 36.712V39.218H14.544C14.8613 39.218 15.1367 39.106 15.37 38.882C15.6033 38.658 15.72 38.35 15.72 37.958C15.72 37.5847 15.6127 37.286 15.398 37.062C15.1927 36.8287 14.936 36.712 14.628 36.712H11.968ZM16.098 42.074C16.098 41.71 15.986 41.3973 15.762 41.136C15.538 40.8747 15.2627 40.744 14.936 40.744H11.968V43.362H14.838C15.1927 43.362 15.4913 43.236 15.734 42.984C15.9767 42.732 16.098 42.4287 16.098 42.074ZM19.3696 45V37.664H23.4576C23.9616 37.664 24.3676 37.748 24.6756 37.916C24.993 38.084 25.2263 38.3033 25.3756 38.574C25.525 38.8447 25.5996 39.134 25.5996 39.442C25.5996 39.8527 25.5063 40.212 25.3196 40.52C25.133 40.828 24.853 41.066 24.4796 41.234C24.909 41.346 25.259 41.5513 25.5296 41.85C25.8003 42.1487 25.9356 42.536 25.9356 43.012C25.9356 43.7027 25.693 44.2067 25.2076 44.524C24.7316 44.8413 24.083 45 23.2616 45H19.3696ZM21.1476 40.716H22.9816C23.2336 40.716 23.439 40.6273 23.5976 40.45C23.7563 40.2633 23.8356 40.044 23.8356 39.792C23.8356 39.5493 23.7563 39.3487 23.5976 39.19C23.4483 39.022 23.2476 38.938 22.9956 38.938H21.1476V40.716ZM21.1476 43.726H23.2056C23.467 43.726 23.6816 43.6373 23.8496 43.46C24.027 43.2827 24.1156 43.0633 24.1156 42.802C24.1156 42.5407 24.0316 42.326 23.8636 42.158C23.6956 41.9807 23.481 41.892 23.2196 41.892H21.1476V43.726ZM30.7013 45.14C29.908 45.14 29.222 44.9673 28.6433 44.622C28.074 44.2767 27.6306 43.8193 27.3133 43.25C26.996 42.6713 26.8373 42.046 26.8373 41.374C26.8373 40.6833 26.9913 40.0487 27.2993 39.47C27.6166 38.882 28.0646 38.4153 28.6433 38.07C29.222 37.7153 29.9126 37.538 30.7153 37.538C31.518 37.538 32.204 37.7153 32.7733 38.07C33.3426 38.4153 33.7766 38.8773 34.0753 39.456C34.3833 40.0253 34.5373 40.6413 34.5373 41.304C34.5373 41.5467 34.5233 41.7567 34.4953 41.934H28.8253C28.872 42.5033 29.082 42.9513 29.4553 43.278C29.838 43.6047 30.2766 43.768 30.7713 43.768C31.1446 43.768 31.4946 43.6793 31.8213 43.502C32.1573 43.3153 32.386 43.0727 32.5073 42.774L34.1173 43.222C33.8466 43.782 33.4126 44.244 32.8153 44.608C32.218 44.9627 31.5133 45.14 30.7013 45.14ZM28.7833 40.744H32.6193C32.5633 40.1933 32.3533 39.75 31.9893 39.414C31.6346 39.0687 31.2006 38.896 30.6873 38.896C30.1833 38.896 29.7493 39.0687 29.3853 39.414C29.0306 39.75 28.83 40.1933 28.7833 40.744ZM40.0762 45.14C39.4975 45.14 38.9935 45.0093 38.5642 44.748C38.1348 44.4867 37.7988 44.1413 37.5562 43.712V47.982H35.6802V37.664H37.3182V38.924C37.5888 38.4947 37.9388 38.1587 38.3682 37.916C38.8068 37.664 39.3015 37.538 39.8522 37.538C40.5148 37.538 41.1028 37.7107 41.6162 38.056C42.1295 38.392 42.5355 38.8493 42.8342 39.428C43.1328 39.9973 43.2822 40.6273 43.2822 41.318C43.2822 42.0367 43.1422 42.6853 42.8622 43.264C42.5915 43.8333 42.2135 44.2907 41.7282 44.636C41.2522 44.972 40.7015 45.14 40.0762 45.14ZM39.4462 43.544C39.8288 43.544 40.1602 43.4413 40.4402 43.236C40.7295 43.0213 40.9535 42.746 41.1122 42.41C41.2802 42.0647 41.3642 41.7007 41.3642 41.318C41.3642 40.9073 41.2755 40.5387 41.0982 40.212C40.9208 39.876 40.6782 39.6147 40.3702 39.428C40.0715 39.232 39.7262 39.134 39.3342 39.134C38.9795 39.134 38.6248 39.2507 38.2702 39.484C37.9155 39.7173 37.6775 40.0113 37.5562 40.366V42.088C37.7242 42.4987 37.9808 42.844 38.3262 43.124C38.6715 43.404 39.0448 43.544 39.4462 43.544ZM45.7572 37.664L47.2972 39.96L47.4092 40.212L47.5492 39.96L49.0752 37.664H51.0492L48.5012 41.318L51.0912 45H49.1172L47.5352 42.718L47.4092 42.48L47.2972 42.718L45.7292 45H43.7552L46.3452 41.36L43.7972 37.664H45.7572Z" fill="white"/>
</svg>
