<svg width="16" height="16" viewBox="0 0 16 16" fill="none" xmlns="http://www.w3.org/2000/svg">
<path d="M4.55643 14.9999H2.42257C2.04528 14.9999 1.68345 14.8524 1.41666 14.5899C1.14988 14.3273 1 13.9712 1 13.5999V8.69995C1 8.32865 1.14988 7.97256 1.41666 7.71001C1.68345 7.44746 2.04528 7.29996 2.42257 7.29996H4.55643M9.53544 5.89997V3.09999C9.53544 2.54304 9.31062 2.0089 8.91044 1.61507C8.51027 1.22125 7.96751 1 7.40158 1L4.55643 7.29996V14.9999H12.5797C12.9228 15.0037 13.2557 14.8854 13.5172 14.6667C13.7786 14.448 13.9509 14.1437 14.0023 13.8099L14.9839 7.50996C15.0148 7.30931 15.0011 7.10444 14.9436 6.90954C14.8861 6.71464 14.7862 6.53437 14.6509 6.38123C14.5156 6.22808 14.3481 6.10572 14.1599 6.02262C13.9718 5.93952 13.7675 5.89767 13.5613 5.89997H9.53544Z" stroke="#484848" stroke-linecap="round" stroke-linejoin="round"/>
</svg>
