<svg width="174" height="178" viewBox="0 0 174 178" fill="none" xmlns="http://www.w3.org/2000/svg">
<path d="M37.2908 127.297L125.61 178L173.291 162.525L71.0651 109L37.2908 127.297Z" fill="url(#paint0_linear)"/>
<path d="M100.808 94.7987C94.4293 127.447 69.0385 140.956 44.0228 124.945C19.0071 108.934 3.8727 69.5309 10.2517 36.8828C16.6307 4.23481 42.0215 -9.27477 67.0372 6.73652C91.9278 22.6227 107.062 62.1507 100.808 94.7987Z" fill="url(#paint1_linear)"/>
<path d="M92.306 98.677C85.9271 131.325 60.5362 144.834 35.5207 128.948C10.5051 112.937 -4.62922 73.5342 1.74974 40.8862C8.1287 8.23825 33.5196 -5.27124 58.5351 10.6149C83.4256 26.5011 98.5599 65.9039 92.306 98.677Z" fill="url(#paint2_linear)"/>
<path d="M57.5342 64.1518L51.155 68.0296L49.0287 64.7772C47.5278 64.402 46.0269 63.7765 44.4009 62.7758C34.7698 57.2719 27.015 44.2628 27.015 33.8805C27.015 33.0048 27.1401 32.1293 27.2652 31.3787L25.0137 28.0013L30.8924 24.3738C31.3927 23.9986 31.8931 23.6233 32.5185 23.3731C35.6454 21.9971 40.0232 22.3724 44.6511 25.1243C54.2821 30.6282 62.037 43.6373 62.037 54.0196C62.1621 59.0232 60.411 62.4005 57.5342 64.1518Z" fill="#A2B1D1"/>
<path d="M20.8867 86.5414C20.8867 82.7888 21.7622 79.5365 23.013 76.7845L22.2626 74.5329C22.2626 74.5329 28.2664 70.9053 28.5165 70.6552L29.267 70.1549C33.3945 68.0284 38.7729 68.0283 44.5265 71.4057C57.5347 78.7859 68.0414 99.5505 67.9164 113.435L61.162 117.688L46.0276 103.678L49.0294 102.678L20.8867 86.5414Z" fill="#A2B1D1"/>
<path d="M38.0291 29.5027C47.66 35.1317 55.4149 48.0158 55.4149 58.3982C55.2898 68.7805 47.4098 72.6583 37.7789 67.1544C28.1479 61.6504 20.3931 48.6412 20.3931 38.2589C20.5181 27.8765 28.3981 23.9988 38.0291 29.5027Z" fill="#EBEAF1"/>
<path d="M37.6552 75.6606C50.6633 83.0408 61.17 103.806 61.0449 117.815L14.1406 90.7962C14.1406 76.7863 24.647 68.1553 37.6552 75.6606Z" fill="#EBEAF1"/>
<defs>
<linearGradient id="paint0_linear" x1="81.6389" y1="108.022" x2="123.588" y2="172.41" gradientUnits="userSpaceOnUse">
<stop stop-color="#DADDE4"/>
<stop offset="1" stop-color="#DADDE4" stop-opacity="0"/>
</linearGradient>
<linearGradient id="paint1_linear" x1="8.66195" y1="65.8382" x2="102.195" y2="65.8382" gradientUnits="userSpaceOnUse">
<stop offset="1.2e-07" stop-color="#E17D00"/>
<stop offset="1" stop-color="#E3AB2F"/>
</linearGradient>
<linearGradient id="paint2_linear" x1="0.175006" y1="69.6765" x2="93.7019" y2="69.6765" gradientUnits="userSpaceOnUse">
<stop stop-color="#FF9500"/>
<stop offset="1" stop-color="#FFCC38"/>
</linearGradient>
</defs>
</svg>
