<svg width="590" height="463" viewBox="0 0 590 463" fill="none" xmlns="http://www.w3.org/2000/svg">
<path d="M399.633 161.664V179.413V320.414C399.633 323.811 395.361 325.673 391.746 323.811L378.052 316.58L223.478 235.397C219.096 233.096 216.467 229.152 216.467 224.989V66.2389C216.467 62.8426 220.849 60.9801 224.354 62.8426L392.622 151.256C396.895 153.447 399.524 157.501 399.633 161.664Z" fill="#27449C"/>
<path d="M399.632 161.665V179.413L395.14 182.371L222.271 81.9062L216.575 77.5237V66.3489C216.575 62.9526 220.957 61.0899 224.462 62.9524L392.73 151.366C396.893 153.448 399.522 157.502 399.632 161.665Z" fill="#403E56"/>
<path d="M395.142 164.075V182.261V322.715C395.142 326.112 390.87 327.974 387.255 326.111L373.561 318.881L218.987 237.698C218.001 237.15 217.124 236.602 216.357 235.945C213.619 233.644 211.976 230.467 211.976 227.29V85.5216V68.6495C211.976 65.2532 216.358 63.3907 219.863 65.2532L388.131 153.667C392.404 155.858 395.033 159.912 395.142 164.075Z" fill="url(#paint0_linear)"/>
<path d="M395.033 164.075V182.261L211.867 85.5215V68.6495C211.867 65.2532 216.249 63.3907 219.754 65.2532L388.022 153.667C392.404 155.858 395.033 159.911 395.033 164.075Z" fill="#4A4A66"/>
<path opacity="0.25" d="M356.91 137.123L216.357 235.945C213.619 233.644 211.976 230.467 211.976 227.29V85.5216V68.6495C211.976 65.2532 216.358 63.3907 219.863 65.2532L356.91 137.123Z" fill="white"/>
<path d="M345.406 151.036L328.864 142.053C328.426 141.833 327.988 141.286 327.988 140.847C327.988 140.409 328.426 140.3 328.864 140.519L345.406 149.503C345.844 149.722 346.283 150.269 346.283 150.708C346.283 151.146 345.954 151.256 345.406 151.036Z" fill="white"/>
<path d="M384.51 172.4C384.291 172.291 383.962 172.072 383.853 171.743L373.336 154.761C373.007 154.323 373.117 153.775 373.445 153.775C373.774 153.666 374.322 153.994 374.65 154.542L385.167 171.524C385.496 171.962 385.386 172.51 385.058 172.51C384.948 172.51 384.729 172.51 384.51 172.4Z" fill="white"/>
<path d="M373.885 166.593C373.666 166.484 373.447 166.264 373.337 166.155C373.009 165.717 372.899 165.169 373.228 165.059L383.854 159.691C384.182 159.581 384.73 159.8 385.059 160.238C385.387 160.677 385.497 161.225 385.168 161.334L374.542 166.703C374.433 166.812 374.214 166.703 373.885 166.593Z" fill="white"/>
<path d="M359.205 158.596C355.151 156.405 351.974 151.694 351.974 148.188C351.974 144.682 355.261 143.586 359.314 145.777C363.367 147.969 366.544 152.68 366.544 156.185C366.544 159.691 363.258 160.787 359.205 158.596ZM359.314 147.311C356.247 145.668 353.727 146.435 353.727 149.174C353.727 151.913 356.247 155.418 359.205 157.062C362.272 158.705 364.792 157.938 364.792 155.199C364.792 152.57 362.381 148.955 359.314 147.311Z" fill="white"/>
<path d="M305.104 176.782L316.716 183.246V180.507L305.104 174.043V176.782Z" fill="white"/>
<path d="M333.045 192.449L348.711 201.323V198.584L333.045 189.819V192.449Z" fill="white"/>
<path d="M318.353 184.233L330.403 191.025V188.286L318.353 181.494V184.233Z" fill="white"/>
<path d="M305.104 182.919L348.705 207.46V204.721L305.104 180.18V182.919Z" fill="white"/>
<path d="M345.419 205.706L378.174 224.112V221.373L345.419 202.967V205.706Z" fill="white"/>
<path d="M304.998 189.052L319.349 197.05V194.311L305.107 186.313L304.998 189.052Z" fill="white"/>
<path d="M304.998 195.188L348.598 219.729V216.99L304.998 192.449V195.188Z" fill="white"/>
<path d="M304.998 201.324L314.967 207.021L315.076 204.282L304.998 198.584V201.324Z" fill="white"/>
<path d="M318.138 208.774L330.298 215.566V212.827L318.138 206.035V208.774Z" fill="white"/>
<path d="M304.889 207.46L326.142 219.402V216.663L304.889 204.721V207.46Z" fill="white"/>
<path d="M330.075 221.593L348.48 232.002L348.59 229.263L330.075 218.854V221.593Z" fill="white"/>
<path d="M259.749 145.229L281.001 157.171V154.432L259.749 142.49V145.229Z" fill="white"/>
<path d="M326.47 179.85L284.841 156.624V159.362L326.36 182.589L326.47 179.85Z" fill="white"/>
<path d="M287.578 167.033L305.654 177.112V174.374L287.688 164.294L287.578 167.033Z" fill="white"/>
<path d="M272.903 158.816L285.063 165.609V162.87L272.903 156.077V158.816Z" fill="white"/>
<path d="M259.64 157.501L305.65 183.247V180.508L259.64 154.762V157.501Z" fill="white"/>
<path d="M279.256 174.592L305.547 189.383L305.657 186.644L279.256 171.963V174.592Z" fill="white"/>
<path d="M317.477 196.065L343.878 210.855V208.116L317.477 193.326V196.065Z" fill="white"/>
<path d="M259.531 169.772L305.542 195.518V192.779L259.64 167.033L259.531 169.772Z" fill="white"/>
<path d="M259.531 175.906L269.609 181.493V178.864L259.531 173.167V175.906Z" fill="white"/>
<path d="M272.794 183.248L284.845 190.149L284.954 187.411L272.794 180.618V183.248Z" fill="white"/>
<path d="M286.92 191.246L305.544 201.654V198.915L286.92 188.616V191.246Z" fill="white"/>
<path d="M347.062 216.116V218.855L376.203 235.179V232.44L347.062 216.116Z" fill="white"/>
<path d="M259.531 182.042L280.784 193.983V191.244L259.531 179.303V182.042Z" fill="white"/>
<path d="M284.611 196.176L305.426 207.789L305.535 205.05L284.611 193.437V196.176Z" fill="white"/>
<path d="M234.883 133.289L247.043 140.191V137.452L234.992 130.55L234.883 133.289Z" fill="white"/>
<path d="M234.992 139.424L247.152 146.326V143.587L235.101 136.685L234.992 139.424Z" fill="white"/>
<path d="M235.207 145.778L247.366 152.57V149.831L235.207 143.039V145.778Z" fill="white"/>
<path d="M235.316 151.803L247.476 158.596V155.857L235.316 149.064V151.803Z" fill="white"/>
<path d="M235.436 158.159L247.595 165.061V162.322L235.436 155.42V158.159Z" fill="white"/>
<path d="M235.653 164.623L247.814 171.416V168.677L235.653 161.884V164.623Z" fill="white"/>
<path d="M235.977 170.757L248.027 177.659V174.92L235.977 168.018V170.757Z" fill="white"/>
<path d="M236.083 177.003L248.243 183.795V181.056L236.193 174.264L236.083 177.003Z" fill="white"/>
<path d="M236.083 184.342L248.243 191.135V188.396L236.193 181.604L236.083 184.342Z" fill="white"/>
<path d="M236.191 190.588L248.351 197.49V194.751L236.191 187.849V190.588Z" fill="white"/>
<path d="M236.312 196.943L248.472 203.735V200.996L236.421 194.204L236.312 196.943Z" fill="white"/>
<path d="M236.421 203.185L248.581 210.088V207.349L236.53 200.556L236.421 203.185Z" fill="white"/>
<path d="M236.636 209.651L248.796 216.444V213.705L236.636 206.912V209.651Z" fill="white"/>
<path d="M236.853 215.896L248.904 222.799L249.013 220.06L236.853 213.157V215.896Z" fill="white"/>
<path d="M261.392 131.754L263.035 132.631V130.987L261.392 130.111V131.754Z" fill="white"/>
<path d="M263.915 133.178L265.559 134.055V132.411L264.025 131.535L263.915 133.178Z" fill="white"/>
<path d="M266.316 134.384L267.959 135.26V133.617L266.316 132.74V134.384Z" fill="white"/>
<path d="M304.875 214.799L326.128 226.741V224.002L304.875 212.061V214.799Z" fill="white"/>
<path d="M347.048 238.573L368.301 250.515L368.41 247.776L347.158 235.834L347.048 238.573Z" fill="white"/>
<path d="M329.97 228.933L348.484 239.341V236.602L329.97 226.194V228.933Z" fill="white"/>
<path d="M304.875 220.936L316.378 227.4V224.661L304.875 218.197V220.936Z" fill="white"/>
<path d="M318.015 228.275L330.175 235.177V232.438L318.015 225.536V228.275Z" fill="white"/>
<path d="M304.766 227.07L348.366 251.611L348.476 248.872L304.766 224.331V227.07Z" fill="white"/>
<path d="M346.833 250.626L373.783 265.745V263.006L346.833 247.996V250.626Z" fill="white"/>
<path d="M304.766 233.205L319.007 241.203V238.464L304.766 230.466V233.205Z" fill="white"/>
<path d="M324.367 244.161L348.359 257.747V255.008L324.367 241.532V244.161Z" fill="white"/>
<path d="M304.766 239.341L348.366 263.882V261.143L304.766 236.602V239.341Z" fill="white"/>
<path d="M346.063 268.812L373.012 283.821V281.082L346.063 266.073V268.812Z" fill="white"/>
<path d="M304.659 245.476L314.738 251.064V248.325L304.659 242.737V245.476Z" fill="white"/>
<path d="M317.906 252.816L329.957 259.718L330.066 256.98L317.906 250.187V252.816Z" fill="white"/>
<path d="M332.046 260.814L348.259 270.017V267.278L332.046 258.075V260.814Z" fill="white"/>
<path d="M304.659 251.611L325.912 263.553V260.814L304.659 248.872V251.611Z" fill="white"/>
<path d="M329.738 265.744L348.252 276.152V273.413L329.738 263.005V265.744Z" fill="white"/>
<path d="M284.612 203.515L305.426 215.128V212.389L284.612 200.776V203.515Z" fill="white"/>
<path d="M259.408 195.408L271.02 201.981V199.242L259.408 192.669V195.408Z" fill="white"/>
<path d="M287.349 211.184L305.425 221.263V218.524L287.349 208.445V211.184Z" fill="white"/>
<path d="M272.562 202.857L284.722 209.759V207.02L272.672 200.118L272.562 202.857Z" fill="white"/>
<path d="M259.408 201.544L305.309 227.4V224.661L259.408 198.915V201.544Z" fill="white"/>
<path d="M278.917 218.743L305.319 233.533V230.794L278.917 216.004V218.743Z" fill="white"/>
<path d="M259.302 213.813L305.313 239.669V236.93L259.302 211.184V213.813Z" fill="white"/>
<path d="M272.456 227.399L284.616 234.301V231.562L272.456 224.66V227.399Z" fill="white"/>
<path d="M286.688 235.396L305.202 245.804V243.065L286.688 232.657V235.396Z" fill="white"/>
<path d="M259.193 226.085L280.445 238.136V235.397L259.193 223.456V226.085Z" fill="white"/>
<path d="M284.394 240.328L305.208 251.941V249.202L284.394 237.589V240.328Z" fill="white"/>
<path d="M242.656 123.1L233.344 115.321L233.454 113.897L242.985 116.526L242.875 118.17L236.302 116.088L242.766 121.347L242.656 123.1Z" fill="white"/>
<path d="M243.423 124.744L247.148 117.623L249.12 118.718L245.286 125.839L243.423 124.744Z" fill="white"/>
<path d="M249.669 127.045L249.779 125.401L256.461 127.373L249.998 122.115L250.108 120.471L259.419 128.25L259.309 129.674L249.669 127.045Z" fill="white"/>
<path d="M350.022 293.135L340.71 285.356L340.819 283.932L350.35 286.561L350.241 288.204L343.668 286.123L350.131 291.382L350.022 293.135Z" fill="white"/>
<path d="M350.895 294.668L354.619 287.547L356.591 288.643L352.757 295.764L350.895 294.668Z" fill="white"/>
<path d="M357.141 297.079L357.25 295.436L363.933 297.408L357.47 292.149L357.579 290.506L366.891 298.285V299.709L357.141 297.079Z" fill="white"/>
<path d="M504.803 49.2578L415.63 0.285334C414.096 -0.591132 410.043 0.50429 410.043 4.22927L412.891 72.8129C412.891 73.6894 413.329 74.5658 414.096 74.8945L501.845 126.058C503.379 126.935 506.775 125.51 506.775 121.566L506.117 51.3394C506.008 50.4629 505.57 49.696 504.803 49.2578Z" fill="#C20B1B"/>
<path d="M503.271 50.5723L413.44 1.27101C411.907 0.394544 409.935 1.70915 409.935 3.57165L410.592 74.3465C410.592 75.223 411.03 76.0994 411.797 76.5377L501.628 125.839C503.161 126.715 505.133 125.401 505.133 123.538L504.476 52.7635C504.476 51.887 504.038 51.0106 503.271 50.5723Z" fill="url(#paint1_linear)"/>
<path d="M430.307 45.9715L432.827 44.6567V50.9016L430.307 52.2163V45.9715Z" fill="#BCC9FB"/>
<path d="M465.696 46.0811L468.106 44.6567V50.9017L465.696 52.3261V46.0811Z" fill="#BCC9FB"/>
<path d="M465.696 90.0139L468.106 88.6992V94.9442L465.696 96.2589V90.0139Z" fill="#BCC9FB"/>
<path d="M432.83 50.9017V44.6568C434.145 45.4237 435.021 45.7524 435.678 45.8619C436.336 45.9715 436.883 45.7523 437.322 45.3141C437.76 44.8759 438.088 44.109 438.308 43.123C438.417 42.3561 438.527 40.9318 438.527 38.8502C438.527 35.4539 438.636 33.1532 438.965 32.0577C439.294 30.9621 439.841 30.1952 440.718 29.8665C441.485 29.5378 442.69 29.6474 444.333 30.1952C445.428 30.5239 447.072 31.4002 449.372 32.8245L450.796 33.701V39.9459C448.824 38.7407 447.619 38.0833 447.072 37.9737C446.524 37.8642 446.086 37.9738 445.867 38.1929C445.647 38.5216 445.428 39.1789 445.428 40.2745C445.428 41.3701 445.319 43.4517 445.209 46.4098C445.1 48.0531 444.881 49.3678 444.552 50.1347C444.223 51.0112 443.676 51.559 443.128 51.8877C442.58 52.2163 441.704 52.4355 440.499 52.4355C441.485 53.6406 442.361 54.8458 443.018 56.0509C443.676 57.2561 444.223 58.5707 444.552 59.8854C444.881 61.2001 445.1 62.8436 445.209 64.8156C445.319 67.7737 445.428 69.6361 445.428 70.5125C445.428 71.7177 445.538 72.5942 445.867 73.142C446.195 73.7994 446.524 74.3471 447.181 75.0045C447.729 75.5523 448.934 76.4288 450.796 77.6339V83.8787L449.372 83.0022C447.072 81.5779 445.209 80.2632 444.004 79.0581C442.799 77.8529 441.704 76.6479 440.827 75.2236C439.951 73.7994 439.403 72.3751 439.075 70.9509C438.746 69.5266 438.636 67.3354 438.636 64.5965C438.636 61.4193 438.527 59.2282 438.198 58.1326C437.869 56.4892 437.212 55.1744 436.445 54.0788C435.678 52.9832 434.364 51.9973 432.83 50.9017Z" fill="#BCC9FB"/>
<path d="M486.076 84.0981C484.761 83.3312 483.885 83.0025 483.228 82.8929C482.57 82.7834 482.023 83.0025 481.584 83.4408C481.146 83.879 480.817 84.6459 480.598 85.6319C480.489 86.3988 480.379 87.8231 480.379 89.7952C480.379 93.1915 480.27 95.4922 479.941 96.5877C479.612 97.7929 479.065 98.4502 478.298 98.7789C477.421 99.1076 476.326 98.998 474.683 98.4502C473.587 98.1216 471.944 97.245 469.643 95.8208L468.219 94.9444V88.6995C470.082 89.9047 471.287 90.5621 471.834 90.6717C472.382 90.7812 472.82 90.6716 473.149 90.4525C473.368 90.2334 473.587 89.4664 473.587 88.4804C473.587 87.3848 473.697 85.4128 473.806 82.5643C473.916 80.8113 474.135 79.4966 474.464 78.6202C474.792 77.7437 475.34 77.1959 475.997 76.7577C476.655 76.429 477.421 76.2098 478.407 76.3194C477.093 74.676 476.216 73.2518 475.559 72.1562C474.683 70.5129 474.135 68.6504 473.916 66.6783C473.697 65.3636 473.587 62.515 473.478 58.3518C473.478 57.0371 473.368 56.0511 473.149 55.5033C472.93 54.9555 472.492 54.2981 471.944 53.7503C471.396 53.2025 470.082 52.2165 468.11 51.0114V44.7666L469.534 45.6431C471.834 47.0674 473.697 48.3821 474.902 49.5872C476.107 50.7923 477.202 51.9974 478.079 53.4217C478.955 54.8459 479.503 56.2702 479.832 57.6944C480.16 59.1187 480.27 61.3099 480.27 64.0488C480.27 67.226 480.379 69.4172 480.708 70.5128C481.037 72.1561 481.694 73.471 482.461 74.5665C483.228 75.6621 484.433 76.7576 486.076 77.8532V84.0981Z" fill="#BCC9FB"/>
<path d="M430.307 52.2155V45.9708C431.622 46.7377 432.498 47.0664 433.156 47.176C433.813 47.2855 434.36 47.0664 434.799 46.6282C435.237 46.1899 435.566 45.4231 435.785 44.437C435.894 43.6701 436.004 42.2459 436.004 40.1643C436.004 36.768 436.113 34.5767 436.442 33.3716C436.771 32.276 437.318 31.5092 438.195 31.1805C438.962 30.8518 440.167 30.9614 441.81 31.5091C442.905 31.8378 444.549 32.7143 446.849 34.1386L448.273 35.0151V41.2598C446.301 40.0546 445.096 39.3974 444.549 39.2878C444.001 39.1783 443.563 39.2877 443.344 39.5068C443.124 39.8355 442.905 40.4929 442.905 41.5884C442.905 42.684 442.796 44.7656 442.686 47.7236C442.577 49.367 442.358 50.6818 442.029 51.4487C441.7 52.3252 441.153 52.8728 440.605 53.2015C440.057 53.5302 439.181 53.7493 437.976 53.7493C438.962 54.9545 439.838 56.1596 440.495 57.3648C441.153 58.5699 441.7 59.8846 442.029 61.1993C442.358 62.514 442.577 64.2669 442.686 66.1294C442.796 69.0874 442.905 70.95 442.905 71.8264C442.905 73.0316 443.015 73.9079 443.344 74.4557C443.672 75.1131 444.001 75.6608 444.658 76.3182C445.206 76.866 446.411 77.7425 448.383 78.9476V85.1925L446.959 84.316C444.658 82.8918 442.796 81.5771 441.591 80.3719C440.386 79.1668 439.29 77.9616 438.414 76.5373C437.537 75.1131 436.99 73.6888 436.661 72.2646C436.332 70.8403 436.223 68.6492 436.223 65.9102C436.223 62.7331 436.113 60.5419 435.785 59.4464C435.346 57.803 434.799 56.4884 434.032 55.3928C433.155 54.4068 431.95 53.3111 430.307 52.2155Z" fill="white"/>
<path d="M483.553 85.4124C482.238 84.6455 481.362 84.3168 480.705 84.2073C480.047 84.0977 479.5 84.3169 479.061 84.7551C478.623 85.1933 478.295 85.9602 478.076 86.9462C477.966 87.7131 477.856 89.1375 477.856 91.1095C477.856 94.5058 477.747 96.8065 477.418 97.9021C477.09 98.9976 476.542 99.7645 475.775 100.093C475.008 100.422 473.803 100.312 472.16 99.7645C471.064 99.4359 469.421 98.5595 467.121 97.1352L465.696 96.2588V90.0139C467.559 91.219 468.764 91.8764 469.312 91.986C469.859 92.0956 470.298 91.9859 470.626 91.7668C470.845 91.4382 471.064 90.7809 471.064 89.7949C471.064 88.6993 471.174 86.7271 471.284 83.8786C471.393 82.1257 471.612 80.811 471.941 79.9345C472.379 79.0581 472.817 78.5103 473.474 78.072C474.132 77.7434 474.899 77.5243 475.885 77.6339C474.57 75.9905 473.694 74.5663 473.036 73.3611C472.27 71.7177 471.612 69.8553 471.393 67.8832C471.174 66.5685 471.064 63.7199 470.955 59.5567C470.955 58.242 470.845 57.256 470.626 56.7082C470.407 56.1604 469.969 55.503 469.421 54.9552C468.873 54.4075 467.559 53.4214 465.587 52.2163V46.0811L467.011 46.9575C469.312 48.3818 471.174 49.6965 472.379 50.9016C473.584 51.9972 474.68 53.3118 475.556 54.7361C476.432 56.1603 476.98 57.5847 477.309 59.1185C477.637 60.5428 477.747 62.734 477.747 65.4729C477.747 68.6501 477.856 70.8412 478.185 71.9368C478.623 73.5802 479.171 74.8948 479.938 75.9904C480.705 77.086 481.91 78.1816 483.553 79.2772V85.4124Z" fill="white"/>
<path d="M448.279 35.1257L450.689 33.811V40.056L448.279 41.3708V35.1257Z" fill="#B1BCEB"/>
<path d="M448.279 79.168L450.689 77.7437V84.0982L448.279 85.4128V79.168Z" fill="#B1BCEB"/>
<path d="M483.544 79.1683L485.955 77.8535V84.0981L483.544 85.4127V79.1683Z" fill="#B1BCEB"/>
<path d="M586.968 264.54L462.41 196.066C460.219 194.861 454.632 196.285 454.632 201.544L458.576 297.298C458.576 298.612 459.233 299.708 460.219 300.256L582.805 371.688C584.996 372.893 589.707 370.811 589.597 365.443L588.721 267.388C588.721 266.183 588.063 265.088 586.968 264.54Z" fill="#EE8300"/>
<path d="M584.886 266.403L459.452 197.491C457.261 196.286 454.631 198.039 454.631 200.778L455.617 299.599C455.617 300.914 456.275 302.01 457.37 302.557L582.804 371.469C584.995 372.675 587.624 370.922 587.624 368.183L586.638 269.361C586.529 268.156 585.872 266.951 584.886 266.403Z" fill="url(#paint2_linear)"/>
<path d="M532.64 274.4L534.94 271.771L567.476 306.72L565.176 309.349L532.64 274.4Z" fill="#BCC9FB"/>
<path d="M531.979 302.228L534.279 299.598L554.546 303.98L555.094 307.267L531.979 302.228Z" fill="#BCC9FB"/>
<path d="M506.892 296.312L474.465 261.363L474.684 253.256L507.878 259.062L507.658 268.594L484.544 263.335L507.22 286.89L506.892 296.312Z" fill="white"/>
<path d="M509.745 304.638L522.891 261.144L529.792 265.416L516.537 308.801L509.745 304.638Z" fill="white"/>
<path d="M531.763 311.759L531.982 302.228L555.098 307.158L532.421 283.822L532.64 274.4L565.067 309.349L564.848 317.347L531.763 311.759Z" fill="white"/>
<path d="M565.168 309.348L567.469 306.719L567.25 314.716L564.949 317.455L565.168 309.348Z" fill="#B1BCEB"/>
<path d="M522.994 261.144L525.185 258.514L532.086 262.787L529.786 265.416L522.994 261.144Z" fill="#BCC9FB"/>
<path d="M516.53 308.8L518.83 306.171L532.085 262.786L529.785 265.415L516.53 308.8Z" fill="#B1BCEB"/>
<path d="M474.68 253.255L476.981 250.516L510.174 256.323L507.873 258.952L474.68 253.255Z" fill="#BCC9FB"/>
<path d="M507.654 268.483L509.955 265.854L510.174 256.323L507.873 258.952L507.654 268.483Z" fill="#B1BCEB"/>
<path d="M507.111 286.78L509.411 284.15L490.679 264.759L484.544 263.334L507.111 286.78Z" fill="#BCC9FB"/>
<path d="M506.897 296.312L509.198 293.683L509.417 284.151L507.117 286.781L506.897 296.312Z" fill="#B1BCEB"/>
<path d="M157.316 101.188L80.1936 59.2272C78.6599 58.3507 74.6064 59.4463 74.6064 63.1713L77.4548 131.755C77.4548 132.631 77.893 133.508 78.6599 133.836L154.249 177.988C155.783 178.865 159.179 177.441 159.179 173.497L158.521 103.27C158.521 102.393 158.083 101.517 157.316 101.188Z" fill="#EE8300"/>
<path d="M155.783 102.502L78.1121 60.2124C76.5784 59.3359 74.6064 60.6507 74.6064 62.5132L75.2637 133.288C75.2637 134.164 75.7019 135.041 76.4688 135.479L154.139 177.769C155.673 178.645 157.645 177.33 157.645 175.468L156.988 104.693C156.988 103.707 156.549 102.94 155.783 102.502Z" fill="url(#paint3_linear)"/>
<path d="M109.01 133.397C101.232 123.208 98.822 107.98 103.642 99.3247C104.738 97.3526 106.162 95.9284 107.695 94.9424C104.299 95.1615 101.232 97.1335 99.1506 100.858C94.2209 109.733 96.6309 125.4 104.738 135.917C111.858 145.23 120.951 147.311 126.428 141.395C121.061 143.258 114.487 140.519 109.01 133.397Z" fill="#BCC9FB"/>
<path d="M132.891 119.482C133.329 121.564 133.658 123.755 133.877 125.837C133.658 123.755 133.329 121.674 132.891 119.482Z" fill="url(#paint4_linear)"/>
<path d="M126.535 147.75L127.521 150.708L132.67 148.955L131.684 145.997L126.535 147.75Z" fill="#B1BCEB"/>
<path d="M105.935 86.9448L106.92 89.9032L112.069 88.1501L111.083 85.1919L105.935 86.9448Z" fill="#B1BCEB"/>
<path d="M132.012 140.739C130.698 143.916 128.835 146.217 126.535 147.751L131.793 145.998C133.327 145.012 134.641 143.588 135.846 141.725L134.094 142.383L132.012 140.739Z" fill="#BCC9FB"/>
<path d="M112.069 88.1504L106.81 89.9033C109.549 89.9033 112.507 90.7798 115.574 92.5327L116.122 90.0128L117.985 89.3555C116.013 88.5886 114.041 88.1504 112.069 88.1504Z" fill="#BCC9FB"/>
<path d="M133.982 142.382L135.735 141.834L139.131 140.739L141.103 132.083L135.844 133.836L133.982 142.382Z" fill="#BCC9FB"/>
<path d="M133.873 132.082L135.845 133.835L141.103 132.082L139.131 130.439L133.873 132.082Z" fill="#B1BCEB"/>
<path d="M122.474 98.4492L127.733 96.806L128.28 94.2861L123.022 95.9295L122.474 98.4492Z" fill="#B1BCEB"/>
<path d="M134.749 118.936L132.997 119.484C133.435 121.566 133.763 123.757 133.983 125.838C134.202 127.92 134.202 130.002 133.983 132.083L139.241 130.33C139.57 126.277 139.131 122.004 138.255 117.731L134.749 118.936Z" fill="#BCC9FB"/>
<path d="M127.732 96.8057L122.474 98.5585C125.103 101.626 127.513 105.242 129.376 109.405L134.744 107.871C132.772 103.598 130.471 99.8733 127.732 96.8057Z" fill="#BCC9FB"/>
<path d="M131.244 108.747L134.75 118.936L138.145 117.841L139.898 117.293L136.393 106.994L131.244 108.747Z" fill="#B1BCEB"/>
<path d="M133.214 119.374L134.638 118.935L131.133 108.747L129.708 109.185C128.284 106.007 126.531 103.049 124.45 100.31C123.793 99.5436 123.245 98.7767 122.588 98.0098L123.026 96.0377L116.124 90.1216L115.686 92.2033C112.619 90.4503 109.551 89.4642 106.703 89.5738L105.827 86.9443L99.5822 88.8068L100.459 91.5458C98.7058 92.7509 97.0626 94.5039 95.8575 96.695C95.5289 97.3524 95.2003 98.0098 94.8716 98.6672L93.1188 97.1333L91.147 105.679L92.8996 107.103C92.571 111.157 92.8998 115.649 93.8857 120.031L92.4615 120.469L95.967 130.768L97.3912 130.33C98.8154 133.507 100.568 136.465 102.65 139.204C103.307 139.971 103.855 140.738 104.512 141.505L104.074 143.476L110.975 149.393L111.414 147.311C114.481 149.174 117.548 150.05 120.397 149.94L121.273 152.57L127.517 150.707L126.641 147.968C128.394 146.763 130.037 145.01 131.242 142.819C131.571 142.162 131.899 141.504 132.228 140.847L133.981 142.381L135.953 133.835L134.2 132.411C134.529 128.248 134.2 123.866 133.214 119.374ZM128.065 138.766C123.135 147.64 112.619 146.325 104.512 135.917C96.5149 125.399 93.9952 109.733 98.9249 100.858C103.855 91.9841 114.372 93.2987 122.478 103.707C130.585 114.224 133.104 129.891 128.065 138.766Z" fill="white"/>
<path d="M118.09 89.4653L116.228 90.1226L123.02 95.929L128.278 94.2856L121.377 88.3696L118.09 89.4653Z" fill="#BCC9FB"/>
<path d="M248.466 329.619C245.727 333.453 230.5 329.619 230.5 317.786C230.5 308.474 240.688 280.208 246.823 283.385C251.205 285.576 256.901 304.749 256.901 304.749C256.792 307.049 256.354 309.35 255.587 311.541C253.396 317.129 249.123 328.633 248.466 329.619Z" fill="#FF8E90"/>
<path d="M314.188 239.451C315.722 235.946 316.16 232.002 313.312 229.482C309.587 226.195 295.784 236.055 290.416 240.438C281.433 247.559 249.554 265.526 249.554 265.526C249.554 265.526 243.2 259.829 239.037 259.062C228.302 257.09 225.234 260.815 221.729 262.13C218.771 263.226 218.332 263.554 215.375 262.568C205.953 259.72 200.257 261.363 195.108 263.883C194.122 264.431 190.945 266.622 189.85 266.512C177.142 264.321 169.473 271.771 165.749 275.058C149.097 289.958 131.788 323.921 99.5808 341.341L140.662 395.134C140.662 395.134 200.476 365.991 212.307 359.966C215.703 358.213 219.209 357.008 222.934 356.35C234.546 354.159 260.947 349.229 270.04 348.133C282.638 346.49 298.304 345.613 296.989 338.383C295.784 332.028 292.716 330.714 286.363 328.522C272.888 323.811 257.551 328.632 246.377 325.017C240.023 322.935 237.613 314.28 241.776 308.145C247.144 300.147 265 284.261 280.337 272.1C288.006 265.636 310.902 247.011 314.188 239.451Z" fill="#FFB3B4"/>
<path d="M241.778 307.815C238.491 312.745 239.258 319.319 242.983 322.825C235.095 317.456 237.177 310.445 238.71 306.391C241.778 297.845 254.266 287.328 261.278 281.85C272.78 272.647 274.752 271.113 286.912 262.677C289.432 260.924 296.114 254.679 302.249 248.982C309.479 242.19 315.833 235.506 313.423 229.59C316.271 232.22 315.833 236.054 314.3 239.56C311.013 247.12 288.117 265.745 280.449 271.88C265.002 283.931 247.146 299.817 241.778 307.815Z" fill="#FF8E90"/>
<path d="M158.513 372.018C167.934 370.156 171.659 367.088 180.313 363.144C187.105 360.076 194.007 355.475 220.737 350.216C226.214 349.12 259.517 345.834 269.048 345.176C274.964 344.738 302.461 347.477 294.464 332.467C295.778 334.111 296.655 335.973 296.983 338.164C297.86 345.505 282.632 346.381 270.034 347.915C260.942 349.12 234.65 353.941 222.928 356.132C219.203 356.789 215.588 358.104 212.302 359.748C200.47 365.773 171.659 380.564 166.729 381.55C155.884 383.741 149.749 383.303 138.137 372.347C145.038 373.223 151.83 373.333 158.513 372.018Z" fill="#FF8E90"/>
<path d="M12.1553 356.022L86.1012 314.609C93.7696 310.336 104.286 310.993 115.899 317.786C139.452 331.371 158.513 364.458 158.513 391.628C158.513 405.323 153.584 414.964 145.806 419.347L71.9694 460.76L12.1553 356.022Z" fill="url(#paint5_linear)"/>
<path d="M42.7247 359.309C66.2779 372.894 85.2301 405.761 85.1205 432.822C85.011 459.883 65.9492 470.73 42.3961 457.144C18.8429 443.559 -0.109077 410.692 0.000472541 383.631C0.110022 356.679 19.1716 345.723 42.7247 359.309Z" fill="#27449C"/>
<defs>
<linearGradient id="paint0_linear" x1="208.005" y1="195.685" x2="396.214" y2="172.574" gradientUnits="userSpaceOnUse">
<stop offset="8e-08" stop-color="#00A3FF"/>
<stop offset="1" stop-color="#1270E8"/>
</linearGradient>
<linearGradient id="paint1_linear" x1="504.581" y1="61.7185" x2="410.523" y2="62.611" gradientUnits="userSpaceOnUse">
<stop offset="8e-08" stop-color="#FF3D49"/>
<stop offset="1" stop-color="#D80C1E"/>
</linearGradient>
<linearGradient id="paint2_linear" x1="586.703" y1="281.913" x2="455.342" y2="283.159" gradientUnits="userSpaceOnUse">
<stop stop-color="#FF9500"/>
<stop offset="1" stop-color="#FFCC38"/>
</linearGradient>
<linearGradient id="paint3_linear" x1="157.163" y1="117.335" x2="75.1802" y2="118.113" gradientUnits="userSpaceOnUse">
<stop stop-color="#FF9500"/>
<stop offset="1" stop-color="#FFCC38"/>
</linearGradient>
<linearGradient id="paint4_linear" x1="132.662" y1="122.564" x2="134.124" y2="122.675" gradientUnits="userSpaceOnUse">
<stop stop-color="#C7CFE7"/>
<stop offset="1" stop-color="#6878C2"/>
</linearGradient>
<linearGradient id="paint5_linear" x1="178.633" y1="414.745" x2="-131.48" y2="318.7" gradientUnits="userSpaceOnUse">
<stop offset="8e-08" stop-color="#00A3FF"/>
<stop offset="1" stop-color="#1270E8"/>
</linearGradient>
</defs>
</svg>
