<svg width="287" height="202" viewBox="0 0 287 202" fill="none" xmlns="http://www.w3.org/2000/svg">
<path d="M286.291 143.585L181.863 202L71.8643 143.404L170.54 86.0706L286.291 143.585Z" fill="url(#paint0_linear)"/>
<path d="M162.801 64.6187C125.056 44.606 64.4844 45.6877 27.6382 66.7821C-9.38774 87.8766 -8.66866 121.231 28.8965 141.244C66.6414 161.257 127.213 160.175 164.059 139.08C201.085 117.805 200.546 84.6314 162.801 64.6187Z" fill="white"/>
<path d="M162.081 64.9808C124.696 45.3287 64.8433 46.2304 28.3566 67.1446C-8.13012 88.0588 -7.59091 121.053 29.6148 140.705C67.0002 160.357 126.853 159.455 163.339 138.541C200.006 117.807 199.467 84.8133 162.081 64.9808Z" fill="#FBFCFC"/>
<path d="M161.356 65.5201C124.51 46.0483 65.1964 46.95 29.0692 67.6838C-7.05803 88.4177 -6.51882 121.051 30.3274 140.523C67.1735 159.994 126.487 159.093 162.614 138.359C198.921 117.625 198.202 84.9919 161.356 65.5201Z" fill="#F8F8F9"/>
<path d="M160.636 65.8817C124.149 46.5903 65.5547 47.4917 29.7869 68.0452C-5.98081 88.5987 -5.4416 120.691 31.0451 140.163C67.5318 159.454 126.126 158.553 161.894 137.999C197.662 117.446 197.122 85.1732 160.636 65.8817Z" fill="#F4F5F5"/>
<path d="M159.933 66.2404C123.806 47.1292 65.9305 48.0306 30.5223 68.4038C-4.88602 88.5967 -4.34681 120.509 31.7804 139.62C67.9076 158.731 125.783 157.829 161.191 137.456C196.6 117.263 196.06 85.3515 159.933 66.2404Z" fill="#F1F1F2"/>
<path d="M159.215 66.6014C123.627 47.6706 66.2911 48.572 31.2423 68.7648C-3.80644 88.7774 -3.08749 120.329 32.5005 139.259C68.2682 158.19 125.425 157.289 160.474 137.096C195.522 117.083 194.983 85.5322 159.215 66.6014Z" fill="#EDEEEF"/>
<path d="M158.491 67.1437C123.263 48.3931 66.6453 49.4749 31.956 69.127C-2.55357 88.9593 -2.01436 120.15 33.2142 138.721C68.4427 157.471 125.06 156.389 159.749 136.737C194.259 116.905 193.72 85.714 158.491 67.1437Z" fill="#EAEAEC"/>
<path d="M157.769 67.5027C122.9 49.1128 67.0019 50.0143 32.8518 69.486C-1.29838 89.138 -0.759171 119.788 34.1099 138.358C68.979 156.748 124.877 155.847 159.028 136.375C193.178 116.723 192.638 85.8927 157.769 67.5027Z" fill="#E6E7E9"/>
<path d="M157.044 67.8646C122.534 49.6549 67.355 50.5564 33.5644 69.8478C-0.226285 89.1393 0.312923 119.609 34.8225 137.819C69.3321 156.028 124.512 155.127 158.302 135.836C192.093 116.544 191.554 86.0743 157.044 67.8646Z" fill="#E2E3E5"/>
<path d="M156.324 68.4042C122.353 50.3747 67.5333 51.2762 34.2819 70.3874C0.850698 89.4987 1.3899 119.608 35.54 137.637C69.5104 155.667 124.33 154.765 157.582 135.654C190.833 116.362 190.294 86.4336 156.324 68.4042Z" fill="#DFE0E2"/>
<path d="M155.599 68.7657C121.988 50.9166 67.8872 51.818 34.9953 70.749C2.10337 89.6799 2.46284 119.428 36.2535 137.097C69.8643 154.946 123.965 154.045 156.857 135.114C189.749 116.363 189.21 86.6149 155.599 68.7657Z" fill="#DBDCDF"/>
<path d="M154.881 69.1253C121.63 51.6367 68.2481 52.3579 35.7156 71.1085C3.18316 89.6789 3.72236 119.067 36.9738 136.736C70.2252 154.224 123.607 153.503 156.14 134.753C188.672 116.002 188.133 86.7942 154.881 69.1253Z" fill="#D8D9DC"/>
<path d="M154.172 69.6667C121.28 52.3585 68.6167 53.0797 36.4438 71.6499C4.27076 90.0398 4.80993 119.067 37.5221 136.375C70.4141 153.683 123.077 152.962 155.25 134.392C187.423 116.002 187.064 86.9749 154.172 69.6667Z" fill="#D4D5D9"/>
<path d="M153.451 70.0278C121.098 52.8999 68.9745 53.8014 37.161 71.8309C5.34749 90.0406 5.88666 118.707 38.2394 135.835C70.5921 152.963 122.716 152.062 154.529 134.032C186.343 115.823 185.804 87.1558 153.451 70.0278Z" fill="#D1D2D6"/>
<path d="M152.726 70.3867C120.733 53.439 69.3277 54.3406 37.8736 72.1898C6.41958 90.2193 6.95875 118.526 38.952 135.293C70.9453 152.241 122.35 151.339 153.804 133.49C185.258 115.641 184.719 87.3345 152.726 70.3867Z" fill="#CDCED2"/>
<path d="M152.006 70.7486C120.373 53.9813 69.6865 54.8826 38.592 72.5514C7.6771 90.2203 8.03666 118.166 39.6705 134.933C71.3043 151.701 121.99 150.799 153.085 133.13C184.179 115.462 183.64 87.516 152.006 70.7486Z" fill="#C9CBCF"/>
<path d="M151.305 71.2878C120.031 54.7008 70.0642 55.6023 39.5088 73.0908C8.95345 90.5793 9.49261 118.164 40.5872 134.751C71.8615 151.338 121.829 150.437 152.384 132.948C182.939 115.279 182.4 87.6945 151.305 71.2878Z" fill="#C6C7CC"/>
<path d="M150.585 71.6504C119.85 55.424 70.4222 56.145 40.2263 73.4532C10.0304 90.7615 10.5696 117.986 41.3047 134.213C72.0398 150.439 121.468 149.718 151.663 132.41C181.859 115.101 181.32 87.8769 150.585 71.6504Z" fill="#C2C4C9"/>
<path d="M149.86 72.0116C119.484 55.9654 70.7751 56.6867 40.9387 73.8147C11.1023 90.9427 11.6414 117.626 42.0171 133.853C72.3927 149.899 121.102 149.178 150.938 132.05C180.774 114.922 180.235 88.0579 149.86 72.0116Z" fill="#BFC0C6"/>
<path d="M149.14 72.5516C119.124 56.6858 70.9545 57.4071 41.6573 74.3546C12.3601 91.1219 12.7195 117.625 42.7357 133.491C72.7518 149.357 120.922 148.635 150.219 131.688C179.516 114.74 179.156 88.4174 149.14 72.5516Z" fill="#BBBDC2"/>
<path d="M148.415 72.9114C118.938 57.2258 71.3076 57.9469 42.3699 74.534C13.4322 91.1211 13.7916 117.264 43.4482 132.949C72.9251 148.635 120.556 147.914 149.493 131.327C178.431 114.74 177.892 88.597 148.415 72.9114Z" fill="#B8B9BF"/>
<path d="M147.697 73.2747C118.579 57.7694 71.6679 58.6708 43.0897 74.8972C14.5114 91.304 15.0507 117.086 44.1682 132.411C73.2856 147.916 120.197 147.015 148.775 130.788C177.354 114.562 176.814 88.7799 147.697 73.2747Z" fill="#B4B6BC"/>
<path d="M42.9202 54.5213C72.2174 37.5736 119.668 37.5736 148.965 54.5213C163.164 62.8149 170.534 73.6326 170.893 84.4503C171.073 90.5803 171.073 96.7103 170.893 103.021C170.534 113.838 163.164 124.656 148.965 132.95C119.668 149.897 72.2174 149.897 42.9202 132.95C28.5412 124.656 21.3517 113.838 20.9922 103.021C20.8125 96.8906 20.8125 90.7606 20.9922 84.4503C21.3517 73.6326 28.5412 62.8149 42.9202 54.5213Z" fill="#B7BAC7"/>
<path d="M42.929 54.5213C13.6318 71.4689 13.6318 99.0539 42.929 116.002C72.2262 132.949 119.677 132.949 148.974 116.002C178.271 99.0539 178.271 71.4689 148.974 54.5213C119.677 37.5736 72.2262 37.5736 42.929 54.5213Z" fill="#EBEAF1"/>
<path d="M144.47 58.4885C117.33 43.7044 73.4741 43.7044 46.5135 58.4885C19.3731 73.2726 19.3731 97.2518 46.5135 111.856C73.6538 126.64 117.51 126.64 144.47 111.856C171.611 97.0715 171.611 73.0923 144.47 58.4885Z" fill="#B7BAC7"/>
<path d="M139.798 64.7993C115.354 51.4575 75.8114 51.4575 51.5468 64.7993C27.1026 78.141 27.1026 99.5959 51.5468 112.938C75.9911 126.279 115.533 126.279 139.798 112.938C164.062 99.5959 164.062 78.141 139.798 64.7993Z" fill="url(#paint1_linear)"/>
<path d="M150.564 34.3286V84.09C150.564 92.2033 145.352 100.497 134.927 106.627L134.748 53.8004C134.927 53.8004 150.564 42.4419 150.564 34.3286Z" fill="url(#paint2_linear)"/>
<path d="M121.087 31.2647C121.087 30.7238 121.087 30.3632 120.907 29.8223C120.907 29.2814 120.727 28.9208 120.548 28.3799C118.211 21.8893 110.123 19.0046 104.012 17.9228C97.0018 16.6608 89.4529 17.2018 82.9824 19.7259C81.7242 20.2668 80.6459 20.8076 79.3877 21.3485V75.0761C80.4661 74.355 81.7242 73.8139 82.9824 73.4533C89.4529 70.9292 96.8222 70.3883 103.652 71.4701C109.584 72.5518 116.953 75.0761 120.008 80.6652C120.188 81.2061 120.547 81.5667 120.727 82.1076C120.727 82.2879 120.907 82.4681 121.087 82.8286V31.2647Z" fill="url(#paint3_linear)"/>
<path d="M134.927 88.0569L113.898 75.7969V42.6223L134.927 54.8824V88.0569Z" fill="#EE8300"/>
<path d="M79.3885 80.3031L58.3594 68.043V10.3489L79.3885 22.609V80.3031Z" fill="#EE8300"/>
<path d="M135.285 10.3497C155.236 24.5928 156.314 42.6223 135.105 55.0625L114.076 42.8025C123.602 37.2134 123.782 28.1987 114.256 22.7899C104.73 17.3811 89.2721 17.2008 79.746 22.7899L58.7168 10.5301C79.5663 -2.09039 113.896 -4.79496 135.285 10.3497Z" fill="#FF9B00"/>
<path d="M79.3925 28.0172V74.5331L79.033 74.8938C77.2356 75.9756 75.7977 77.2376 74.7193 78.4997V80.1225L72.3827 83.007L64.2944 93.1038V19.3628L79.3925 28.0172Z" fill="#C20B1B"/>
<path d="M58.3706 15.7578L79.3999 28.0177C71.6712 32.525 69.8737 39.0152 74.7267 44.4239L47.9457 52.3568C37.1614 39.9167 41.2955 25.6738 58.3706 15.7578Z" fill="url(#paint4_linear)"/>
<path d="M42.1886 39.9176V40.0981C42.1886 40.4586 42.3684 40.9994 42.3684 41.36V41.5404C42.3684 42.0813 42.548 42.4418 42.7278 42.8024C42.7278 42.9827 42.7278 42.9827 42.7278 43.163C42.9075 43.5236 43.0872 44.0644 43.0872 44.425V44.6054C43.2669 45.1463 43.4468 45.5069 43.6265 46.0478C43.8062 46.5887 44.1656 46.949 44.3453 47.4899C44.3453 47.4899 44.3454 47.6704 44.5251 47.6704C44.5251 47.8507 44.7049 48.0311 44.7049 48.0311C44.7049 48.2114 44.8845 48.3916 45.0643 48.5719C45.0643 48.7522 45.244 48.9323 45.244 48.9323C45.4238 49.1126 45.4237 49.2929 45.6035 49.4732C45.7832 49.6535 45.7833 49.6536 45.963 49.8339C46.1427 50.0142 46.1427 50.1944 46.3224 50.3747C46.5021 50.555 46.5022 50.5551 46.682 50.7354C46.8617 50.9157 46.8616 50.9158 47.0414 51.0961C47.4008 51.4566 47.5806 51.8172 47.9401 52.1778V98.6939C47.5806 98.3333 47.2211 97.9728 47.0414 97.6122C47.0414 97.6122 47.0415 97.612 46.8617 97.4317L46.682 97.2515C46.5022 97.0712 46.5021 97.0711 46.3224 96.8908C46.1427 96.7105 46.1427 96.5303 45.963 96.35C45.7833 96.1697 45.7832 96.1696 45.6035 95.9893C45.4237 95.809 45.4238 95.6287 45.244 95.4484C45.0643 95.2682 45.0644 95.0878 44.8846 95.0878C44.8846 94.9075 44.7048 94.7272 44.5251 94.5469C44.5251 94.3666 44.3453 94.3668 44.3453 94.1865C44.3453 94.1865 44.3453 94.1864 44.3453 94.0061C44.3453 94.0061 44.3453 94.0062 44.3453 93.8259C44.1656 93.285 43.8062 92.9244 43.6265 92.3835C43.4468 91.8426 43.2669 91.482 43.0872 90.9411C43.0872 90.9411 43.0872 90.9412 43.0872 90.7609C42.9075 90.4003 42.7278 89.8593 42.7278 89.4987V89.3185C42.548 88.9579 42.5481 88.4169 42.3684 88.0563C42.3684 88.0563 42.3684 88.0564 42.3684 87.8761C42.3684 87.5155 42.1886 86.9748 42.1886 86.6142V86.4337C42.1886 85.8928 42.1886 85.5324 42.0088 85.1718C42.0088 85.1718 42.0088 85.1716 42.0088 84.9913C42.0088 84.811 41.829 84.6307 41.829 84.4504L41.6494 37.9343C41.6494 38.1146 41.829 38.2949 41.829 38.4752C42.0088 39.1964 42.0089 39.557 42.1886 39.9176Z" fill="url(#paint5_linear)"/>
<path d="M74.8916 90.7615V91.1222L48.2905 98.8747H48.1108V98.6945V70.5688V52.359V52.1788L64.287 47.3108L74.7118 44.2458L74.8916 71.8307V78.3213V80.1243V90.7615Z" fill="#C20B1B"/>
<path d="M52.2447 72.9111C63.5682 82.4668 80.2838 88.2363 94.8425 88.4165H95.202V116.002C95.202 116.002 93.9438 116.002 93.4046 116.002C78.6661 115.461 61.7709 111.675 50.6272 101.398C49.7285 100.677 49.0095 99.7752 48.1108 98.8737V68.9446C49.369 70.2066 50.8068 71.649 52.2447 72.9111Z" fill="#EE8300"/>
<path d="M95.2078 68.5849V88.2366H94.8484C80.4694 88.2366 63.5741 82.287 52.2507 72.7316C50.633 71.4695 49.1952 70.0273 47.937 68.5849L74.7178 60.6521C78.8518 65.52 86.7602 68.4047 95.2078 68.5849Z" fill="url(#paint6_linear)"/>
<path d="M97.7361 96.7108C109.779 97.0714 122.72 94.0063 133.324 88.4172C133.864 88.0566 134.403 87.8762 134.942 87.5156V106.627C124.158 112.937 111.217 115.461 98.8147 115.822C97.5565 115.822 96.6577 115.822 95.04 115.822V96.7108C96.6577 96.7108 97.0172 96.7108 97.7361 96.7108Z" fill="#C20B1B"/>
<path d="M113.911 75.2556L134.941 87.5154C134.401 87.876 133.862 88.0563 133.323 88.4169C122.898 94.006 109.777 97.2513 97.7351 96.7105C96.8364 96.7105 95.9377 96.7105 95.2188 96.7105V79.4023C99.3527 79.5826 103.666 79.0416 107.621 77.9599C110.137 77.0584 111.934 76.3374 113.911 75.2556Z" fill="url(#paint7_linear)"/>
<defs>
<linearGradient id="paint0_linear" x1="123.731" y1="105.263" x2="226.347" y2="175.662" gradientUnits="userSpaceOnUse">
<stop stop-color="#DADDE4"/>
<stop offset="1" stop-color="#DADDE4" stop-opacity="0"/>
</linearGradient>
<linearGradient id="paint1_linear" x1="33.095" y1="88.8757" x2="158.012" y2="88.8757" gradientUnits="userSpaceOnUse">
<stop offset="8e-08" stop-color="#00A3FF"/>
<stop offset="1" stop-color="#1270E8"/>
</linearGradient>
<linearGradient id="paint2_linear" x1="136.218" y1="70.521" x2="147.813" y2="70.521" gradientUnits="userSpaceOnUse">
<stop stop-color="#FF9500"/>
<stop offset="1" stop-color="#FFCC38"/>
</linearGradient>
<linearGradient id="paint3_linear" x1="100.226" y1="74.0628" x2="100.226" y2="17.5406" gradientUnits="userSpaceOnUse">
<stop stop-color="#FF9500"/>
<stop offset="1" stop-color="#FFCC38"/>
</linearGradient>
<linearGradient id="paint4_linear" x1="42.0503" y1="34.0735" x2="79.3945" y2="34.0735" gradientUnits="userSpaceOnUse">
<stop offset="8e-08" stop-color="#FF3D49"/>
<stop offset="1" stop-color="#D80C1E"/>
</linearGradient>
<linearGradient id="paint5_linear" x1="41.8363" y1="68.5052" x2="48.163" y2="68.5052" gradientUnits="userSpaceOnUse">
<stop offset="8e-08" stop-color="#FF3D49"/>
<stop offset="1" stop-color="#D80C1E"/>
</linearGradient>
<linearGradient id="paint6_linear" x1="48.0718" y1="74.5706" x2="95.2006" y2="74.5706" gradientUnits="userSpaceOnUse">
<stop stop-color="#FF9500"/>
<stop offset="1" stop-color="#FFCC38"/>
</linearGradient>
<linearGradient id="paint7_linear" x1="95.2116" y1="85.9921" x2="134.968" y2="85.9921" gradientUnits="userSpaceOnUse">
<stop offset="8e-08" stop-color="#FF3D49"/>
<stop offset="1" stop-color="#D80C1E"/>
</linearGradient>
</defs>
</svg>
