<svg width="213" height="202" viewBox="0 0 213 202" fill="none" xmlns="http://www.w3.org/2000/svg">
<path d="M213 163.888L142.707 202L49.6743 150.38L116.013 112.944L213 163.888Z" fill="url(#paint0_linear)"/>
<path d="M119.182 100.303C93.8721 87.2776 53.2383 87.953 28.3241 101.75C3.50875 115.548 3.90418 137.353 29.2138 150.379C54.5235 163.404 95.1574 162.729 120.072 148.932C144.986 135.134 144.59 113.329 119.182 100.303Z" fill="white"/>
<path d="M118.783 100.593C93.7697 87.6641 53.5315 88.3395 28.9141 102.04C4.39547 115.741 4.79089 137.258 29.8038 150.187C54.8168 163.116 95.0549 162.44 119.672 148.739C144.191 134.942 143.796 113.426 118.783 100.593Z" fill="#FBFCFC"/>
<path d="M118.298 100.785C93.483 88.0493 53.7388 88.6282 29.4179 102.233C5.09701 115.741 5.49244 137.064 30.3077 149.8C55.1229 162.536 94.8671 161.957 119.188 148.353C143.41 134.845 143.015 113.618 118.298 100.785Z" fill="#F8F8F9"/>
<path d="M117.802 101.075C93.2829 88.4357 53.9346 89.1112 29.9103 102.426C5.88605 115.838 6.28148 136.871 30.8001 149.511C55.3187 162.151 94.667 161.475 118.691 148.16C142.617 134.749 142.32 113.715 117.802 101.075Z" fill="#F4F5F5"/>
<path d="M117.308 101.364C93.0864 88.9174 54.1334 89.4963 30.4057 102.715C6.67802 115.933 7.07344 136.774 31.2954 149.221C55.5175 161.667 94.4705 161.088 118.198 147.87C141.926 134.651 141.53 113.811 117.308 101.364Z" fill="#F1F1F2"/>
<path d="M116.81 101.654C92.8844 89.3043 54.4257 89.9797 30.8957 103.005C7.36575 116.127 7.76148 136.679 31.7858 149.029C55.7112 161.379 94.1696 160.703 117.7 147.678C141.131 134.556 140.735 114.005 116.81 101.654Z" fill="#EDEEEF"/>
<path d="M116.322 101.943C92.693 89.786 54.6299 90.3649 31.3966 103.294C8.1632 116.223 8.55853 136.581 32.1873 148.738C55.915 160.896 93.8793 160.317 117.113 147.388C140.346 134.459 140.049 114.1 116.322 101.943Z" fill="#EAEAEC"/>
<path d="M115.825 102.136C92.394 90.0758 54.825 90.6547 31.8883 103.487C8.9516 116.223 9.34723 136.389 32.6794 148.449C56.1104 160.51 93.6791 159.931 116.616 147.099C139.651 134.363 139.256 114.197 115.825 102.136Z" fill="#E6E7E9"/>
<path d="M115.327 102.426C92.1927 90.5581 55.0194 91.137 32.3792 103.777C9.73904 116.416 10.0355 136.292 33.17 148.256C56.3045 160.124 93.4781 159.545 116.118 146.906C138.857 134.266 138.462 114.39 115.327 102.426Z" fill="#E2E3E5"/>
<path d="M114.83 102.715C91.9924 90.9434 55.2144 91.5223 32.8708 103.969C10.4284 116.415 10.8237 136.099 33.6616 147.87C56.4995 159.641 93.2775 159.062 115.621 146.615C138.064 134.169 137.767 114.486 114.83 102.715Z" fill="#DFE0E2"/>
<path d="M114.334 103.004C91.7926 91.329 55.5089 91.9078 33.3629 104.258C11.217 116.608 11.6127 136.002 34.154 147.676C56.7943 159.351 92.9792 158.772 115.125 146.422C137.37 134.072 136.974 114.582 114.334 103.004Z" fill="#DBDCDF"/>
<path d="M113.84 103.294C91.496 91.8127 55.7066 92.3916 33.7584 104.549C11.9091 116.706 12.2059 135.906 34.5495 147.388C56.8931 158.87 92.6822 158.291 114.63 146.134C136.579 133.977 136.183 114.776 113.84 103.294Z" fill="#D8D9DC"/>
<path d="M113.453 103.487C91.4062 92.1016 56.0124 92.6805 34.3609 104.741C12.7093 116.802 13.105 135.713 35.152 147.098C57.199 158.484 92.5928 157.905 114.244 145.844C135.797 133.783 135.5 114.872 113.453 103.487Z" fill="#D4D5D9"/>
<path d="M112.957 103.778C91.2069 92.5854 56.2086 93.1643 34.8537 105.032C13.4988 116.9 13.8941 135.618 35.6445 146.81C57.3949 158.002 92.3932 157.423 113.748 145.556C135.004 133.688 134.708 114.97 112.957 103.778Z" fill="#D1D2D6"/>
<path d="M112.459 104.066C91.0056 92.9697 56.4028 93.5486 35.3444 105.32C14.286 117.091 14.5825 135.52 36.1352 146.615C57.589 157.711 92.1921 157.132 113.251 145.361C134.309 133.59 133.913 115.161 112.459 104.066Z" fill="#CDCED2"/>
<path d="M111.964 104.356C90.7082 93.4535 56.6983 93.9359 35.8376 105.611C14.977 117.189 15.3726 135.424 36.6287 146.327C57.8848 157.23 91.8944 156.748 112.755 145.073C133.517 133.495 133.22 115.259 111.964 104.356Z" fill="#C9CBCF"/>
<path d="M111.477 104.644C90.5176 93.838 56.9033 94.4169 36.3393 105.802C15.7753 117.284 16.1708 135.23 37.0314 146.037C57.9909 156.843 91.6049 156.264 112.169 144.879C132.733 133.397 132.437 115.354 111.477 104.644Z" fill="#C6C7CC"/>
<path d="M110.98 104.839C90.3168 94.2254 57.0978 94.7078 36.8303 105.997C16.5628 117.285 16.8595 135.039 37.5224 145.749C58.1854 156.362 91.4044 155.879 111.672 144.591C131.939 133.302 131.643 115.549 110.98 104.839Z" fill="#C2C4C9"/>
<path d="M110.483 105.126C90.1166 94.6095 57.2933 95.0919 37.3225 106.284C17.3518 117.38 17.6481 134.94 38.0144 145.457C58.3806 155.974 91.2041 155.492 111.175 144.299C131.245 133.204 130.948 115.643 110.483 105.126Z" fill="#BFC0C6"/>
<path d="M109.986 105.417C89.8172 95.0932 57.4884 95.5757 37.8143 106.575C18.0412 117.574 18.4368 134.845 38.5064 145.266C58.6749 155.589 91.0036 155.107 110.678 144.108C130.451 133.108 130.154 115.741 109.986 105.417Z" fill="#BBBDC2"/>
<path d="M109.488 105.706C89.6162 95.4785 57.7813 95.961 38.3048 106.864C18.8282 117.67 19.1249 134.748 38.9969 144.976C58.8689 155.203 90.7038 154.72 110.18 143.818C129.657 133.011 129.36 115.933 109.488 105.706Z" fill="#B8B9BF"/>
<path d="M108.995 105.995C89.4192 95.9601 57.98 96.4426 38.8001 107.152C19.6202 117.862 19.9169 134.651 39.4922 144.782C59.0676 154.816 90.5066 154.334 109.785 143.624C128.965 132.914 128.669 116.029 108.995 105.995Z" fill="#B4B6BC"/>
<path d="M38.7 93.7428C58.3742 82.6469 90.209 82.6469 109.883 93.7428C119.473 99.1459 124.416 106.189 124.614 113.329C124.713 117.382 124.713 121.434 124.614 125.39C124.416 132.433 119.473 139.477 109.883 144.976C90.209 156.072 58.3742 156.072 38.7 144.976C29.1101 139.573 24.1669 132.53 23.9692 125.39C23.8703 121.338 23.8703 117.285 23.9692 113.329C24.1669 106.189 29.0112 99.1459 38.7 93.7428Z" fill="#B7BAC7"/>
<path d="M38.7049 93.7428C19.0307 104.839 19.0307 122.785 38.7049 133.881C58.3791 144.976 90.214 144.976 109.888 133.881C129.562 122.785 129.562 104.839 109.888 93.7428C90.214 82.6469 58.2803 82.6469 38.7049 93.7428Z" fill="#EBEAF1"/>
<path d="M106.917 96.252C88.726 86.6035 59.2639 86.6035 41.0727 96.252C22.8814 105.901 22.8814 121.531 41.0727 131.18C59.2639 140.828 88.726 140.828 106.917 131.18C125.109 121.531 125.109 105.901 106.917 96.252Z" fill="#B7BAC7"/>
<path d="M103.654 100.4C87.2419 91.7163 60.746 91.7163 44.3344 100.4C27.9227 109.084 27.9227 123.171 44.3344 131.854C60.746 140.538 87.2419 140.538 103.654 131.854C120.065 123.171 120.065 109.084 103.654 100.4Z" fill="url(#paint1_linear)"/>
<path d="M0.0326987 62.0435L9.81934 139.853C9.99891 141.255 11.9741 142.044 13.3657 141.299L18.8426 138.276L31.5472 131.266L40.2114 126.491L64.3636 113.172L117.516 83.9056C119.267 82.9417 120.21 81.2769 119.985 79.5244L110.199 1.71481C110.019 0.312836 108.044 -0.475773 106.652 0.312838L85.7772 11.7915L61.67 25.0665L53.0058 29.8419L40.9747 36.4575L2.50186 57.6623C0.751059 58.6262 -0.191763 60.3349 0.0326987 62.0435Z" fill="#B7BAC7"/>
<path d="M2.10033 63.0947L3.08797 70.7617L11.9318 140.904C12.1114 142.306 14.0865 143.095 15.4782 142.306L20.9551 139.283L33.6597 132.273L42.3239 127.498L66.4312 114.179L119.584 84.9129C119.988 84.6938 120.302 84.4309 120.616 84.1681C121.694 83.2042 122.233 81.8899 122.053 80.5317L113.164 9.81961L112.266 2.72213C112.087 1.32016 110.112 0.531551 108.72 1.32016L87.8448 12.7988L63.7376 26.0737L55.0734 30.8492L43.0422 37.4648L17.1392 51.7912L4.56936 58.7135C2.81855 59.6335 1.87587 61.3422 2.10033 63.0947Z" fill="url(#paint2_linear)"/>
<path d="M2.10029 63.0948L3.08793 70.7619L113.209 9.86359L112.311 2.76608C112.132 1.36411 110.156 0.575496 108.765 1.36411L87.8897 12.8428L63.7824 26.1177L55.1182 30.8932L43.0871 37.5088L4.61425 58.7137C2.81855 59.6337 1.87582 61.2986 2.10029 63.0948Z" fill="#4A4A66"/>
<path opacity="0.25" d="M17.134 51.7912L120.656 84.168C121.733 83.2042 122.272 81.8898 122.092 80.5317L113.204 9.8196L112.306 2.72213C112.126 1.32016 110.151 0.531551 108.759 1.32016L87.8845 12.7988L63.7773 26.0737L55.1131 30.8492L43.082 37.4648L17.134 51.7912Z" fill="white"/>
<path d="M22.7961 57.6181L29.4401 53.8065C29.6197 53.675 29.7544 53.456 29.7544 53.2807C29.7095 53.1055 29.5747 53.0617 29.3502 53.1493L22.7064 56.9609C22.5268 57.0924 22.3921 57.3114 22.3921 57.4867C22.437 57.6619 22.6165 57.7057 22.7961 57.6181Z" fill="white"/>
<path d="M7.08485 66.5566C7.17463 66.5128 7.26441 66.3813 7.35419 66.2937L10.9905 59.1524C11.0803 58.9334 11.0355 58.7581 10.9008 58.7143C10.7212 58.6705 10.5416 58.8458 10.4069 59.021L6.77056 66.1623C6.68078 66.3813 6.72576 66.5566 6.86044 66.6004C6.90533 66.6442 6.99506 66.6004 7.08485 66.5566Z" fill="white"/>
<path d="M11.3465 64.1469C11.4363 64.1031 11.4811 64.0154 11.5709 63.9278C11.7056 63.7088 11.7056 63.5335 11.5709 63.4459L6.72258 61.1677C6.5879 61.1238 6.36337 61.2115 6.22869 61.3867C6.09402 61.6058 6.09402 61.781 6.22869 61.8687L11.0771 64.1469C11.122 64.2345 11.2118 64.1907 11.3465 64.1469Z" fill="white"/>
<path d="M13.9502 59.7646C13.7707 58.275 14.893 56.3035 16.5092 55.3834C18.1253 54.4634 19.6068 54.9015 19.7864 56.3911C19.9659 57.8807 18.8436 59.8522 17.2275 60.7723C15.6113 61.6923 14.1747 61.2542 13.9502 59.7646ZM14.6685 59.3703C14.8032 60.5094 15.9255 60.8599 17.1825 60.1589C18.3946 59.4579 19.2925 57.9683 19.1578 56.8292C19.0231 55.6901 17.9008 55.3396 16.6438 56.0406C15.3868 56.7416 14.5339 58.2312 14.6685 59.3703Z" fill="white"/>
<path d="M48.6979 54.7705L51.7954 78.0345L31.6387 89.4694H31.5938L28.4963 66.2054L48.653 54.7705C48.653 54.7705 48.653 54.7705 48.6979 54.7705Z" fill="#EBEAF1"/>
<path d="M43.176 76.4566L34.8708 74.4412L41.7843 65.2407L43.176 76.4566Z" fill="url(#paint3_linear)"/>
<path d="M54.0401 79.5677L62.3452 74.836C62.9288 74.5294 63.5574 74.8798 63.6472 75.6246L64.5001 82.5031C64.545 83.0288 64.3205 83.5108 63.9165 83.7298L55.6114 88.4615C55.0277 88.7682 54.3994 88.4177 54.3096 87.6729L53.4566 80.7944C53.4117 80.2687 53.6361 79.7867 54.0401 79.5677Z" fill="white"/>
<path d="M47.9346 94.9471L79.6736 76.9405C80.347 76.59 80.9306 76.9405 81.0653 77.8167L84.522 103.841C84.6567 104.673 84.2077 105.681 83.5343 106.031L51.7953 124.038C51.1219 124.389 50.5383 124.038 50.4037 123.162L46.947 97.1376C46.8572 96.3052 47.3061 95.3414 47.9346 94.9471Z" fill="#27449C"/>
<path d="M48.427 94.3327L79.1336 76.9395C80.0764 76.4137 80.9741 76.9833 81.1088 78.21L81.468 80.9263L47.3496 100.247L46.9906 97.531C46.8559 96.3042 47.4843 94.8584 48.427 94.3327Z" fill="#4A4A66"/>
<path d="M49.2835 95.4715C49.5977 95.2962 49.9121 95.4714 49.957 95.9096C50.0019 96.3039 49.7774 96.7858 49.4631 97.0049C49.1488 97.1801 48.8346 97.0049 48.7897 96.5668C48.7448 96.1725 48.9692 95.6905 49.2835 95.4715Z" fill="white"/>
<path d="M51.888 94.0261C52.2022 93.8509 52.5164 94.0261 52.5613 94.4643C52.6062 94.8586 52.3818 95.3405 52.0676 95.5596C51.7534 95.7348 51.439 95.5596 51.3941 95.1215C51.3493 94.6833 51.5738 94.2014 51.888 94.0261Z" fill="white"/>
<path d="M54.4856 92.5364C54.7998 92.3612 55.114 92.5364 55.1589 92.9745C55.2038 93.3688 54.9794 93.8507 54.6652 94.0697C54.3509 94.2888 54.0367 94.0698 53.9918 93.6317C53.9469 93.1935 54.1713 92.7116 54.4856 92.5364Z" fill="white"/>
<path d="M45.3327 78.2533L53.6376 73.5216C54.2212 73.2149 54.8498 73.5654 54.9395 74.3102L55.7925 81.1886C55.8374 81.7144 55.6129 82.1963 55.2089 82.4154L46.9038 87.1471C46.3202 87.4537 45.6918 87.1032 45.602 86.3584L44.7491 79.48C44.7042 78.9981 44.9287 78.4723 45.3327 78.2533Z" fill="url(#paint4_linear)"/>
<path d="M108.807 70.4553L110.783 85.5265L89.773 97.5748C89.7281 97.5748 89.728 97.5748 89.6832 97.6186L87.6631 82.5473L108.628 70.4991C108.762 70.4553 108.807 70.4553 108.807 70.4553Z" fill="white"/>
<path d="M68.3172 48.3744C68.7213 48.1553 69.0804 48.3743 69.1253 48.9001C69.1702 49.382 68.9457 49.9516 68.5417 50.1706C68.1825 50.3897 67.7785 50.1707 67.7336 49.6449C67.6438 49.163 67.9132 48.5934 68.3172 48.3744Z" fill="white"/>
<path d="M61.9406 51.9671C62.2997 51.7481 62.7037 51.9671 62.7486 52.4929C62.7935 52.9748 62.5692 53.5881 62.1651 53.7634C61.7611 53.9824 61.4018 53.7634 61.3569 53.2377C61.3121 52.7557 61.5814 52.1862 61.9406 51.9671Z" fill="white"/>
<path d="M55.6099 55.5589C55.969 55.3399 56.3729 55.5589 56.4178 56.0847C56.4627 56.5666 56.2384 57.18 55.8344 57.3552C55.4753 57.5743 55.0713 57.3553 55.0264 56.8295C54.9815 56.3476 55.2508 55.778 55.6099 55.5589Z" fill="white"/>
<path d="M69.2102 55.2967C69.5694 55.0777 69.9736 55.2967 70.0185 55.8225C70.0634 56.3044 69.8389 56.874 69.4348 57.093C69.0756 57.3121 68.6714 57.093 68.6265 56.5673C68.5816 56.0853 68.851 55.5158 69.2102 55.2967Z" fill="white"/>
<path d="M62.88 58.8885C63.2391 58.6695 63.6433 58.8885 63.6882 59.4142C63.7331 59.8962 63.5086 60.5095 63.1045 60.6848C62.7454 60.9038 62.3413 60.6848 62.2964 60.1591C62.2515 59.6771 62.4759 59.1076 62.88 58.8885Z" fill="white"/>
<path d="M56.5523 62.4813C56.9114 62.2622 57.3154 62.4813 57.3603 63.007C57.4052 63.489 57.1807 64.1023 56.7767 64.2776C56.4176 64.4967 56.0136 64.2776 55.9687 63.7519C55.8789 63.2699 56.1483 62.7004 56.5523 62.4813Z" fill="white"/>
<path d="M70.1515 62.2181C70.5106 61.9991 70.9146 62.2181 70.9595 62.7439C71.0044 63.2258 70.7799 63.8392 70.3759 64.0144C70.0167 64.2335 69.6127 64.0144 69.5678 63.4887C69.4781 63.0067 69.7474 62.4372 70.1515 62.2181Z" fill="white"/>
<path d="M63.7809 65.8114C64.14 65.5923 64.5439 65.8114 64.5888 66.3371C64.6337 66.819 64.4093 67.3886 64.0052 67.6076C63.6461 67.8267 63.2422 67.6076 63.1973 67.0819C63.1524 66.6 63.4217 66.0304 63.7809 65.8114Z" fill="white"/>
<path d="M57.4509 69.4042C57.81 69.1851 58.214 69.4042 58.2589 69.9299C58.3487 70.4119 58.0794 71.0253 57.6754 71.2005C57.2714 71.4196 56.9121 71.2005 56.8672 70.6747C56.8223 70.1928 57.0468 69.6232 57.4509 69.4042Z" fill="white"/>
<path d="M82.992 98.6696L86.5834 97.8372C86.6283 97.8372 86.6732 97.881 86.6283 97.9248L86.0896 99.4582C86.0896 99.502 86.0897 99.5458 86.1346 99.5458L87.6609 100.203C87.7058 100.203 87.7057 100.247 87.7057 100.291L87.4813 101.035C87.4813 101.079 87.4365 101.079 87.3916 101.079L85.8652 100.422C85.8203 100.422 85.7753 100.422 85.7753 100.466L85.2366 101.999C85.2366 102.043 85.1469 102.087 85.1469 102.043L82.9471 98.801C82.9022 98.7572 82.9471 98.7134 82.992 98.6696Z" fill="white"/>
<path d="M75.7657 41.3638L96.2815 29.7537C97.2691 29.1842 98.2119 29.7975 98.3466 31.068L101.893 57.7494C102.073 59.0199 101.399 60.5095 100.412 61.0791L79.8958 72.6892C78.9081 73.2587 77.9654 72.6454 77.8308 71.3748L74.2842 44.7373C74.1495 43.423 74.7781 41.9334 75.7657 41.3638Z" fill="url(#paint5_linear)"/>
<path d="M93.0506 48.5053L83.2191 54.0694L83.1294 53.938L92.9609 48.3301L93.0506 48.5053Z" fill="white"/>
<path d="M87.3004 44.7812L89.0062 57.618H88.8716L87.1658 44.8251L87.3004 44.7812Z" fill="white"/>
<path d="M75.9923 44.4307L79.3592 69.7977C79.4041 70.0606 79.4939 70.2359 79.6735 70.3235C79.8082 70.4111 80.0326 70.4111 80.2122 70.3235L99.6955 59.2829C100.055 59.0639 100.324 58.4943 100.234 58.0124L96.8673 32.6454C96.8224 32.3825 96.7326 32.2073 96.553 32.1197C96.4183 32.032 96.1939 32.032 96.0143 32.1197L76.5309 43.1602C76.1718 43.3793 75.9025 43.9488 75.9923 44.4307ZM76.1269 44.3869C76.082 43.9926 76.2616 43.5107 76.5759 43.3355L96.0592 32.2949C96.1939 32.2073 96.3286 32.2073 96.4633 32.2949C96.5979 32.3825 96.6428 32.514 96.6877 32.6892L100.055 58.0562C100.1 58.4505 99.92 58.9324 99.6058 59.1077L80.1224 70.1482C79.9878 70.2358 79.853 70.2358 79.7183 70.1482C79.5836 70.0606 79.5388 69.9291 79.4939 69.7539L76.1269 44.3869Z" fill="white"/>
<path d="M86.1811 49.4693L89.3235 47.673C89.5929 47.5416 89.8173 47.673 89.8622 48.0235L90.4009 52.098C90.4458 52.4047 90.2663 52.799 90.0418 52.9305L86.8993 54.7267C86.63 54.8582 86.4056 54.7267 86.3607 54.3762L85.822 50.3018C85.7771 49.9951 85.9117 49.6008 86.1811 49.4693Z" fill="white"/>
<path d="M86.7202 69.7981L87.8425 71.1563L90.3566 69.7105L90.6259 69.5353L93.1846 68.0895L93.8132 65.7236C94.6661 62.4816 94.3518 59.2833 92.9153 57.268L87.9773 50.521L85.3735 61.5615C84.6552 64.8036 85.1939 67.958 86.7202 69.7981ZM89.2343 60.1158C90.1321 59.59 91.0298 60.1158 91.2094 61.3425C91.3441 62.5692 90.7605 63.9274 89.8178 64.4531C88.875 64.9788 88.0221 64.4093 87.8425 63.2264C87.7078 61.9997 88.3364 60.6415 89.2343 60.1158Z" fill="#FF2838"/>
<path d="M88.3364 70.7612L92.8706 68.2201C93.0501 68.1325 93.1848 68.2201 93.2297 68.4392L93.499 70.3231C93.5439 70.5421 93.4092 70.805 93.2297 70.8926L88.6955 73.4337C88.5159 73.5213 88.3813 73.4337 88.3364 73.2146L88.0671 71.2869C88.0222 71.1555 88.1568 70.8926 88.3364 70.7612Z" fill="#D80C1E"/>
<path d="M70.6493 105.504C72.6245 103.27 73.0734 99.3269 71.592 96.6982C71.2777 96.0849 70.8738 95.6029 70.4249 95.2524C71.3676 95.5591 72.2204 96.2601 72.8489 97.3992C74.3304 100.116 73.9263 104.19 71.8613 106.468C70.0656 108.484 67.5966 108.484 66.0254 106.512C67.5068 107.344 69.2576 107.038 70.6493 105.504Z" fill="#FF9500"/>
<path d="M63.9163 100.204C63.8263 100.729 63.7363 101.299 63.7363 101.868C63.7363 101.299 63.7814 100.729 63.9163 100.204Z" fill="url(#paint6_linear)"/>
<path d="M66.0722 108.221L65.8476 108.922L64.4111 108.133L64.6355 107.388L66.0722 108.221Z" fill="#9F9FD8"/>
<path d="M70.782 93.1934L70.5576 93.9382L69.1211 93.1058L69.3455 92.4048L70.782 93.1934Z" fill="url(#paint7_linear)"/>
<path d="M64.4976 105.943C64.9017 106.863 65.4403 107.652 66.1137 108.178L64.6772 107.389C64.2283 107.039 63.8691 106.557 63.51 105.987L64.0038 106.25L64.4976 105.943Z" fill="#FF9500"/>
<path d="M69.1234 93.106L70.5599 93.8946C69.7968 93.7194 68.9888 93.7194 68.1808 94.0261L68.0012 93.3251L67.5073 93.0184C68.046 92.9746 68.5847 92.9746 69.1234 93.106Z" fill="#FF9500"/>
<path d="M63.9611 106.293L63.4672 105.986L62.4795 105.46L61.8511 103.051L63.2877 103.839L63.9611 106.293Z" fill="url(#paint8_linear)"/>
<path d="M63.8263 103.534L63.2876 103.841L61.8511 103.052L62.3448 102.701L63.8263 103.534Z" fill="#9F9FD8"/>
<path d="M66.431 95.2089L64.9498 94.4203L64.7703 93.6755L66.2066 94.5079L66.431 95.2089Z" fill="#9F9FD8"/>
<path d="M63.376 99.9412L63.8698 100.204C63.78 100.73 63.6903 101.299 63.6903 101.869C63.6903 102.438 63.6902 102.964 63.78 103.534L62.3434 102.745C62.2087 101.65 62.2537 100.511 62.4333 99.4155L63.376 99.9412Z" fill="#FF9500"/>
<path d="M64.9502 94.4204L66.4316 95.209C65.7582 95.8662 65.1745 96.6548 64.7256 97.6624L63.2441 96.9176C63.6931 95.91 64.2767 95.0776 64.9502 94.4204Z" fill="#FF9500"/>
<path d="M64.1839 97.3993L63.3759 99.9404L62.4331 99.3708L61.9392 99.108L62.7473 96.5669L64.1839 97.3993Z" fill="url(#paint9_linear)"/>
<path d="M63.7379 103.577L63.2891 103.84L63.9624 106.293L64.4114 105.987C64.5012 106.162 64.5909 106.381 64.6807 106.556C65.0847 107.257 65.5336 107.827 66.0274 108.265L65.803 108.922L67.5538 109.842L67.7783 109.185C68.5415 109.404 69.3943 109.36 70.2024 109.054L70.382 109.667L72.1777 108.528L72.043 107.958C72.2226 107.827 72.3573 107.652 72.5369 107.476C73.0756 106.863 73.5244 106.206 73.8387 105.417L74.2427 105.636L75.0509 103.095L74.6468 102.876C74.8264 101.737 74.8712 100.598 74.6916 99.4588L75.1406 99.1521L74.4672 96.6986L74.0183 97.0053C73.9285 96.8301 73.8387 96.611 73.7489 96.4358C73.3449 95.7348 72.896 95.1652 72.4022 94.7271L72.6266 94.0699L70.8758 93.1499L70.6514 93.8071C69.8882 93.588 69.0352 93.6318 68.2271 93.9385L68.0476 93.3252L66.2518 94.4642L66.4315 95.0338C66.2519 95.1652 66.1173 95.3405 65.9377 95.5157C65.399 96.1291 64.95 96.7862 64.6358 97.5749L64.2318 97.3558L63.4237 99.8969L63.8277 100.116C63.6033 101.255 63.6032 102.438 63.7379 103.577ZM66.4764 96.611C68.4965 94.3328 71.3696 94.6395 72.896 97.3558C74.3774 100.072 73.9734 104.147 71.9083 106.425C69.8882 108.703 67.0151 108.396 65.4887 105.68C64.0073 102.964 64.4562 98.8892 66.4764 96.611Z" fill="url(#paint10_linear)"/>
<path d="M67.5085 93.0619L68.0024 93.3686L66.2068 94.5077L64.7703 93.6752L66.5658 92.5361L67.5085 93.0619Z" fill="url(#paint11_linear)"/>
<defs>
<linearGradient id="paint0_linear" x1="101.338" y1="130.747" x2="145.018" y2="171.113" gradientUnits="userSpaceOnUse">
<stop stop-color="#C9D3E7"/>
<stop offset="1" stop-color="#D8DADD" stop-opacity="0"/>
</linearGradient>
<linearGradient id="paint1_linear" x1="32.0701" y1="116.137" x2="115.975" y2="116.137" gradientUnits="userSpaceOnUse">
<stop offset="8e-08" stop-color="#00A3FF"/>
<stop offset="1" stop-color="#1270E8"/>
</linearGradient>
<linearGradient id="paint2_linear" x1="122.101" y1="71.7992" x2="2.05768" y2="71.7992" gradientUnits="userSpaceOnUse">
<stop offset="8e-08" stop-color="#00A3FF"/>
<stop offset="1" stop-color="#1270E8"/>
</linearGradient>
<linearGradient id="paint3_linear" x1="43.1702" y1="70.8513" x2="34.8821" y2="70.8513" gradientUnits="userSpaceOnUse">
<stop offset="8e-08" stop-color="#00A3FF"/>
<stop offset="1" stop-color="#1270E8"/>
</linearGradient>
<linearGradient id="paint4_linear" x1="55.81" y1="80.3532" x2="44.7468" y2="80.3532" gradientUnits="userSpaceOnUse">
<stop stop-color="#FFCC38"/>
<stop offset="1" stop-color="#FF9500"/>
</linearGradient>
<linearGradient id="paint5_linear" x1="91.025" y1="73.3868" x2="92.9183" y2="29.3743" gradientUnits="userSpaceOnUse">
<stop stop-color="#FFCC38"/>
<stop offset="1" stop-color="#FF9500"/>
</linearGradient>
<linearGradient id="paint6_linear" x1="64.0069" y1="101.024" x2="63.6229" y2="101.075" gradientUnits="userSpaceOnUse">
<stop stop-color="#C7CFE7"/>
<stop offset="1" stop-color="#6878C2"/>
</linearGradient>
<linearGradient id="paint7_linear" x1="70.7955" y1="93.1623" x2="69.1076" y2="93.1623" gradientUnits="userSpaceOnUse">
<stop stop-color="#FFCC38"/>
<stop offset="1" stop-color="#FF9500"/>
</linearGradient>
<linearGradient id="paint8_linear" x1="63.7518" y1="104.697" x2="62.0839" y2="104.918" gradientUnits="userSpaceOnUse">
<stop stop-color="#FFCC38"/>
<stop offset="1" stop-color="#FF9500"/>
</linearGradient>
<linearGradient id="paint9_linear" x1="64.3073" y1="98.3072" x2="61.8687" y2="98.6301" gradientUnits="userSpaceOnUse">
<stop stop-color="#FFCC38"/>
<stop offset="1" stop-color="#FF9500"/>
</linearGradient>
<linearGradient id="paint10_linear" x1="75.1024" y1="101.532" x2="63.2962" y2="101.532" gradientUnits="userSpaceOnUse">
<stop stop-color="#FFCC38"/>
<stop offset="1" stop-color="#FF9500"/>
</linearGradient>
<linearGradient id="paint11_linear" x1="68.0471" y1="93.5991" x2="64.8111" y2="94.0275" gradientUnits="userSpaceOnUse">
<stop stop-color="#FFCC38"/>
<stop offset="1" stop-color="#FF9500"/>
</linearGradient>
</defs>
</svg>
