<svg width="16" height="14" viewBox="0 0 16 14" fill="none" xmlns="http://www.w3.org/2000/svg">
<path fill-rule="evenodd" clip-rule="evenodd" d="M8.29018 0.293723C8.19708 0.386594 8.12321 0.496921 8.0728 0.618385C8.0224 0.739849 7.99646 0.870063 7.99646 1.00157C7.99646 1.13307 8.0224 1.26329 8.0728 1.38475C8.12321 1.50622 8.19708 1.61654 8.29018 1.70941L13.583 7.00026L8.29018 12.2911C8.19723 12.3841 8.12349 12.4944 8.07318 12.6159C8.02288 12.7373 7.99698 12.8675 7.99698 12.999C7.99698 13.1304 8.02288 13.2606 8.07318 13.382C8.12349 13.5035 8.19723 13.6138 8.29018 13.7068C8.38314 13.7998 8.49349 13.8735 8.61494 13.9238C8.7364 13.9741 8.86657 14 8.99803 14C9.12949 14 9.25966 13.9741 9.38111 13.9238C9.50256 13.8735 9.61292 13.7998 9.70587 13.7068L15.7046 7.70811C15.7977 7.61524 15.8715 7.50491 15.9219 7.38345C15.9723 7.26198 15.9983 7.13177 15.9983 7.00026C15.9983 6.86876 15.9723 6.73854 15.9219 6.61708C15.8715 6.49561 15.7977 6.38529 15.7046 6.29242L9.70587 0.293723C9.613 0.200617 9.50268 0.126747 9.38121 0.076345C9.25975 0.0259431 9.12953 0 8.99803 0C8.86652 0 8.73631 0.0259431 8.61484 0.076345C8.49338 0.126747 8.38305 0.200617 8.29018 0.293723Z" fill="white"/>
<path fill-rule="evenodd" clip-rule="evenodd" d="M14.9966 6.99978C14.9966 6.73462 14.8912 6.48033 14.7038 6.29283C14.5163 6.10533 14.262 6 13.9968 6H0.99963C0.73447 6 0.480171 6.10533 0.292676 6.29283C0.105181 6.48033 -0.000152588 6.73462 -0.000152588 6.99978C-0.000152588 7.26494 0.105181 7.51924 0.292676 7.70674C0.480171 7.89423 0.73447 7.99956 0.99963 7.99956H13.9968C14.262 7.99956 14.5163 7.89423 14.7038 7.70674C14.8912 7.51924 14.9966 7.26494 14.9966 6.99978Z" fill="white"/>
</svg>
