<svg width="471" height="492" viewBox="0 0 471 492" fill="none" xmlns="http://www.w3.org/2000/svg">
<path d="M252.986 400.488L401.729 491.181L471 459.497L313.758 370.187L252.986 400.488Z" fill="url(#paint0_linear)"/>
<path d="M264.458 410.164C266.158 410.164 267.752 409.739 269.133 408.994L320.449 380.819C322.574 379.65 323.955 377.523 323.955 375.29C323.955 373.058 322.787 371.037 320.662 369.762L215.374 309.158C213.992 308.414 212.399 307.988 210.699 307.988C208.999 307.988 207.405 308.414 206.024 309.158L154.708 337.333C152.583 338.503 151.202 340.629 151.202 342.862C151.202 345.095 152.371 347.115 154.496 348.391L259.784 408.994C261.059 409.739 262.652 410.164 264.458 410.164Z" fill="white"/>
<path d="M154.708 337.334C152.583 338.504 151.308 340.63 151.201 342.863C151.201 345.096 152.37 347.116 154.495 348.285L259.783 408.889C261.164 409.633 262.758 410.059 264.458 410.059C266.158 410.059 267.752 409.633 269.133 408.889L320.449 380.82C322.574 379.651 323.849 377.524 323.955 375.291C323.955 373.059 322.786 371.038 320.661 369.869L215.373 309.265C214.098 308.521 212.398 308.096 210.698 308.096C208.998 308.096 207.405 308.521 206.024 309.265L154.708 337.334Z" fill="#FEFEFE"/>
<path d="M154.707 337.44C152.582 338.609 151.307 340.629 151.307 342.862C151.307 345.095 152.476 347.115 154.495 348.285L259.783 408.888C261.164 409.633 262.758 410.058 264.458 410.058C266.158 410.058 267.751 409.633 269.132 408.888L320.342 380.819C322.467 379.65 323.742 377.63 323.742 375.397C323.742 373.164 322.573 371.144 320.555 369.974L215.373 309.477C214.098 308.733 212.398 308.201 210.698 308.201C208.998 308.201 207.404 308.626 206.023 309.371L154.707 337.44Z" fill="#FDFDFD"/>
<path d="M154.707 337.44C152.582 338.609 151.307 340.629 151.307 342.862C151.307 344.989 152.476 347.009 154.495 348.178L259.783 408.782C261.164 409.526 262.758 409.952 264.458 409.952C266.051 409.952 267.751 409.526 269.132 408.782L320.342 380.713C322.467 379.543 323.742 377.523 323.742 375.29C323.742 373.164 322.573 371.144 320.555 369.974L215.373 309.477C214.098 308.733 212.398 308.201 210.698 308.201C208.998 308.201 207.404 308.52 206.023 309.264L154.707 337.44Z" fill="#FCFCFC"/>
<path d="M154.81 337.547C152.685 338.717 151.41 340.737 151.41 342.863C151.41 344.99 152.579 347.01 154.598 348.179L259.886 408.783C261.267 409.527 262.861 409.953 264.56 409.953C266.154 409.953 267.854 409.527 269.129 408.783L320.232 380.714C322.357 379.544 323.632 377.524 323.632 375.398C323.632 373.271 322.464 371.251 320.445 370.082L215.369 309.584C214.094 308.84 212.394 308.309 210.695 308.309C208.995 308.309 207.401 308.628 206.02 309.372L154.81 337.547Z" fill="#FBFBFB"/>
<path d="M154.809 337.547C152.685 338.717 151.516 340.631 151.516 342.863C151.516 344.99 152.684 346.904 154.703 348.073L259.991 408.677C261.372 409.421 262.966 409.846 264.666 409.74C266.26 409.74 267.96 409.208 269.235 408.57L320.338 380.608C322.357 379.438 323.632 377.524 323.632 375.292C323.632 373.165 322.463 371.251 320.444 370.082L215.369 309.584C214.094 308.84 212.394 308.309 210.8 308.309C209.1 308.309 207.507 308.628 206.125 309.372L154.809 337.547Z" fill="#FAFAFB"/>
<path d="M154.809 337.654C152.791 338.823 151.516 340.737 151.516 342.864C151.516 344.99 152.684 346.904 154.597 348.073L259.885 408.677C261.266 409.421 262.86 409.847 264.56 409.74C266.154 409.74 267.853 409.209 269.128 408.571L320.232 380.608C322.251 379.438 323.526 377.525 323.526 375.398C323.526 373.272 322.357 371.358 320.444 370.188L215.475 309.797C214.2 309.053 212.5 308.521 210.906 308.521C209.207 308.521 207.613 308.84 206.232 309.585L154.809 337.654Z" fill="#F9F9FA"/>
<path d="M154.809 337.654C152.791 338.824 151.516 340.738 151.516 342.758C151.516 344.884 152.684 346.798 154.597 347.861L259.885 408.465C261.16 409.209 262.86 409.634 264.56 409.528C266.154 409.528 267.853 408.997 269.128 408.359L320.126 380.396C322.144 379.226 323.419 377.313 323.419 375.292C323.419 373.166 322.251 371.252 320.338 370.189L215.369 309.798C214.2 309.054 212.288 308.522 210.8 308.522C209.1 308.416 207.507 308.841 206.126 309.585L154.809 337.654Z" fill="#F8F8F9"/>
<path d="M154.926 337.761C152.907 338.93 151.738 340.738 151.738 342.864C151.738 344.884 152.801 346.798 154.819 347.968L260.108 408.571C261.382 409.315 263.082 409.741 264.782 409.634C266.27 409.634 268.076 409.103 269.351 408.359L320.348 380.396C322.367 379.226 323.536 377.419 323.536 375.292C323.536 373.272 322.473 371.358 320.454 370.189L215.591 309.798C214.423 309.054 212.51 308.522 211.023 308.522C209.323 308.416 207.729 308.841 206.348 309.585L154.926 337.761Z" fill="#F7F7F8"/>
<path d="M154.926 337.76C152.907 338.823 151.738 340.737 151.738 342.757C151.738 344.777 152.801 346.691 154.713 347.754L260.002 408.358C261.276 409.102 262.976 409.527 264.676 409.421C266.164 409.421 267.97 408.889 269.245 408.145L320.136 380.289C322.155 379.225 323.323 377.312 323.323 375.292C323.323 373.271 322.261 371.358 320.349 370.294L215.485 309.903C214.316 309.265 212.404 308.627 210.917 308.627C209.217 308.521 207.623 308.946 206.242 309.691L154.926 337.76Z" fill="#F6F6F7"/>
<path d="M154.926 337.866C152.907 338.929 151.738 340.843 151.738 342.863C151.738 344.883 152.801 346.691 154.713 347.86L260.002 408.464C261.276 409.208 262.976 409.634 264.676 409.527C266.164 409.527 267.97 408.889 269.245 408.251L320.136 380.395C322.155 379.332 323.323 377.418 323.323 375.398C323.323 373.378 322.261 371.57 320.349 370.401L215.591 310.116C214.423 309.478 212.51 308.84 211.023 308.84C209.429 308.734 207.729 309.053 206.348 309.903L154.926 337.866Z" fill="#F5F5F6"/>
<path d="M155.031 337.865C153.119 338.928 151.95 340.842 151.844 342.756C151.844 344.776 152.906 346.584 154.819 347.647L260.107 408.25C261.382 408.995 263.082 409.42 264.782 409.314C266.269 409.314 268.075 408.676 269.244 408.038L320.029 380.181C321.941 379.118 323.11 377.204 323.216 375.291C323.216 373.27 322.154 371.463 320.241 370.4L215.484 310.115C214.315 309.477 212.403 308.733 210.916 308.733C209.322 308.627 207.622 308.945 206.241 309.69L155.031 337.865Z" fill="#F4F4F5"/>
<path d="M155.031 337.971C153.118 339.035 151.95 340.842 151.95 342.862C151.95 344.776 153.012 346.584 154.818 347.753L260.107 408.357C261.381 409.101 263.081 409.42 264.781 409.314C266.163 409.314 268.075 408.676 269.244 408.038L320.029 380.181C321.941 379.118 323.11 377.311 323.11 375.291C323.11 373.377 322.047 371.569 320.241 370.4L215.59 310.115C214.422 309.477 212.509 308.733 211.022 308.733C209.428 308.627 207.728 308.945 206.347 309.69L155.031 337.971Z" fill="#F3F3F4"/>
<path d="M155.031 337.971C153.118 339.035 151.95 340.842 151.95 342.756C151.95 344.67 153.012 346.477 154.818 347.54L260.106 408.144C261.381 408.888 263.081 409.207 264.781 409.101C266.162 409.101 268.075 408.463 269.243 407.825L319.922 379.969C321.834 378.906 323.003 377.098 323.003 375.184C323.003 373.27 321.941 371.463 320.134 370.4L215.484 310.115C214.421 309.477 212.403 308.733 210.915 308.733C209.322 308.627 207.622 308.945 206.241 309.69L155.031 337.971Z" fill="#F2F3F4"/>
<path d="M155.031 338.078C153.118 339.141 152.056 340.949 151.95 342.863C151.95 344.777 153.012 346.584 154.818 347.647L260.106 408.251C261.381 408.995 263.081 409.314 264.781 409.208C266.162 409.208 268.075 408.57 269.243 407.932L319.922 380.182C321.834 379.119 322.897 377.311 323.003 375.397C323.003 373.484 321.941 371.676 320.134 370.719L215.484 310.541C214.421 309.903 212.403 309.159 211.022 309.159C209.428 309.052 207.728 309.371 206.347 310.116L155.031 338.078Z" fill="#F1F2F3"/>
<path d="M155.132 338.079C153.22 339.142 152.157 340.843 152.157 342.757C152.157 344.671 153.22 346.372 155.026 347.435L260.314 408.039C261.589 408.783 263.289 409.102 264.989 408.996C266.37 408.996 268.389 408.252 269.451 407.72L320.13 379.97C322.042 378.907 323.104 377.206 323.104 375.292C323.104 373.378 322.042 371.677 320.236 370.614L215.691 310.435C214.629 309.797 212.61 309.053 211.229 309.053C209.635 308.947 207.935 309.266 206.554 310.01L155.132 338.079Z" fill="#F0F1F2"/>
<path d="M155.132 338.185C153.326 339.248 152.157 340.949 152.157 342.863C152.157 344.777 153.22 346.478 154.92 347.541L260.208 408.145C261.483 408.889 263.183 409.208 264.882 409.102C266.264 409.102 268.282 408.357 269.345 407.826L319.917 380.076C321.723 379.013 322.892 377.311 322.892 375.398C322.892 373.484 321.829 371.783 320.129 370.826L215.585 310.647C214.523 310.009 212.504 309.265 211.123 309.265C209.529 309.159 207.829 309.478 206.448 310.222L155.132 338.185Z" fill="#EFF0F1"/>
<path d="M155.132 338.185C153.326 339.248 152.263 340.95 152.157 342.757C152.157 344.564 153.113 346.266 154.92 347.329L260.208 407.933C261.483 408.677 263.183 408.996 264.883 408.889C266.158 408.889 268.282 408.145 269.239 407.614L319.811 379.863C321.617 378.8 322.68 377.099 322.786 375.292C322.786 373.484 321.83 371.783 320.024 370.72L215.585 310.648C214.523 310.01 212.504 309.265 211.123 309.265C209.529 309.159 207.829 309.372 206.448 310.222L155.132 338.185Z" fill="#EEEFF0"/>
<path d="M155.234 338.292C153.428 339.355 152.365 340.95 152.365 342.864C152.365 344.671 153.322 346.372 155.128 347.329L260.416 407.933C261.691 408.677 263.391 408.996 265.091 408.89C266.366 408.89 268.491 408.146 269.447 407.508L319.913 379.864C321.719 378.801 322.782 377.206 322.782 375.292C322.782 373.485 321.825 371.783 320.019 370.827L215.581 310.754C214.519 310.117 212.394 309.372 211.119 309.372C209.525 309.16 207.825 309.479 206.444 310.223L155.234 338.292Z" fill="#EDEEEF"/>
<path d="M155.234 338.292C153.428 339.249 152.365 340.95 152.365 342.757C152.365 344.565 153.322 346.266 155.022 347.223L260.31 407.826C261.585 408.571 263.391 408.89 264.985 408.677C266.26 408.677 268.384 407.933 269.341 407.295L319.807 379.651C321.613 378.694 322.675 376.993 322.675 375.186C322.675 373.378 321.719 371.677 320.019 370.72L215.687 310.648C214.731 310.01 212.5 309.159 211.225 309.159C209.631 308.947 207.931 309.266 206.55 310.01L155.234 338.292Z" fill="#ECEDEE"/>
<path d="M155.234 338.398C153.428 339.355 152.365 341.056 152.365 342.864C152.365 344.671 153.322 346.266 155.022 347.223L260.31 407.827C261.585 408.571 263.391 408.89 264.985 408.677C266.26 408.677 268.384 407.827 269.341 407.295L319.807 379.651C321.613 378.694 322.675 376.993 322.675 375.186C322.675 373.378 321.719 371.783 320.019 370.826L215.687 310.754C214.731 310.223 212.5 309.266 211.225 309.266C209.631 309.053 207.931 309.372 206.55 310.116L155.234 338.398Z" fill="#EBECED"/>
<path d="M155.35 338.505C153.544 339.462 152.588 341.163 152.588 342.864C152.588 344.565 153.544 346.266 155.244 347.223L260.532 407.827C261.807 408.571 263.613 408.89 265.207 408.677C266.482 408.677 268.607 407.827 269.563 407.295L319.923 379.651C321.623 378.695 322.685 376.993 322.685 375.292C322.685 373.591 321.729 371.89 320.029 370.933L215.803 310.967C214.847 310.436 212.616 309.479 211.341 309.479C209.747 309.266 208.047 309.585 206.666 310.329L155.35 338.505Z" fill="#EAEBEC"/>
<path d="M155.35 338.503C153.65 339.46 152.588 341.055 152.588 342.862C152.588 344.563 153.544 346.158 155.138 347.115L260.426 407.719C261.701 408.463 263.507 408.782 265.101 408.569C266.27 408.569 268.501 407.719 269.457 407.187L319.817 379.65C321.517 378.693 322.579 377.098 322.579 375.29C322.579 373.589 321.623 371.994 320.029 371.037L215.803 311.072C214.847 310.54 212.616 309.583 211.341 309.583C209.747 309.371 208.048 309.69 206.666 310.434L155.35 338.503Z" fill="#E9EAEC"/>
<path d="M155.35 338.609C153.65 339.566 152.588 341.161 152.588 342.862C152.588 344.563 153.544 346.158 155.138 347.115L260.426 407.719C261.701 408.463 263.507 408.782 265.101 408.569C266.27 408.569 268.501 407.719 269.457 407.187L319.711 379.65C321.411 378.693 322.473 377.098 322.473 375.397C322.473 373.696 321.517 372.101 319.923 371.144L215.803 311.178C214.847 310.647 212.616 309.69 211.448 309.69C209.854 309.477 208.154 309.796 206.773 310.54L155.35 338.609Z" fill="#E8E9EB"/>
<path d="M155.35 338.611C153.65 339.568 152.694 341.162 152.588 342.864C152.588 344.565 153.544 346.053 155.138 347.01L260.426 407.614C261.701 408.358 263.507 408.677 265.101 408.464C266.27 408.464 268.501 407.614 269.351 407.082L319.604 379.545C321.304 378.588 322.261 376.993 322.261 375.292C322.261 373.591 321.304 372.102 319.711 371.145L215.591 311.179C214.635 310.648 212.404 309.691 211.235 309.691C209.641 309.478 207.941 309.691 206.56 310.542L155.35 338.611Z" fill="#E7E8EA"/>
<path d="M155.455 338.717C153.755 339.674 152.799 341.162 152.799 342.863C152.799 344.564 153.755 346.053 155.349 347.01L260.637 407.613C261.912 408.358 263.718 408.677 265.312 408.464C266.48 408.464 268.712 407.613 269.562 407.082L319.709 379.544C321.409 378.587 322.365 377.099 322.365 375.398C322.365 373.697 321.409 372.208 319.815 371.251L215.802 311.392C214.846 310.86 212.615 309.903 211.446 309.903C209.852 309.691 208.152 309.903 206.771 310.648L155.455 338.717Z" fill="#E6E7E9"/>
<path d="M155.455 338.717C153.755 339.674 152.799 341.162 152.799 342.863C152.799 344.458 153.649 346.053 155.243 346.903L260.531 407.507C261.806 408.251 263.612 408.57 265.206 408.251C266.374 408.251 268.606 407.294 269.455 406.869L319.603 379.332C321.197 378.375 322.259 376.886 322.259 375.292C322.259 373.697 321.409 372.102 319.815 371.251L215.802 311.392C214.952 310.86 212.615 309.903 211.446 309.903C209.959 309.691 208.152 309.903 206.771 310.648L155.455 338.717Z" fill="#E5E6E8"/>
<path d="M155.455 338.823C153.862 339.78 152.905 341.269 152.799 342.863C152.799 344.458 153.649 345.947 155.243 346.904L260.531 407.507C261.806 408.252 263.612 408.571 265.206 408.252C266.268 408.252 268.605 407.295 269.455 406.869L319.496 379.438C321.09 378.481 322.046 376.993 322.152 375.398C322.152 373.803 321.302 372.315 319.709 371.358L215.696 311.498C214.846 310.967 212.508 310.01 211.34 310.01C209.852 309.797 208.046 310.01 206.665 310.754L155.455 338.823Z" fill="#E4E5E7"/>
<path d="M155.557 338.823C153.963 339.674 153.007 341.162 153.007 342.863C153.007 344.458 153.857 345.947 155.451 346.797L260.739 407.401C262.014 408.145 263.82 408.464 265.414 408.145C266.476 408.145 268.813 407.188 269.663 406.763L319.704 379.332C321.298 378.481 322.254 376.993 322.254 375.398C322.254 373.803 321.404 372.315 319.811 371.464L215.904 311.605C215.054 311.073 212.61 310.01 211.548 310.01C210.06 309.797 208.254 310.01 206.873 310.754L155.557 338.823Z" fill="#E3E4E6"/>
<path d="M155.557 338.929C153.963 339.78 153.007 341.269 153.007 342.863C153.007 344.458 153.857 345.84 155.345 346.797L260.633 407.401C261.907 408.145 263.714 408.358 265.307 408.145C266.37 408.145 268.707 407.188 269.557 406.657L319.598 379.226C321.192 378.375 322.148 376.887 322.148 375.292C322.148 373.697 321.298 372.315 319.811 371.358L215.904 311.605C215.054 311.073 212.61 310.01 211.548 310.01C210.06 309.691 208.254 310.01 206.979 310.754L155.557 338.929Z" fill="#E2E3E5"/>
<path d="M155.557 338.929C153.963 339.78 153.114 341.269 153.007 342.757C153.007 344.246 153.857 345.734 155.345 346.585L260.633 407.188C261.908 407.933 263.714 408.145 265.201 407.933C266.264 407.933 268.601 406.976 269.451 406.444L319.386 379.013C320.979 378.162 321.829 376.674 321.936 375.185C321.936 373.697 321.086 372.208 319.598 371.358L215.798 311.605C214.948 311.179 212.504 310.01 211.442 310.01C209.954 309.691 208.148 310.01 206.873 310.754L155.557 338.929Z" fill="#E1E2E5"/>
<path d="M155.66 339.036C154.066 339.887 153.216 341.269 153.216 342.864C153.216 344.352 154.066 345.734 155.553 346.691L260.842 407.295C262.117 408.039 263.923 408.252 265.41 408.039C266.366 408.039 268.81 406.976 269.554 406.551L319.489 379.226C321.083 378.375 321.932 376.993 321.932 375.398C321.932 373.91 321.083 372.528 319.595 371.571L215.794 311.818C215.05 311.392 212.501 310.223 211.544 310.223C210.057 309.904 208.251 310.223 206.976 310.967L155.66 339.036Z" fill="#E0E1E4"/>
<path d="M155.66 339.035C154.172 339.886 153.216 341.268 153.216 342.756C153.216 344.245 154.066 345.627 155.447 346.478L260.736 407.081C262.01 407.825 263.817 408.038 265.304 407.719C266.26 407.719 268.704 406.656 269.448 406.231L319.276 378.906C320.764 378.055 321.72 376.673 321.72 375.185C321.72 373.696 320.87 372.314 319.489 371.463L215.794 311.817C215.05 311.391 212.501 310.222 211.544 310.222C210.057 309.903 208.251 310.115 206.976 310.86L155.66 339.035Z" fill="#DFE0E3"/>
<path d="M155.66 339.142C154.172 339.993 153.216 341.375 153.216 342.864C153.216 344.352 154.066 345.734 155.447 346.585L260.736 407.189C262.01 407.933 263.817 408.146 265.304 407.827C266.26 407.827 268.704 406.763 269.448 406.338L319.276 379.013C320.764 378.163 321.72 376.78 321.72 375.292C321.72 373.803 320.87 372.421 319.489 371.571L215.794 311.924C215.05 311.499 212.501 310.329 211.544 310.329C210.057 310.01 208.251 310.223 206.976 310.967L155.66 339.142Z" fill="#DEDFE2"/>
<path d="M155.658 339.142C154.171 339.993 153.321 341.375 153.321 342.757C153.321 344.246 154.064 345.522 155.552 346.372L260.84 406.976C262.115 407.72 263.921 407.933 265.409 407.614C266.365 407.614 268.809 406.551 269.552 406.125L319.275 378.801C320.762 377.95 321.612 376.568 321.612 375.186C321.612 373.697 320.868 372.421 319.381 371.571L215.792 311.924C215.049 311.499 212.499 310.329 211.543 310.329C210.055 310.01 208.249 310.223 206.974 310.967L155.658 339.142Z" fill="#DDDEE1"/>
<path d="M155.778 339.249C154.29 340.1 153.44 341.375 153.44 342.864C153.44 344.246 154.184 345.628 155.672 346.479L260.96 407.083C262.235 407.827 264.041 408.039 265.528 407.721C266.485 407.721 268.928 406.657 269.672 406.232L319.394 379.014C320.882 378.163 321.732 376.887 321.732 375.399C321.732 374.016 320.988 372.634 319.501 371.784L215.912 312.137C215.169 311.711 212.619 310.542 211.662 310.542C210.175 310.223 208.369 310.436 207.094 311.18L155.778 339.249Z" fill="#DCDDE0"/>
<path d="M155.778 339.249C154.29 340.1 153.44 341.375 153.44 342.758C153.44 344.14 154.184 345.416 155.565 346.266L260.854 406.87C262.129 407.614 263.935 407.827 265.422 407.508C266.272 407.508 268.822 406.445 269.566 406.019L319.288 378.801C320.776 377.95 321.626 376.674 321.626 375.292C321.626 373.91 320.882 372.634 319.501 371.784L216.019 312.243C215.275 311.818 212.725 310.542 211.769 310.542C210.281 310.223 208.475 310.436 207.2 311.18L155.778 339.249Z" fill="#DBDCDF"/>
<path d="M155.775 339.355C154.393 340.1 153.543 341.482 153.543 342.864C153.543 344.246 154.287 345.522 155.668 346.266L260.956 406.87C262.231 407.614 264.038 407.827 265.525 407.508C266.375 407.508 268.925 406.338 269.669 406.019L319.285 378.801C320.666 378.057 321.516 376.675 321.516 375.292C321.516 373.91 320.772 372.634 319.391 371.89L215.909 312.35C215.271 311.924 212.615 310.648 211.659 310.648C210.172 310.329 208.366 310.542 207.091 311.286L155.775 339.355Z" fill="#DADBDE"/>
<path d="M155.88 339.355C154.499 340.1 153.649 341.376 153.649 342.758C153.649 344.14 154.392 345.416 155.774 346.16L261.062 406.764C262.337 407.508 264.143 407.721 265.63 407.402C266.48 407.402 269.03 406.232 269.667 405.913L319.284 378.695C320.665 377.95 321.515 376.675 321.515 375.292C321.515 373.91 320.771 372.634 319.39 371.89L216.014 312.35C215.377 311.924 212.614 310.648 211.764 310.648C210.277 310.329 208.471 310.542 207.196 311.286L155.88 339.355Z" fill="#DADBDE"/>
<path d="M155.88 339.461C154.499 340.206 153.649 341.482 153.649 342.864C153.649 344.14 154.392 345.415 155.667 346.16L260.955 406.763C262.23 407.508 264.037 407.72 265.524 407.295C266.374 407.295 268.924 406.125 269.561 405.7L319.071 378.588C320.452 377.844 321.302 376.568 321.302 375.186C321.302 373.803 320.559 372.634 319.284 371.89L215.908 312.349C215.27 311.924 212.508 310.648 211.658 310.648C210.171 310.329 208.365 310.435 207.09 311.18L155.88 339.461Z" fill="#D9DADD"/>
<path d="M155.88 339.566C154.499 340.311 153.755 341.586 153.649 342.862C153.649 344.138 154.392 345.414 155.667 346.158L260.955 406.762C262.23 407.506 264.037 407.719 265.524 407.294C266.374 407.294 268.924 406.124 269.561 405.699L319.071 378.587C320.452 377.842 321.196 376.566 321.302 375.291C321.302 374.015 320.559 372.739 319.284 371.995L216.014 312.56C215.377 312.135 212.614 310.859 211.871 310.859C210.383 310.434 208.577 310.647 207.302 311.391L155.88 339.566Z" fill="#D8D9DC"/>
<path d="M155.879 339.566C154.498 340.311 153.755 341.48 153.755 342.862C153.755 344.138 154.498 345.308 155.773 346.052L261.061 406.656C262.336 407.4 264.142 407.612 265.63 407.187C266.374 407.187 269.03 406.018 269.667 405.592L319.071 378.48C320.452 377.736 321.196 376.566 321.196 375.184C321.196 373.908 320.452 372.739 319.177 371.995L215.908 312.56C215.27 312.242 212.508 310.859 211.764 310.859C210.277 310.434 208.47 310.647 207.196 311.391L155.879 339.566Z" fill="#D7D8DB"/>
<path d="M155.982 339.672C154.601 340.416 153.857 341.586 153.857 342.861C153.857 344.137 154.601 345.307 155.77 346.051L261.058 406.655C262.333 407.399 264.139 407.612 265.626 407.186C266.37 407.186 269.026 405.911 269.663 405.592L319.067 378.479C320.448 377.735 321.192 376.566 321.192 375.29C321.192 374.014 320.448 372.844 319.279 372.1L216.01 312.666C215.373 312.347 212.61 310.965 211.867 310.965C210.379 310.54 208.573 310.752 207.298 311.496L155.982 339.672Z" fill="#D6D7DA"/>
<path d="M155.982 339.672C154.707 340.416 153.963 341.586 153.857 342.862C153.857 344.138 154.495 345.201 155.77 345.945L261.058 406.549C262.333 407.293 264.139 407.506 265.626 407.08C266.37 407.08 269.026 405.805 269.663 405.486L319.067 378.48C320.342 377.735 321.085 376.566 321.192 375.29C321.192 374.014 320.554 372.845 319.279 372.207L216.116 312.879C215.585 312.56 212.716 311.178 211.973 311.178C210.592 310.752 208.679 310.965 207.404 311.709L155.982 339.672Z" fill="#D5D6D9"/>
<path d="M155.981 339.778C154.706 340.523 153.963 341.692 153.963 342.862C153.963 344.031 154.6 345.201 155.875 345.945L261.164 406.549C262.438 407.293 264.245 407.506 265.732 407.08C266.476 407.08 269.132 405.805 269.769 405.486L319.067 378.48C320.342 377.736 321.086 376.566 321.086 375.396C321.086 374.227 320.448 373.057 319.173 372.313L216.01 312.985C215.478 312.666 212.61 311.284 211.866 311.284C210.485 310.859 208.572 311.071 207.298 311.816L155.981 339.778Z" fill="#D4D5D8"/>
<path d="M156.087 339.78C154.812 340.524 154.069 341.587 154.069 342.863C154.069 344.033 154.706 345.202 155.981 345.84L261.269 406.444C262.544 407.188 264.35 407.294 265.838 406.869C266.581 406.869 269.237 405.593 269.769 405.274L319.066 378.268C320.341 377.524 321.085 376.461 321.085 375.185C321.085 374.016 320.447 372.846 319.172 372.208L216.115 312.88C215.584 312.561 212.715 311.073 211.972 311.073C210.591 310.648 208.678 310.86 207.403 311.498L156.087 339.78Z" fill="#D3D4D7"/>
<path d="M156.087 339.885C154.812 340.63 154.069 341.693 154.069 342.862C154.069 344.032 154.706 345.095 155.875 345.84L261.163 406.443C262.438 407.187 264.244 407.294 265.732 406.868C266.369 406.868 269.131 405.593 269.663 405.274L318.854 378.268C320.129 377.524 320.872 376.46 320.872 375.291C320.872 374.121 320.235 373.058 319.066 372.314L216.009 312.986C215.478 312.667 212.609 311.178 211.866 311.178C210.484 310.753 208.572 310.859 207.297 311.604L156.087 339.885Z" fill="#D2D3D6"/>
<path d="M156.083 339.886C154.809 340.523 154.171 341.693 154.171 342.756C154.171 343.926 154.809 344.989 155.977 345.627L261.265 406.231C262.54 406.975 264.346 407.081 265.834 406.656C266.471 406.656 269.234 405.274 269.765 405.061L318.956 378.055C320.231 377.417 320.868 376.248 320.868 375.184C320.868 374.015 320.231 372.952 319.062 372.314L216.111 313.092C215.58 312.773 212.712 311.285 211.968 311.285C210.587 310.86 208.674 310.966 207.399 311.71L156.083 339.886Z" fill="#D1D2D6"/>
<path d="M156.189 339.993C155.021 340.631 154.277 341.694 154.277 342.864C154.277 343.927 154.915 344.99 156.083 345.734L261.372 406.338C262.646 407.082 264.559 407.189 265.94 406.763C266.577 406.763 269.34 405.381 269.871 405.169L318.956 378.269C320.125 377.631 320.868 376.568 320.868 375.398C320.868 374.335 320.231 373.272 319.062 372.528L216.111 313.306C215.58 312.987 212.605 311.499 211.968 311.499C210.587 311.073 208.674 311.18 207.399 311.924L156.189 339.993Z" fill="#D0D1D5"/>
<path d="M156.189 339.993C155.021 340.631 154.277 341.694 154.277 342.757C154.277 343.821 154.915 344.884 155.977 345.522L261.265 406.126C262.54 406.87 264.453 406.976 265.834 406.551C266.471 406.551 269.234 405.169 269.765 404.956L318.85 378.056C320.018 377.419 320.762 376.355 320.762 375.292C320.762 374.229 320.125 373.166 319.062 372.528L216.218 313.306C215.793 312.987 212.712 311.499 212.18 311.499C210.799 311.073 208.887 311.18 207.612 311.924L156.189 339.993Z" fill="#CFD0D4"/>
<path d="M156.199 340.099C155.031 340.737 154.393 341.801 154.393 342.864C154.393 343.927 155.031 344.99 156.093 345.628L261.382 406.232C262.657 406.976 264.569 407.082 265.95 406.657C266.481 406.657 269.35 405.275 269.881 404.956L318.966 378.056C320.135 377.418 320.772 376.355 320.772 375.292C320.772 374.229 320.135 373.166 319.072 372.528L216.228 313.306C215.803 313.094 212.722 311.499 212.19 311.499C210.809 311.073 208.897 311.18 207.622 311.924L156.199 340.099Z" fill="#CECFD3"/>
<path d="M156.199 340.099C155.031 340.737 154.393 341.693 154.393 342.757C154.393 343.82 154.925 344.777 156.093 345.415L261.382 406.018C262.657 406.763 264.569 406.869 265.95 406.444C266.481 406.444 269.35 405.061 269.775 404.743L318.754 377.843C319.923 377.205 320.56 376.248 320.56 375.185C320.56 374.122 320.029 373.165 318.86 372.527L216.121 313.412C215.696 313.199 212.615 311.604 212.084 311.604C210.703 311.179 208.791 311.285 207.516 312.03L156.199 340.099Z" fill="#CDCED2"/>
<path d="M156.305 340.205C155.136 340.843 154.499 341.8 154.499 342.863C154.499 343.926 155.03 344.883 156.092 345.521L261.381 406.124C262.656 406.869 264.568 406.975 265.949 406.443C266.48 406.443 269.349 405.061 269.774 404.742L318.753 377.949C319.921 377.311 320.559 376.354 320.559 375.291C320.559 374.228 320.027 373.271 318.965 372.633L216.227 313.518C215.802 313.305 212.721 311.71 212.189 311.71C210.808 311.179 208.896 311.391 207.621 312.136L156.305 340.205Z" fill="#CCCDD1"/>
<path d="M156.305 340.205C155.242 340.843 154.605 341.8 154.499 342.757C154.499 343.714 155.03 344.671 156.092 345.309L261.381 405.913C262.656 406.657 264.568 406.763 265.949 406.232C266.48 406.232 269.349 404.743 269.774 404.53L318.646 377.737C319.709 377.099 320.346 376.142 320.452 375.185C320.452 374.229 319.921 373.272 318.859 372.634L216.227 313.519C215.802 313.306 212.721 311.605 212.189 311.605C210.808 311.073 208.896 311.179 207.621 311.924L156.305 340.205Z" fill="#CBCCD0"/>
<path d="M156.304 340.312C155.242 340.95 154.604 341.907 154.604 342.863C154.604 343.82 155.135 344.777 156.198 345.309L261.486 405.913C262.761 406.657 264.674 406.763 266.055 406.232C266.586 406.232 269.455 404.743 269.88 404.53L318.752 377.737C319.814 377.099 320.452 376.142 320.452 375.185C320.452 374.229 319.921 373.272 318.858 372.634L216.226 313.519C215.801 313.306 212.72 311.605 212.189 311.605C210.808 311.073 208.895 311.179 207.62 311.924L156.304 340.312Z" fill="#CACBCF"/>
<path d="M156.408 340.311C155.345 340.949 154.708 341.8 154.708 342.756C154.708 343.713 155.239 344.564 156.302 345.202L261.59 405.806C262.865 406.55 264.777 406.656 266.158 406.124C266.583 406.124 269.558 404.636 269.983 404.423L318.749 377.63C319.811 376.992 320.449 376.142 320.449 375.185C320.449 374.228 319.918 373.377 318.855 372.739L216.223 313.73C215.905 313.518 212.717 311.817 212.186 311.817C210.805 311.285 208.892 311.391 207.618 312.136L156.408 340.311Z" fill="#C9CACF"/>
<path d="M156.408 340.418C155.345 341.056 154.814 341.907 154.708 342.864C154.708 343.821 155.239 344.671 156.195 345.203L261.484 405.807C262.758 406.551 264.671 406.657 266.052 406.126C266.477 406.126 269.452 404.637 269.877 404.424L318.643 377.738C319.706 377.1 320.237 376.249 320.343 375.292C320.343 374.335 319.812 373.485 318.856 372.847L216.33 313.838C216.011 313.625 212.823 311.924 212.292 311.924C210.911 311.392 208.999 311.499 207.724 312.243L156.408 340.418Z" fill="#C8C9CE"/>
<path d="M156.406 340.523C155.344 341.055 154.813 342.012 154.813 342.862C154.813 343.819 155.344 344.67 156.3 345.201L261.588 405.805C262.863 406.549 264.775 406.655 266.157 406.124C266.582 406.124 269.556 404.635 269.981 404.423L318.747 377.736C319.81 377.204 320.341 376.247 320.341 375.397C320.341 374.44 319.81 373.589 318.854 373.058L216.328 314.049C216.009 313.836 212.822 312.135 212.397 312.135C211.016 311.603 209.103 311.71 207.829 312.454L156.406 340.523Z" fill="#C7C8CD"/>
<path d="M156.406 340.523C155.344 341.055 154.813 341.905 154.813 342.862C154.813 343.713 155.344 344.563 156.3 345.095L261.588 405.699C262.863 406.443 264.776 406.549 266.157 406.018C266.582 406.018 269.557 404.423 269.876 404.316L318.535 377.629C319.598 377.098 320.129 376.247 320.129 375.29C320.129 374.44 319.598 373.589 318.642 373.058L216.222 314.049C215.903 313.836 212.716 312.135 212.291 312.135C210.91 311.603 208.997 311.71 207.722 312.454L156.406 340.523Z" fill="#C6C7CC"/>
<path d="M156.511 340.629C155.555 341.16 154.918 342.011 154.918 342.862C154.918 343.712 155.449 344.563 156.299 345.094L261.587 405.698C262.862 406.442 264.775 406.549 266.156 405.911C266.581 405.911 269.556 404.316 269.874 404.209L318.534 377.523C319.49 376.991 320.022 376.14 320.128 375.29C320.128 374.439 319.597 373.589 318.747 373.057L216.327 314.155C216.008 313.942 212.715 312.241 212.396 312.241C211.121 311.709 209.102 311.815 207.827 312.453L156.511 340.629Z" fill="#C5C6CB"/>
<path d="M156.509 340.63C155.552 341.161 155.021 342.012 155.021 342.863C155.021 343.713 155.446 344.457 156.402 344.989L261.691 405.593C262.966 406.337 264.878 406.443 266.259 405.805C266.578 405.805 269.659 404.21 269.978 404.104L318.531 377.524C319.488 376.992 320.019 376.141 320.019 375.291C320.019 374.44 319.594 373.696 318.638 373.164L216.324 314.262C216.006 314.049 212.712 312.348 212.393 312.348C211.118 311.817 209.1 311.923 207.825 312.561L156.509 340.63Z" fill="#C4C5CA"/>
<path d="M156.509 340.737C155.552 341.269 155.021 342.013 155.021 342.863C155.021 343.714 155.446 344.458 156.402 344.99L261.691 405.594C262.966 406.338 264.878 406.444 266.259 405.806C266.578 405.806 269.659 404.211 269.978 403.999L318.531 377.418C319.488 376.887 320.019 376.142 320.019 375.292C320.019 374.441 319.594 373.697 318.638 373.165L216.324 314.263C216.112 314.156 212.712 312.243 212.393 312.243C211.118 311.711 209.1 311.711 207.825 312.455L156.509 340.737Z" fill="#C3C4C9"/>
<path d="M156.614 340.736C155.658 341.268 155.127 342.012 155.127 342.863C155.127 343.607 155.552 344.457 156.402 344.883L261.69 405.486C262.965 406.231 264.877 406.231 266.258 405.699C266.577 405.699 269.658 404.104 269.977 403.892L318.424 377.311C319.38 376.779 319.911 376.035 319.911 375.185C319.911 374.44 319.486 373.59 318.637 373.164L216.43 314.368C216.217 314.262 212.817 312.348 212.499 312.348C211.224 311.817 209.205 311.817 207.93 312.561L156.614 340.736Z" fill="#C2C3C8"/>
<path d="M156.627 340.842C155.671 341.374 155.246 342.118 155.246 342.862C155.246 343.606 155.671 344.351 156.521 344.882L261.809 405.486C263.084 406.23 264.996 406.23 266.378 405.699C266.696 405.699 269.883 404.104 270.096 403.891L318.543 377.311C319.5 376.779 319.925 376.035 319.925 375.29C319.925 374.546 319.5 373.802 318.65 373.27L216.443 314.474C216.23 314.368 212.83 312.454 212.512 312.454C211.237 311.816 209.218 311.922 207.943 312.667L156.627 340.842Z" fill="#C1C2C7"/>
<path d="M156.627 340.842C155.777 341.374 155.246 342.118 155.246 342.862C155.246 343.606 155.671 344.351 156.521 344.776L261.809 405.38C263.084 406.124 264.996 406.124 266.378 405.592C266.696 405.592 269.883 403.891 270.096 403.785L318.543 377.204C319.393 376.673 319.925 375.928 319.925 375.184C319.925 374.44 319.5 373.696 318.65 373.27L216.549 314.474C216.336 314.368 212.937 312.454 212.618 312.454C211.343 311.816 209.324 311.922 208.049 312.667L156.627 340.842Z" fill="#C0C2C7"/>
<path d="M156.73 340.949C155.88 341.48 155.349 342.118 155.349 342.862C155.349 343.607 155.774 344.245 156.624 344.776L261.912 405.38C263.187 406.124 265.099 406.124 266.48 405.593C266.693 405.593 269.986 403.891 270.093 403.785L318.434 377.311C319.284 376.779 319.815 376.141 319.815 375.397C319.815 374.653 319.39 374.015 318.54 373.483L216.439 314.687C216.227 314.581 212.827 312.667 212.508 312.667C211.233 312.029 209.215 312.135 207.94 312.88L156.73 340.949Z" fill="#BFC1C6"/>
<path d="M156.73 340.95C155.88 341.375 155.455 342.119 155.349 342.864C155.349 343.608 155.774 344.246 156.517 344.671L261.806 405.275C263.081 406.019 264.993 406.019 266.374 405.381C266.587 405.381 269.88 403.68 269.986 403.574L318.328 377.099C319.178 376.674 319.602 375.93 319.709 375.292C319.709 374.548 319.284 373.91 318.54 373.484L216.546 314.794C216.333 314.688 212.933 312.774 212.721 312.774C211.446 312.136 209.427 312.243 208.152 312.987L156.73 340.95Z" fill="#BEC0C5"/>
<path d="M156.729 341.055C155.879 341.48 155.454 342.225 155.454 342.863C155.454 343.5 155.879 344.138 156.623 344.67L261.911 405.274C263.186 406.018 265.099 406.018 266.48 405.38C266.692 405.38 269.986 403.679 270.092 403.572L318.327 377.098C319.177 376.673 319.602 375.929 319.602 375.291C319.602 374.653 319.177 374.015 318.433 373.483L216.439 314.793C216.226 314.687 212.826 312.773 212.614 312.773C211.339 312.135 209.32 312.242 208.045 312.88L156.729 341.055Z" fill="#BDBFC4"/>
<path d="M156.729 341.056C155.879 341.481 155.454 342.119 155.454 342.757C155.454 343.395 155.879 344.033 156.623 344.459L261.911 405.062C263.186 405.806 265.099 405.806 266.48 405.168C266.692 405.168 269.986 403.467 270.092 403.361L318.327 376.887C319.177 376.461 319.602 375.824 319.602 375.186C319.602 374.548 319.177 373.91 318.433 373.484L216.439 314.795C216.332 314.688 212.826 312.775 212.614 312.775C211.339 312.137 209.32 312.137 208.045 312.881L156.729 341.056Z" fill="#BCBEC3"/>
<path d="M156.835 341.162C156.092 341.587 155.667 342.225 155.56 342.863C155.56 343.501 155.879 344.139 156.623 344.564L261.911 405.168C263.186 405.912 265.098 405.912 266.479 405.274C266.586 405.274 269.985 403.467 270.092 403.467L318.22 377.099C318.964 376.673 319.389 376.036 319.495 375.398C319.495 374.76 319.176 374.122 318.433 373.696L216.545 315.007C216.438 314.9 212.826 312.986 212.72 312.986C211.445 312.349 209.426 312.348 208.151 313.093L156.835 341.162Z" fill="#BBBDC2"/>
<path d="M156.832 341.162C156.088 341.587 155.663 342.225 155.663 342.757C155.663 343.395 155.981 343.926 156.725 344.352L262.013 404.955C263.288 405.699 265.201 405.699 266.582 405.061C266.688 405.061 270.088 403.254 270.194 403.254L318.323 376.886C319.067 376.461 319.492 375.823 319.492 375.291C319.492 374.653 319.173 374.122 318.429 373.696L216.541 315.113C216.435 315.007 212.822 312.986 212.716 312.986C211.441 312.349 209.422 312.348 208.147 313.093L156.832 341.162Z" fill="#BABCC1"/>
<path d="M156.832 341.268C156.088 341.694 155.663 342.225 155.663 342.863C155.663 343.395 155.981 344.033 156.725 344.458L262.013 405.062C263.288 405.806 265.201 405.806 266.582 405.168C266.688 405.168 270.088 403.361 270.088 403.361L318.11 376.993C318.854 376.567 319.279 376.036 319.279 375.398C319.279 374.866 318.96 374.228 318.217 373.803L216.435 315.219C216.328 315.219 212.716 313.093 212.61 313.093C211.335 312.455 209.316 312.455 208.041 313.199L156.832 341.268Z" fill="#B9BBC0"/>
<path d="M156.937 341.268C156.194 341.693 155.875 342.225 155.769 342.757C155.769 343.288 156.087 343.82 156.725 344.245L262.013 404.849C263.288 405.593 265.201 405.593 266.582 404.849C266.688 404.849 270.088 403.041 270.088 402.935L318.111 376.567C318.854 376.142 319.173 375.61 319.279 375.079C319.279 374.547 318.961 374.015 318.323 373.59L216.541 315.006C216.434 315.006 212.822 312.88 212.716 312.88C211.441 312.242 209.528 312.242 208.147 312.986L156.937 341.268Z" fill="#B8BAC0"/>
<path d="M156.937 341.375C156.193 341.8 155.874 342.332 155.874 342.863C155.874 343.395 156.193 343.926 156.831 344.352L262.119 404.955C263.394 405.7 265.306 405.7 266.687 404.955C266.793 404.955 270.193 403.148 270.193 403.042L318.216 376.78C318.959 376.355 319.278 375.823 319.278 375.291C319.278 374.76 318.959 374.228 318.322 373.803L216.646 315.326C216.646 315.326 212.928 313.199 212.821 313.199C211.546 312.561 209.528 312.561 208.253 313.306L156.937 341.375Z" fill="#B7B9BF"/>
<path d="M156.937 341.374C156.193 341.799 155.874 342.225 155.874 342.756C155.874 343.288 156.193 343.82 156.831 344.139L262.119 404.742C263.287 405.487 265.306 405.487 266.687 404.742L270.193 402.828L318.109 376.567C318.747 376.142 319.172 375.716 319.172 375.185C319.172 374.653 318.853 374.121 318.216 373.803L216.54 315.325L212.821 313.199C211.546 312.455 209.528 312.561 208.253 313.199L156.937 341.374Z" fill="#B6B8BE"/>
<path d="M156.937 341.481C156.299 341.906 155.874 342.331 155.874 342.863C155.874 343.395 156.193 343.82 156.831 344.245L262.119 404.849C263.287 405.593 265.412 405.593 266.687 404.849L270.193 402.935L318.109 376.673C318.747 376.248 319.172 375.823 319.172 375.291C319.172 374.76 318.853 374.334 318.216 373.909L216.646 315.432L212.928 313.305C211.759 312.561 209.74 312.561 208.359 313.305L156.937 341.481Z" fill="#B5B7BD"/>
<path d="M318.116 374.015L212.828 313.412C211.659 312.667 209.64 312.667 208.259 313.412L156.943 341.587C155.668 342.331 155.562 343.501 156.837 344.139L262.125 404.743C263.294 405.487 265.419 405.487 266.694 404.743L318.01 376.567C319.285 375.823 319.391 374.76 318.116 374.015Z" fill="#B4B6BC"/>
<path d="M157.471 341.586H164.483V342.862L206.131 320.215C209.319 318.301 214.95 318.62 218.774 320.747L310.676 371.888V370.931H317.688V376.353C317.688 376.566 317.582 376.779 317.263 376.991L267.541 404.529C264.566 406.23 259.254 406.017 255.748 404.104L157.79 347.859C157.471 347.646 157.365 347.434 157.471 347.115H157.365V341.586H157.471Z" fill="#B7BAC7"/>
<path d="M317.26 371.356L267.538 398.893C264.457 400.594 259.251 400.488 255.745 398.468L157.787 342.223C157.256 341.904 157.256 341.16 157.787 340.841L177.018 330.422L206.129 314.686C209.316 312.772 214.947 313.091 218.665 315.218L238.639 326.381L317.26 370.08C317.791 370.399 317.685 371.037 317.26 371.356Z" fill="#EBEAF1"/>
<path d="M265.096 217.189C243.103 204.643 219.304 216.87 219.517 240.58L282.945 365.508L287.407 363.063L286.345 251.744C286.132 238.134 277.739 224.419 265.096 217.189Z" fill="#B7BAC7"/>
<path d="M282.943 365.508L245.544 344.244L215.902 327.445L215.158 243.025C214.946 219.315 238.745 207.088 260.737 219.634C260.844 219.634 260.844 219.634 260.844 219.74C273.487 226.97 281.88 240.58 281.986 254.189L282.943 365.508Z" fill="#E0E0E6"/>
<path d="M413.091 160.626L396.092 299.376L387.592 368.911C386.955 374.44 383.768 382.839 373.143 382.839C373.037 382.839 373.037 382.839 373.037 382.839C371.656 382.839 370.168 382.627 368.575 382.308C368.469 382.308 368.362 382.308 368.362 382.201L287.192 333.399L282.729 330.741L257.762 315.75H257.656L215.583 290.445L104.132 223.356C101.264 221.761 99.6702 218.89 99.9889 215.913L101.795 198.37L107.851 139.787L121.344 9.3292C121.663 7.20275 122.619 5.39528 124.106 4.01309C124.213 3.90677 124.319 3.90678 124.319 3.80046C124.638 3.58781 124.85 3.37516 125.169 3.16251C129.631 -0.239801 136.962 -0.984057 141.212 1.35503L193.59 31.0189L314.178 99.3842L319.596 102.467L356.888 123.626L409.054 153.183C411.922 154.884 413.41 157.649 413.091 160.626Z" fill="#B7BAC7"/>
<path d="M407.992 164.135L382.068 374.972C381.537 379.225 377.5 382.202 373.037 382.733C372.931 382.733 372.931 382.733 372.931 382.733C371.444 382.84 369.956 382.733 368.469 382.202C368.363 382.202 368.256 382.202 368.256 382.096C367.619 381.883 366.981 381.67 366.344 381.351L286.98 335.845L282.517 333.294L259.887 320.322L225.995 300.865L215.583 294.911L99.0333 227.928C96.1647 226.333 94.571 223.463 94.996 220.379L97.9708 196.138L105.089 138.192L113.801 67.3816L120.92 9.54231C121.238 7.30954 122.407 5.39574 124.213 4.11987C124.319 4.01355 124.426 4.01356 124.426 3.90724C124.744 3.6946 125.063 3.48194 125.382 3.26929C128.675 1.46181 133.031 1.14284 136.538 3.16297L318.959 107.89L403.954 156.692C406.717 158.287 408.311 161.158 407.992 164.135Z" fill="#EBEAF1"/>
<path d="M396.302 170.938L372.61 363.913C372.185 367.422 367.404 369.336 364.004 367.422L350.723 359.873L320.019 342.542L299.089 330.741L240.76 297.781L112.204 225.163C107.955 222.824 105.724 218.677 106.255 214.318L129.947 21.3428C130.372 17.8342 135.153 15.9204 138.553 17.8342L189.019 46.3286L247.347 79.2885L268.384 91.1966L297.495 107.676L390.565 160.2C394.602 162.539 396.833 166.685 396.302 170.938Z" fill="url(#paint1_linear)"/>
<path d="M396.303 170.832L393.966 189.864L127.611 38.7799L129.736 21.1304C130.267 17.6218 134.942 15.708 138.342 17.6218L188.808 46.1162L247.136 79.0761L268.172 90.9842L297.283 107.464L390.353 160.094C394.497 162.433 396.728 166.579 396.303 170.832Z" fill="#4A4A66"/>
<path d="M346.154 157.33L330.112 147.868C329.687 147.549 329.262 147.017 329.368 146.592C329.474 146.166 329.793 146.06 330.324 146.273L346.367 155.735C346.792 156.054 347.217 156.586 347.11 157.011C347.11 157.437 346.686 157.543 346.154 157.33Z" fill="white"/>
<path d="M384.194 179.551C383.981 179.445 383.769 179.126 383.556 178.913L374.738 161.264C374.525 160.732 374.632 160.307 374.951 160.2C375.375 160.094 375.907 160.519 376.119 161.051L384.937 178.701C385.15 179.232 385.044 179.657 384.725 179.764C384.619 179.764 384.406 179.657 384.194 179.551Z" fill="white"/>
<path d="M373.886 173.49C373.673 173.383 373.461 173.171 373.355 172.958C373.036 172.427 373.036 171.895 373.355 171.789L385.148 166.154C385.467 165.941 385.998 166.26 386.317 166.791C386.635 167.323 386.635 167.855 386.317 167.961L374.523 173.596C374.417 173.702 374.098 173.702 373.886 173.49Z" fill="white"/>
<path d="M365.705 154.353C364.218 152.439 362.199 150.951 360.074 150.207C357.843 149.462 355.825 149.781 354.337 150.951C352.85 152.12 352.212 154.034 352.425 156.267C352.85 160.732 356.462 165.304 360.818 166.793C361.668 167.112 362.412 167.218 363.262 167.218C364.537 167.218 365.705 166.899 366.555 166.155C368.043 164.985 368.68 163.072 368.468 160.839C368.255 158.5 367.299 156.267 365.705 154.353ZM365.387 164.56C364.43 165.304 363.049 165.411 361.456 164.985C357.843 163.816 354.656 159.882 354.337 156.161C354.231 154.566 354.656 153.184 355.612 152.439C356.143 152.014 356.887 151.801 357.737 151.801C358.268 151.801 358.906 151.908 359.543 152.12C363.155 153.29 366.343 157.224 366.662 160.945C366.768 162.54 366.343 163.816 365.387 164.56Z" fill="white"/>
<g opacity="0.3">
<path opacity="0.3" d="M237.471 104.169L235.239 121.712L218.134 256.954C217.709 260.144 212.503 261.632 208.572 259.506L193.592 251.425L97.4404 199.859L97.8655 196.138L104.984 138.192L113.696 67.3814L117.839 33.252L230.458 93.643C235.346 96.0884 237.896 100.129 237.471 104.169Z" fill="#4A4A66"/>
<path opacity="0.3" d="M379.308 142.445L373.465 193.161C373.252 194.756 371.234 195.713 369.64 194.862L283.369 146.592C282.625 146.167 282.2 145.422 282.307 144.678L288.575 90.2412L318.855 107.678L379.308 142.445Z" fill="#4A4A66"/>
<path opacity="0.3" d="M393.548 264.29L293.041 207.62C291.022 206.45 288.26 207.62 287.941 209.64L278.485 285.023C278.379 285.979 278.91 286.936 279.866 287.468L380.373 344.138C382.392 345.307 385.154 344.138 385.473 342.118L394.929 266.735C395.035 265.778 394.504 264.821 393.548 264.29Z" fill="#4A4A66"/>
</g>
<path d="M200.4 117.246V136.065V286.192C200.4 289.807 195.831 291.721 192.113 289.807L177.557 282.152L13.1973 195.818C8.62881 193.373 5.76025 189.12 5.76025 184.761V15.7083C5.76025 12.0933 10.3287 10.1795 14.1535 12.0933L193.069 106.188C197.531 108.634 200.4 112.887 200.4 117.246Z" fill="#27449C"/>
<path d="M200.4 117.246V136.065L195.62 139.148L11.7105 32.1882L5.65454 27.51V15.7083C5.65454 12.0933 10.2231 10.1795 14.0479 12.0933L192.963 106.188C197.532 108.634 200.4 112.887 200.4 117.246Z" fill="#403E56"/>
<path d="M195.613 119.797V139.254V288.743C195.613 292.358 191.044 294.272 187.22 292.358L172.664 284.703L8.19782 198.37C7.13537 197.838 6.28548 197.2 5.43552 196.456C2.56692 194.01 0.760742 190.714 0.760742 187.206V36.3345V18.366C0.760742 14.751 5.32918 12.8372 9.15398 14.751L188.069 108.846C192.744 111.185 195.613 115.438 195.613 119.797Z" fill="url(#paint2_linear)"/>
<path d="M195.612 119.797V139.254L0.866211 36.3345V18.366C0.866211 14.751 5.43482 12.8372 9.25962 14.751L188.175 108.846C192.744 111.185 195.612 115.438 195.612 119.797Z" fill="#4A4A66"/>
<path opacity="0.25" d="M155.027 91.1967L5.541 196.349C2.67239 193.904 0.866211 190.608 0.866211 187.099V36.3345V18.366C0.866211 14.751 5.43482 12.8372 9.25962 14.751L155.027 91.1967Z" fill="white"/>
<path d="M142.816 105.977L125.286 96.4076C124.755 96.0886 124.33 95.557 124.33 95.1317C124.33 94.7064 124.755 94.4938 125.286 94.8128L142.816 104.382C143.348 104.701 143.773 105.232 143.773 105.658C143.773 106.083 143.348 106.296 142.816 105.977Z" fill="white"/>
<path d="M184.355 128.73C184.036 128.623 183.824 128.304 183.611 128.092L172.456 110.017C172.137 109.486 172.137 109.06 172.562 108.954C172.987 108.848 173.518 109.273 173.837 109.804L184.992 127.879C185.311 128.411 185.311 128.942 184.886 128.942C184.78 128.836 184.567 128.836 184.355 128.73Z" fill="white"/>
<path d="M173.093 122.562C172.881 122.456 172.668 122.243 172.455 122.031C172.03 121.499 172.031 120.968 172.349 120.861L183.611 115.12C183.93 114.907 184.568 115.226 184.887 115.758C185.312 116.289 185.311 116.821 184.993 116.927L173.731 122.669C173.624 122.775 173.412 122.669 173.093 122.562Z" fill="white"/>
<path d="M157.482 114.057C153.232 111.718 149.726 106.721 149.726 103C149.726 99.2783 153.232 98.1088 157.482 100.448C161.732 102.787 165.238 107.784 165.238 111.505C165.238 115.227 161.732 116.396 157.482 114.057ZM157.482 102.043C154.188 100.235 151.532 101.192 151.532 104.063C151.532 106.934 154.188 110.655 157.376 112.462C160.669 114.27 163.326 113.313 163.326 110.442C163.432 107.571 160.776 103.85 157.482 102.043Z" fill="white"/>
<path d="M99.8877 133.406L112.212 140.317V137.447L99.8877 130.536V133.406Z" fill="white"/>
<path d="M129.639 150.099L146.319 159.562V156.585L129.639 147.229V150.099Z" fill="white"/>
<path d="M113.912 141.274L126.874 148.61V145.633L113.912 138.403V141.274Z" fill="white"/>
<path d="M99.8877 139.892L146.211 166.047V163.177L99.8877 137.021V139.892Z" fill="white"/>
<path d="M142.815 164.134L177.557 183.804L177.663 180.933L142.815 161.264V164.134Z" fill="white"/>
<path d="M99.7822 146.486L114.975 154.992V152.121L99.7822 143.509V146.486Z" fill="white"/>
<path d="M99.7822 152.97L146.104 179.126L146.211 176.255L99.7822 150.1V152.97Z" fill="white"/>
<path d="M99.6763 159.457L110.407 165.517V162.646L99.7825 156.586L99.6763 159.457Z" fill="white"/>
<path d="M113.809 167.431L126.664 174.661V171.79L113.809 164.56V167.431Z" fill="white"/>
<path d="M99.6763 166.048L122.306 178.807V175.83L99.6763 163.177V166.048Z" fill="white"/>
<path d="M126.447 181.145L146.103 192.202V189.225L126.447 178.167V181.145Z" fill="white"/>
<path d="M51.6592 99.8092L74.1825 112.568L74.2888 109.591L51.6592 96.9385V99.8092Z" fill="white"/>
<path d="M122.522 136.702L78.3242 111.929V114.8L122.522 139.573V136.702Z" fill="white"/>
<path d="M81.2939 123.093L100.524 133.725V130.855L81.2939 120.116V123.093Z" fill="white"/>
<path d="M65.5806 114.27L78.542 121.499V118.629L65.6869 111.292L65.5806 114.27Z" fill="white"/>
<path d="M51.5532 112.886L100.426 140.317V137.447L51.5532 109.909V112.886Z" fill="white"/>
<path d="M72.3691 131.174L100.417 146.803V143.932L72.3691 128.197V131.174Z" fill="white"/>
<path d="M113.062 153.928L141.11 169.664V166.686L113.062 151.057V153.928Z" fill="white"/>
<path d="M51.4482 125.858L100.321 153.395L100.427 150.418L51.4482 122.987V125.858Z" fill="white"/>
<path d="M51.4482 132.451L62.0722 138.511L62.1786 135.534L51.4482 129.58V132.451Z" fill="white"/>
<path d="M65.4609 140.318L78.3166 147.655L78.4228 144.678L65.4609 137.448V140.318Z" fill="white"/>
<path d="M80.5605 148.825L100.322 159.882V157.012L80.5605 145.954V148.825Z" fill="white"/>
<path d="M144.516 175.299V178.17L175.433 195.5V192.629L144.516 175.299Z" fill="white"/>
<path d="M51.3452 138.935L73.975 151.694V148.823L51.4514 136.064L51.3452 138.935Z" fill="white"/>
<path d="M78.1128 154.034L100.318 166.368V163.497L78.1128 151.164V154.034Z" fill="white"/>
<path d="M25.2017 87.1573L38.163 94.3872V91.5166L25.3078 84.2866L25.2017 87.1573Z" fill="white"/>
<path d="M25.4102 93.6432L38.266 100.979V98.1087L25.4102 90.7725V93.6432Z" fill="white"/>
<path d="M25.5156 100.447L38.4776 107.677V104.806L25.5156 97.4702V100.447Z" fill="white"/>
<path d="M25.6216 106.828L38.5832 114.058V111.187L25.7278 103.851L25.6216 106.828Z" fill="white"/>
<path d="M25.8442 113.631L38.6995 120.861V117.99L25.8442 110.76V113.631Z" fill="white"/>
<path d="M26.0527 120.437L38.9086 127.667L39.0148 124.796L26.0527 117.46V120.437Z" fill="white"/>
<path d="M26.2612 127.028L39.2228 134.258V131.387L26.3674 124.157L26.2612 127.028Z" fill="white"/>
<path d="M26.4712 133.621L39.4326 140.851V137.98L26.5774 130.75L26.4712 133.621Z" fill="white"/>
<path d="M26.4712 141.382L39.4326 148.719V145.848L26.5774 138.512L26.4712 141.382Z" fill="white"/>
<path d="M26.5874 148.186L39.5491 155.416V152.546L26.5874 145.209V148.186Z" fill="white"/>
<path d="M26.7988 154.885L39.6546 162.115V159.244L26.7988 151.908V154.885Z" fill="white"/>
<path d="M26.9014 161.583L39.7572 168.813L39.8634 165.942L26.9014 158.606V161.583Z" fill="white"/>
<path d="M27.1128 168.387L39.9682 175.617L40.0744 172.746L27.1128 165.41V168.387Z" fill="white"/>
<path d="M27.2158 175.086L40.1777 182.316V179.445L27.2158 172.215V175.086Z" fill="white"/>
<path d="M53.3591 85.4556L55.059 86.4124V84.7113L53.3591 83.7544V85.4556Z" fill="white"/>
<path d="M56.1199 86.9443L57.8199 87.9012L57.9261 86.2001L56.1199 85.2432V86.9443Z" fill="white"/>
<path d="M58.6724 88.2202L60.3725 89.1771V87.476L58.6724 86.519V88.2202Z" fill="white"/>
<path d="M99.6777 173.808L122.202 186.566L122.308 183.589L99.6777 170.937V173.808Z" fill="white"/>
<path d="M144.504 199.114L167.134 211.872V209.002L144.611 196.243L144.504 199.114Z" fill="white"/>
<path d="M126.343 188.906L145.999 199.964V197.093L126.343 185.929V188.906Z" fill="white"/>
<path d="M99.5728 180.294L111.897 187.311V184.334L99.5728 177.423V180.294Z" fill="white"/>
<path d="M113.6 188.268L126.561 195.498V192.627L113.706 185.397L113.6 188.268Z" fill="white"/>
<path d="M99.5728 186.885L145.895 213.04L146.002 210.063L99.5728 184.014V186.885Z" fill="white"/>
<path d="M144.19 212.084L172.876 228.033V225.162L144.296 209.107L144.19 212.084Z" fill="white"/>
<path d="M99.4697 193.372L114.769 201.984V199.114L99.5761 190.501L99.4697 193.372Z" fill="white"/>
<path d="M120.392 205.172L145.89 219.525V216.655L120.392 202.301V205.172Z" fill="white"/>
<path d="M99.4697 199.963L145.899 226.012V223.141L99.4697 196.986V199.963Z" fill="white"/>
<path d="M143.443 231.329L172.129 247.278V244.407L143.549 228.458L143.443 231.329Z" fill="white"/>
<path d="M99.4697 206.449L110.094 212.51L110.201 209.639L99.4697 203.579V206.449Z" fill="white"/>
<path d="M113.48 214.317L126.336 221.653L126.442 218.783L113.48 211.446V214.317Z" fill="white"/>
<path d="M128.568 222.823L145.78 232.604V229.734L128.568 219.952V222.823Z" fill="white"/>
<path d="M99.3501 213.042L121.98 225.694V222.824L99.4563 210.065L99.3501 213.042Z" fill="white"/>
<path d="M126.135 228.033L145.79 239.09V236.22L126.135 225.162V228.033Z" fill="white"/>
<path d="M78.1016 161.794L100.2 174.234V171.257L78.1016 158.923V161.794Z" fill="white"/>
<path d="M51.3301 153.288L63.5482 160.199L63.6545 157.328L51.3301 150.417V153.288Z" fill="white"/>
<path d="M80.9819 169.981L100.212 180.72V177.849L80.9819 167.11V169.981Z" fill="white"/>
<path d="M65.3574 161.156L78.2129 168.492V165.515L65.3574 158.285V161.156Z" fill="white"/>
<path d="M51.2271 159.774L100.206 187.205V184.334L51.2271 156.903V159.774Z" fill="white"/>
<path d="M72.0571 178.062L100.106 193.798V190.927L72.0571 175.191V178.062Z" fill="white"/>
<path d="M51.1216 172.852L100.1 200.283V197.413L51.2279 169.981L51.1216 172.852Z" fill="white"/>
<path d="M65.1484 187.311L78.1102 194.541V191.67L65.1484 184.44V187.311Z" fill="white"/>
<path d="M80.2344 195.817L99.9961 206.875L100.102 203.897L80.2344 192.946V195.817Z" fill="white"/>
<path d="M51.1216 185.93L73.6456 198.688L73.7518 195.711L51.1216 183.059V185.93Z" fill="white"/>
<path d="M77.7876 201.027L99.9927 213.36V210.49L77.7876 198.05V201.027Z" fill="white"/>
<path d="M33.3819 76.3114L23.5015 68.0183L23.6076 66.5298L33.7006 69.2942L33.5944 71.1016L26.5824 68.9752L33.4882 74.6102L33.3819 76.3114Z" fill="white"/>
<path d="M34.3345 78.0137L38.3717 70.4648L40.4965 71.6344L36.4594 79.1833L34.3345 78.0137Z" fill="white"/>
<path d="M41.0342 80.4571L41.1405 78.6496L48.1525 80.7761L41.2467 75.141L41.3529 73.3335L51.2336 81.6267L51.1272 83.1152L41.0342 80.4571Z" fill="white"/>
<path d="M147.7 257.165L137.819 248.872L137.925 247.383L148.019 250.148L147.912 251.955L140.9 249.829L147.806 255.464L147.7 257.165Z" fill="white"/>
<path d="M148.549 258.972L152.586 251.423L154.711 252.592L150.674 260.141L148.549 258.972Z" fill="white"/>
<path d="M155.249 261.418L155.355 259.61L162.367 261.737L155.462 256.101L155.568 254.294L165.448 262.587L165.342 264.076L155.249 261.418Z" fill="white"/>
<path d="M328.412 137.447L245.436 91.8347C243.948 90.9841 240.23 92.0473 240.23 95.4496L242.886 159.349C242.886 160.2 243.311 160.944 244.055 161.369L325.756 209.002C327.244 209.852 330.325 208.47 330.325 204.855L329.687 139.467C329.475 138.616 329.05 137.766 328.412 137.447Z" fill="#27449C"/>
<path d="M327.031 138.723L243.417 92.7922C241.929 91.9416 240.229 93.2175 240.229 94.9187L240.867 160.838C240.867 161.689 241.292 162.433 242.036 162.859L325.65 208.79C327.137 209.64 328.837 208.365 328.837 206.663L328.2 140.85C328.093 139.787 327.668 139.042 327.031 138.723Z" fill="url(#paint3_linear)"/>
<path d="M259.138 134.363L261.475 133.087V138.935L259.138 140.211V134.363Z" fill="#B7BAC7"/>
<path d="M291.966 134.47L294.304 133.194V139.042L291.966 140.212V134.47Z" fill="#B7BAC7"/>
<path d="M291.966 175.404L294.304 174.128V179.976L291.966 181.146V175.404Z" fill="#B7BAC7"/>
<path d="M261.479 138.936V133.088C262.648 133.726 263.604 134.151 264.135 134.258C264.773 134.364 265.304 134.151 265.729 133.726C266.154 133.301 266.472 132.663 266.579 131.706C266.685 130.962 266.791 129.686 266.791 127.772C266.791 124.582 266.898 122.562 267.216 121.499C267.535 120.436 268.066 119.798 268.81 119.479C269.554 119.16 270.722 119.266 272.103 119.798C273.06 120.117 274.653 120.967 276.778 122.243L278.053 123.094V128.941C276.247 127.772 275.078 127.24 274.547 127.028C274.016 126.921 273.697 127.028 273.378 127.24C273.166 127.453 273.059 128.091 273.059 129.154C273.059 130.217 272.953 132.025 272.847 134.789C272.741 136.384 272.528 137.554 272.21 138.298C271.891 139.042 271.466 139.68 270.935 139.999C270.403 140.318 269.554 140.531 268.491 140.531C269.447 141.7 270.191 142.763 270.828 143.933C271.466 145.102 271.891 146.272 272.21 147.548C272.528 148.824 272.741 150.312 272.847 152.226C272.953 154.99 273.059 156.692 273.059 157.542C273.059 158.605 273.166 159.456 273.485 159.988C273.697 160.625 274.122 161.157 274.653 161.689C275.184 162.22 276.353 163.071 278.053 164.134V169.982L276.778 169.025C274.547 167.643 272.953 166.473 271.785 165.304C270.616 164.24 269.66 163.071 268.81 161.689C267.96 160.413 267.429 159.031 267.216 157.648C266.898 156.266 266.791 154.352 266.791 151.801C266.791 148.824 266.685 146.804 266.366 145.74C266.048 144.252 265.516 142.976 264.773 141.913C264.029 140.956 262.966 139.999 261.479 138.936Z" fill="#B7BAC7"/>
<path d="M310.887 169.875C309.718 169.237 308.762 168.812 308.231 168.705C307.593 168.599 307.062 168.812 306.637 169.237C306.212 169.662 305.893 170.3 305.681 171.257C305.575 172.001 305.468 173.277 305.468 175.191C305.468 178.381 305.362 180.401 305.043 181.57C304.725 182.634 304.193 183.271 303.45 183.59C302.706 183.909 301.537 183.803 300.05 183.272C299.094 182.953 297.5 182.102 295.375 180.826L294.1 179.976V174.128C295.8 175.191 296.969 175.829 297.5 175.935C298.031 176.042 298.456 175.935 298.669 175.723C298.881 175.51 299.094 174.872 299.094 173.809C299.094 172.852 299.2 170.938 299.306 168.28C299.412 166.685 299.625 165.409 299.943 164.665C300.262 163.921 300.793 163.283 301.325 162.964C301.962 162.645 302.706 162.432 303.556 162.539C302.387 161.05 301.431 159.668 300.9 158.605C300.156 157.01 299.625 155.415 299.306 153.501C299.094 152.225 298.987 149.674 298.881 145.74C298.881 144.464 298.775 143.613 298.562 143.082C298.35 142.55 298.031 142.018 297.5 141.487C296.969 140.955 295.8 140.105 293.994 138.935V133.087L295.269 133.938C297.5 135.32 299.094 136.49 300.262 137.553C301.431 138.616 302.387 139.786 303.237 141.168C303.981 142.444 304.618 143.826 304.831 145.208C305.15 146.59 305.256 148.504 305.256 151.056C305.256 154.033 305.362 156.053 305.575 157.116C305.893 158.605 306.425 159.881 307.168 160.944C307.912 162.007 308.975 162.964 310.462 164.027V169.875H310.887Z" fill="#B7BAC7"/>
<path d="M259.138 140.213V134.365C260.306 135.003 261.263 135.428 261.794 135.534C262.431 135.641 262.856 135.428 263.387 135.003C263.812 134.577 264.131 133.94 264.237 132.983C264.344 132.238 264.45 130.963 264.45 129.049C264.45 125.859 264.556 123.839 264.875 122.776C265.194 121.712 265.725 121.075 266.468 120.756C267.212 120.437 268.381 120.543 269.762 121.075C270.718 121.394 272.312 122.244 274.436 123.52L275.711 124.371V130.218C273.905 129.049 272.737 128.517 272.206 128.411C271.674 128.304 271.356 128.411 271.037 128.623C270.824 128.836 270.718 129.474 270.718 130.537C270.718 131.6 270.612 133.408 270.506 136.172C270.399 137.767 270.187 138.937 269.868 139.681C269.549 140.425 269.124 141.063 268.593 141.382C268.062 141.701 267.212 141.914 266.15 141.914C267.106 143.083 267.85 144.146 268.487 145.316C269.124 146.486 269.549 147.655 269.868 148.825C270.187 150.101 270.399 151.589 270.506 153.503C270.612 156.267 270.718 158.075 270.718 158.819C270.718 159.882 270.824 160.733 271.143 161.264C271.356 161.902 271.78 162.434 272.312 162.966C272.843 163.497 274.011 164.348 275.711 165.411V171.259L274.436 170.408C272.205 169.026 270.612 167.856 269.443 166.687C268.274 165.624 267.318 164.454 266.468 163.072C265.618 161.796 265.087 160.414 264.875 159.032C264.556 157.649 264.45 155.736 264.45 153.184C264.45 150.207 264.344 148.187 264.025 147.123C263.706 145.635 263.175 144.359 262.431 143.296C261.794 142.233 260.625 141.169 259.138 140.213Z" fill="white"/>
<path d="M308.649 171.152C307.481 170.514 306.525 170.089 305.993 169.982C305.356 169.876 304.931 170.089 304.4 170.514C303.975 170.939 303.656 171.577 303.443 172.534C303.337 173.278 303.231 174.554 303.231 176.468C303.231 179.658 303.125 181.678 302.806 182.847C302.487 183.911 301.956 184.548 301.212 184.867C300.469 185.186 299.3 185.08 297.812 184.548C296.856 184.229 295.262 183.379 293.137 182.103L291.863 181.252V175.405C293.562 176.468 294.731 177.106 295.262 177.212C295.794 177.319 296.219 177.212 296.431 177C296.644 176.787 296.856 176.149 296.856 175.192C296.856 174.235 296.962 172.321 297.069 169.663C297.175 168.069 297.387 166.793 297.706 166.048C298.025 165.304 298.556 164.666 299.087 164.347C299.725 164.028 300.468 163.816 301.318 163.922C300.15 162.433 299.194 161.051 298.662 159.988C297.919 158.393 297.387 156.798 297.069 154.885C296.856 153.609 296.75 151.057 296.644 147.123C296.644 145.847 296.537 144.997 296.325 144.465C296.112 143.933 295.794 143.402 295.262 142.87C294.731 142.339 293.563 141.488 291.756 140.318V134.471L293.031 135.321C295.262 136.703 296.856 137.873 298.025 138.936C299.194 139.999 300.15 141.169 301 142.551C301.743 143.827 302.381 145.209 302.593 146.591C302.912 147.974 303.018 149.887 303.018 152.439C303.018 155.416 303.125 157.436 303.337 158.5C303.656 159.988 304.187 161.264 304.931 162.327C305.675 163.39 306.737 164.347 308.225 165.41V171.152H308.649Z" fill="white"/>
<path d="M275.821 124.263L278.052 122.987V128.835L275.821 130.111V124.263Z" fill="#CACDDB"/>
<path d="M275.821 165.196L278.052 164.027V169.768L275.821 171.044V165.196Z" fill="#CACDDB"/>
<path d="M308.649 165.303L310.88 164.027V169.875L308.649 171.15V165.303Z" fill="#CACDDB"/>
<path d="M356.889 281.196L260.313 227.61C258.401 226.546 253.301 227.61 253.301 231.969L255.957 312.88C255.957 313.943 256.488 314.9 257.444 315.432L352.215 371.464C354.127 372.527 358.377 371.038 358.377 366.466V283.748C358.377 282.685 357.846 281.728 356.889 281.196Z" fill="#C20B1B"/>
<path d="M354.977 282.685L257.551 228.673C255.638 227.61 253.195 228.992 253.195 231.225V314.582C253.195 315.645 253.726 316.602 254.682 317.133L352.108 371.145C354.021 372.208 356.464 370.826 356.464 368.593V285.237C356.464 284.28 355.933 283.217 354.977 282.685Z" fill="url(#paint4_linear)"/>
<path d="M263.82 246.534L270.407 250.043V249.192L263.82 245.577V246.534Z" fill="white"/>
<path d="M271.581 250.786L277.318 253.869V252.912L271.581 249.829V250.786Z" fill="white"/>
<path d="M263.819 248.661L267.432 250.574V249.617L263.819 247.704V248.661Z" fill="white"/>
<path d="M272.43 253.338L277.318 255.996V255.039L272.43 252.381V253.338Z" fill="white"/>
<path d="M267.864 250.892L271.689 252.913V251.956L267.864 249.936V250.892Z" fill="white"/>
<path d="M263.819 250.786L277.312 258.228V257.272L263.819 249.829V250.786Z" fill="white"/>
<path d="M263.819 253.02L268.176 255.359V254.403L263.819 252.063V253.02Z" fill="white"/>
<path d="M269.878 256.315L277.315 260.355V259.398L269.878 255.358V256.315Z" fill="white"/>
<path d="M263.819 255.147L277.312 262.483V261.526L263.819 254.19V255.147Z" fill="white"/>
<path d="M263.819 257.273L266.901 258.974V258.017L263.819 256.316V257.273Z" fill="white"/>
<path d="M267.864 259.505L271.689 261.525V260.568L267.864 258.548V259.505Z" fill="white"/>
<path d="M272.325 261.951L277.318 264.609V263.652L272.325 260.994V261.951Z" fill="white"/>
<path d="M263.819 259.399L270.407 263.014V262.057L263.819 258.442V259.399Z" fill="white"/>
<path d="M271.581 263.653L277.318 266.843V265.886L271.581 262.696V263.653Z" fill="white"/>
<path d="M312.796 298.953L308.653 301.611L307.271 299.484C306.315 299.165 305.253 298.74 304.19 298.209C297.816 294.487 292.716 285.981 292.716 279.177C292.716 278.539 292.822 278.007 292.822 277.476L291.335 275.243L295.16 272.904C295.478 272.691 295.797 272.478 296.222 272.266C298.347 271.309 301.109 271.628 304.297 273.435C310.671 277.157 315.771 285.662 315.771 292.467C315.771 295.55 314.602 297.89 312.796 298.953Z" fill="#B7BAC7"/>
<path d="M288.468 313.731C288.468 311.285 288.999 309.053 289.956 307.245L289.424 305.757C289.424 305.757 293.356 303.311 293.462 303.205L293.993 302.886C296.755 301.397 300.261 301.504 304.086 303.737C312.692 308.627 319.598 322.343 319.492 331.593L315.029 334.357L305.042 325.107L307.061 324.469L288.468 313.731Z" fill="#B7BAC7"/>
<path d="M299.84 276.094C306.215 279.816 311.315 288.321 311.315 295.126C311.208 302.037 306.002 304.589 299.628 300.867C293.253 297.146 288.154 288.64 288.154 281.836C288.26 275.031 293.466 272.479 299.84 276.094Z" fill="white"/>
<path d="M299.624 306.609C308.23 311.499 315.136 325.215 315.03 334.465L284.006 316.603C284.113 307.353 291.018 301.611 299.624 306.609Z" fill="white"/>
<defs>
<linearGradient id="paint0_linear" x1="323.482" y1="370.414" x2="391.053" y2="474.88" gradientUnits="userSpaceOnUse">
<stop stop-color="#DADDE4"/>
<stop offset="1" stop-color="#DADDE4" stop-opacity="0"/>
</linearGradient>
<linearGradient id="paint1_linear" x1="106.013" y1="192.638" x2="396.387" y2="192.638" gradientUnits="userSpaceOnUse">
<stop stop-color="#FFCC38"/>
<stop offset="1" stop-color="#FF9500"/>
</linearGradient>
<linearGradient id="paint2_linear" x1="-3.37813" y1="153.526" x2="196.796" y2="128.963" gradientUnits="userSpaceOnUse">
<stop offset="8e-08" stop-color="#00A3FF"/>
<stop offset="1" stop-color="#1270E8"/>
</linearGradient>
<linearGradient id="paint3_linear" x1="328.205" y1="149.019" x2="240.705" y2="149.849" gradientUnits="userSpaceOnUse">
<stop offset="8e-08" stop-color="#00A3FF"/>
<stop offset="1" stop-color="#1270E8"/>
</linearGradient>
<linearGradient id="paint4_linear" x1="253.203" y1="299.967" x2="356.486" y2="299.967" gradientUnits="userSpaceOnUse">
<stop offset="8e-08" stop-color="#FF3D49"/>
<stop offset="1" stop-color="#D80B1E"/>
</linearGradient>
</defs>
</svg>
